<svg width="20" height="22" viewBox="0 0 20 22" fill="none" xmlns="http://www.w3.org/2000/svg">
<path d="M8.69707 13.3023V15.3488C6.96712 15.3488 5.30802 15.9957 4.08475 17.1471C2.86149 18.2985 2.17427 19.8601 2.17427 21.4884H0C0 19.3173 0.916296 17.2351 2.54731 15.7C4.17833 14.1648 6.39046 13.3023 8.69707 13.3023ZM8.69707 12.2791C5.09322 12.2791 2.17427 9.53163 2.17427 6.13953C2.17427 2.74744 5.09322 0 8.69707 0C12.3009 0 15.2199 2.74744 15.2199 6.13953C15.2199 9.53163 12.3009 12.2791 8.69707 12.2791ZM8.69707 10.2326C11.0996 10.2326 13.0456 8.40093 13.0456 6.13953C13.0456 3.87814 11.0996 2.04651 8.69707 2.04651C6.2945 2.04651 4.34854 3.87814 4.34854 6.13953C4.34854 8.40093 6.2945 10.2326 8.69707 10.2326ZM11.5182 18.2262C11.3803 17.6803 11.3803 17.1115 11.5182 16.5655L10.4397 15.9792L11.5269 14.2069L12.6053 14.7932C13.0382 14.4073 13.5614 14.1227 14.1327 13.9623V12.7907H16.307V13.9623C16.8854 14.124 17.4072 14.4126 17.8344 14.7932L18.9129 14.2069L20 15.9792L18.9216 16.5655C19.0592 17.1111 19.0592 17.6796 18.9216 18.2252L20 18.8115L18.9129 20.5838L17.8344 19.9975C17.4016 20.3834 16.8783 20.668 16.307 20.8284V22H14.1327V20.8284C13.5614 20.668 13.0382 20.3834 12.6053 19.9975L11.5269 20.5838L10.4397 18.8115L11.5182 18.2262ZM15.2199 18.9302C15.6524 18.9302 16.0671 18.7685 16.373 18.4807C16.6788 18.1928 16.8506 17.8024 16.8506 17.3953C16.8506 16.9883 16.6788 16.5979 16.373 16.31C16.0671 16.0222 15.6524 15.8605 15.2199 15.8605C14.7874 15.8605 14.3726 16.0222 14.0668 16.31C13.761 16.5979 13.5892 16.9883 13.5892 17.3953C13.5892 17.8024 13.761 18.1928 14.0668 18.4807C14.3726 18.7685 14.7874 18.9302 15.2199 18.9302Z" fill="#18181B"/>
</svg>
