<svg width="51" height="56" viewBox="0 0 51 56" fill="none" xmlns="http://www.w3.org/2000/svg">
<path d="M18.78 32.6524V32.7429C18.7551 34.6577 17.1451 36.0975 13.95 37.0624C17.8 39.8623 21.6501 42.1024 25.5 42.1024C29.35 42.1024 33.2001 39.8623 37.05 37.0624C33.8767 36.0964 32.2667 34.6544 32.22 32.7364C32.22 32.3945 32.2226 31.909 32.2249 30.9974C32.2249 30.8526 32.2252 30.7043 32.2259 30.5526C32.4554 30.5849 32.4359 30.5643 32.2259 30.506C32.2322 28.108 32.2425 24.8834 32.2568 21.6064C35.2665 17.7052 34.1609 13.1316 33.2177 13.2457C32.0617 13.3866 22.0441 3.88028 20.1226 3.39287C18.2011 2.90546 13.32 4.47899 12.48 8.86274C11.64 13.2465 11.2889 24.2963 14.475 28.7077C15.3817 29.9631 16.8097 30.4542 18.759 30.1809C18.7618 31.0984 18.7672 31.6133 18.78 32.6524Z" fill="url(#paint0_linear_3007_411)"/>
<path d="M18.78 30.178C23.4 29.653 26.34 27.658 26.34 27.658C26.34 27.658 23.1606 31.8825 18.78 32.698V30.178Z" fill="#FFBE94"/>
<path d="M33.7951 21.6726C35.242 18.1929 41.0401 11.106 36.0421 6.69602C34.3621 -1.49398 25.0801 -0.587408 18.8851 1.30259C14.7214 2.57288 11.5771 5.08259 10.9051 3.19259C6.70505 6.69602 8.80842 10.1226 11.5771 11.106C14.0899 11.9985 18.3391 12.891 25.5643 12.051C26.855 11.9009 26.5847 15.8537 27.2744 16.2811C28.309 16.9222 29.1121 12.891 31.9487 14.1015C34.7854 15.3119 33.1021 20.9244 30.0571 20.9244C29.0071 20.9244 28.4821 23.8112 31.3171 25.1762C33.3751 26.1876 32.8549 23.9337 33.7951 21.6726Z" fill="url(#paint1_linear_3007_411)"/>
<path d="M47.5499 43.4724C49.5491 47.5373 50.6999 56.9124 50.6999 56.9124H0.299927C0.299927 56.9124 1.45115 47.5363 3.44993 43.4724C5.44871 39.4085 17.1209 35.6392 17.1209 35.6392C19.3707 40.2577 31.7176 40.2577 33.8728 35.6377C33.8728 35.6377 45.5507 39.4074 47.5499 43.4724Z" fill="url(#paint2_linear_3007_411)"/>
<mask id="mask0_3007_411" style="mask-type:alpha" maskUnits="userSpaceOnUse" x="0" y="35" width="51" height="22">
<path d="M47.5499 43.4726C49.5491 47.5376 50.6999 56.9126 50.6999 56.9126H0.299927C0.299927 56.9126 1.45115 47.5365 3.44993 43.4726C5.44871 39.4087 17.1209 35.6394 17.1209 35.6394C19.3707 40.2579 31.7176 40.2579 33.8728 35.6379C33.8728 35.6379 45.5507 39.4076 47.5499 43.4726Z" fill="url(#paint3_linear_3007_411)"/>
</mask>
<g mask="url(#mask0_3007_411)">
<path d="M-1.80005 52.6479V50.9679H52.8V52.6479H-1.80005ZM-1.80005 48.4479V46.7679H52.8V48.4479H-1.80005ZM-1.80005 44.2479V42.5679H52.8V44.2479H-1.80005Z" fill="url(#paint4_linear_3007_411)"/>
</g>
<defs>
<linearGradient id="paint0_linear_3007_411" x1="24.4756" y1="3.30762" x2="24.4756" y2="42.1024" gradientUnits="userSpaceOnUse">
<stop stop-color="#FFD4B3"/>
<stop offset="1" stop-color="#FFDCC2"/>
</linearGradient>
<linearGradient id="paint1_linear_3007_411" x1="23.2825" y1="25.4249" x2="23.2825" y2="0.019043" gradientUnits="userSpaceOnUse">
<stop stop-color="#E6864E"/>
<stop offset="1" stop-color="#E67240"/>
</linearGradient>
<linearGradient id="paint2_linear_3007_411" x1="25.4999" y1="56.9124" x2="25.4999" y2="35.6377" gradientUnits="userSpaceOnUse">
<stop stop-color="#E6864E"/>
<stop offset="1" stop-color="#E67240"/>
</linearGradient>
<linearGradient id="paint3_linear_3007_411" x1="25.4999" y1="56.9126" x2="25.4999" y2="35.6379" gradientUnits="userSpaceOnUse">
<stop stop-color="#E6864E"/>
<stop offset="1" stop-color="#E67240"/>
</linearGradient>
<linearGradient id="paint4_linear_3007_411" x1="25.5" y1="42.5679" x2="25.5" y2="52.6479" gradientUnits="userSpaceOnUse">
<stop stop-color="#F7B186"/>
<stop offset="1" stop-color="#FFC299"/>
</linearGradient>
</defs>
</svg>
