<svg width="15" height="15" viewBox="0 0 15 15" fill="none" xmlns="http://www.w3.org/2000/svg">
<path d="M1.4947 2.17376L5.40514 13.4706C5.44197 13.577 5.51148 13.669 5.60374 13.7335C5.69601 13.798 5.8063 13.8317 5.91885 13.8297C6.03141 13.8278 6.14047 13.7903 6.23043 13.7226C6.3204 13.655 6.38667 13.5606 6.41978 13.453L7.99154 8.34477C8.01714 8.26155 8.06272 8.18586 8.12428 8.1243C8.18585 8.06273 8.26154 8.01716 8.34475 7.99156L13.453 6.4198C13.5606 6.38669 13.6549 6.32042 13.7226 6.23045C13.7903 6.14048 13.8278 6.03143 13.8297 5.91887C13.8317 5.80632 13.798 5.69603 13.7335 5.60376C13.669 5.5115 13.577 5.44199 13.4706 5.40516L2.17375 1.49471C2.07908 1.46195 1.97711 1.45648 1.87948 1.47893C1.78185 1.50139 1.69251 1.55086 1.62168 1.62169C1.55084 1.69253 1.50137 1.78187 1.47892 1.8795C1.45646 1.97712 1.46193 2.0791 1.4947 2.17376V2.17376Z" stroke="#016F13" stroke-width="1.60141" stroke-linecap="round" stroke-linejoin="round"/>
</svg>
