<svg width="82" height="82" viewBox="0 0 82 82" fill="none" xmlns="http://www.w3.org/2000/svg">
<g filter="url(#filter0_d_2369_9067)">
<rect x="16" y="16" width="50" height="50" rx="25" fill="#FEFEFE" shape-rendering="crispEdges"/>
<path d="M41 34.5L40.46 35.02L40.47 35.031L41 34.5ZM42.47 37.03C42.5387 37.1037 42.6215 37.1628 42.7135 37.2038C42.8055 37.2448 42.9048 37.2668 43.0055 37.2686C43.1062 37.2704 43.2062 37.2518 43.2996 37.2141C43.393 37.1764 43.4778 37.1202 43.549 37.049C43.6203 36.9778 43.6764 36.893 43.7141 36.7996C43.7518 36.7062 43.7704 36.6062 43.7686 36.5055C43.7668 36.4048 43.7448 36.3054 43.7038 36.2134C43.6628 36.1214 43.6037 36.0386 43.53 35.97L42.47 37.03ZM38.426 47.322C36.91 46.127 35.253 44.96 33.938 43.48C32.65 42.028 31.75 40.335 31.75 38.137H30.25C30.25 40.803 31.36 42.837 32.817 44.476C34.247 46.086 36.071 47.376 37.497 48.5L38.426 47.322ZM31.75 38.137C31.75 35.987 32.965 34.183 34.624 33.424C36.236 32.687 38.402 32.882 40.46 35.02L41.54 33.981C39.1 31.444 36.264 31.025 34 32.06C31.786 33.073 30.25 35.425 30.25 38.137H31.75ZM37.497 48.5C38.01 48.904 38.56 49.334 39.117 49.66C39.674 49.986 40.31 50.25 41 50.25V48.75C40.69 48.75 40.326 48.63 39.874 48.365C39.421 48.101 38.952 47.737 38.426 47.322L37.497 48.5ZM44.503 48.5C45.929 47.375 47.753 46.087 49.183 44.476C50.64 42.836 51.75 40.803 51.75 38.137H50.25C50.25 40.335 49.35 42.028 48.062 43.48C46.747 44.96 45.09 46.127 43.574 47.322L44.503 48.5ZM51.75 38.137C51.75 35.425 50.215 33.073 48 32.06C45.736 31.025 42.902 31.444 40.46 33.98L41.54 35.02C43.598 32.883 45.764 32.687 47.376 33.424C49.035 34.183 50.25 35.986 50.25 38.137H51.75ZM43.574 47.322C43.048 47.737 42.579 48.101 42.126 48.365C41.673 48.629 41.31 48.75 41 48.75V50.25C41.69 50.25 42.326 49.985 42.883 49.66C43.441 49.334 43.99 48.904 44.503 48.5L43.574 47.322ZM40.47 35.031L42.47 37.03L43.53 35.97L41.53 33.97L40.47 35.031Z" fill="black"/>
</g>
<defs>
<filter id="filter0_d_2369_9067" x="0" y="0" width="82" height="82" filterUnits="userSpaceOnUse" color-interpolation-filters="sRGB">
<feFlood flood-opacity="0" result="BackgroundImageFix"/>
<feColorMatrix in="SourceAlpha" type="matrix" values="0 0 0 0 0 0 0 0 0 0 0 0 0 0 0 0 0 0 127 0" result="hardAlpha"/>
<feOffset/>
<feGaussianBlur stdDeviation="8"/>
<feComposite in2="hardAlpha" operator="out"/>
<feColorMatrix type="matrix" values="0 0 0 0 0 0 0 0 0 0 0 0 0 0 0 0 0 0 0.08 0"/>
<feBlend mode="normal" in2="BackgroundImageFix" result="effect1_dropShadow_2369_9067"/>
<feBlend mode="normal" in="SourceGraphic" in2="effect1_dropShadow_2369_9067" result="shape"/>
</filter>
</defs>
</svg>
