<svg width="25" height="26" viewBox="0 0 25 26" fill="none" xmlns="http://www.w3.org/2000/svg">
<g clip-path="url(#clip0_236_486)">
<path d="M0 0.5H25V25.5H0V0.5Z" fill="#FFC10E"/>
<path d="M12.4998 5.85715C16.4373 5.85715 19.6426 9.0625 19.6426 13C19.6426 16.9375 16.4373 20.1429 12.4998 20.1429C8.56229 20.1429 5.35693 16.9375 5.35693 13C5.35693 9.0625 8.56229 5.85715 12.4998 5.85715Z" fill="#F0F3FA"/>
<path d="M8.58936 18.9911C7.71165 18.4014 6.96662 17.635 6.40186 16.7411C6.42418 16.7411 8.20096 17.3795 12.0536 13.8929L11.2501 12.9732C11.2054 12.9464 11.1608 12.8482 11.1608 12.75C11.1608 12.6607 11.2099 12.5536 11.3661 12.5536H15.3706C15.3706 12.5536 15.6027 12.5536 15.6251 12.7589C15.4554 14.3527 15.3304 15.5804 15.1786 16.817C15.1786 16.817 15.1117 17.0179 14.9644 17.0179C14.9081 17.0151 14.8545 16.993 14.8126 16.9554C14.5313 16.7321 14.2858 16.125 14.2858 16.125C14.2858 16.125 11.2367 18.8214 8.58936 18.9911ZM16.5179 7.09375C17.4115 7.69434 18.154 8.49343 18.6876 9.42857C18.5447 10.8616 17.0224 12.7589 16.884 12.9554C16.8572 13 16.8215 13 16.7724 13C16.5179 13 16.5179 12.7768 16.5179 12.5625V11.6607L15.4822 11.6518C15.4822 11.6518 15.3483 11.6652 15.1965 11.6607C15.0447 11.6607 14.884 11.6339 14.8126 11.567C14.7874 11.5445 14.7673 11.517 14.7534 11.4862C14.7396 11.4554 14.7324 11.4221 14.7322 11.3884C14.7322 11.2634 14.8394 11.1741 14.8394 11.1741C16.3751 9.17857 16.5269 7.91964 16.5179 7.40625V7.09375Z" fill="#076D93"/>
</g>
<defs>
<clipPath id="clip0_236_486">
<rect y="0.5" width="25" height="25" rx="12.5" fill="white"/>
</clipPath>
</defs>
</svg>
