<svg width="47" height="46" viewBox="0 0 47 46" fill="none" xmlns="http://www.w3.org/2000/svg">
<rect x="0.5" width="46" height="46" rx="23" fill="#C8F3CF"/>
<path d="M26.0752 28.2243L13.25 28.2243" stroke="#2A7737" stroke-width="2.85004" stroke-linecap="round" stroke-linejoin="round"/>
<path d="M34.1512 28.2243L30.8262 28.2243" stroke="#2A7737" stroke-width="2.85004" stroke-linecap="round" stroke-linejoin="round"/>
<path d="M28.4512 30.5993C29.7629 30.5993 30.8262 29.536 30.8262 28.2243C30.8262 26.9126 29.7629 25.8493 28.4512 25.8493C27.1395 25.8493 26.0762 26.9126 26.0762 28.2243C26.0762 29.536 27.1395 30.5993 28.4512 30.5993Z" fill="#2A7737" stroke="#2A7737" stroke-width="2.85004" stroke-linecap="round" stroke-linejoin="round"/>
<path d="M18.4751 17.7742L13.25 17.7741" stroke="#2A7737" stroke-width="2.85004" stroke-linecap="round" stroke-linejoin="round"/>
<path d="M34.1497 17.7741L23.2246 17.7742" stroke="#2A7737" stroke-width="2.85004" stroke-linecap="round" stroke-linejoin="round"/>
<path d="M20.8496 20.1492C22.1613 20.1492 23.2247 19.0859 23.2247 17.7742C23.2247 16.4625 22.1613 15.3991 20.8496 15.3991C19.5379 15.3991 18.4746 16.4625 18.4746 17.7742C18.4746 19.0859 19.5379 20.1492 20.8496 20.1492Z" fill="#2A7737" stroke="#2A7737" stroke-width="2.85004" stroke-linecap="round" stroke-linejoin="round"/>
</svg>
