<svg width="101" height="91" viewBox="0 0 101 91" fill="none" xmlns="http://www.w3.org/2000/svg">
<path d="M80.6601 10.9412C80.6601 10.9412 71.1856 2.61026 58.3553 5.67869C45.5249 8.74713 39.809 19.4988 32.2452 26.7549C28.2862 30.5561 22.5987 31.8029 17.9556 34.6689C3.11537 43.8378 4.46742 65.7115 15.3425 74.344C24.7563 81.8147 36.8155 83.0008 52.7365 78.3232C68.6576 73.6457 80.0286 70.9052 90.3329 56.2147C100.637 41.5243 92.2942 22.211 80.6601 10.9412Z" fill="#92E3A9"/>
<path opacity="0.8" d="M80.6601 10.9412C80.6601 10.9412 71.1856 2.61026 58.3553 5.67869C45.5249 8.74713 39.809 19.4988 32.2452 26.7549C28.2862 30.5561 22.5987 31.8029 17.9556 34.6689C3.11537 43.8378 4.46742 65.7115 15.3425 74.344C24.7563 81.8147 36.8155 83.0008 52.7365 78.3232C68.6576 73.6457 80.0286 70.9052 90.3329 56.2147C100.637 41.5243 92.2942 22.211 80.6601 10.9412Z" fill="white"/>
<path d="M79.2026 25.5702C79.2026 25.5702 78.2424 27.9937 78.2424 28.8828C78.2424 29.7718 72.9616 27.9134 72.9616 27.9134C72.9616 27.9134 74.7227 27.3483 75.0436 26.0549C75.3645 24.7615 75.2028 24.9222 76.4017 24.3571C77.6006 23.7921 79.2026 25.5702 79.2026 25.5702Z" fill="white" stroke="#263238" stroke-width="0.2592" stroke-linecap="round" stroke-linejoin="round"/>
<path d="M71.7627 19.4297C71.7627 19.4297 70.7204 21.2079 70.8025 22.0217C70.8847 22.8356 71.2005 22.1021 70.8821 22.8304C70.5638 23.5588 69.5985 24.6086 69.8424 24.8496C70.1127 25.0713 70.4073 25.2609 70.7204 25.4147C70.7204 25.4147 70.6408 27.6775 70.9617 28.0067C71.2826 28.3359 73.6034 28.087 74.7227 27.522C75.842 26.9569 76.0063 25.5028 76.0063 25.5028C76.0063 25.5028 76.6456 25.4199 77.4466 24.6137C78.2475 23.8076 78.8868 20.8968 77.9266 19.7667C76.9665 18.6366 75.0436 18.1363 73.914 18.2063C72.7845 18.2763 71.7627 19.4297 71.7627 19.4297Z" fill="white" stroke="#263238" stroke-width="0.2592" stroke-linecap="round" stroke-linejoin="round"/>
<path d="M71.9527 23.0249C71.9527 23.3203 71.8551 23.5614 71.7319 23.5614C71.6087 23.5614 71.5111 23.3203 71.5111 23.0249C71.5111 22.7294 71.6087 22.4857 71.7319 22.4857C71.8551 22.4857 71.9527 22.7268 71.9527 23.0249Z" fill="#263238"/>
<path d="M71.3314 22.3069C71.6492 22.0197 72.0602 21.8602 72.4867 21.8584" stroke="#263238" stroke-width="0.2592" stroke-linecap="round" stroke-linejoin="round"/>
<path d="M72.9616 16.9259C72.9616 16.9259 72.6407 15.2281 71.7627 15.7932C70.8847 16.3582 69.6807 17.732 70.4021 19.1057C71.1235 20.4795 73.683 19.7615 73.683 19.7615C73.683 19.7615 73.0412 20.972 73.6034 21.2156C74.1656 21.4593 74.6303 21.6174 74.6303 21.6174C74.6303 21.6174 73.9089 22.6697 75.0308 22.6697C76.1527 22.6697 75.67 21.861 76.3889 21.6174C77.1077 21.3737 77.9908 22.8305 77.5903 23.7999C77.1898 24.7693 76.7098 25.0129 76.7098 25.0129C77.1536 25.4682 77.7049 25.8018 78.3117 25.9823C79.3515 26.3037 79.6698 25.6583 80.5504 24.0435C81.4309 22.4287 81.9906 19.5179 81.5105 17.9834C81.0304 16.4489 78.4709 16.6874 77.8316 16.6874C77.3742 16.6983 76.9186 16.7521 76.471 16.8481C76.471 16.8481 76.7098 15.6376 75.67 15.6376C74.6303 15.6376 72.9616 16.9259 72.9616 16.9259Z" fill="#263238" stroke="#263238" stroke-width="0.2592" stroke-linecap="round" stroke-linejoin="round"/>
<path d="M58.8777 33.7298C58.8777 33.7298 58.0793 32.2757 57.5171 32.032C56.9549 31.7884 56.159 32.68 56.159 32.68C56.159 32.68 55.1168 32.4364 54.9576 32.7604L54.5571 33.5691C54.5571 33.5691 54.3979 33.4058 54.3183 34.1342C54.2824 34.4556 54.0436 35.0025 54.1617 35.3187C54.2927 35.6764 54.706 35.7282 55.0295 35.8941C55.9511 36.3711 56.7161 37.4856 57.6737 37.7681C58.6313 38.0507 59.5144 37.426 60.1588 36.7987C62.3204 34.6992 59.6787 33.6494 58.8777 33.7298Z" fill="white" stroke="#263238" stroke-width="0.2592" stroke-linecap="round" stroke-linejoin="round"/>
<path d="M58.4773 33.7298C57.5431 34.1244 56.6834 34.6785 55.9357 35.368" stroke="#263238" stroke-width="0.2592" stroke-linecap="round" stroke-linejoin="round"/>
<path d="M86.4062 34.9403C86.4062 34.9403 90.1672 30.9071 91.3713 28.9631C92.5753 27.0191 93.7716 24.1964 93.7716 23.227C93.7716 22.2576 94.0925 21.2882 94.6522 20.8035C95.2118 20.3188 96.4929 18.7947 96.4929 19.5904C96.4929 20.0751 96.4133 20.0751 96.172 20.3991C95.9307 20.7231 95.2118 21.9336 95.2118 21.9336C95.2118 21.9336 97.8535 19.7537 98.0923 19.6008C98.331 19.4479 98.9728 18.9554 99.1346 19.1965C99.2963 19.4375 98.8137 20.1659 98.8137 20.1659L97.7739 21.2986C97.7739 21.2986 99.5325 20.5702 99.8534 20.5702C100.174 20.5702 100.174 20.9746 99.933 21.2182C99.6917 21.4619 98.0127 22.592 98.0127 22.592L99.3733 22.1876C99.3733 22.1876 99.3733 22.268 99.5325 22.509C99.6917 22.7501 98.8933 23.8828 98.5723 24.1264C98.2514 24.3701 95.4532 26.3063 95.4532 26.3063C95.4532 26.3063 92.9732 30.9123 92.4931 32.8511C92.0131 34.7899 90.732 37.1331 90.3315 37.9418C89.931 38.7505 89.1301 39.2378 88.4908 39.4763C87.8516 39.7147 86.4062 36.2337 86.4062 34.9403Z" fill="white" stroke="#263238" stroke-width="0.2592" stroke-linecap="round" stroke-linejoin="round"/>
<path d="M99.5274 22.4987C99.1284 22.8924 98.67 23.2196 98.1693 23.4681" stroke="#263238" stroke-width="0.2592" stroke-linecap="round" stroke-linejoin="round"/>
<path d="M97.7688 21.2882L97.2888 21.5293" stroke="#263238" stroke-width="0.2592" stroke-linecap="round" stroke-linejoin="round"/>
<path d="M62.0791 45.7671L59.7686 47.7862C59.7686 47.7862 52.968 46.8168 48.9657 47.5452C44.9634 48.2735 43.0457 49.16 42.7247 50.049C42.4038 50.9381 39.5234 55.4637 36.5634 58.8619C33.6034 62.26 30.9514 64.1884 30.2326 64.3439C29.5138 64.4995 28.2301 63.4549 26.7103 62.2444C25.1905 61.0339 24.1431 61.275 24.3998 62.5658C24.6565 63.8566 25.5217 64.7483 26.2405 65.798C26.9594 66.8478 27.6012 69.191 28.2404 69.515C28.8796 69.839 30.0015 69.9997 30.4816 69.1106C30.9617 68.2216 33.2825 66.122 36.3221 64.0225C39.3617 61.923 42.0804 60.9562 44.3909 59.3414C46.7014 57.7266 47.5897 53.766 47.5897 53.766C47.5897 53.766 54.7112 55.6244 56.9524 56.0288C59.1936 56.4331 60.7134 56.6742 60.7134 56.6742H61.4348C61.4348 56.6742 62.2332 61.2802 63.1933 65.1578C64.1535 69.0355 65.3549 72.5087 66.1559 72.9131C66.9569 73.3174 81.9187 78.3278 83.1998 78.8125C84.4808 79.2972 88.1597 80.7513 88.1597 80.7513C88.1597 80.7513 90.5601 82.5268 91.2019 83.6595C91.8437 84.7922 92.2416 86.2515 92.8013 86.407C93.3609 86.5626 93.4431 84.1442 92.8808 81.3967C92.3186 78.6492 92.7217 77.2754 92.0824 76.306C91.4432 75.3366 88.9607 76.306 88.0801 76.389C87.1995 76.4719 84.3191 75.9017 81.8392 74.3672C79.3592 72.8327 78.4838 71.135 75.7625 69.6809C74.1299 68.8098 72.3264 68.315 70.4817 68.2319C70.4817 68.2319 70.9618 63.7089 70.9618 62.3351V56.5939C71.2233 55.2315 71.4101 53.8557 71.5214 52.4726C71.601 50.8578 71.1209 48.4342 71.1209 48.4342L62.0791 45.7671Z" fill="white" stroke="#263238" stroke-width="0.2592" stroke-linecap="round" stroke-linejoin="round"/>
<path d="M92.8859 81.3967C92.3263 78.6492 92.7268 77.2754 92.0875 76.306C91.4483 75.3366 88.9658 76.306 88.0852 76.389C87.2046 76.4719 84.3242 75.9017 81.8443 74.3672C79.3643 72.8327 78.4837 71.135 75.7625 69.6809C74.6616 69.0971 73.4817 68.6797 72.2608 68.4419C71.4059 69.1573 69.4368 71.1661 69.7859 74.2169C74.5251 75.855 82.2987 78.4677 83.2049 78.8125C84.4885 79.2972 88.1648 80.7513 88.1648 80.7513C88.1648 80.7513 90.5651 82.5268 91.207 83.6595C91.8488 84.7922 92.2467 86.2515 92.8063 86.407C93.366 86.5626 93.4482 84.1442 92.8859 81.3967Z" fill="white" stroke="#263238" stroke-width="0.2592" stroke-linecap="round" stroke-linejoin="round"/>
<path d="M87.8464 80.4273C87.8413 80.4911 87.8413 80.5553 87.8464 80.6191L88.1776 80.7513C88.1776 80.7513 90.578 82.5268 91.2198 83.6595C91.8616 84.7922 92.2595 86.2515 92.8192 86.407C93.3788 86.5626 93.461 84.1442 92.8988 81.3967C92.3365 78.6492 92.7396 77.2754 92.1004 76.306C91.5664 75.4973 89.7539 76.0468 88.6551 76.2853L89.7 79.2972C89.7 79.2972 88.0056 79.2972 87.8464 80.4273Z" fill="#263238" stroke="#263238" stroke-width="0.2592" stroke-linecap="round" stroke-linejoin="round"/>
<path d="M44.3908 59.3414C45.7463 58.3953 46.6089 56.6535 47.0941 55.3652C44.1469 55.1397 42.6169 52.6877 42.0033 51.3658C40.381 54.0025 38.557 56.5071 36.5479 58.8567C33.5879 62.2496 30.9462 64.1884 30.2274 64.3491C29.5086 64.5098 28.2249 63.4601 26.7051 62.2496C25.1853 61.0391 24.1379 61.2802 24.3946 62.571C24.6514 63.8618 25.5165 64.7535 26.2353 65.8032C26.9542 66.853 27.596 69.1962 28.2352 69.5202C28.8745 69.8442 29.9963 70.0049 30.4764 69.1158C30.9565 68.2268 33.2773 66.1272 36.3169 64.0277C39.3565 61.9282 42.0803 60.9562 44.3908 59.3414Z" fill="white" stroke="#263238" stroke-width="0.2592" stroke-linecap="round" stroke-linejoin="round"/>
<path d="M26.7103 62.2496C25.1905 61.0365 24.1431 61.2802 24.3998 62.571C24.6565 63.8618 25.5217 64.7535 26.2405 65.8032C26.9594 66.853 27.6012 69.1962 28.2404 69.5202C28.8796 69.8442 30.0015 70.0049 30.4816 69.1158C30.7463 68.7005 31.061 68.32 31.4186 67.9831L31.203 67.9053C29.9194 67.4206 29.2006 65.6425 29.2006 65.6425L30.2428 64.3465C29.5009 64.5124 28.2301 63.4601 26.7103 62.2496Z" fill="#263238" stroke="#263238" stroke-width="0.2592" stroke-linecap="round" stroke-linejoin="round"/>
<path d="M70.741 65.5777C70.8539 64.331 70.9617 62.9857 70.9617 62.33V56.5939C71.2232 55.2315 71.4101 53.8557 71.5214 52.4726C71.601 50.8578 71.1209 48.4342 71.1209 48.4342L62.0791 45.7671L59.7686 47.7862C59.7686 47.7862 52.968 46.8168 48.9657 47.5452C48.7731 47.5789 48.5908 47.6152 48.4086 47.6514C48.9657 48.976 49.723 51.4669 49.0375 54.1315C51.2377 54.6939 55.3606 55.7333 56.9677 56.0236C59.2089 56.428 60.7287 56.669 60.7287 56.669H61.4501C61.4501 56.669 62.2485 61.275 63.2087 65.1526C63.3961 65.9017 63.5912 66.6353 63.7889 67.3351C65.3934 66.5653 68.1712 65.4637 70.741 65.5777Z" fill="#263238" stroke="#263238" stroke-width="0.2592" stroke-linecap="round" stroke-linejoin="round"/>
<path d="M63.7606 62.9987L63.6939 62.7395C63.6381 62.5011 63.6216 62.255 63.6451 62.0111C63.6744 61.7135 63.7311 61.4194 63.8145 61.1324C63.8145 61.1195 63.8531 60.9977 63.9198 60.7618C63.9865 60.5259 64.0379 60.3626 64.0738 60.2719C64.1504 59.9528 64.1398 59.6186 64.043 59.3051C63.9455 58.9137 63.8145 58.74 63.6502 58.7867C63.4859 58.8333 63.4577 58.9526 63.4782 59.1781C63.4933 59.2969 63.5156 59.4146 63.545 59.5306L63.6887 60.1086L63.0341 60.2745L62.9648 59.9946C62.8387 59.6144 62.795 59.2113 62.8364 58.8126C62.8563 58.7117 62.8967 58.6161 62.955 58.5318C63.0133 58.4475 63.0883 58.3763 63.1753 58.3227C63.2875 58.2576 63.4086 58.2095 63.5347 58.1802C63.671 58.1438 63.8143 58.1438 63.9506 58.1802C64.0807 58.2158 64.1988 58.2866 64.292 58.3849C64.5048 58.6238 64.651 58.9154 64.7156 59.2299C64.8064 59.5631 64.8161 59.9134 64.7439 60.2512C64.672 60.5648 64.595 60.8473 64.5103 61.0987C64.3684 61.4856 64.2937 61.8942 64.2895 62.3066L65.3164 62.0474L65.4524 62.5891L63.7606 62.9987Z" fill="white"/>
<path d="M67.7784 61.6845C67.7022 61.8136 67.6017 61.9263 67.4824 62.0161C67.3631 62.1059 67.2275 62.171 67.0832 62.2079C66.939 62.2447 66.7889 62.2525 66.6417 62.2307C66.4945 62.209 66.3529 62.1581 66.2252 62.0811C65.9739 61.8427 65.8047 61.5293 65.7426 61.1869L65.2009 59.0122C65.0972 58.6982 65.1036 58.3578 65.2188 58.048C65.2905 57.9172 65.3905 57.8045 65.5115 57.7183C65.6324 57.6321 65.7711 57.5747 65.9171 57.5503C66.0571 57.5004 66.2066 57.4839 66.354 57.5018C66.5014 57.5198 66.6427 57.5719 66.7669 57.654C67.0158 57.8692 67.1828 58.1652 67.2393 58.4912L67.7809 60.6659C67.8882 60.9969 67.8873 61.354 67.7784 61.6845ZM66.9286 61.612C66.9783 61.6018 67.0246 61.5788 67.0628 61.5452C67.1011 61.5116 67.13 61.4685 67.1468 61.4201C67.1783 61.2307 67.1615 61.0362 67.0981 60.8551L66.5435 58.6415C66.4588 58.3046 66.333 58.1361 66.1713 58.1231C66.12 58.128 66.0693 58.1375 66.0198 58.1516C65.9827 58.1633 65.9485 58.1827 65.9193 58.2086C65.8901 58.2345 65.8666 58.2663 65.8504 58.302C65.8058 58.4663 65.8148 58.6408 65.8761 58.7996L66.4306 61.0158C66.4609 61.2043 66.5368 61.3823 66.6514 61.5342C66.6866 61.5708 66.7308 61.5973 66.7796 61.611C66.8283 61.6247 66.8797 61.625 66.9286 61.612Z" fill="white"/>
<path d="M88.0056 35.1839C88.0056 35.1839 87.3664 35.0232 83.8441 32.115C80.3219 29.2068 78.8842 28.227 76.2425 27.4287C73.6009 26.6303 70.0812 27.509 68.2405 28.3177C66.3998 29.1264 58.485 33.7298 58.485 33.7298C58.485 33.7298 57.7661 34.9403 58.4054 35.9926C58.7695 36.6016 59.229 37.1469 59.766 37.6075L65.2086 36.7987L61.2062 46.3321L71.049 49.4036C71.049 49.4036 75.6906 43.7479 77.2104 42.4545C78.7302 41.1611 81.852 38.0118 81.852 38.0118L88.0852 40.7567C88.0852 40.7567 90.9656 38.4965 88.0056 35.1839Z" fill="#92E3A9" stroke="#263238" stroke-width="0.2592" stroke-linecap="round" stroke-linejoin="round"/>
<path d="M69.4804 40.7567L69.8758 40.215C70.2217 39.7386 70.6205 39.3037 71.0644 38.919C71.5841 38.4746 72.1339 38.0675 72.71 37.7008C72.7331 37.6852 72.9667 37.5323 73.4366 37.2342C73.9064 36.9361 74.2221 36.7391 74.4095 36.638C75.0456 36.1948 75.5934 35.6347 76.0243 34.9869C76.5994 34.199 76.7705 33.7229 76.5378 33.5587C76.3529 33.4205 76.0799 33.5544 75.7188 33.9605C75.5622 34.1368 75.3825 34.3649 75.1771 34.6448L74.3325 35.8112L73.4443 35.1528L73.8524 34.5878C74.6825 33.449 75.3132 32.7328 75.7445 32.439C76.1758 32.1452 76.5574 32.0347 76.8895 32.1072C77.097 32.1573 77.2913 32.2519 77.4594 32.3846C77.6552 32.5277 77.7929 32.7377 77.8471 32.9755C77.903 33.2498 77.8916 33.5337 77.8137 33.8024C77.5899 34.5308 77.2357 35.2117 76.7688 35.8112C76.299 36.4846 75.7211 37.0742 75.059 37.5556C74.46 37.9738 73.9089 38.3306 73.4057 38.6261C72.586 39.0932 71.8278 39.6628 71.1491 40.3213L72.5586 41.3581L71.7601 42.4545L69.4804 40.7567Z" fill="#263238"/>
<path d="M75.4133 44.3155C75.1726 44.4407 74.902 44.4957 74.6321 44.4743C74.3621 44.453 74.1033 44.3562 73.8848 44.1947C73.6662 44.0333 73.4965 43.8136 73.3947 43.5602C73.2929 43.3069 73.2629 43.0299 73.3082 42.7603C73.4075 42.159 73.766 41.4341 74.3839 40.5856L77.5749 36.1792C78.1637 35.374 78.7148 34.8496 79.2282 34.6059C79.4699 34.4997 79.7349 34.4594 79.9968 34.4889C80.2588 34.5184 80.5084 34.6168 80.7209 34.7741C80.9335 34.9315 81.1014 35.1424 81.2079 35.3858C81.3145 35.6292 81.356 35.8965 81.3282 36.1611C81.2529 36.7313 80.9226 37.4225 80.3373 38.2347L77.1462 42.6256C76.5318 43.4757 75.9542 44.0391 75.4133 44.3155ZM74.751 42.9807C74.8288 43.0346 74.921 43.0635 75.0154 43.0635C75.1098 43.0635 75.202 43.0346 75.2798 42.9807C75.6416 42.7004 75.9518 42.3583 76.1963 41.9698L79.449 37.4934C79.9402 36.8143 80.1114 36.3555 79.9625 36.117C79.9083 36.0531 79.8461 35.9965 79.7776 35.9486C79.7142 35.9136 79.6432 35.8953 79.571 35.8953C79.4988 35.8953 79.4277 35.9136 79.3643 35.9486C79.1812 36.0211 78.9082 36.3088 78.5454 36.8117L75.2901 41.2907C74.9944 41.6451 74.7601 42.0473 74.597 42.4804C74.5678 42.5696 74.567 42.6657 74.5947 42.7554C74.6223 42.8451 74.6769 42.9238 74.751 42.9807Z" fill="#263238"/>
<path d="M65.2009 36.7987L70.0016 35.9926" stroke="#263238" stroke-width="0.2592" stroke-linecap="round" stroke-linejoin="round"/>
<path d="M81.8443 38.0118L84.165 35.8293" stroke="#263238" stroke-width="0.2592" stroke-linecap="round" stroke-linejoin="round"/>
<path d="M26.2097 8.09753C26.2097 8.09753 26.8669 10.3811 27.0851 10.8243C27.3033 11.2675 28.035 11.4879 28.035 11.4879V13.2582C28.035 13.6988 29.0619 13.6263 29.0619 13.6263C29.0619 13.6263 30.7408 15.1815 30.9616 15.5418C31.1824 15.902 31.1798 16.2805 31.6188 16.3531C32.1421 16.3947 32.668 16.3195 33.1592 16.1327C33.5237 15.985 39.5773 12.5947 39.5773 12.5947L36.8021 9.42463C36.1795 8.33647 35.4712 7.30065 34.6841 6.32719C33.516 4.92751 31.9089 2.71394 29.5009 3.15718C27.0928 3.60041 26.2097 8.09753 26.2097 8.09753Z" fill="white" stroke="#263238" stroke-width="0.2592" stroke-linecap="round" stroke-linejoin="round"/>
<path d="M37.1615 9.57496C37.1615 9.57496 37.2359 5.88914 36.0678 3.23493C34.8998 0.580721 31.321 -0.671215 29.2775 0.360402C27.234 1.39202 25.3342 3.60559 25.1879 5.8036C25.0416 8.00162 25.6243 8.89845 26.2815 8.67813C26.9388 8.45781 28.1068 5.14005 28.1068 5.8036C28.1068 6.46716 27.6704 7.71909 28.2532 8.23749C28.8359 8.75589 29.5676 8.16232 29.7139 8.38264C29.8603 8.60296 30.0066 9.562 30.4456 9.34168C30.8846 9.12136 30.4456 7.942 30.882 7.78648C31.3185 7.63096 32.561 8.45003 32.7818 9.48165C33.0026 10.5133 32.7818 10.3655 32.7818 10.3655C32.7818 10.3655 34.0218 11.3246 34.8356 11.252C35.6494 11.1794 37.1615 9.57496 37.1615 9.57496Z" fill="#263238" stroke="#263238" stroke-width="0.2592" stroke-linecap="round" stroke-linejoin="round"/>
<path d="M32.7818 10.3863L32.2683 11.1976C32.5828 11.819 32.7804 12.494 32.8511 13.1882" stroke="#263238" stroke-width="0.2592" stroke-linecap="round" stroke-linejoin="round"/>
<path d="M31.3826 59.6343C30.6536 60.8218 30.1642 62.1431 29.9424 63.5223C29.6241 65.7021 32.1066 72.5709 32.1066 75.1578C32.1066 77.7446 32.2632 79.8415 32.1066 81.4563C31.95 83.0711 30.9873 83.9628 30.5072 84.7689C30.0271 85.575 28.7461 86.223 28.7461 87.0317C28.7461 87.8404 30.8256 88.4055 31.3133 89.0509C31.8011 89.6963 32.9153 90.9094 34.5147 89.8596C36.1141 88.8098 35.7161 86.2308 35.8753 84.8493C36.0345 83.4677 36.5146 78.2267 36.915 77.0136C37.3155 75.8006 38.3553 71.4382 37.8752 68.6907C37.3951 65.9432 36.0345 63.1179 36.0345 63.1179L37.3951 61.7442C37.3951 61.7442 32.2632 60.767 31.3826 59.6343Z" fill="white" stroke="#263238" stroke-width="0.2592" stroke-linecap="round" stroke-linejoin="round"/>
<path d="M35.865 84.8415C35.8933 84.6004 35.9318 84.235 35.978 83.8047C33.5956 84.3231 32.3325 83.6725 31.6727 82.9649C31.3082 83.7114 30.8102 84.2609 30.5047 84.7793C30.022 85.588 28.7435 86.2334 28.7435 87.0421C28.7435 87.8508 30.823 88.4158 31.3108 89.0613C31.7985 89.7067 32.9127 90.9197 34.5121 89.87C36.1115 88.8202 35.7059 86.2152 35.865 84.8415Z" fill="#263238" stroke="#263238" stroke-width="0.2592" stroke-linecap="round" stroke-linejoin="round"/>
<path d="M33.1477 84.2363C33.1069 84.1872 33.062 84.1419 33.0133 84.1007L32.6695 84.2609C32.6695 84.2609 29.605 84.844 28.3248 84.5347C27.0446 84.2253 25.7207 83.4982 25.1872 83.817C24.6537 84.1357 26.9375 86.4879 29.2882 88C31.639 89.5121 33.1477 91 33.4472 90C35.7261 88.5912 35.0595 88.1014 35.7261 87.0911L32.533 86.4552C32.533 86.4552 33.8184 85.1574 33.1477 84.2363Z" fill="#263238" stroke="#263238" stroke-width="0.2592" stroke-linecap="round" stroke-linejoin="round"/>
<path d="M37.8649 68.6829C37.8358 68.5222 37.805 68.3615 37.7725 68.2008C37.7597 68.1464 37.7468 68.092 37.7366 68.0375C37.7135 67.9313 37.6878 67.825 37.6621 67.7213L37.6159 67.5269C37.5902 67.4336 37.5671 67.3403 37.5415 67.247C37.5158 67.1537 37.5055 67.1096 37.485 67.0422C37.4644 66.9748 37.4362 66.8685 37.4131 66.783C37.39 66.6975 37.372 66.643 37.3489 66.5731C37.3258 66.5031 37.3027 66.4175 37.277 66.3424L37.2077 66.1195C37.1897 66.0624 37.1718 66.0106 37.1512 65.9536C37.0819 65.741 37.01 65.5337 36.9382 65.3367C36.3604 65.1119 35.7564 64.9629 35.1411 64.8934C32.8871 64.5954 31.2646 65.8447 30.3429 66.8582C30.9822 69.7431 32.1041 73.4159 32.1041 75.1526C32.1041 77.4698 32.2273 79.3931 32.14 80.9327C32.14 81.1116 32.1169 81.2853 32.1015 81.4511C32.0861 81.617 32.0655 81.7259 32.0399 81.8555L32.0245 81.941C31.9962 82.068 31.9654 82.2002 31.9295 82.3065V82.3246C31.8935 82.4413 31.8525 82.5553 31.8088 82.6642C31.8013 82.6782 31.7953 82.693 31.7908 82.7083C31.7421 82.8223 31.6907 82.9312 31.6394 83.0348C31.452 84.0405 31.7472 85.3391 32.5893 85.8109C34.7509 87.0239 35.6289 85.5698 35.6289 85.5698L35.8317 85.3806C35.8317 85.2847 35.8317 85.1914 35.8471 85.1033C35.8625 85.0151 35.8599 84.9244 35.8702 84.8441C36.0294 83.4729 36.5094 78.2215 36.9099 77.0084C37.3104 75.7954 38.345 71.4305 37.8649 68.6829Z" fill="white" stroke="#263238" stroke-width="0.2592" stroke-linecap="round" stroke-linejoin="round"/>
<mask id="mask0_317_1274" style="mask-type:luminance" maskUnits="userSpaceOnUse" x="0" y="61" width="14" height="15">
<path d="M6.93743 75.6373C10.7302 75.6373 13.8048 72.533 13.8048 68.7037C13.8048 64.8744 10.7302 61.7701 6.93743 61.7701C3.14469 61.7701 0.0700684 64.8744 0.0700684 68.7037C0.0700684 72.533 3.14469 75.6373 6.93743 75.6373Z" fill="white"/>
</mask>
<g mask="url(#mask0_317_1274)">
<path d="M0.0211792 68.7063C0.0211853 70.0767 0.423436 71.4165 1.17713 72.5562C1.93082 73.696 3.00214 74.5847 4.25579 75.1101C5.50944 75.6355 6.88918 75.774 8.22076 75.5081C9.55233 75.2423 10.776 74.584 11.7372 73.6164C12.6985 72.6488 13.3541 71.4152 13.6214 70.0716C13.8887 68.728 13.7556 67.3345 13.239 66.0672C12.7224 64.7999 11.8454 63.7156 10.7188 62.9513C9.59214 62.1869 8.26643 61.7768 6.90907 61.7727C6.0057 61.7706 5.1108 61.9484 4.27554 62.2959C3.44029 62.6434 2.68108 63.1537 2.04135 63.7977C1.40161 64.4416 0.893902 65.2066 0.547262 66.0489C0.200622 66.8912 0.0218518 67.7942 0.0211792 68.7063Z" fill="white"/>
<path d="M0.0211303 68.7066C0.0216662 67.3335 0.425987 65.9914 1.18284 64.8506C1.93969 63.7098 3.01499 62.8216 4.27242 62.2985C5.52986 61.7754 6.9128 61.6411 8.24595 61.9125C9.57909 62.1839 10.8024 62.8489 11.7608 63.8231C12.7192 64.7973 13.3695 66.0368 13.6294 67.3846C13.8892 68.7324 13.7468 70.1278 13.2202 71.3938C12.6937 72.6598 11.8067 73.7395 10.6717 74.4959C9.53669 75.2523 8.2048 75.6515 6.84485 75.6428C5.0298 75.6338 3.29229 74.8987 2.01318 73.5985C0.734068 72.2983 0.0177111 70.5391 0.0211303 68.7066ZM11.1321 66.5422C11.0638 65.6864 10.9028 64.8407 10.6521 64.0202C10.6396 63.9872 10.6159 63.9597 10.5853 63.9425C9.92813 63.5293 9.23253 63.1821 8.50842 62.9057C8.47233 62.8954 8.43411 62.8954 8.39802 62.9057L7.57907 63.1649C7.0273 63.3329 6.50118 63.5772 6.01563 63.8906C5.99704 63.8976 5.9816 63.9112 5.97216 63.9289C5.96272 63.9465 5.95992 63.967 5.96428 63.9865C6.08494 64.7875 6.20304 65.5884 6.3237 66.3867C6.3272 66.4033 6.33401 66.419 6.34372 66.4328C6.35343 66.4466 6.36584 66.4583 6.38018 66.4671C7.23592 66.8852 8.08653 67.3008 8.93201 67.7138C8.96326 67.7268 8.99831 67.7268 9.02956 67.7138L11.0834 66.5967C11.0988 66.5993 11.1142 66.5656 11.1321 66.5422ZM3.24815 68.564L4.11074 68.6081C4.14232 68.6097 4.1734 68.5996 4.19803 68.5796C4.84497 67.9039 5.48849 67.2265 6.12859 66.5474C6.14793 66.5253 6.15806 66.4965 6.15683 66.4671C6.04216 65.6774 5.92492 64.8868 5.80511 64.0954C5.78971 63.9813 5.78971 63.9813 5.66905 63.9658C5.02688 63.8687 4.37663 63.8374 3.72822 63.8725C3.6845 63.875 3.6429 63.8924 3.61013 63.9217C2.98796 64.5036 2.40798 65.1299 1.87468 65.7957C1.85596 65.8211 1.84685 65.8523 1.849 65.8839C1.88751 66.1716 1.92859 66.4567 1.96966 66.7418C2.04909 67.3194 2.15964 67.8923 2.30084 68.4577C2.30084 68.4966 2.31881 68.5225 2.37015 68.5251C2.66282 68.5329 2.95548 68.5484 3.24815 68.564ZM11.1886 66.7496L11.1219 66.7859L9.11428 67.8797C9.09001 67.8911 9.06929 67.9089 9.05435 67.9313C9.03942 67.9537 9.03084 67.9798 9.02956 68.0067C8.96282 68.5251 8.89093 69.0435 8.82162 69.549C8.76514 69.9481 8.71123 70.3499 8.65988 70.7516C8.65756 70.7693 8.65911 70.7873 8.66443 70.8044C8.66976 70.8214 8.67872 70.837 8.69069 70.8501L10.0411 72.0736C10.0529 72.0818 10.0663 72.0875 10.0805 72.0902C10.0946 72.0928 10.1092 72.0925 10.1232 72.0891C10.876 71.8379 11.5853 71.4698 12.2258 70.9979C12.2742 70.9636 12.3074 70.9115 12.3182 70.8527C12.4395 70.265 12.5253 69.6703 12.5749 69.072C12.5809 69.0146 12.5721 68.9565 12.5492 68.9036C12.3772 68.5536 12.2129 68.2011 12.0358 67.8668C11.7946 67.4643 11.5105 67.0897 11.1886 66.7496ZM3.18653 68.7325L2.32394 68.6936C2.30854 68.6945 2.29351 68.6987 2.2798 68.7058C2.26609 68.713 2.25402 68.7229 2.24436 68.7351C2.15964 68.8673 2.07749 68.9943 1.98763 69.1368C1.7475 69.6072 1.56969 70.1074 1.45878 70.6246C1.45553 70.6496 1.46002 70.6749 1.47162 70.6972C1.75925 71.3084 2.0789 71.9037 2.4292 72.4805C2.44986 72.5096 2.47838 72.5321 2.51135 72.5453C2.82969 72.636 3.14803 72.7371 3.47406 72.8045C3.94867 72.8944 4.43178 72.93 4.91428 72.9108C4.96306 72.9108 4.96563 72.8771 4.97847 72.846C5.14961 72.3777 5.31477 71.9085 5.47394 71.4385C5.48406 71.4194 5.48934 71.398 5.48934 71.3763C5.48934 71.3546 5.48406 71.3333 5.47394 71.3141L4.15695 68.8284C4.14879 68.81 4.13539 68.7946 4.11847 68.7839C4.10155 68.7733 4.08187 68.768 4.06196 68.7688L3.18653 68.7325ZM6.98348 74.5075H7.01942C7.68295 74.44 8.34038 74.3213 8.98592 74.1524C9.01539 74.1431 9.04136 74.1251 9.06037 74.1005C9.46165 73.5561 9.75856 72.9407 9.9358 72.2861C9.94323 72.2654 9.94374 72.2427 9.93725 72.2217C9.93076 72.2006 9.91763 72.1823 9.89986 72.1695C9.46514 71.7807 9.03726 71.391 8.61624 71.0005C8.59473 70.979 8.56797 70.9635 8.53867 70.9558C8.50937 70.9481 8.47856 70.9483 8.44937 70.9564L5.7512 71.4437C5.72911 71.4456 5.70813 71.4544 5.69113 71.4687C5.67414 71.4831 5.66194 71.5024 5.65622 71.5241C5.49705 71.9803 5.33788 72.4339 5.17357 72.8875C5.16207 72.9152 5.15838 72.9456 5.16291 72.9753C5.16744 73.0051 5.18001 73.033 5.19925 73.0559C5.65087 73.6776 6.25279 74.172 6.94754 74.4919C6.95897 74.4983 6.97101 74.5035 6.98348 74.5075ZM0.670641 66.2545L0.763062 66.2156L1.60768 65.8294C1.64961 65.8084 1.6871 65.7794 1.71807 65.7439C2.2901 65.0367 2.90939 64.3699 3.57162 63.7481C3.59709 63.7226 3.61641 63.6916 3.6281 63.6573L3.85145 63.0845L4.03372 62.618C2.49844 63.3537 1.29726 64.6508 0.673209 66.2468L0.670641 66.2545ZM13.3271 66.9984L13.304 67.0658C13.1329 67.5946 12.9668 68.1234 12.806 68.6521C12.7782 68.7193 12.7592 68.7899 12.7495 68.8621C12.6977 69.5597 12.5964 70.2527 12.4466 70.9357C12.4281 71.0032 12.4195 71.073 12.4209 71.143C12.4543 71.4178 12.4953 71.69 12.5338 71.9647C12.5338 72.0476 12.5569 72.1332 12.5723 72.2369C13.0895 71.3882 13.4123 70.4335 13.5171 69.4427C13.6094 68.6232 13.5449 67.7934 13.3271 66.9984ZM5.98482 75.381C6.79713 75.4935 7.62301 75.454 8.42113 75.2643C9.21229 75.0777 9.96139 74.7418 10.629 74.2742C10.172 74.256 9.71502 74.2483 9.26062 74.2405C9.23459 74.2423 9.20879 74.2466 9.1836 74.2534C8.52334 74.4328 7.85048 74.5611 7.17088 74.6371C7.06734 74.6371 6.96621 74.6687 6.88079 74.7278C6.60866 74.9351 6.32883 75.1295 6.05157 75.3291L5.98482 75.381ZM2.54729 73.8258C2.54729 73.7947 2.54729 73.7817 2.54729 73.7713C2.50108 73.4603 2.45744 73.1518 2.41123 72.8434C2.40529 72.7669 2.38527 72.6922 2.35218 72.6231C1.97732 72.0003 1.63457 71.3583 1.32529 70.6998C1.31011 70.6692 1.29018 70.6412 1.26624 70.6169L0.352304 69.8185L0.306094 69.7874C0.441959 70.6426 0.741015 71.4631 1.18666 72.2032C1.55249 72.8117 2.01077 73.3583 2.54472 73.8232L2.54729 73.8258ZM7.64069 62.0114L7.67663 62.0503C7.91538 62.2654 8.15157 62.4832 8.39032 62.6957C8.41385 62.716 8.44081 62.7318 8.46991 62.7424C9.24847 63.0324 9.99662 63.3997 10.7034 63.8388C10.755 63.8681 10.8116 63.8875 10.8703 63.8958C10.9858 63.9114 11.1039 63.9217 11.222 63.9321L11.6096 63.9684C10.5493 62.8742 9.14736 62.1829 7.64069 62.0114Z" fill="#263238"/>
<path d="M11.1323 66.542C11.1143 66.5653 11.0989 66.599 11.0732 66.6119L9.01944 67.7291C8.98819 67.7421 8.95313 67.7421 8.92188 67.7291C8.06613 67.3178 7.21553 66.9022 6.37005 66.4823C6.35571 66.4735 6.34331 66.4619 6.33359 66.4481C6.32388 66.4342 6.31707 66.4186 6.31357 66.402C6.19291 65.6037 6.07482 64.8027 5.95416 64.0018C5.94979 63.9822 5.95259 63.9618 5.96203 63.9441C5.97147 63.9265 5.98691 63.9129 6.0055 63.9059C6.49105 63.5924 7.01718 63.3482 7.56895 63.1801L8.3879 62.9209C8.42399 62.9106 8.4622 62.9106 8.49829 62.9209C9.2224 63.1974 9.91801 63.5446 10.5752 63.9577C10.6058 63.9749 10.6294 64.0025 10.6419 64.0355C10.895 64.8505 11.0594 65.691 11.1323 66.542Z" fill="white"/>
<path d="M3.2483 68.5637C2.95563 68.5482 2.66297 68.5326 2.37031 68.5222C2.31896 68.5222 2.31126 68.4937 2.30099 68.4549C2.1598 67.8894 2.04924 67.3166 1.96982 66.739C1.92874 66.4538 1.88766 66.1687 1.84916 65.881C1.847 65.8495 1.85611 65.8182 1.87483 65.7929C2.40813 65.1271 2.98811 64.5008 3.61028 63.9189C3.64305 63.8895 3.68465 63.8722 3.72837 63.8696C4.37678 63.8346 5.02703 63.8658 5.6692 63.9629C5.78986 63.9785 5.78986 63.9785 5.80527 64.0925C5.92336 64.8839 6.0406 65.6745 6.15698 66.4642C6.15821 66.4937 6.14809 66.5225 6.12874 66.5446C5.48693 67.2237 4.84341 67.901 4.19818 68.5767C4.17355 68.5967 4.14247 68.6069 4.11089 68.6052L3.2483 68.5611V68.5637Z" fill="white"/>
<path d="M11.1888 66.7493C11.5104 67.0877 11.7945 67.4606 12.036 67.8613C12.2234 68.2008 12.3877 68.5533 12.5494 68.8981C12.5722 68.9511 12.5811 69.0091 12.5751 69.0666C12.5254 69.6648 12.4397 70.2595 12.3184 70.8473C12.3076 70.906 12.2744 70.9581 12.2259 70.9924C11.5855 71.4643 10.8761 71.8324 10.1234 72.0836C10.1094 72.087 10.0948 72.0874 10.0807 72.0847C10.0665 72.082 10.0531 72.0764 10.0412 72.0681L8.69085 70.8447C8.67888 70.8315 8.66992 70.8159 8.6646 70.7989C8.65927 70.7819 8.65772 70.7639 8.66004 70.7462C8.71139 70.3444 8.7653 69.9427 8.82178 69.5435C8.8911 69.0251 8.96298 68.5067 9.02973 68.0012C9.03101 67.9743 9.03958 67.9482 9.05452 67.9258C9.06945 67.9034 9.09018 67.8856 9.11444 67.8742L11.122 66.7804L11.1888 66.7493Z" fill="white"/>
<path d="M3.18669 68.7322L4.06469 68.7763C4.0846 68.7755 4.10427 68.7808 4.12119 68.7914C4.13811 68.802 4.15151 68.8175 4.15967 68.8359L5.47667 71.3216C5.48678 71.3408 5.49207 71.3621 5.49207 71.3838C5.49207 71.4055 5.48678 71.4269 5.47667 71.446C5.30552 71.916 5.14036 72.3852 4.98119 72.8535C4.98119 72.8846 4.96579 72.9183 4.91701 72.9183C4.43451 72.9375 3.9514 72.9019 3.47679 72.812C3.15075 72.7368 2.83241 72.6358 2.51408 72.5528C2.4811 72.5396 2.45258 72.5171 2.43192 72.488C2.08162 71.9112 1.76198 71.3159 1.47435 70.7047C1.46275 70.6824 1.45826 70.6571 1.46151 70.6321C1.57241 70.1149 1.75022 69.6147 1.99036 69.1443C2.06738 69.0069 2.14953 68.8851 2.24708 68.7426C2.25674 68.7304 2.26881 68.7205 2.28252 68.7133C2.29623 68.7062 2.31127 68.702 2.32667 68.7011L3.18926 68.74L3.18669 68.7322Z" fill="white"/>
<path d="M6.98363 74.5072C6.96764 74.504 6.95212 74.4987 6.93742 74.4916C6.24267 74.1717 5.64075 73.6773 5.18913 73.0557C5.1699 73.0327 5.15732 73.0048 5.15279 72.9751C5.14826 72.9453 5.15195 72.9149 5.16346 72.8872C5.32776 72.4336 5.48693 71.98 5.6461 71.5238C5.65182 71.5022 5.66402 71.4828 5.68102 71.4685C5.69801 71.4541 5.71899 71.4453 5.74108 71.4434L8.44952 70.9561C8.47871 70.948 8.50952 70.9478 8.53882 70.9555C8.56812 70.9633 8.59488 70.9787 8.61639 71.0002C9.04597 71.3907 9.47385 71.7804 9.90001 72.1692C9.91778 72.182 9.93091 72.2004 9.9374 72.2214C9.94389 72.2425 9.94338 72.2651 9.93595 72.2858C9.75871 72.9404 9.4618 73.5558 9.06052 74.1002C9.04151 74.1248 9.01554 74.1429 8.98607 74.1521C8.34053 74.321 7.6831 74.4398 7.01957 74.5072H6.98363Z" fill="white"/>
<path d="M0.670807 66.2542C1.29486 64.6583 2.49603 63.3612 4.03132 62.6254L3.84905 63.092L3.6257 63.6648C3.61401 63.6991 3.59469 63.7301 3.56922 63.7556C2.90788 64.3775 2.28944 65.0443 1.71824 65.7514C1.68727 65.7868 1.64978 65.8159 1.60785 65.8369L0.763228 66.2231L0.670807 66.2542Z" fill="white"/>
<path d="M13.3273 66.9981C13.544 67.7906 13.6085 68.6177 13.5173 69.4346C13.4125 70.4255 13.0897 71.3801 12.5725 72.2288C12.5571 72.1251 12.5443 72.0396 12.534 71.9566C12.4955 71.6819 12.4544 71.4097 12.4211 71.135C12.4196 71.065 12.4283 70.9951 12.4467 70.9276C12.5966 70.2446 12.6978 69.5516 12.7497 68.854C12.7594 68.7819 12.7784 68.7113 12.8061 68.6441C12.9773 68.1153 13.1433 67.5865 13.3042 67.0578L13.3273 66.9981Z" fill="white"/>
<path d="M5.98499 75.3807L6.05173 75.3288C6.329 75.1293 6.60882 74.9349 6.88095 74.7275C6.96638 74.6684 7.0675 74.6368 7.17105 74.6368C7.85064 74.5608 8.5235 74.4326 9.18376 74.2532C9.20896 74.2463 9.23475 74.242 9.26078 74.2402C9.71518 74.2402 10.1721 74.2558 10.6291 74.2739C9.96155 74.7415 9.21246 75.0774 8.42129 75.264C7.62318 75.4537 6.79729 75.4932 5.98499 75.3807Z" fill="white"/>
<path d="M2.54488 73.8229C2.00798 73.3579 1.54706 72.8103 1.17911 72.2003C0.734681 71.4608 0.436512 70.6413 0.301117 69.7871L0.347327 69.8182L1.26126 70.614C1.2852 70.6383 1.30513 70.6663 1.32031 70.6969C1.62959 71.3554 1.97234 71.9974 2.3472 72.6202C2.38029 72.6893 2.40031 72.764 2.40625 72.8405C2.45246 73.149 2.4961 73.4574 2.54231 73.7684C2.54488 73.7788 2.54488 73.7918 2.54488 73.8229Z" fill="white"/>
<path d="M7.64084 62.0111C9.14751 62.1827 10.5494 62.8739 11.6098 63.9681L11.2221 63.9318C11.104 63.9318 10.9859 63.9111 10.8704 63.8955C10.8118 63.8872 10.7552 63.8678 10.7036 63.8385C9.99678 63.3994 9.24862 63.0321 8.47006 62.7421C8.44096 62.7315 8.414 62.7157 8.39047 62.6954C8.15172 62.4829 7.91553 62.2652 7.67678 62.05L7.64084 62.0111Z" fill="white"/>
</g>
<path d="M6.93743 75.6373C10.7302 75.6373 13.8048 72.533 13.8048 68.7037C13.8048 64.8744 10.7302 61.7701 6.93743 61.7701C3.14469 61.7701 0.0700684 64.8744 0.0700684 68.7037C0.0700684 72.533 3.14469 75.6373 6.93743 75.6373Z" stroke="#263238" stroke-width="0.2592" stroke-miterlimit="10"/>
<path d="M21.2857 52.8251C21.2857 52.8251 19.5579 54.7639 17.8276 56.6042C16.0973 58.4445 15.4812 61.2983 15.5608 63.1568C15.6403 65.0153 15.2347 67.5632 14.9472 68.4341C14.6597 69.305 13.7919 71.3423 13.7919 71.3423L19.6504 69.2091C19.6504 69.2091 20.1304 65.7177 20.7055 64.7483C21.2806 63.7789 22.5308 63.1931 22.8183 62.0345C22.9674 61.4071 23.1604 60.7913 23.396 60.1916L27.139 58.3512C27.139 58.3512 22.1457 55.2486 21.2857 52.8251Z" fill="white" stroke="#263238" stroke-width="0.2592" stroke-linecap="round" stroke-linejoin="round"/>
<path d="M22.826 62.0345C22.9929 61.3683 23.1546 60.8655 23.265 60.5544C23.1161 59.8546 22.4461 57.6721 19.9456 57.6721C18.2641 57.6721 16.8264 58.88 15.8945 59.9298C15.6048 60.8941 15.4815 61.9015 15.53 62.908C15.6249 65.1371 15.2399 67.5736 14.9523 68.4341C14.6648 69.2947 13.7919 71.3423 13.7919 71.3423L19.6504 69.2091C19.6504 69.2091 20.1304 65.7177 20.7055 64.7483C21.2806 63.7789 22.5308 63.1983 22.826 62.0345Z" fill="white" stroke="#263238" stroke-width="0.2592" stroke-linecap="round" stroke-linejoin="round"/>
<path d="M18.6902 67.6565C18.6902 67.6565 13.602 70.1785 10.3364 72.2133C7.07091 74.248 6.48558 78.6129 7.93607 78.8073C9.38656 79.0017 12.6418 78.8073 13.6969 77.6435C14.7521 76.4797 14.7521 74.7353 16.6724 73.5715C18.5927 72.4077 20.9956 71.4383 21.2934 69.8882C21.5912 68.3382 20.7055 66.7856 18.6902 67.6565Z" fill="#263238" stroke="#263238" stroke-width="0.2592" stroke-linecap="round" stroke-linejoin="round"/>
<path d="M32.045 39.6266C32.045 39.6266 23.2214 49.9402 22.0328 51.314C20.8441 52.6877 19.9507 53.7375 19.9507 53.7375C19.9507 53.7375 20.7517 58.7478 27.4727 59.6343L33.5751 52.2315L31.0746 59.7172C31.0746 59.7172 30.6741 60.6063 34.6687 61.8971C38.6633 63.1879 40.0265 62.6254 40.0265 62.6254C40.0265 62.6254 43.4872 53.9267 44.9274 52.1512C46.3676 50.3756 48.8501 48.5949 48.9297 46.4954C49.0093 44.3959 48.1287 42.2134 48.1287 42.2134C48.1287 42.2134 47.1686 40.1113 41.4077 38.9812C35.6468 37.8511 32.045 39.6266 32.045 39.6266Z" fill="#92E3A9"/>
<mask id="mask1_317_1274" style="mask-type:luminance" maskUnits="userSpaceOnUse" x="19" y="38" width="30" height="25">
<path d="M32.045 39.6266C32.045 39.6266 23.2214 49.9402 22.0328 51.314C20.8441 52.6877 19.9507 53.7375 19.9507 53.7375C19.9507 53.7375 20.7517 58.7478 27.4727 59.6343L33.5751 52.2315L31.0746 59.7172C31.0746 59.7172 30.6741 60.6063 34.6687 61.8971C38.6633 63.1879 40.0265 62.6254 40.0265 62.6254C40.0265 62.6254 43.4872 53.9267 44.9274 52.1512C46.3676 50.3756 48.8501 48.5949 48.9297 46.4954C49.0093 44.3959 48.1287 42.2134 48.1287 42.2134C48.1287 42.2134 47.1686 40.1113 41.4077 38.9812C35.6468 37.8511 32.045 39.6266 32.045 39.6266Z" fill="white"/>
</mask>
<g mask="url(#mask1_317_1274)">
<path opacity="0.3" d="M43.328 49.9687C41.342 50.034 39.3551 49.8714 37.4054 49.484L33.6444 51.9023L33.2901 52.4648L33.5648 52.2263L31.0643 59.712C31.0643 59.712 30.6638 60.6011 34.6584 61.8919C38.6531 63.1827 40.0265 62.6255 40.0265 62.6255C40.0265 62.6255 43.4872 53.9267 44.9274 52.1512C45.7874 51.0885 47.0171 50.0257 47.8874 48.8956C46.4276 49.4761 44.8915 49.8377 43.328 49.9687Z" fill="black"/>
<path d="M20.5951 55.5597C20.5951 55.5597 30.8358 43.2606 31.9911 42.7655C33.1463 42.2705 35.1847 39.8625 35.1847 39.8625" stroke="#263238" stroke-width="0.7776" stroke-linecap="round" stroke-linejoin="round"/>
<path d="M21.2343 56.5265C21.2343 56.5265 31.475 44.2274 32.6277 43.7324C33.7804 43.2373 35.8239 40.8293 35.8239 40.8293" stroke="#263238" stroke-width="0.7776" stroke-linecap="round" stroke-linejoin="round"/>
</g>
<path d="M32.045 39.6266C32.045 39.6266 23.2214 49.9402 22.0328 51.314C20.8441 52.6877 19.9507 53.7375 19.9507 53.7375C19.9507 53.7375 20.7517 58.7478 27.4727 59.6343L33.5751 52.2315L31.0746 59.7172C31.0746 59.7172 30.6741 60.6063 34.6687 61.8971C38.6633 63.1879 40.0265 62.6254 40.0265 62.6254C40.0265 62.6254 43.4872 53.9267 44.9274 52.1512C46.3676 50.3756 48.8501 48.5949 48.9297 46.4954C49.0093 44.3959 48.1287 42.2134 48.1287 42.2134C48.1287 42.2134 47.1686 40.1113 41.4077 38.9812C35.6468 37.8511 32.045 39.6266 32.045 39.6266Z" stroke="#263238" stroke-width="0.2592" stroke-linecap="round" stroke-linejoin="round"/>
<path d="M42.4295 12.6439C42.3313 12.3058 42.2685 11.9584 42.2421 11.6071C42.2421 11.2338 42.5219 11.0446 42.6143 10.5703C42.7067 10.096 42.2421 9.7279 42.7067 8.9814C43.1714 8.2349 44.188 8.41894 44.8375 9.07471C44.8375 9.07471 45.3921 8.9814 46.1212 9.63458C46.5322 9.9751 46.8799 10.3867 47.148 10.8502C47.148 10.8502 47.2405 11.5993 47.3329 12.0659C47.4253 12.5324 47.0351 12.6102 47.4253 13.0016C47.8155 13.393 47.7026 14.1239 47.7026 14.1239L42.4295 12.6439Z" fill="white" stroke="#263238" stroke-width="0.2592" stroke-linecap="round" stroke-linejoin="round"/>
<path d="M49.3764 15.9176C49.3764 15.9176 52.6188 18.3489 53.5456 19.2872C54.4724 20.2255 55.1193 21.9984 55.1193 23.31C55.1193 24.6215 54.285 24.8056 53.2683 25.0855C52.2517 25.3654 51.5996 24.6189 50.5804 23.2141C49.5612 21.8092 46.2161 16.0135 46.2161 16.0135C46.2161 16.0135 46.4934 15.1711 47.1429 15.1711C47.7924 15.1711 49.3764 15.9176 49.3764 15.9176Z" fill="white" stroke="#263238" stroke-width="0.2592" stroke-linecap="round" stroke-linejoin="round"/>
<path d="M40.9585 12.2292C40.2715 11.8516 39.5137 11.6238 38.7341 11.5604C37.9545 11.497 37.1704 11.5994 36.4324 11.8611C33.8652 12.745 33.2182 15.1789 32.4173 15.7699C31.6163 16.3608 29.4213 18.5692 29.6421 21.2986C29.8629 24.028 32.8537 29.5541 32.7818 31.1767C32.7099 32.7993 32.7074 36.4851 32.4891 37.7371C32.2709 38.989 31.2466 40.8475 31.2466 40.8475C33.3582 39.9818 35.6142 39.5314 37.8932 39.5203C41.6157 39.5203 44.7554 40.4042 45.7053 40.9926C46.5738 41.4772 47.4764 41.8965 48.406 42.2471C48.406 42.2471 46.9581 35.8319 46.9581 35.0828C46.9581 34.3338 46.8143 33.4603 47.2508 32.5764C47.6872 31.6925 48.4933 25.0596 48.4933 25.0596L49.8514 27.3302C49.8514 27.3302 54.6264 26.4619 54.552 23.2167C54.552 23.2167 52.2902 19.7512 51.3404 18.3515C50.3905 16.9518 49.2866 14.7382 47.8361 13.4111C46.3856 12.084 44.4756 12.084 43.6746 12.084C42.8736 12.084 40.9585 12.2292 40.9585 12.2292Z" fill="#92E3A9" stroke="#263238" stroke-width="0.2592" stroke-linecap="round" stroke-linejoin="round"/>
<path d="M31.6137 29.7018C31.6137 29.7018 35.1103 27.7034 35.8497 26.8506C36.589 25.9979 35.7572 23.8569 33.9987 24.5178C32.2401 25.1788 31.5547 29.269 31.6137 29.7018Z" fill="#263238" stroke="#263238" stroke-width="0.2592" stroke-linecap="round" stroke-linejoin="round"/>
<path d="M36.797 23.5821C37.4282 24.4967 37.9894 25.4586 38.4759 26.4593C38.9894 27.6386 36.2861 39.8755 36.2861 39.8755C36.6976 40.4868 37.064 41.1279 37.3823 41.7935C37.7508 42.708 37.9484 43.6835 37.9651 44.6707C37.9651 45.259 37.0896 45.9226 37.0896 45.9226C37.0896 45.9226 38.3296 46.5136 37.8187 46.6587C37.3078 46.8039 37.0896 46.8816 37.0896 46.8816C37.0896 46.8816 37.5261 47.5452 37.1615 47.5452C36.5188 47.5338 35.8806 47.4344 35.2643 47.2497C34.6071 47.0294 33.724 45.7748 33.0745 44.8158C32.425 43.8568 33.6572 40.5416 33.8036 39.6577C33.9499 38.7739 33.9499 32.3587 33.7291 31.1793C33.5083 29.9999 33.7291 27.4183 33.7291 27.4183L32.3428 26.3815C32.7568 25.5451 33.3921 24.8408 34.1783 24.3466C34.9645 23.8525 35.8709 23.5879 36.797 23.5821Z" fill="white" stroke="#263238" stroke-width="0.2592" stroke-linecap="round" stroke-linejoin="round"/>
<path d="M37.0896 46.879C37.0896 46.879 35.9986 46.9957 35.652 46.8402C35.3054 46.6846 34.2349 45.329 34.2349 45.329" stroke="#263238" stroke-width="0.2592" stroke-linecap="round" stroke-linejoin="round"/>
<path d="M37.2257 45.9096L36.227 45.7956L35.1154 44.7873" stroke="#263238" stroke-width="0.2592" stroke-linecap="round" stroke-linejoin="round"/>
<path d="M37.5697 45.4068C37.5697 45.4068 36.8406 45.1761 36.7995 45.0595C36.7584 44.9428 35.9575 44.0227 35.9575 44.0227" stroke="#263238" stroke-width="0.2592" stroke-linecap="round" stroke-linejoin="round"/>
<path d="M32.3428 16.3582C30.7733 16.8248 29.4245 17.8497 28.5458 19.2431C27.1595 21.5293 29.1312 24.6267 29.7884 26.099C30.4456 27.5712 31.6137 29.7122 31.6137 29.7122C31.6137 29.7122 33 26.3945 34.4608 25.2151C35.3272 24.5112 36.4145 24.1435 37.526 24.1783C37.526 24.1783 35.6288 21.3038 34.9716 20.3447C34.3144 19.3857 32.7818 18.7895 32.7818 18.7895" fill="#92E3A9"/>
<path d="M32.3428 16.3582C30.7733 16.8248 29.4245 17.8497 28.5458 19.2431C27.1595 21.5293 29.1312 24.6267 29.7884 26.099C30.4456 27.5712 31.6137 29.7122 31.6137 29.7122C31.6137 29.7122 33 26.3945 34.4608 25.2151C35.3272 24.5112 36.4145 24.1435 37.526 24.1783C37.526 24.1783 35.6288 21.3038 34.9716 20.3447C34.3144 19.3857 32.7818 18.7895 32.7818 18.7895" stroke="#263238" stroke-width="0.2592" stroke-linecap="round" stroke-linejoin="round"/>
<path d="M48.4806 25.057L48.4496 20.6869L48.7278 17.2266" stroke="#263238" stroke-width="0.2592" stroke-linecap="round" stroke-linejoin="round"/>
<path d="M39.6517 30.5028C39.6029 25.9227 40.0548 24.3312 38.653 19.6967C38.5646 19.9429 38.401 20.1544 38.1858 20.3007C37.9628 20.452 37.7138 20.5601 37.4516 20.6195C37.3412 20.1166 37.1949 19.619 37.087 19.1213C37.4381 18.9582 37.7343 18.6951 37.9394 18.3644C38.1665 17.9634 38.3204 17.5244 38.3938 17.0684L39.662 16.7807C40.7839 22.1695 41.2203 24.9196 41.3589 30.4276C40.7967 30.4639 40.2216 30.482 39.6517 30.5028Z" fill="#263238"/>
<path d="M47.107 28.7713C46.6243 29.6656 46.0339 29.8418 45.2355 29.917C44.4371 29.9922 43.9005 29.9792 43.4384 29.1705C42.9763 28.3618 42.9455 27.6153 42.9917 26.353C43.0533 24.7071 42.5989 21.7185 42.1471 20.114C41.8133 18.9347 41.744 18.253 42.0598 17.395C42.3756 16.5371 42.9558 16.3401 43.7234 16.2001C44.491 16.0602 45.1148 16.0524 45.7771 16.7185C46.4395 17.3847 46.6603 17.9782 46.9427 19.1939C47.3278 20.845 47.7822 23.8802 47.7796 25.6091C47.7591 26.944 47.5896 27.8771 47.107 28.7713ZM45.1995 28.1596C45.4973 28.1311 45.6283 28.1285 45.8285 27.6645C46.0287 27.2006 46.0852 26.7599 46.0852 25.8787C46.0205 23.7088 45.7454 21.5506 45.2637 19.4349C45.007 18.4215 45.007 18.2452 44.3164 17.8797C44.1803 17.8072 44.111 17.8616 43.9518 17.929C43.7927 17.9964 43.6463 17.929 43.5616 18.3256C43.4769 18.7221 43.4923 18.9865 43.69 19.7382C44.1341 21.4204 44.5551 24.4038 44.5192 26.1327C44.5012 27.0114 44.4756 27.3768 44.6424 27.8304C44.8093 28.284 44.9043 28.1881 45.1995 28.1596Z" fill="#263238"/>
<path d="M37.8983 44.2041L37.4156 44.0952" stroke="#263238" stroke-width="0.2592" stroke-linecap="round" stroke-linejoin="round"/>
</svg>
