<svg width="21" height="20" viewBox="0 0 21 20" fill="none" xmlns="http://www.w3.org/2000/svg">
<path d="M20.1537 10.2226C20.1537 9.54203 20.099 8.8615 19.9895 8.19485H10.6997V12.042H16.0219C15.803 13.278 15.0915 14.3891 14.0517 15.0835V17.5834H17.2258C19.0865 15.8474 20.1537 13.278 20.1537 10.2226Z" fill="#4285F4"/>
<path d="M10.7016 20C13.3558 20 15.5996 19.1111 17.2277 17.5834L14.0536 15.0835C13.1643 15.6946 12.0287 16.0418 10.7016 16.0418C8.12943 16.0418 5.95406 14.278 5.1742 11.9169H1.9043V14.5002C3.57345 17.8751 6.98018 20 10.7016 20Z" fill="#34A853"/>
<path d="M5.17369 11.917C4.76318 10.681 4.76318 9.3338 5.17369 8.08384V5.51447H1.90326C0.493833 8.33383 0.493833 11.6671 1.90326 14.4864L5.17369 11.917Z" fill="#FBBC04"/>
<path d="M10.7001 3.95881C12.1093 3.93103 13.4638 4.47268 14.4762 5.45876L17.2947 2.59774C15.5024 0.903353 13.1491 -0.0271725 10.7001 0.000604439C6.97871 0.000604439 3.57199 2.13943 1.90283 5.51432L5.17274 8.09757C5.95259 5.72264 8.12797 3.95881 10.7001 3.95881Z" fill="#EA4335"/>
</svg>
