<svg width="21" height="22" viewBox="0 0 21 22" fill="none" xmlns="http://www.w3.org/2000/svg">
<path d="M16.9971 12.5126C16.7319 12.5126 16.4775 12.6179 16.29 12.8055C16.1024 12.993 15.9971 13.2474 15.9971 13.5126V13.8926L14.5171 12.4126C13.9945 11.8941 13.2882 11.6032 12.5521 11.6032C11.8159 11.6032 11.1096 11.8941 10.5871 12.4126L9.88707 13.1126L7.40707 10.6326C6.87719 10.1282 6.17364 9.84688 5.44207 9.84688C4.7105 9.84688 4.00695 10.1282 3.47707 10.6326L1.99707 12.1126V6.51259C1.99707 6.24738 2.10243 5.99302 2.28996 5.80548C2.4775 5.61795 2.73185 5.51259 2.99707 5.51259H9.99707C10.2623 5.51259 10.5166 5.40723 10.7042 5.2197C10.8917 5.03216 10.9971 4.77781 10.9971 4.51259C10.9971 4.24738 10.8917 3.99302 10.7042 3.80549C10.5166 3.61795 10.2623 3.51259 9.99707 3.51259H2.99707C2.20142 3.51259 1.43836 3.82866 0.87575 4.39127C0.313141 4.95388 -0.00292969 5.71694 -0.00292969 6.51259V18.5126C-0.00292969 19.3082 0.313141 20.0713 0.87575 20.6339C1.43836 21.1965 2.20142 21.5126 2.99707 21.5126H14.9971C15.7927 21.5126 16.5558 21.1965 17.1184 20.6339C17.681 20.0713 17.9971 19.3082 17.9971 18.5126V13.5126C17.9971 13.2474 17.8917 12.993 17.7042 12.8055C17.5166 12.6179 17.2623 12.5126 16.9971 12.5126ZM2.99707 19.5126C2.73185 19.5126 2.4775 19.4072 2.28996 19.2197C2.10243 19.0322 1.99707 18.7778 1.99707 18.5126V14.9426L4.89707 12.0426C5.04398 11.9026 5.23913 11.8245 5.44207 11.8245C5.64501 11.8245 5.84016 11.9026 5.98707 12.0426L9.15707 15.2126L13.4571 19.5126H2.99707ZM15.9971 18.5126C15.9956 18.704 15.9325 18.8899 15.8171 19.0426L11.3071 14.5126L12.0071 13.8126C12.0788 13.7394 12.1643 13.6813 12.2588 13.6416C12.3532 13.6019 12.4546 13.5815 12.5571 13.5815C12.6595 13.5815 12.7609 13.6019 12.8554 13.6416C12.9498 13.6813 13.0354 13.7394 13.1071 13.8126L15.9971 16.7226V18.5126ZM20.7071 3.80259L17.7071 0.802592C17.612 0.711551 17.4998 0.640186 17.3771 0.592592C17.1336 0.492574 16.8605 0.492574 16.6171 0.592592C16.4943 0.640186 16.3822 0.711551 16.2871 0.802592L13.2871 3.80259C13.1938 3.89583 13.1199 4.00652 13.0694 4.12834C13.019 4.25016 12.993 4.38073 12.993 4.51259C12.993 4.77889 13.0988 5.03429 13.2871 5.22259C13.4754 5.4109 13.7308 5.51668 13.9971 5.51668C14.2634 5.51668 14.5188 5.4109 14.7071 5.22259L15.9971 3.92259V9.51259C15.9971 9.77781 16.1024 10.0322 16.29 10.2197C16.4775 10.4072 16.7319 10.5126 16.9971 10.5126C17.2623 10.5126 17.5166 10.4072 17.7042 10.2197C17.8917 10.0322 17.9971 9.77781 17.9971 9.51259V3.92259L19.2871 5.22259C19.38 5.31632 19.4906 5.39071 19.6125 5.44148C19.7344 5.49225 19.8651 5.51839 19.9971 5.51839C20.1291 5.51839 20.2598 5.49225 20.3816 5.44148C20.5035 5.39071 20.6141 5.31632 20.7071 5.22259C20.8008 5.12963 20.8752 5.01903 20.926 4.89717C20.9767 4.77531 21.0029 4.6446 21.0029 4.51259C21.0029 4.38058 20.9767 4.24987 20.926 4.12801C20.8752 4.00616 20.8008 3.89555 20.7071 3.80259Z" fill="#1F1F1F"/>
</svg>
