<svg width="5" height="6" viewBox="0 0 5 6" fill="none" xmlns="http://www.w3.org/2000/svg">
<path d="M4.27038 0.775589C3.80125 0.306461 3.16498 0.0429077 2.50153 0.0429077C1.83808 0.0429077 1.20181 0.306461 0.732681 0.775589C0.263553 1.24472 4.94307e-09 1.88099 0 2.54444C-4.94307e-09 3.20789 0.263553 3.84416 0.732681 4.31329L2.28632 5.86988C2.31373 5.89751 2.34633 5.91944 2.38226 5.93441C2.41818 5.94937 2.45672 5.95708 2.49563 5.95708C2.53455 5.95708 2.57309 5.94937 2.60901 5.93441C2.64494 5.91944 2.67754 5.89751 2.70495 5.86988L4.27038 4.29855C4.73755 3.83137 5 3.19775 5 2.53707C5 1.87639 4.73755 1.24277 4.27038 0.775589ZM3.8488 3.87697L2.50153 5.23014L1.15426 3.87697C0.888088 3.61056 0.706879 3.27121 0.633536 2.90183C0.560193 2.53245 0.59801 2.14962 0.742205 1.80172C0.8864 1.45383 1.1305 1.1565 1.44365 0.947308C1.7568 0.73812 2.12494 0.62647 2.50153 0.62647C2.87812 0.62647 3.24626 0.73812 3.55941 0.947308C3.87256 1.1565 4.11666 1.45383 4.26086 1.80172C4.40505 2.14962 4.44287 2.53245 4.36953 2.90183C4.29618 3.27121 4.11497 3.61056 3.8488 3.87697ZM1.61711 1.63938C1.37911 1.8781 1.24547 2.20145 1.24547 2.53854C1.24547 2.87564 1.37911 3.19898 1.61711 3.43771C1.79392 3.61483 2.0191 3.73578 2.2644 3.78541C2.5097 3.83503 2.76419 3.81111 2.99595 3.71664C3.2277 3.62218 3.4264 3.46137 3.56711 3.25441C3.70782 3.04745 3.78428 2.80354 3.78689 2.55328C3.78822 2.38619 3.75604 2.22052 3.69223 2.06608C3.62843 1.91164 3.53431 1.77156 3.41544 1.65412C3.2986 1.5346 3.15927 1.43936 3.00548 1.37389C2.85169 1.30842 2.68648 1.27401 2.51934 1.27264C2.3522 1.27127 2.18644 1.30297 2.0316 1.36591C1.87676 1.42885 1.73589 1.52179 1.61711 1.63938ZM2.99976 3.01908C2.88804 3.13251 2.74039 3.2036 2.58205 3.22021C2.42371 3.23683 2.26452 3.19792 2.1317 3.11015C1.99887 3.02239 1.90065 2.8912 1.85384 2.73904C1.80703 2.58687 1.81452 2.42317 1.87505 2.27591C1.93558 2.12866 2.04537 2.00701 2.18567 1.93175C2.32596 1.85649 2.48804 1.8323 2.6442 1.86332C2.80035 1.89434 2.94089 1.97863 3.04177 2.10179C3.14265 2.22496 3.19762 2.37934 3.19728 2.53854C3.19299 2.72052 3.11665 2.89335 2.98502 3.01908H2.99976Z" fill="#777777"/>
</svg>
