<svg width="14" height="13" viewBox="0 0 14 13" fill="none" xmlns="http://www.w3.org/2000/svg">
<path d="M8.31202 1.94241L8.82695 1.42747C9.68012 0.574305 11.0634 0.574305 11.9165 1.42747C12.7697 2.28064 12.7697 3.6639 11.9165 4.51707L11.4016 5.03201M8.31202 1.94241C8.31202 1.94241 8.37638 3.03664 9.34188 4.00214C10.3074 4.96764 11.4016 5.03201 11.4016 5.03201M8.31202 1.94241L3.57799 6.67643C3.25735 6.99708 3.09702 7.1574 2.95914 7.33417C2.7965 7.5427 2.65705 7.76833 2.54328 8.00706C2.44683 8.20943 2.37513 8.42453 2.23174 8.85472L1.62409 10.6776M11.4016 5.03201L6.66759 9.76603C6.34695 10.0867 6.18662 10.247 6.00985 10.3849C5.80132 10.5475 5.5757 10.687 5.33697 10.8007C5.13459 10.8972 4.91949 10.9689 4.4893 11.1123L2.66638 11.7199M2.66638 11.7199L2.22078 11.8685C2.00908 11.939 1.77568 11.8839 1.61789 11.7261C1.46009 11.5683 1.40499 11.3349 1.47556 11.1232L1.62409 10.6776M2.66638 11.7199L1.62409 10.6776" stroke="#FFAD33" stroke-width="1.25"/>
</svg>
