<svg width="20" height="22" viewBox="0 0 20 22" fill="none" xmlns="http://www.w3.org/2000/svg">
<path d="M4.8 3.22703H4.04019C2.97609 3.22703 2.44364 3.22703 2.03721 3.43411C1.6797 3.61627 1.38925 3.90673 1.20709 4.26423C1 4.67067 1 5.20311 1 6.26721V7.02703M4.8 3.22703H12.4M4.8 3.22703V1.32703M12.4 3.22703H13.1602C14.2243 3.22703 14.7556 3.22703 15.162 3.43411C15.5195 3.61627 15.811 3.90673 15.9931 4.26423C16.2 4.67027 16.2 8.97336 16.2 10.0354V7.02703H1M12.4 3.22703V1.32703M1 7.02703V15.3872C1 16.4513 1 16.9831 1.20709 17.3895C1.38925 17.747 1.6797 18.038 2.03721 18.2201C2.44324 18.427 6.58798 18.427 7.65 18.427M8.6 14.627H8.6019L8.60186 14.6289M4.8 14.627H4.8019L4.80186 14.6289L4.8 14.6289V14.627ZM12.4019 10.827V10.8289L12.4 10.8289V10.827H12.4019ZM8.6 10.827H8.6019L8.60186 10.8289L8.6 10.8289V10.827ZM4.8 10.827H4.8019L4.80186 10.8289L4.8 10.8289V10.827Z" stroke="#1F1F1F" stroke-width="1.63758" stroke-linecap="round" stroke-linejoin="round"/>
<path d="M14.7751 20.3666C16.9393 20.3666 18.6938 18.6121 18.6938 16.4478C18.6938 14.2835 16.9393 12.5291 14.7751 12.5291C12.6108 12.5291 10.8563 14.2835 10.8563 16.4478C10.8563 18.6121 12.6108 20.3666 14.7751 20.3666Z" stroke="#1F1F1F" stroke-width="1.12584" stroke-linecap="round" stroke-linejoin="round"/>
<path d="M14.7749 14.1619V16.4478H17.0608" stroke="#1F1F1F" stroke-width="1.12584" stroke-linecap="round" stroke-linejoin="round"/>
</svg>
