<svg width="26" height="25" viewBox="0 0 26 25" fill="none" xmlns="http://www.w3.org/2000/svg">
<path d="M8.34904 22.9991C9.4024 22.9991 10.2563 22.1452 10.2563 21.0918C10.2563 20.0385 9.4024 19.1846 8.34904 19.1846C7.29569 19.1846 6.44177 20.0385 6.44177 21.0918C6.44177 22.1452 7.29569 22.9991 8.34904 22.9991Z" fill="#222222"/>
<path d="M18.2669 22.9991C19.3202 22.9991 20.1742 22.1452 20.1742 21.0918C20.1742 20.0385 19.3202 19.1846 18.2669 19.1846C17.2135 19.1846 16.3596 20.0385 16.3596 21.0918C16.3596 22.1452 17.2135 22.9991 18.2669 22.9991Z" fill="#222222"/>
<path d="M4.75254 7.35947H21.8635L19.564 15.4077C19.4729 15.7265 19.2804 16.007 19.0157 16.2067C18.751 16.4064 18.4285 16.5144 18.0969 16.5144H8.51915C8.18757 16.5144 7.86502 16.4064 7.60031 16.2067C7.3356 16.007 7.14313 15.7265 7.05204 15.4077L3.82076 4.09824C3.77521 3.93883 3.67898 3.7986 3.54662 3.69876C3.41427 3.59893 3.25299 3.54492 3.0872 3.54492H1.86438" stroke="#222222" stroke-width="2.28873" stroke-linecap="round" stroke-linejoin="round"/>
</svg>
