<svg width="99" height="82" viewBox="0 0 99 82" fill="none" xmlns="http://www.w3.org/2000/svg">
<path d="M4.19586 25.7171C3.61611 26.6781 3.08858 27.6775 2.62373 28.7238C-1.12291 37.1399 -0.353386 45.1328 1.80546 53.5837C4.03569 62.3131 8.25241 71.6797 15.589 77.2997C17.3161 78.6228 19.266 79.711 21.4144 80.2594C29.5101 82.3259 39.5609 79.1712 49.7301 80.8652C59.8976 82.5592 70.3297 80.4753 76.2492 70.9641C78.7545 66.9389 80.3179 62.6735 81.2563 58.1103C82.4106 52.4921 84.9751 46.8129 85.097 40.9631C85.2258 34.8156 82.7953 28.01 78.7962 23.4068C74.2331 18.1542 66.8669 17.5657 60.688 14.9873C55.8167 12.9555 51.593 9.67374 46.666 7.76385C39.1205 4.83722 29.43 4.72579 22.3493 9.36558C15.4793 13.8696 8.42303 18.7217 4.19586 25.7171Z" fill="#7392F9"/>
<path opacity="0.7" d="M4.19586 25.7171C3.61611 26.6781 3.08858 27.6775 2.62373 28.7238C-1.12291 37.1399 -0.353386 45.1328 1.80546 53.5837C4.03569 62.3131 8.25241 71.6797 15.589 77.2997C17.3161 78.6228 19.266 79.711 21.4144 80.2594C29.5101 82.3259 39.5609 79.1712 49.7301 80.8652C59.8976 82.5592 70.3297 80.4753 76.2492 70.9641C78.7545 66.9389 80.3179 62.6735 81.2563 58.1103C82.4106 52.4921 84.9751 46.8129 85.097 40.9631C85.2258 34.8156 82.7953 28.01 78.7962 23.4068C74.2331 18.1542 66.8669 17.5657 60.688 14.9873C55.8167 12.9555 51.593 9.67374 46.666 7.76385C39.1205 4.83722 29.43 4.72579 22.3493 9.36558C15.4793 13.8696 8.42303 18.7217 4.19586 25.7171Z" fill="white"/>
<g clip-path="url(#clip0_317_5163)">
<path d="M80.4277 58.9708H6.09357V67.4195H80.4277V58.9708Z" fill="#7392F9"/>
<path d="M6.54971 58.897H81" stroke="#263238" stroke-width="0.164923" stroke-miterlimit="10" stroke-linecap="round" stroke-linejoin="round"/>
<path d="M16.1076 64.6165H6.88677C6.52229 64.6165 6.22708 64.3213 6.22708 63.9568C6.22708 63.5923 6.52229 63.2971 6.88677 63.2971H16.1076C16.4721 63.2971 16.7673 63.5923 16.7673 63.9568C16.7673 64.3213 16.4721 64.6165 16.1076 64.6165Z" fill="#BFBFBF" stroke="#263238" stroke-width="0.164923" stroke-miterlimit="10" stroke-linecap="round" stroke-linejoin="round"/>
<path d="M16.1076 64.6165H6.88677C6.52229 64.6165 6.22708 64.5077 6.22708 64.3724C6.22708 64.2372 6.52229 64.1284 6.88677 64.1284H16.1076C16.4721 64.1284 16.7673 64.2372 16.7673 64.3724C16.7673 64.506 16.4721 64.6165 16.1076 64.6165Z" fill="#263238" stroke="#263238" stroke-width="0.164923" stroke-miterlimit="10" stroke-linecap="round" stroke-linejoin="round"/>
<path d="M21.4461 58.8756L18.969 46.7109C18.8635 46.1914 18.3538 45.8335 17.8112 45.9407C17.3396 46.033 17.0163 46.4767 17.0163 46.9566V69.4092H15.6969V46.978C15.6969 45.8632 16.4589 44.8621 17.5507 44.646C18.8222 44.397 20.013 45.2332 20.2603 46.447L22.7903 58.8756H21.4461ZM13.2231 58.9052L10.675 41.181L10.6685 41.1431C10.4211 39.9292 9.22868 39.0914 7.95712 39.3421C6.86369 39.5565 6.10339 40.5593 6.10339 41.6741V69.4092H7.42277V41.651C7.42277 41.1728 7.74272 40.7324 8.2111 40.6368C8.7504 40.5279 9.25836 40.8776 9.37216 41.3905L11.8905 58.9069H13.2231V58.9052Z" fill="#BFBFBF" stroke="#263238" stroke-width="0.164923" stroke-miterlimit="10" stroke-linecap="round" stroke-linejoin="round"/>
<path d="M10.6684 41.1431C10.4755 40.1981 9.71189 39.4856 8.78503 39.3306C8.76029 39.3339 8.7372 39.3355 8.71246 39.3405C7.61903 39.5549 6.85873 40.5576 6.85873 41.6725V69.4075H7.42277V41.6511C7.42277 41.1728 7.74272 40.7324 8.2111 40.6368C8.41395 40.5956 8.61351 40.6203 8.78833 40.6929C8.8444 40.6681 8.90377 40.6483 8.96644 40.6368C9.50574 40.5279 10.0137 40.8776 10.1275 41.3905L12.6459 58.9069H13.2231L10.675 41.181L10.6684 41.1431Z" fill="#263238" stroke="#263238" stroke-width="0.164923" stroke-miterlimit="10" stroke-linecap="round" stroke-linejoin="round"/>
<path d="M18.3786 44.6361C18.3538 44.6394 18.3307 44.6411 18.306 44.646C17.2126 44.8604 16.4523 45.8632 16.4523 46.978V69.4092H17.0163V46.9566C17.0163 46.475 17.3379 46.033 17.8112 45.9407C18.0124 45.9011 18.2087 45.9258 18.3819 45.9984C18.4396 45.9737 18.5006 45.9539 18.5666 45.9407C19.1092 45.8351 19.6188 46.193 19.7243 46.7109L22.1998 58.8756H22.7919L20.262 46.4486C20.0707 45.5036 19.3054 44.7912 18.3786 44.6361Z" fill="#263238" stroke="#263238" stroke-width="0.164923" stroke-miterlimit="10" stroke-linecap="round" stroke-linejoin="round"/>
</g>
<g opacity="0.3">
<path d="M61.7849 1.65292C60.9718 1.26816 60.1083 1.06795 59.1664 1.01397C56.7569 0.876435 54.0479 1.75216 52.6533 3.82918C52.3956 4.21394 52.1641 4.64571 51.7619 4.87727C50.5554 5.57019 48.985 4.36541 47.6967 4.70317C46.6503 4.97825 46.4118 6.05071 45.6109 6.61479C44.5071 7.39302 43.3389 6.6705 42.1167 7.11968C40.6038 7.67332 40.4419 8.5299 40.4419 8.5299H81.695C81.695 8.5299 79.0261 3.87097 76.2405 3.28947C74.449 2.91515 74.9399 4.76758 73.4601 5.09489C71.108 5.61545 70.3193 2.82462 68.0664 3.28947C67.3004 3.4479 66.8617 3.98587 66.0242 3.98587C64.9274 3.98587 64.043 3.20242 63.1899 2.54084C62.9862 2.38241 62.7842 2.23094 62.5823 2.10036" stroke="black" stroke-width="0.174101" stroke-miterlimit="10"/>
<path d="M56.642 6.4163C55.862 6.01935 55.1273 5.6224 54.3908 5.95667C53.1147 6.53642 53.2296 7.23283 52.6498 7.34948C52.0701 7.46612 50.9088 6.76972 49.9809 7.23283C49.0529 7.69768 49.0529 7.69768 49.0529 7.69768" stroke="black" stroke-width="0.174101" stroke-miterlimit="10"/>
<path d="M65.8815 6.18825C65.8815 6.18825 62.5161 3.86749 60.89 4.56389C59.2639 5.26029 59.9621 7.0013 58.4526 7.0013C58.1323 7.0013 57.8224 6.92818 57.5212 6.81849" stroke="black" stroke-width="0.174101" stroke-miterlimit="10"/>
</g>
<g opacity="0.3">
<path d="M19.1233 17.8391C18.634 17.611 18.1152 17.4909 17.5476 17.4578C16.0835 17.3742 14.4382 17.907 13.5886 19.1692C13.4319 19.4025 13.2909 19.6654 13.0471 19.8064C12.3142 20.2277 11.3601 19.4948 10.5767 19.7002C9.94119 19.8673 9.79495 20.5185 9.3092 20.8614C8.63892 21.3333 7.92859 20.8963 7.18518 21.1679C6.26592 21.5056 6.16669 22.0244 6.16669 22.0244H31.2407C31.2407 22.0244 29.618 19.1936 27.9258 18.8401C26.8359 18.6138 27.1354 19.7385 26.237 19.937C24.8076 20.2538 24.5395 17.3411 22.9587 18.276C22.5496 18.518 22.2257 19.2632 21.7174 19.2632C21.0506 19.2632 20.5126 18.7879 19.9938 18.3857" stroke="black" stroke-width="0.174101" stroke-miterlimit="10"/>
<path d="M28.0477 21.0112C28.0477 21.0112 26.2562 20.0153 25.3909 20.313C24.5256 20.6125 24.8964 21.3594 24.0938 21.3594C23.2912 21.3594 22.6105 20.6612 21.9315 20.9102C21.2525 21.1592 21.3134 21.4586 21.0053 21.5074C20.6971 21.5579 20.0791 21.2584 19.5846 21.4569C19.0902 21.6553 19.0902 21.6553 19.0902 21.6553" stroke="black" stroke-width="0.174101" stroke-miterlimit="10"/>
</g>
<g opacity="0.3">
<path d="M67.6573 26.8401C67.1681 26.612 66.6492 26.4919 66.0817 26.4588C64.6175 26.3752 62.9722 26.908 62.1226 28.1702C61.9659 28.4035 61.8249 28.6664 61.5812 28.8074C60.8482 29.2287 59.8941 28.4958 59.1107 28.7012C58.4752 28.8683 58.329 29.5195 57.8432 29.8624C57.1729 30.3343 56.4626 29.8973 55.7192 30.1689C54.8 30.5066 54.7007 31.0254 54.7007 31.0254H79.7747C79.7747 31.0254 78.1521 28.1946 76.4598 27.8411C75.3699 27.6148 75.6694 28.7395 74.771 28.938C73.3417 29.2548 73.0736 26.3421 71.4927 27.2771C71.0836 27.5191 70.7598 28.2642 70.2514 28.2642C69.5846 28.2642 69.0466 27.7889 68.5278 27.3867" stroke="black" stroke-width="0.174101" stroke-miterlimit="10"/>
<path d="M71.8009 29.6884C71.8009 29.6884 70.0947 28.5114 69.2712 28.8649C68.4477 29.2183 68.8011 30.101 68.0351 30.101C67.2708 30.101 66.6231 29.2775 65.9755 29.5717C65.3278 29.8659 65.387 30.2194 65.0928 30.2786C64.7986 30.3378 64.2101 29.9843 63.74 30.2194C63.27 30.4544 63.27 30.4544 63.27 30.4544" stroke="black" stroke-width="0.174101" stroke-miterlimit="10"/>
</g>
<path d="M49.1034 23.3198C49.1034 23.3198 50.0279 18.6504 49.9582 18.3962C49.8956 18.1664 47.8412 14.4824 47.4547 13.793C47.4964 13.7059 47.5417 13.6084 47.5765 13.5196C47.6688 13.2881 47.7384 12.6648 47.7384 12.6648C47.7384 12.6648 48.3391 11.7873 48.4784 11.601C48.6177 11.4165 48.4557 11.1379 48.3391 11.2546C48.2242 11.3695 47.5992 11.9475 47.5992 11.9475L47.5069 11.7403C47.5069 11.7403 47.876 10.3771 47.8533 10.1926C47.8307 10.008 47.7141 9.98539 47.6218 10.1699C47.5295 10.3545 47.0664 11.3712 47.0664 11.3712L46.8592 11.3939C46.8592 11.3939 47.0438 10.0759 47.0664 9.84611C47.089 9.61455 47.089 9.54491 46.9515 9.47701C46.814 9.40911 46.7896 9.59192 46.6973 9.84611C46.6051 10.1003 46.3509 11.279 46.3509 11.279L46.0967 11.2563C46.0967 11.2563 45.8425 9.80084 45.7502 9.70857C45.6579 9.61629 45.4734 9.77821 45.4734 10.1473C45.4734 10.5164 45.6579 12.0433 45.6579 12.0433C45.6579 12.0433 45.3115 12.6439 45.3115 12.5516C45.3115 12.4594 44.9424 11.951 44.6412 11.904C44.34 11.857 44.434 12.0659 44.5263 12.2052C44.6186 12.3444 44.9894 13.1767 45.1966 13.4987C45.4038 13.8226 46.2133 14.169 46.2133 14.169C46.2133 14.169 47.2771 17.2663 47.392 17.5675C47.5069 17.8687 47.923 18.9307 47.923 18.9307L47.1134 21.0564C47.1134 21.0564 46.4658 21.241 45.4038 21.819C45.4038 21.819 43.5322 22.3274 42.8845 21.772L41.0582 20.2469L39.2789 18.236L36.2426 13.8435C36.2704 13.5962 36.3261 13.0983 36.3436 13.013C36.3662 12.8981 36.5281 11.7194 36.4585 11.3956C36.3888 11.0718 36.112 10.1247 36.0197 10.1699C35.9275 10.2169 35.8804 10.3092 35.9275 10.4711C35.9745 10.633 35.9745 11.1884 35.9745 11.1884C35.9745 11.1884 35.6506 10.6574 35.5357 10.5651C35.4208 10.4729 35.2815 10.6348 35.3512 10.7723C35.4208 10.9116 35.7447 11.5575 35.7447 11.5575L35.6297 11.7647L35.0517 10.9325C35.0517 10.9325 34.8202 11.0248 34.9368 11.2093C35.0517 11.3939 35.3756 11.9945 35.3756 11.9945C35.3756 11.9945 34.7279 11.763 34.5904 11.7177C34.4511 11.6707 34.4755 11.857 34.66 11.9945C34.8446 12.1338 35.238 12.4332 35.238 12.4332C35.238 12.4332 34.7993 13.5666 34.8916 13.8435C34.9838 14.1203 34.9838 14.1203 34.9838 14.1203L35.3007 14.5033C35.7151 15.3581 38.0828 20.2242 38.3353 20.4993C38.6121 20.8005 40.9694 23.0882 41.3629 23.412C41.7563 23.7359 42.2647 24.4984 42.2647 24.4984C42.2647 24.4984 41.9722 27.2335 42.1341 27.6026C42.2961 27.9717 43.3285 33.7902 43.3285 33.9973C43.3285 34.2045 49.8694 33.0259 49.8694 33.0259L49.2462 28.5654L49.1034 23.3198Z" fill="white" stroke="#263238" stroke-width="0.174101" stroke-miterlimit="10" stroke-linecap="round" stroke-linejoin="round"/>
<path d="M45.7014 12.7083C45.7014 12.7083 46.1123 12.9138 46.2307 13.0321" stroke="#263238" stroke-width="0.174101" stroke-miterlimit="10" stroke-linecap="round" stroke-linejoin="round"/>
<path d="M46.612 13.6484C46.612 13.6484 46.6712 13.9427 47.0821 14.0001" stroke="#263238" stroke-width="0.174101" stroke-miterlimit="10" stroke-linecap="round" stroke-linejoin="round"/>
<path d="M35.4208 12.9886L35.8596 12.4106C35.8596 12.4106 36.1834 11.9475 36.3227 11.7873C36.462 11.6254 36.7388 11.6254 36.7614 11.81C36.784 11.9945 36.4376 12.2487 36.3923 12.388C36.3453 12.5273 36.2774 13.1279 36.1381 13.3351C35.9989 13.5423 35.675 13.7285 35.675 13.7285" fill="white"/>
<path d="M35.4208 12.9886L35.8596 12.4106C35.8596 12.4106 36.1834 11.9475 36.3227 11.7873C36.462 11.6254 36.7388 11.6254 36.7614 11.81C36.784 11.9945 36.4376 12.2487 36.3923 12.388C36.3453 12.5273 36.2774 13.1279 36.1381 13.3351C35.9989 13.5423 35.675 13.7285 35.675 13.7285" stroke="#263238" stroke-width="0.174101" stroke-miterlimit="10" stroke-linecap="round" stroke-linejoin="round"/>
<path d="M45.2105 23.1404L44.7317 23.5722" stroke="#263238" stroke-width="0.174101" stroke-miterlimit="10" stroke-linecap="round" stroke-linejoin="round"/>
<path d="M46.525 21.5875L45.5082 22.7888" stroke="#263238" stroke-width="0.174101" stroke-miterlimit="10" stroke-linecap="round" stroke-linejoin="round"/>
<path d="M43.5165 22.8636L44.2529 23.3824" stroke="#263238" stroke-width="0.174101" stroke-miterlimit="10" stroke-linecap="round" stroke-linejoin="round"/>
<path d="M46.5998 26.1263C46.4675 26.4588 46.3979 26.5128 46.3004 26.6956" stroke="#263238" stroke-width="0.174101" stroke-miterlimit="10" stroke-linecap="round" stroke-linejoin="round"/>
<path d="M47.1169 21.0547C47.1169 21.0547 46.9933 24.6621 46.9498 25.0085C46.9341 25.1409 46.8627 25.3637 46.7722 25.6109" stroke="#263238" stroke-width="0.174101" stroke-miterlimit="10" stroke-linecap="round" stroke-linejoin="round"/>
<path d="M47.9247 18.929C47.9247 18.929 47.9752 19.164 48.4296 19.2284" stroke="#263238" stroke-width="0.174101" stroke-miterlimit="10" stroke-linecap="round" stroke-linejoin="round"/>
<path d="M42.263 24.4984L42.2839 22.6477" stroke="#263238" stroke-width="0.174101" stroke-miterlimit="10" stroke-linecap="round" stroke-linejoin="round"/>
<path d="M45.0817 22.0715C45.0817 22.0715 44.434 22.5346 44.1102 22.6268C43.7864 22.7191 43.4399 22.7191 43.1387 22.5798C42.8375 22.4406 42.4667 21.9183 42.3762 21.3315C42.2142 20.2922 42.1916 18.7653 42.3762 18.2117C42.5607 17.6563 43.4155 17.4944 43.4155 17.4944C43.4155 17.4944 44.4549 17.1479 45.3794 17.8408C46.3039 18.5337 46.142 19.4582 46.142 19.6201C46.142 19.782 46.142 19.9213 46.142 19.9213C46.142 19.9213 46.0027 21.1923 46.0027 21.4464C46.0027 21.7006 46.0497 21.7476 46.2342 21.7703" fill="white"/>
<path d="M45.0817 22.0715C45.0817 22.0715 44.434 22.5346 44.1102 22.6268C43.7864 22.7191 43.4399 22.7191 43.1387 22.5798C42.8375 22.4406 42.4667 21.9183 42.3762 21.3315C42.2142 20.2922 42.1916 18.7653 42.3762 18.2117C42.5607 17.6563 43.4155 17.4944 43.4155 17.4944C43.4155 17.4944 44.4549 17.1479 45.3794 17.8408C46.3039 18.5337 46.142 19.4582 46.142 19.6201C46.142 19.782 46.142 19.9213 46.142 19.9213C46.142 19.9213 46.0027 21.1923 46.0027 21.4464C46.0027 21.7006 46.0497 21.7476 46.2342 21.7703" stroke="#263238" stroke-width="0.174101" stroke-miterlimit="10" stroke-linecap="round" stroke-linejoin="round"/>
<path d="M43.0256 20.0606C43.0256 20.0606 42.794 20.4767 42.9333 20.6386C43.0726 20.8005 43.3024 20.7779 43.3024 20.7779" stroke="#263238" stroke-width="0.174101" stroke-miterlimit="10" stroke-linecap="round" stroke-linejoin="round"/>
<path d="M43.0012 21.194C43.0012 21.194 43.7411 21.3785 44.2947 20.9624" stroke="#263238" stroke-width="0.174101" stroke-miterlimit="10" stroke-linecap="round" stroke-linejoin="round"/>
<path d="M43.8578 19.5992C43.8578 19.5992 44.2739 19.345 44.4584 19.6689" stroke="#263238" stroke-width="0.174101" stroke-miterlimit="10" stroke-linecap="round" stroke-linejoin="round"/>
<path d="M42.3779 19.6671C42.3779 19.6671 42.6547 19.3659 42.9089 19.6898" stroke="#263238" stroke-width="0.174101" stroke-miterlimit="10" stroke-linecap="round" stroke-linejoin="round"/>
<path d="M42.3083 19.1588C42.3083 19.1588 42.7244 18.8349 43.0482 19.1588" stroke="#263238" stroke-width="0.174101" stroke-miterlimit="10" stroke-linecap="round" stroke-linejoin="round"/>
<path d="M43.7411 18.9968C43.7411 18.9968 44.3644 18.7426 44.7352 19.3903" stroke="#263238" stroke-width="0.174101" stroke-miterlimit="10" stroke-linecap="round" stroke-linejoin="round"/>
<path d="M42.4928 17.9348C42.4928 17.9348 42.3309 18.0497 42.3535 17.5884C42.3762 17.1252 42.8393 16.9181 42.8619 17.033C42.8845 17.1479 42.9089 17.2645 42.9089 17.2645C42.9089 17.2645 43.3024 16.8711 43.4643 16.9407C43.6262 17.0103 43.6262 17.0103 43.6262 17.0103C43.6262 17.0103 43.8577 16.9633 44.1816 16.9633C44.5054 16.9633 45.1983 17.0782 45.5448 17.3568C45.8912 17.6336 46.1924 17.9574 46.33 18.3735C46.4693 18.7896 46.3073 18.9289 46.283 19.1831C46.2603 19.4373 46.1437 19.923 46.1437 19.923C46.1437 19.923 46.1437 20.1546 46.0044 20.1772C45.8651 20.1999 45.6806 19.7385 45.5187 19.6462C45.3568 19.5539 45.0329 19.4617 45.0799 19.1605C45.1269 18.8593 45.1026 18.0741 44.7561 17.8669C44.4096 17.6597 43.762 17.5901 43.2763 17.7276C42.794 17.8652 42.4928 17.9348 42.4928 17.9348Z" fill="#263238" stroke="#263238" stroke-width="0.174101" stroke-miterlimit="10" stroke-linecap="round" stroke-linejoin="round"/>
<path d="M45.6371 20.3374C45.6371 20.3374 46.1924 19.3903 46.4223 19.9439C46.6538 20.4993 46.2377 21.0773 46.0532 21.1226C45.8686 21.1696 45.6597 20.9833 45.6597 20.9833" fill="white"/>
<path d="M45.6371 20.3374C45.6371 20.3374 46.1924 19.3903 46.4223 19.9439C46.6538 20.4993 46.2377 21.0773 46.0532 21.1226C45.8686 21.1696 45.6597 20.9833 45.6597 20.9833" stroke="#263238" stroke-width="0.174101" stroke-miterlimit="10" stroke-linecap="round" stroke-linejoin="round"/>
<path d="M40.7657 36.3216C40.7657 36.3216 37.5536 38.0765 37.1218 38.6424C36.69 39.2099 36.636 40.1535 36.878 40.6393C37.1218 41.125 37.8774 41.4227 37.8774 41.4227C37.8774 41.4227 40.7379 43.7975 41.2514 44.4451C41.765 45.0928 42.1968 45.7143 42.1968 45.7143C42.1968 45.7143 40.9555 46.416 40.7396 46.4699C40.5237 46.5239 40.1459 46.5517 39.93 46.5779C39.7141 46.604 39.6863 47.0636 39.93 47.3073C40.1738 47.5511 41.0913 47.659 41.6571 47.6312C42.2229 47.6033 43.0342 47.0375 43.3842 47.0375C43.7359 47.0375 44.6534 47.2812 45.0312 46.9835C45.409 46.6858 44.9232 46.012 44.6795 45.7422C44.4358 45.4723 42.7626 43.3936 42.5206 43.0976C42.2769 42.7999 41.0356 40.399 41.0356 40.399L40.7657 40.1831L44.3017 39.6156C44.3017 39.6156 43.9779 38.3464 42.8706 37.5908C41.7633 36.8352 40.7657 36.3216 40.7657 36.3216Z" fill="white" stroke="#263238" stroke-width="0.174101" stroke-miterlimit="10" stroke-linecap="round" stroke-linejoin="round"/>
<path d="M40.7657 40.1814C40.7657 40.1814 39.3085 40.7751 38.8227 40.8029C38.337 40.8308 37.8774 40.4791 37.8774 40.4791" stroke="#263238" stroke-width="0.174101" stroke-miterlimit="10" stroke-linecap="round" stroke-linejoin="round"/>
<path d="M40.5603 46.8285C40.5603 46.8285 40.1999 46.8547 40.0641 46.7171C39.9283 46.5796 39.601 46.7171 39.7437 47.0688C39.8883 47.4205 40.2243 47.4849 40.367 47.4849C40.5098 47.4849 40.6874 47.4362 40.6874 47.4362" stroke="#263238" stroke-width="0.174101" stroke-miterlimit="10" stroke-linecap="round" stroke-linejoin="round"/>
<path d="M44.7596 38.9401C44.7596 38.9401 42.7627 43.1516 42.8427 43.4475C42.9228 43.7435 43.3825 44.365 43.6523 44.527C43.9222 44.6889 44.6238 44.9866 44.6238 44.9866C44.6238 44.9866 48.9693 49.306 49.2392 49.602C49.5091 49.8997 50.3465 53.1919 50.3726 53.5419C50.3987 53.8936 50.3987 54.1095 50.6424 54.0015C50.8862 53.8936 51.56 53.4339 51.9116 52.8403C52.2633 52.2466 51.8855 50.8433 51.7219 50.5195C51.56 50.1957 51.748 50.0338 51.3702 49.6281C50.9924 49.2224 50.5867 49.1424 50.3447 48.8185C50.1027 48.4947 48.7517 45.0945 48.1859 44.473C47.6183 43.8514 46.4588 43.1237 46.4588 43.1237L48.1058 40.7211L44.7596 38.9401Z" fill="white" stroke="#263238" stroke-width="0.174101" stroke-miterlimit="10" stroke-linecap="round" stroke-linejoin="round"/>
<path d="M46.4605 43.1237L46.0009 43.7174" stroke="#263238" stroke-width="0.174101" stroke-miterlimit="10" stroke-linecap="round" stroke-linejoin="round"/>
<path d="M50.3326 53.0457C50.3326 53.0457 50.2072 53.4357 50.1933 53.5593C50.1793 53.6829 50.054 53.9493 50.2716 54.0416C50.4893 54.1356 50.7069 53.9789 50.8166 53.8866C50.9262 53.7926 50.9262 53.528 50.9262 53.528L50.9106 53.0144" stroke="#263238" stroke-width="0.174101" stroke-miterlimit="10" stroke-linecap="round" stroke-linejoin="round"/>
<path d="M51.1891 52.9517C51.1891 52.9517 51.1735 53.2633 51.2988 53.434" stroke="#263238" stroke-width="0.174101" stroke-miterlimit="10" stroke-linecap="round" stroke-linejoin="round"/>
<path d="M51.4851 52.6261C51.4468 52.687 51.5234 53.124 51.7027 53.171" stroke="#263238" stroke-width="0.174101" stroke-miterlimit="10" stroke-linecap="round" stroke-linejoin="round"/>
<path d="M51.7341 52.3301C51.7341 52.3301 51.7793 52.7132 51.9117 52.8403" stroke="#263238" stroke-width="0.174101" stroke-miterlimit="10" stroke-linecap="round" stroke-linejoin="round"/>
<path d="M43.325 33.9991L42.9507 34.8644L40.764 36.3216C40.764 36.3216 42.8427 38.2646 43.2745 38.7242C43.7063 39.1838 44.3278 39.9394 44.3278 39.9394L44.7596 38.9401L48.5376 41.6665C48.5376 41.6665 50.5345 38.1584 50.8044 37.1851C51.0742 36.2137 50.9402 34.5406 50.5885 34.027C50.2368 33.5134 49.8642 33.0276 49.8642 33.0276L43.325 33.9991Z" fill="#7392F9" stroke="#263238" stroke-width="0.174101" stroke-miterlimit="10" stroke-linecap="round" stroke-linejoin="round"/>
<path d="M44.7787 37.2548L45.0573 37.6447" stroke="#263238" stroke-width="0.174101" stroke-miterlimit="10" stroke-linecap="round" stroke-linejoin="round"/>
<path d="M43.708 35.7558L44.5141 36.8839" stroke="#263238" stroke-width="0.174101" stroke-miterlimit="10" stroke-linecap="round" stroke-linejoin="round"/>
<path d="M47.6218 35.1882C47.6218 35.1882 46.6225 35.7558 46.4066 36.1336C46.1907 36.5114 44.7596 38.9401 44.7596 38.9401" stroke="#263238" stroke-width="0.174101" stroke-miterlimit="10" stroke-linecap="round" stroke-linejoin="round"/>
<path d="M47.8916 34.7825C47.8916 34.7825 47.0821 35.0263 46.5424 35.5381" stroke="#263238" stroke-width="0.174101" stroke-miterlimit="10" stroke-linecap="round" stroke-linejoin="round"/>
<path d="M42.8166 35.378L43.816 36.3494" stroke="#263238" stroke-width="0.174101" stroke-miterlimit="10" stroke-linecap="round" stroke-linejoin="round"/>
<path d="M59.4937 48.1987L62.8225 49.7378C62.8225 49.7378 63.9872 50.57 64.7359 50.4864C65.4845 50.4028 67.0671 49.8614 67.0671 49.8614C67.0671 49.8614 72.4764 49.3199 72.9761 49.3199C73.4757 49.3199 74.3497 49.5689 74.4733 49.6107C74.5987 49.6524 75.5145 50.5682 76.3049 50.9425C77.0953 51.3168 78.0111 52.0655 78.0528 52.1908C78.0946 52.3162 78.5525 52.2744 78.5107 51.9419C78.4689 51.6093 77.7203 50.2357 77.346 49.736C76.9717 49.2363 76.3049 48.1134 76.3049 48.1134C76.3049 48.1134 76.096 46.6161 75.6398 46.6161C75.1819 46.6161 74.3915 47.3648 74.1008 47.4483C73.81 47.5319 71.0627 47.4901 70.1469 47.323C69.2312 47.1558 66.6928 47.2394 66.1513 47.4065C65.6099 47.5737 64.5705 47.7809 64.5705 47.7809L63.1551 45.8257L60.117 46.2418L59.4937 48.1987Z" fill="white" stroke="#263238" stroke-width="0.174101" stroke-miterlimit="10"/>
<path d="M62.241 46.5761L65.5698 47.0758C65.5698 47.0758 67.4432 47.4083 68.7733 47.0758C70.1052 46.7432 73.4757 45.9946 75.0148 45.6185C76.5538 45.2442 77.386 45.5767 77.595 45.6603C77.8039 45.7439 79.2176 47.3247 79.6337 47.699C80.0498 48.0734 80.1334 48.4895 80.4659 48.5312C80.7984 48.573 80.882 47.4501 80.7566 46.9922C80.6313 46.5343 79.6755 44.3702 79.5919 44.2449C79.5083 44.1195 78.9268 42.7058 78.3436 42.8294C77.7604 42.9548 76.2631 43.5781 75.9723 43.6616C75.6816 43.7452 72.8925 43.9524 72.2274 43.9106C71.5624 43.8688 70.6048 43.4527 69.3147 43.8688C68.0247 44.2849 67.2342 44.6175 67.2342 44.6175L62.4482 42.1208L62.241 46.5761Z" fill="white" stroke="#263238" stroke-width="0.174101" stroke-miterlimit="10"/>
<path d="M53.8755 41.9154C53.8755 41.9154 54.833 40.1675 57.3296 40.251C59.8262 40.3346 63.0732 41.6665 63.0732 41.6665L62.6989 47.034H59.9116L59.4955 48.1987L57.5821 47.2412C57.5821 47.2412 57.2496 47.6573 56.8752 47.4901C56.5009 47.323 55.8341 46.7415 55.8341 46.7415L53.8755 41.9154Z" fill="#7392F9" stroke="#263238" stroke-width="0.174101" stroke-miterlimit="10"/>
<path d="M53.8755 41.9154L55.8306 46.7433C55.8306 46.7433 56.0256 46.9139 56.2659 47.0984C56.3634 46.5866 56.4539 45.5855 56.1231 44.123C55.7523 42.4865 54.8348 41.6317 54.3839 41.2974C54.0322 41.6299 53.8755 41.9154 53.8755 41.9154Z" fill="#263238" stroke="#263238" stroke-width="0.174101" stroke-miterlimit="10"/>
<path d="M59.9098 47.034L58.1619 46.8686" stroke="#263238" stroke-width="0.174101" stroke-miterlimit="10"/>
<path d="M57.1329 44.9727L57.3714 45.5785" stroke="#263238" stroke-width="0.174101" stroke-miterlimit="10"/>
<path d="M56.2903 42.8312L56.9205 44.4329" stroke="#263238" stroke-width="0.174101" stroke-miterlimit="10"/>
<path d="M57.4968 44.621L57.9129 46.0765" stroke="#263238" stroke-width="0.174101" stroke-miterlimit="10"/>
<path d="M41.5004 51.4457C41.5004 51.4457 40.1476 51.235 38.8854 52.3179C37.6232 53.4008 38.0132 54.7519 38.1942 55.2933C38.3753 55.8348 38.8854 56.1342 39.0665 56.2857C39.2475 56.4354 39.4878 56.4964 39.4878 56.4964C39.4878 56.4964 40.6003 56.7976 41.0512 56.8271C41.5021 56.8567 41.7424 56.7662 41.7424 56.7662C41.7424 56.7662 42.31 57.2084 42.5206 57.1771C42.7313 57.1475 42.8253 56.6461 42.8253 56.6461C42.8253 56.6461 44.1485 56.1656 44.3887 55.7738C44.629 55.3838 44.1189 54.1808 44.1485 54.0311C44.1781 53.8814 44.9894 52.5286 44.9894 52.5286L41.5004 51.4457Z" fill="white" stroke="#263238" stroke-width="0.174101" stroke-miterlimit="10"/>
<path d="M41.5004 51.4457C41.5004 51.4457 40.1476 51.235 38.8854 52.3179C37.6232 53.4008 38.0132 54.7519 38.1942 55.2933C38.3753 55.8348 38.8854 56.1342 39.0665 56.2857C39.2475 56.4354 39.4878 56.4964 39.4878 56.4964C39.4878 56.4964 39.7089 56.5555 39.9927 56.6252L41.7824 51.5345L41.5004 51.4457Z" fill="#7392F9" stroke="#263238" stroke-width="0.174101" stroke-miterlimit="10"/>
<path d="M42.7174 49.071C41.7181 50.2026 40.9921 51.4701 40.7866 52.983C40.7953 52.9308 40.804 52.8785 40.8127 52.8263C40.6891 53.2442 40.6613 53.7316 40.4349 54.1094L38.687 56.6478C38.687 56.6478 37.6058 57.9797 36.939 59.228C36.2739 60.4763 35.6071 62.3078 35.6071 62.3078C35.6071 62.3078 33.652 64.3466 33.4848 64.7209C33.3177 65.0952 32.8198 66.3853 32.7362 66.7596C32.6526 67.1339 32.6892 67.3394 32.9956 66.9076C33.3386 66.4271 33.5684 66.011 33.5684 66.011C33.5684 66.011 34.0263 66.011 34.2335 65.762C34.4424 65.513 34.6078 65.2205 34.8585 65.0552C35.1075 64.888 35.7743 64.5137 36.0232 64.223C36.2722 63.9322 36.6482 62.8075 36.7301 62.6421C36.8136 62.475 40.1842 59.0626 40.5168 58.4393C40.8493 57.8143 41.2236 56.566 41.2236 56.566C41.2236 56.566 42.2229 55.5249 42.5973 54.9852C42.9716 54.4437 43.8038 52.9882 43.8038 52.9882C43.8038 52.9882 48.1319 52.156 50.2542 51.0331C52.3765 49.9101 54.3734 47.6625 54.6241 47.3717C54.8731 47.081 55.8307 46.7467 55.8307 46.7467C55.8307 46.7467 55.7889 44.2919 55.2056 43.2508C54.6224 42.2097 54.2481 41.9189 53.8738 41.9189C53.4994 41.9189 49.7545 43.3344 47.4233 44.4991C45.0921 45.6638 42.9698 48.7854 42.9698 48.7854L42.7174 49.071Z" fill="white" stroke="#263238" stroke-width="0.174101" stroke-miterlimit="10"/>
<path d="M43.8055 52.9848L44.8205 51.5119C44.8205 51.5119 46.4222 50.8137 47.244 49.9102" stroke="#263238" stroke-width="0.174101" stroke-miterlimit="10"/>
<path d="M41.2462 52.8263C41.2462 52.8263 43.4643 51.7574 43.5879 51.7574" stroke="#263238" stroke-width="0.174101" stroke-miterlimit="10"/>
<path d="M33.5684 66.011C33.5684 66.011 33.605 65.5217 33.8922 65.2763C34.1795 65.029 34.7958 64.2073 34.7958 64.2073" stroke="#263238" stroke-width="0.174101" stroke-miterlimit="10"/>
<path d="M43.1335 56.19C43.1335 56.19 43.2902 55.7739 42.8741 55.4622" stroke="#263238" stroke-width="0.174101" stroke-miterlimit="10"/>
<path d="M7.32446 67.5727C9.49202 71.3245 12.208 74.7125 15.589 77.3014C17.3161 78.6246 19.266 79.7127 21.4144 80.2611C29.5101 82.3277 39.5609 79.173 49.7302 80.867C59.8976 82.561 70.3298 80.477 76.2492 70.9659C76.9421 69.8534 77.5602 68.7217 78.1155 67.5709H7.32446V67.5727Z" fill="#7392F9"/>
<path d="M2.50711 67.5622H81.1675" stroke="#263238" stroke-width="0.174101" stroke-miterlimit="10" stroke-linecap="round" stroke-linejoin="round"/>
<path d="M11.9521 69.5139H19.1024" stroke="#263238" stroke-width="0.174101" stroke-miterlimit="10"/>
<path d="M20.2236 68.673H29.6163" stroke="#263238" stroke-width="0.174101" stroke-miterlimit="10"/>
<path d="M27.0901 69.4634H30.4085" stroke="#263238" stroke-width="0.174101" stroke-miterlimit="10"/>
<path d="M33.7251 68.2568H38.8524" stroke="#263238" stroke-width="0.174101" stroke-miterlimit="10"/>
<path d="M32.4437 69.0856H37.9488" stroke="#263238" stroke-width="0.174101" stroke-miterlimit="10"/>
<path d="M39.9091 69.0856H47.5243" stroke="#263238" stroke-width="0.174101" stroke-miterlimit="10"/>
<path d="M40.4367 68.1053H43.6036" stroke="#263238" stroke-width="0.174101" stroke-miterlimit="10"/>
<path d="M37.0435 70.2172H41.1905" stroke="#263238" stroke-width="0.174101" stroke-miterlimit="10"/>
<path d="M46.0166 68.2568H49.7859" stroke="#263238" stroke-width="0.174101" stroke-miterlimit="10"/>
<path d="M44.6586 69.9909H49.4847" stroke="#263238" stroke-width="0.174101" stroke-miterlimit="10"/>
<path d="M48.9572 69.0856H53.5569" stroke="#263238" stroke-width="0.174101" stroke-miterlimit="10"/>
<path d="M21.7365 71.6501H31.0109" stroke="#263238" stroke-width="0.174101" stroke-miterlimit="10"/>
<path d="M41.3403 72.4039H49.1069" stroke="#263238" stroke-width="0.174101" stroke-miterlimit="10"/>
<path d="M57.5525 69.3119H62.1523" stroke="#263238" stroke-width="0.174101" stroke-miterlimit="10"/>
<path d="M54.3856 68.182H57.7788" stroke="#263238" stroke-width="0.174101" stroke-miterlimit="10"/>
<path d="M54.3856 71.4238H61.6996" stroke="#263238" stroke-width="0.174101" stroke-miterlimit="10"/>
<path d="M33.2516 78.05H40.5655" stroke="#263238" stroke-width="0.174101" stroke-miterlimit="10"/>
<path d="M65.5455 68.558H69.8423" stroke="#263238" stroke-width="0.174101" stroke-miterlimit="10"/>
<path d="M66.3742 71.1226H75.3473" stroke="#263238" stroke-width="0.174101" stroke-miterlimit="10"/>
<path d="M78.5142 69.3885H75.4222" stroke="#263238" stroke-width="0.174101" stroke-miterlimit="10"/>
<path d="M64.1875 72.5554H67.2795" stroke="#263238" stroke-width="0.174101" stroke-miterlimit="10"/>
<path d="M27.9955 73.6105H34.3292" stroke="#263238" stroke-width="0.174101" stroke-miterlimit="10"/>
<path d="M50.0871 75.3445H39.4565" stroke="#263238" stroke-width="0.174101" stroke-miterlimit="10"/>
<path d="M9.82281 73.459H16.9105" stroke="#263238" stroke-width="0.174101" stroke-miterlimit="10"/>
<path d="M17.3631 68.6346H15.7805" stroke="#263238" stroke-width="0.174101" stroke-miterlimit="10"/>
<path d="M10.4269 68.558H13.2909" stroke="#263238" stroke-width="0.174101" stroke-miterlimit="10"/>
<path d="M8.99411 68.1053H7.33493" stroke="#263238" stroke-width="0.174101" stroke-miterlimit="10"/>
<path d="M9.37016 69.1622H5.22308" stroke="#263238" stroke-width="0.174101" stroke-miterlimit="10"/>
<path d="M21.4353 69.916H24.2244" stroke="#263238" stroke-width="0.174101" stroke-miterlimit="10"/>
<path d="M34.3292 70.595H32.3689" stroke="#263238" stroke-width="0.174101" stroke-miterlimit="10"/>
<path d="M73.8396 69.3119H72.029" stroke="#263238" stroke-width="0.174101" stroke-miterlimit="10"/>
<path d="M78.2879 68.3317H73.6133" stroke="#263238" stroke-width="0.174101" stroke-miterlimit="10"/>
<path d="M61.1721 68.3317H62.7546" stroke="#263238" stroke-width="0.174101" stroke-miterlimit="10"/>
<path d="M66.9783 69.8412H64.4138" stroke="#263238" stroke-width="0.174101" stroke-miterlimit="10"/>
<path d="M54.8383 72.5554H52.8779" stroke="#263238" stroke-width="0.174101" stroke-miterlimit="10"/>
<path d="M57.0076 76.4396H55.0472" stroke="#263238" stroke-width="0.174101" stroke-miterlimit="10"/>
<path d="M76.6287 73.8577H74.6684" stroke="#263238" stroke-width="0.174101" stroke-miterlimit="10"/>
<path d="M73.857 78.6559H63.7018" stroke="#263238" stroke-width="0.174101" stroke-miterlimit="10"/>
<path d="M21.5363 78.6559H11.3793" stroke="#263238" stroke-width="0.174101" stroke-miterlimit="10"/>
<path d="M67.7826 74.138H60.7577" stroke="#263238" stroke-width="0.174101" stroke-miterlimit="10"/>
<path d="M24.9034 75.496H22.7916" stroke="#263238" stroke-width="0.174101" stroke-miterlimit="10"/>
<path d="M5.67572 71.9513H8.31509" stroke="#263238" stroke-width="0.174101" stroke-miterlimit="10"/>
<path d="M6.42959 70.5184H2.05618" stroke="#263238" stroke-width="0.174101" stroke-miterlimit="10"/>
<defs>
<clipPath id="clip0_317_5163">
<rect width="117.692" height="33.344" fill="white" transform="translate(3.30795 39.2151)"/>
</clipPath>
</defs>
</svg>
