<svg width="14" height="14" viewBox="0 0 14 14" fill="none" xmlns="http://www.w3.org/2000/svg">
<path d="M11.7238 4.00977H2.2793" stroke="#A52424" stroke-width="1.25" stroke-linecap="round"/>
<path d="M10.7977 5.39844L10.5421 9.23128C10.4438 10.7062 10.3947 11.4437 9.91409 11.8933C9.43353 12.3429 8.69442 12.3429 7.2162 12.3429H6.78655C5.30833 12.3429 4.56922 12.3429 4.08866 11.8933C3.6081 11.4437 3.55893 10.7062 3.4606 9.23128L3.20508 5.39844" stroke="#A52424" stroke-width="1.25" stroke-linecap="round"/>
<path d="M5.61328 6.7876L5.89106 9.56538" stroke="#A52424" stroke-width="1.25" stroke-linecap="round"/>
<path d="M8.39106 6.7876L8.11328 9.56538" stroke="#A52424" stroke-width="1.25" stroke-linecap="round"/>
<path d="M3.94531 4.00944C3.97636 4.00944 3.99188 4.00944 4.00595 4.00908C4.46342 3.99749 4.86699 3.70661 5.02266 3.27628C5.02744 3.26305 5.03235 3.24832 5.04217 3.21887L5.09611 3.05706C5.14215 2.91893 5.16517 2.84986 5.19571 2.79122C5.31754 2.55726 5.54295 2.39479 5.80343 2.3532C5.86872 2.34277 5.94152 2.34277 6.08712 2.34277H7.91461C8.06022 2.34277 8.13302 2.34277 8.19831 2.3532C8.45879 2.39479 8.6842 2.55726 8.80603 2.79122C8.83656 2.84986 8.85959 2.91893 8.90563 3.05706L8.95957 3.21887C8.96937 3.24828 8.9743 3.26306 8.97908 3.27628C9.13474 3.70661 9.53832 3.99749 9.99579 4.00908C10.0099 4.00944 10.0254 4.00944 10.0564 4.00944" stroke="#A52424" stroke-width="1.25"/>
</svg>
