<svg width="91" height="90" viewBox="0 0 91 90" fill="none" xmlns="http://www.w3.org/2000/svg">
<path d="M10.7058 69.6339C10.7058 69.6339 20.1177 81.5513 36.2024 82.0367C52.287 82.5221 66.6678 72.4959 78.5329 64.6812C90.398 56.8665 94.2872 43.7969 88.3677 33.0154C82.4483 22.2339 71.6889 25.9237 58.7765 18.3447C45.8641 10.7656 43.574 6.7837 28.6052 7.46849C13.6363 8.15329 1.24355 24.1372 1.79139 42.0547C2.33923 59.9722 10.7058 69.6339 10.7058 69.6339Z" fill="#FFC73C"/>
<path opacity="0.7" d="M10.7058 69.6339C10.7058 69.6339 20.1177 81.5513 36.2024 82.0367C52.287 82.5221 66.6678 72.4959 78.5329 64.6812C90.398 56.8665 94.2872 43.7969 88.3677 33.0154C82.4483 22.2339 71.6889 25.9237 58.7765 18.3447C45.8641 10.7656 43.574 6.7837 28.6052 7.46849C13.6363 8.15329 1.24355 24.1372 1.79139 42.0547C2.33923 59.9722 10.7058 69.6339 10.7058 69.6339Z" fill="white"/>
<path d="M45.9083 5.71823C45.3724 6.30019 44.9957 7.01056 44.8147 7.78068C44.4187 7.24562 43.8405 6.87402 43.1893 6.73599C42.5381 6.59795 41.859 6.70305 41.2799 7.03143C41.1665 5.75785 40.6 4.56719 39.6834 3.67579C38.7667 2.78438 37.5607 2.25138 36.2844 2.17361C35.0082 2.09584 33.7464 2.47846 32.7283 3.25197C31.7101 4.02548 31.0033 5.13854 30.7361 6.38893C30.1092 5.77229 29.2719 5.41614 28.3929 5.39222C27.5138 5.3683 26.6584 5.67839 25.9989 6.26003" stroke="#263238" stroke-width="0.201411" stroke-miterlimit="10"/>
<path d="M60.4663 0.0847791C58.6888 -0.193369 56.8722 0.218633 55.3887 1.2364C53.9051 2.25416 52.8668 3.80066 52.4864 5.55912C51.7629 4.84557 50.8223 4.39329 49.8131 4.27366C48.804 4.15404 47.7837 4.37388 46.9134 4.89849" stroke="#263238" stroke-width="0.201411" stroke-miterlimit="10"/>
<path d="M64.426 2.13917C63.9287 1.62591 63.3562 1.19127 62.7281 0.850143" stroke="#263238" stroke-width="0.201411" stroke-miterlimit="10"/>
<path d="M61.8882 8.99518H74.9074C74.7413 8.7199 74.5188 8.48281 74.2547 8.29942C73.9906 8.11603 73.6908 7.99047 73.3748 7.93096C73.0588 7.87146 72.7338 7.87934 72.4211 7.95409C72.1083 8.02885 71.8149 8.16879 71.56 8.36477C71.3876 7.86581 71.1076 7.41087 70.7398 7.03215C70.372 6.65342 69.9255 6.36019 69.4318 6.17321C68.9381 5.98623 68.4093 5.91007 67.883 5.95014C67.3566 5.9902 66.8454 6.1455 66.3857 6.40504C66.2706 5.12749 65.8082 3.9058 65.0484 2.8723" stroke="#263238" stroke-width="0.201411" stroke-miterlimit="10"/>
<path d="M25.4551 6.86426C25.0423 7.44937 24.8213 8.1482 24.8227 8.86427C24.8227 8.90656 24.8227 8.94886 24.8227 8.99317H59.3263" stroke="#263238" stroke-width="0.201411" stroke-miterlimit="10"/>
<path d="M71.6506 11.3134C71.2383 10.9614 70.7416 10.7224 70.2092 10.6199C69.6767 10.5174 69.1268 10.5548 68.6132 10.7286C68.0996 10.9024 67.64 11.2065 67.2792 11.6112C66.9184 12.0159 66.6688 12.5074 66.5549 13.0375C66.2973 12.7836 65.9767 12.603 65.626 12.5142C65.2754 12.4253 64.9075 12.4314 64.56 12.5319C64.2126 12.6324 63.8981 12.8237 63.6491 13.086C63.4001 13.3483 63.2254 13.6722 63.143 14.0244C62.9676 13.7883 62.7121 13.6242 62.4243 13.5631C62.1366 13.5019 61.8364 13.5478 61.5801 13.6921C61.5292 13.1258 61.277 12.5965 60.8692 12.2003C60.4614 11.804 59.9251 11.5671 59.3576 11.5325C58.7901 11.4979 58.229 11.6679 57.7761 12.0117C57.3232 12.3554 57.0085 12.8502 56.8892 13.4061C56.6721 13.1884 56.3949 13.0404 56.0932 12.9811C55.7915 12.9219 55.4789 12.954 55.1956 13.0734C54.9122 13.1928 54.6709 13.394 54.5026 13.6514C54.3343 13.9087 54.2466 14.2104 54.2508 14.5179C54.2508 14.538 54.2508 14.5561 54.2508 14.5763H76.5248C76.452 14.4527 76.3536 14.3461 76.2363 14.2636C76.119 14.1811 75.9854 14.1246 75.8445 14.0979C75.7035 14.0712 75.5585 14.0749 75.4192 14.1088C75.2798 14.1426 75.1493 14.2059 75.0363 14.2943C74.9598 14.0724 74.8354 13.8701 74.6719 13.7017C74.5084 13.5333 74.3098 13.4029 74.0903 13.3199C73.8708 13.2368 73.6357 13.2031 73.4016 13.2212C73.1676 13.2392 72.9404 13.3085 72.7362 13.4242C72.7143 13.1902 72.6671 12.9592 72.5952 12.7354" stroke="#263238" stroke-width="0.201411" stroke-miterlimit="10"/>
<path d="M27.2094 29.6478C26.7967 29.2969 26.3 29.0589 25.7679 28.9571C25.2358 28.8553 24.6864 28.8932 24.1733 29.0671C23.6602 29.2409 23.2009 29.5448 22.8403 29.9492C22.4797 30.3535 22.23 30.8444 22.1157 31.3739C21.8581 31.1201 21.5374 30.9394 21.1868 30.8506C20.8362 30.7617 20.4682 30.7679 20.1208 30.8684C19.7733 30.9689 19.4589 31.1601 19.2099 31.4224C18.9608 31.6847 18.7862 32.0086 18.7038 32.3608C18.5284 32.1223 18.2715 31.9565 17.9819 31.8949C17.6923 31.8333 17.3902 31.8801 17.1328 32.0265C17.0862 31.4563 16.8355 30.9221 16.4267 30.5219C16.0179 30.1217 15.4785 29.8824 14.9075 29.8478C14.3365 29.8133 13.7722 29.9859 13.3182 30.3339C12.8641 30.682 12.5509 31.1821 12.4359 31.7425C12.148 31.4563 11.7583 31.2962 11.3523 31.2974C10.9438 31.3006 10.5532 31.4652 10.2656 31.7554C9.97811 32.0456 9.81704 32.4377 9.81758 32.8462C9.81658 32.865 9.81658 32.8838 9.81758 32.9026H32.0876C32.0146 32.7792 31.9161 32.6728 31.7987 32.5905C31.6813 32.5082 31.5477 32.4519 31.4068 32.4254C31.2659 32.3989 31.1209 32.4028 30.9816 32.4368C30.8424 32.4708 30.7119 32.5342 30.5991 32.6227C30.5211 32.4016 30.3958 32.2003 30.232 32.0327C30.0681 31.8651 29.8697 31.7352 29.6505 31.6522C29.4313 31.5691 29.1967 31.5349 28.9629 31.5519C28.7291 31.5689 28.5019 31.6367 28.297 31.7506C28.2771 31.5169 28.2298 31.2864 28.156 31.0637" stroke="#263238" stroke-width="0.201411" stroke-miterlimit="10"/>
<path d="M31.4692 84.6531C32.4763 84.9552 35.296 85.4587 33.3826 85.4587C31.4692 85.4587 28.8509 85.8615 25.4269 85.9622C22.0029 86.0629 22.7078 86.0629 19.0825 85.4587C15.4571 84.8545 13.0401 85.6601 11.9324 85.2573C10.8246 84.8545 15.4571 84.8545 17.4712 84.2503C19.4853 83.646 21.4994 82.5383 24.9234 83.7467C28.3473 84.9552 29.4551 84.1495 29.4551 84.1495C29.4551 84.1495 30.4622 84.351 31.4692 84.6531ZM47.6828 88.1778C47.6828 88.1778 42.9496 86.4658 40.9355 86.7679C38.9214 87.07 38.0151 87.9763 36.4038 88.1778C35.2332 88.3067 34.0567 88.3739 32.8791 88.3792C32.8791 88.3792 36.0009 88.8827 37.7129 89.1848C39.4249 89.4869 42.3454 89.1848 44.6616 88.9834C46.9778 88.782 48.7905 88.782 49.0926 88.782C49.3948 88.782 47.6828 88.1778 47.6828 88.1778ZM11.8317 89.3862C12.3352 89.4869 18.5789 89.6883 20.8952 89.5876C23.2114 89.4869 28.1459 89.2855 27.2396 89.0841C26.3332 88.8827 22.305 88.0771 19.4853 87.7749C16.6655 87.4728 11.2274 88.782 11.2274 88.782C10.4218 89.3862 11.3281 89.2855 11.8317 89.3862ZM56.142 87.2714C56.142 87.2714 52.0131 86.6672 49.5962 86.5665C48.0629 86.5216 46.5324 86.7256 45.0644 87.1707C45.0644 87.1707 49.0926 87.8756 50.5025 87.8756C51.9124 87.8756 54.43 87.6742 55.5378 87.7749C56.6455 87.8756 57.7533 88.1778 58.7603 87.9763C59.7674 87.7749 58.4582 86.6672 56.142 87.2714ZM58.6596 84.8545C58.6596 84.8545 63.5942 84.9552 66.3132 85.0559C69.0323 85.1566 69.0323 85.0559 65.1048 84.4517C61.1773 83.8474 57.5519 84.4517 58.6596 84.8545ZM40.7341 81.5312C40.7341 81.5312 33.1812 81.5312 33.8861 81.934C34.5911 82.3369 37.8136 82.5383 39.6263 82.4376C41.439 82.3369 43.6546 81.7326 40.7341 81.5312ZM47.7835 84.0488C47.7835 84.0488 44.5609 83.0418 43.0503 83.2432C41.5397 83.4446 39.9285 83.9481 37.9144 84.2503C35.9002 84.5524 35.7995 84.5524 36.3031 84.5524C36.8066 84.5524 39.8278 84.351 42.6475 84.351C45.4672 84.351 48.1863 85.2573 47.7835 84.0488ZM71.1471 87.07C71.1471 87.07 67.421 87.9763 65.1048 88.3792C62.7886 88.782 57.4512 88.4799 58.2568 89.0841C59.0625 89.6883 62.0836 88.782 66.9175 88.9834C71.7513 89.1848 74.0676 88.5806 73.1612 88.1778C72.2549 87.7749 72.557 87.4728 71.1471 87.07ZM19.3846 81.2291C17.7733 81.7326 14.0472 82.639 10.5225 83.4446C6.99782 84.2503 13.6444 83.9481 16.2627 83.646C18.881 83.3439 22.4057 82.5383 23.7149 82.0347C25.0241 81.5312 22.7078 80.1213 22.7078 80.1213C20.7944 79.8192 20.9959 80.7256 19.3846 81.2291Z" fill="#FFC73C"/>
<path opacity="0.5" d="M31.4692 84.6531C32.4763 84.9552 35.296 85.4587 33.3826 85.4587C31.4692 85.4587 28.8509 85.8615 25.4269 85.9622C22.0029 86.0629 22.7078 86.0629 19.0825 85.4587C15.4571 84.8545 13.0401 85.6601 11.9324 85.2573C10.8246 84.8545 15.4571 84.8545 17.4712 84.2503C19.4853 83.646 21.4994 82.5383 24.9234 83.7467C28.3473 84.9552 29.4551 84.1495 29.4551 84.1495C29.4551 84.1495 30.4622 84.351 31.4692 84.6531ZM47.6828 88.1778C47.6828 88.1778 42.9496 86.4658 40.9355 86.7679C38.9214 87.07 38.0151 87.9763 36.4038 88.1778C35.2332 88.3067 34.0567 88.3739 32.8791 88.3792C32.8791 88.3792 36.0009 88.8827 37.7129 89.1848C39.4249 89.4869 42.3454 89.1848 44.6616 88.9834C46.9778 88.782 48.7905 88.782 49.0926 88.782C49.3948 88.782 47.6828 88.1778 47.6828 88.1778ZM11.8317 89.3862C12.3352 89.4869 18.5789 89.6883 20.8952 89.5876C23.2114 89.4869 28.1459 89.2855 27.2396 89.0841C26.3332 88.8827 22.305 88.0771 19.4853 87.7749C16.6655 87.4728 11.2274 88.782 11.2274 88.782C10.4218 89.3862 11.3281 89.2855 11.8317 89.3862ZM56.142 87.2714C56.142 87.2714 52.0131 86.6672 49.5962 86.5665C48.0629 86.5216 46.5324 86.7256 45.0644 87.1707C45.0644 87.1707 49.0926 87.8756 50.5025 87.8756C51.9124 87.8756 54.43 87.6742 55.5378 87.7749C56.6455 87.8756 57.7533 88.1778 58.7603 87.9763C59.7674 87.7749 58.4582 86.6672 56.142 87.2714ZM58.6596 84.8545C58.6596 84.8545 63.5942 84.9552 66.3132 85.0559C69.0323 85.1566 69.0323 85.0559 65.1048 84.4517C61.1773 83.8474 57.5519 84.4517 58.6596 84.8545ZM40.7341 81.5312C40.7341 81.5312 33.1812 81.5312 33.8861 81.934C34.5911 82.3369 37.8136 82.5383 39.6263 82.4376C41.439 82.3369 43.6546 81.7326 40.7341 81.5312ZM47.7835 84.0488C47.7835 84.0488 44.5609 83.0418 43.0503 83.2432C41.5397 83.4446 39.9285 83.9481 37.9144 84.2503C35.9002 84.5524 35.7995 84.5524 36.3031 84.5524C36.8066 84.5524 39.8278 84.351 42.6475 84.351C45.4672 84.351 48.1863 85.2573 47.7835 84.0488ZM71.1471 87.07C71.1471 87.07 67.421 87.9763 65.1048 88.3792C62.7886 88.782 57.4512 88.4799 58.2568 89.0841C59.0625 89.6883 62.0836 88.782 66.9175 88.9834C71.7513 89.1848 74.0676 88.5806 73.1612 88.1778C72.2549 87.7749 72.557 87.4728 71.1471 87.07ZM19.3846 81.2291C17.7733 81.7326 14.0472 82.639 10.5225 83.4446C6.99782 84.2503 13.6444 83.9481 16.2627 83.646C18.881 83.3439 22.4057 82.5383 23.7149 82.0347C25.0241 81.5312 22.7078 80.1213 22.7078 80.1213C20.7944 79.8192 20.9959 80.7256 19.3846 81.2291Z" fill="white"/>
<path d="M24.2184 84.7558C24.2184 84.7558 29.1651 83.9985 31.9002 84.3771C34.6354 84.7558 35.9889 85.1727 38.5931 85.1727H42.3414" stroke="#263238" stroke-width="0.201411" stroke-miterlimit="10"/>
<path d="M44.8429 86.2201C44.8429 86.2201 46.1964 85.9079 49.7372 85.9079C53.278 85.9079 54.3293 86.22 56.4039 86.3187C58.4784 86.4174 63.1733 86.4235 63.1733 86.4235" stroke="#263238" stroke-width="0.201411" stroke-miterlimit="10"/>
<path d="M36.2024 87.6722C36.2024 87.6722 40.0574 85.6943 43.7029 86.9431C47.3484 88.1918 52.3474 87.6722 52.6596 87.6722" stroke="#263238" stroke-width="0.201411" stroke-miterlimit="10"/>
<path d="M48.0715 82.9854C48.0715 82.9854 44.5146 82.3288 43.7915 82.5826C43.0684 82.8363 42.0292 82.6671 40.4682 82.9854C39.3329 83.185 38.1829 83.2895 37.0302 83.2976" stroke="#263238" stroke-width="0.201411" stroke-miterlimit="10"/>
<path d="M53.3223 82.7397C53.3223 82.7397 57.5519 82.639 60.1702 81.8333C62.7886 81.0277 67.3203 83.2432 68.8309 83.4446C70.3415 83.646 73.4633 83.9481 73.4633 83.9481" stroke="#263238" stroke-width="0.201411" stroke-miterlimit="10"/>
<path d="M29.153 80.8263C27.3486 80.2911 25.4915 79.9534 23.6142 79.8192C20.593 79.6178 18.0754 81.0277 16.2627 81.2291C14.45 81.4305 11.1267 81.4305 10.8246 81.4305" stroke="#263238" stroke-width="0.201411" stroke-miterlimit="10"/>
<path d="M15.4571 87.3721C15.4571 87.3721 20.593 86.8686 23.9163 86.9693C27.2396 87.07 29.6565 87.9763 30.4622 87.9763" stroke="#263238" stroke-width="0.201411" stroke-miterlimit="10"/>
<path d="M64.1985 88.077C64.1985 88.077 68.3274 86.7679 69.7372 86.6672C71.1471 86.5665 74.5711 87.3721 76.4845 87.3721" stroke="#263238" stroke-width="0.201411" stroke-miterlimit="10"/>
<path d="M28.9335 60.9571C28.1493 62.5356 27.6709 64.2481 27.5236 66.0045C27.2577 68.9692 28.1439 72.4234 28.0553 72.9551C27.9667 73.4869 27.8338 75.08 28.3212 76.4073C28.8086 77.7346 31.1107 79.7286 31.288 80.3489C31.4652 80.9693 31.6424 81.7205 31.4209 82.1616C31.1993 82.6027 30.1399 83.9622 29.9748 84.1918C29.8962 84.3046 29.9748 84.1918 31.9083 84.3751C32.3494 84.4174 32.438 83.3137 32.7482 82.6047C33.0584 81.8958 33.8559 81.497 33.6787 80.8786C33.5015 80.2603 32.6152 79.8595 32.2688 78.7537C31.9224 77.648 31.9607 75.7427 31.6505 74.2804C31.4835 73.4479 31.2 72.6431 30.8086 71.8897C30.8086 71.8897 31.4289 67.6842 31.9164 66.8423C32.4038 66.0004 33.288 63.9199 33.5095 62.6369C33.7311 61.3539 32.3574 60.6006 31.0301 60.4214C29.7028 60.2421 28.9335 60.9571 28.9335 60.9571Z" fill="#B2B2B2"/>
<mask id="mask0_317_3091" style="mask-type:luminance" maskUnits="userSpaceOnUse" x="27" y="60" width="7" height="25">
<path d="M28.9335 60.9571C28.1493 62.5356 27.6709 64.2481 27.5236 66.0045C27.2577 68.9692 28.1439 72.4234 28.0553 72.9551C27.9667 73.4869 27.8338 75.08 28.3212 76.4073C28.8086 77.7346 31.1107 79.7286 31.288 80.3489C31.4652 80.9693 31.6424 81.7205 31.4209 82.1616C31.1993 82.6027 30.1399 83.9622 29.9748 84.1918C29.8962 84.3046 29.9748 84.1918 31.9083 84.3751C32.3494 84.4174 32.438 83.3137 32.7482 82.6047C33.0584 81.8958 33.8559 81.497 33.6787 80.8786C33.5015 80.2603 32.6152 79.8595 32.2688 78.7537C31.9224 77.648 31.9607 75.7427 31.6505 74.2804C31.4835 73.4479 31.2 72.6431 30.8086 71.8897C30.8086 71.8897 31.4289 67.6842 31.9164 66.8423C32.4038 66.0004 33.288 63.9199 33.5095 62.6369C33.7311 61.3539 32.3574 60.6006 31.0301 60.4214C29.7028 60.2421 28.9335 60.9571 28.9335 60.9571Z" fill="white"/>
</mask>
<g mask="url(#mask0_317_3091)">
<path opacity="0.3" d="M32.2527 78.7558C32.1138 78.2547 32.0234 77.7414 31.9828 77.223C31.0402 76.5503 29.7854 75.2311 29.8338 74.5604C29.8861 73.8212 30.15 72.9773 30.15 72.6611C30.15 72.3449 29.0422 73.2935 28.4078 72.1334C27.7733 70.9733 27.5639 65.5392 28.2064 63.4727C28.8489 61.4063 29.8418 61.2572 29.8418 61.2572L29.1248 60.8101C29.0598 60.851 28.9985 60.8975 28.9415 60.9491C28.1574 62.5275 27.679 64.2401 27.5316 65.9964C27.2658 68.9612 28.152 72.4154 28.0634 72.9471C27.9747 73.4788 27.8418 75.072 28.3292 76.3993C28.8166 77.7266 31.1188 79.7205 31.296 80.3409C31.4732 80.9612 31.6505 81.7125 31.4289 82.1536C30.9764 82.8903 30.4856 83.603 29.9586 84.2885C29.7814 84.5101 31.4652 84.4215 31.9083 84.3771C32.3514 84.3328 32.438 83.3157 32.7482 82.6067C33.0584 81.8978 33.8559 81.499 33.6787 80.8807C33.5015 80.2623 32.6072 79.8615 32.2527 78.7558Z" fill="black"/>
</g>
<path d="M28.9335 60.9571C28.1493 62.5356 27.6709 64.2481 27.5236 66.0045C27.2577 68.9692 28.1439 72.4234 28.0553 72.9551C27.9667 73.4869 27.8338 75.08 28.3212 76.4073C28.8086 77.7346 31.1107 79.7286 31.288 80.3489C31.4652 80.9693 31.6424 81.7205 31.4209 82.1616C31.1993 82.6027 30.1399 83.9622 29.9748 84.1918C29.8962 84.3046 29.9748 84.1918 31.9083 84.3751C32.3494 84.4174 32.438 83.3137 32.7482 82.6047C33.0583 81.8958 33.8559 81.497 33.6787 80.8786C33.5015 80.2603 32.6152 79.8595 32.2688 78.7537C31.9224 77.648 31.9607 75.7427 31.6505 74.2804C31.4835 73.4479 31.2 72.6431 30.8086 71.8897C30.8086 71.8897 31.4289 67.6842 31.9164 66.8423C32.4038 66.0004 33.288 63.9199 33.5095 62.6369C33.7311 61.3539 32.3574 60.6006 31.0301 60.4214C29.7028 60.2421 28.9335 60.9571 28.9335 60.9571Z" stroke="#263238" stroke-width="0.201411" stroke-linecap="round" stroke-linejoin="round"/>
<path d="M34.6435 62.8564C34.6435 62.8564 36.5931 68.081 37.6646 69.7184C38.7361 71.3559 39.2598 71.8876 39.2598 71.8876C39.0259 72.7878 39.0259 73.7327 39.2598 74.6329C39.6626 76.0427 40.6697 78.8403 40.9416 79.4667C41.2135 80.0931 41.5619 80.7517 41.6062 81.4144C41.6425 81.8629 41.7166 82.3076 41.8278 82.7437C41.8278 82.7437 43.2518 82.7739 43.9084 82.5221C44.1662 82.4234 42.4461 80.3972 42.2689 79.3781C42.0916 78.359 42.8449 73.9763 42.4461 72.9148C42.0473 71.8534 41.4391 70.4798 41.4391 70.4798C41.4391 70.4798 40.7744 64.5019 40.0654 62.6872C39.3565 60.8725 39.0926 60.3851 39.004 60.1635C38.9154 59.942 38.0735 59.9863 36.8348 60.5663C35.5961 61.1464 34.6435 62.8564 34.6435 62.8564Z" fill="#B2B2B2"/>
<mask id="mask1_317_3091" style="mask-type:luminance" maskUnits="userSpaceOnUse" x="34" y="60" width="10" height="23">
<path d="M34.6435 62.8564C34.6435 62.8564 36.5931 68.081 37.6646 69.7184C38.7361 71.3559 39.2598 71.8876 39.2598 71.8876C39.0259 72.7878 39.0259 73.7327 39.2598 74.6329C39.6626 76.0427 40.6697 78.8403 40.9416 79.4667C41.2135 80.0931 41.5619 80.7517 41.6062 81.4144C41.6425 81.8629 41.7166 82.3076 41.8278 82.7437C41.8278 82.7437 43.2518 82.7739 43.9084 82.5221C44.1662 82.4234 42.4461 80.3972 42.2689 79.3781C42.0916 78.359 42.8449 73.9763 42.4461 72.9148C42.0473 71.8534 41.4391 70.4798 41.4391 70.4798C41.4391 70.4798 40.7744 64.5019 40.0654 62.6872C39.3565 60.8725 39.0926 60.3851 39.004 60.1635C38.9154 59.942 38.0735 59.9863 36.8348 60.5663C35.5961 61.1464 34.6435 62.8564 34.6435 62.8564Z" fill="white"/>
</mask>
<g mask="url(#mask1_317_3091)">
<path opacity="0.3" d="M42.432 76.1495C41.7694 74.8504 40.9798 73.4143 40.9134 72.9793C40.8066 72.2925 41.4411 71.1847 40.861 71.2915C40.2809 71.3982 39.5941 71.08 38.8469 69.233C38.0997 67.3861 36.1561 61.9521 36.1561 61.9521L35.1309 62.0951C34.9506 62.3407 34.7851 62.597 34.6354 62.8624C34.6354 62.8624 36.5851 68.087 37.6566 69.7245C38.7281 71.362 39.2517 71.8937 39.2517 71.8937C39.0179 72.7938 39.0179 73.7388 39.2517 74.6389C39.6546 76.0488 40.6616 78.8464 40.9335 79.4728C41.2054 80.0991 41.5539 80.7578 41.5982 81.4204C41.6345 81.869 41.7086 82.3136 41.8197 82.7497L43.9003 82.5282C43.9003 82.5282 42.4461 80.3932 42.2588 79.3721C42.1702 78.8645 42.3152 77.507 42.432 76.1495Z" fill="black"/>
</g>
<path d="M34.6435 62.8564C34.6435 62.8564 36.5931 68.081 37.6646 69.7184C38.7361 71.3559 39.2598 71.8876 39.2598 71.8876C39.0259 72.7878 39.0259 73.7327 39.2598 74.6329C39.6626 76.0427 40.6697 78.8403 40.9416 79.4667C41.2135 80.0931 41.5619 80.7517 41.6062 81.4144C41.6425 81.8629 41.7166 82.3076 41.8278 82.7437C41.8278 82.7437 43.2518 82.7739 43.9084 82.5221C44.1662 82.4234 42.4461 80.3972 42.2689 79.3781C42.0916 78.359 42.8449 73.9763 42.4461 72.9148C42.0473 71.8534 41.4391 70.4798 41.4391 70.4798C41.4391 70.4798 40.7744 64.5019 40.0654 62.6872C39.3565 60.8725 39.0926 60.3851 39.004 60.1635C38.9154 59.942 38.0735 59.9863 36.8348 60.5663C35.5961 61.1464 34.6435 62.8564 34.6435 62.8564Z" stroke="#263238" stroke-width="0.201411" stroke-linecap="round" stroke-linejoin="round"/>
<path d="M29.7733 57.2814L28.7119 61.3539C28.7119 61.3539 30.7925 61.4868 31.7673 62.1958C32.7421 62.9047 33.3162 63.2592 33.3162 63.2592C33.3162 63.2592 34.3796 63.3478 34.726 63.2592C35.0725 63.1706 35.7009 62.2844 36.8086 61.5311C37.5405 61.056 38.3495 60.7118 39.1994 60.514L37.9144 56.8886C37.9144 56.8886 35.5236 57.6943 33.4431 57.5533C31.3625 57.4123 29.7733 57.2814 29.7733 57.2814Z" fill="#FFC73C"/>
<mask id="mask2_317_3091" style="mask-type:luminance" maskUnits="userSpaceOnUse" x="28" y="56" width="12" height="8">
<path d="M29.7733 57.2814L28.7119 61.3539C28.7119 61.3539 30.7925 61.4868 31.7673 62.1958C32.7421 62.9047 33.3162 63.2592 33.3162 63.2592C33.3162 63.2592 34.3796 63.3478 34.726 63.2592C35.0725 63.1706 35.7009 62.2844 36.8086 61.5311C37.5405 61.056 38.3495 60.7118 39.1994 60.514L37.9144 56.8886C37.9144 56.8886 35.5236 57.6943 33.4431 57.5533C31.3625 57.4123 29.7733 57.2814 29.7733 57.2814Z" fill="white"/>
</mask>
<g mask="url(#mask2_317_3091)">
<path opacity="0.3" d="M37.9103 60.941C37.9365 60.8906 37.9204 60.8624 37.8439 60.8624C37.3383 60.8624 36.5589 61.4143 35.6404 62.0105C34.722 62.6066 34.0795 62.377 33.5297 61.8272C32.9798 61.2773 32.4723 61.5513 31.8761 61.368C31.2799 61.1847 29.6726 60.3609 29.6726 59.944C29.6726 59.5271 31.2336 60.4032 31.6465 60.2663C32.0594 60.1293 30.0855 59.5311 30.4078 59.2592C30.73 58.9873 33.1168 59.2592 33.9425 59.0316C34.7683 58.804 31.004 58.7557 30.5448 58.5724C30.0855 58.3891 34.1701 58.4797 34.1701 58.4797L31.3685 57.4042C30.3977 57.3337 29.7794 57.2814 29.7794 57.2814L28.718 61.3539C28.718 61.3539 30.7985 61.4868 31.7734 62.1958C32.7482 62.9047 33.3222 63.2592 33.3222 63.2592C33.3222 63.2592 34.3857 63.3478 34.7321 63.2592C35.0785 63.1706 35.7069 62.2844 36.8147 61.5311C37.1597 61.2991 37.5267 61.1015 37.9103 60.941Z" fill="black"/>
</g>
<path d="M29.7733 57.2814L28.7119 61.3539C28.7119 61.3539 30.7925 61.4868 31.7673 62.1958C32.7421 62.9047 33.3162 63.2592 33.3162 63.2592C33.3162 63.2592 34.3796 63.3478 34.726 63.2592C35.0725 63.1706 35.7009 62.2844 36.8086 61.5311C37.5405 61.056 38.3495 60.7118 39.1994 60.514L37.9144 56.8886C37.9144 56.8886 35.5236 57.6943 33.4431 57.5533C31.3625 57.4123 29.7733 57.2814 29.7733 57.2814Z" stroke="#263238" stroke-width="0.201411" stroke-linecap="round" stroke-linejoin="round"/>
<path d="M30.0835 42.3125L30.5266 45.1021C30.5266 45.1021 28.8448 46.4737 27.8257 46.9148C26.8066 47.3559 25.5679 47.4465 24.9919 48.4213C24.6215 49.0971 24.3676 49.8304 24.2406 50.5905C24.2406 50.5905 23.0885 52.3166 22.5568 53.6016C22.0251 54.8866 22.3796 55.7265 23.5759 55.4606C24.7723 55.1948 27.7814 50.945 27.7814 50.945C27.7814 50.945 29.5095 54.663 29.5095 55.376C29.5095 56.089 29.5961 57.1887 29.8177 57.8111C30.0392 58.4334 34.2487 58.8282 36.0171 58.1212C37.7855 57.4143 37.9204 57.0578 37.9204 57.0578C37.9204 57.0578 37.4773 53.6056 37.7432 52.9853C38.009 52.3649 38.7623 48.9994 38.7623 48.9994C38.7623 48.9994 40.7542 51.3901 41.0644 52.0205C41.3746 52.6509 41.1087 54.367 41.286 55.8292C41.4632 57.2914 41.7109 59.2532 41.6747 59.3921C41.6384 59.5311 40.7986 60.2119 40.7542 60.655C40.7099 61.0981 41.0201 61.6278 41.0644 61.805C41.1087 61.9823 41.5518 61.8494 41.7734 61.7607C41.9949 61.6721 42.9234 61.6721 43.0564 61.2733C43.1893 60.8745 43.2779 60.8322 43.2779 60.3005C43.2422 59.813 43.1565 59.3304 43.0221 58.8604C43.0221 58.8604 43.7653 53.8352 43.5881 52.3307C43.4109 50.8262 42.9678 50.383 42.6133 49.7124C42.2588 49.0417 41.2034 47.3659 40.8429 46.8785C40.4065 46.2434 39.7674 45.7754 39.0302 45.5512C38.011 45.1967 37.6807 45.4827 36.5367 45.2813C35.6188 45.095 34.7185 44.8301 33.8459 44.4898L33.6727 42.2743L30.0835 42.3125Z" fill="#B2B2B2"/>
<mask id="mask3_317_3091" style="mask-type:luminance" maskUnits="userSpaceOnUse" x="22" y="42" width="22" height="20">
<path d="M30.0835 42.3125L30.5266 45.1021C30.5266 45.1021 28.8448 46.4737 27.8257 46.9148C26.8066 47.3559 25.5679 47.4465 24.9919 48.4213C24.6215 49.0971 24.3676 49.8304 24.2406 50.5905C24.2406 50.5905 23.0885 52.3166 22.5568 53.6016C22.0251 54.8866 22.3796 55.7265 23.5759 55.4606C24.7723 55.1948 27.7814 50.945 27.7814 50.945C27.7814 50.945 29.5095 54.663 29.5095 55.376C29.5095 56.089 29.5961 57.1887 29.8177 57.8111C30.0392 58.4334 34.2487 58.8282 36.0171 58.1212C37.7855 57.4143 37.9204 57.0578 37.9204 57.0578C37.9204 57.0578 37.4773 53.6056 37.7432 52.9853C38.009 52.3649 38.7623 48.9994 38.7623 48.9994C38.7623 48.9994 40.7542 51.3901 41.0644 52.0205C41.3746 52.6509 41.1087 54.367 41.286 55.8292C41.4632 57.2914 41.7109 59.2532 41.6747 59.3921C41.6384 59.5311 40.7986 60.2119 40.7542 60.655C40.7099 61.0981 41.0201 61.6278 41.0644 61.805C41.1087 61.9823 41.5518 61.8494 41.7734 61.7607C41.9949 61.6721 42.9234 61.6721 43.0564 61.2733C43.1893 60.8745 43.2779 60.8322 43.2779 60.3005C43.2422 59.813 43.1565 59.3304 43.0221 58.8604C43.0221 58.8604 43.7653 53.8352 43.5881 52.3307C43.4109 50.8262 42.9678 50.383 42.6133 49.7124C42.2588 49.0417 41.2034 47.3659 40.8429 46.8785C40.4065 46.2434 39.7674 45.7754 39.0302 45.5512C38.011 45.1967 37.6807 45.4827 36.5367 45.2813C35.6188 45.095 34.7185 44.8301 33.8459 44.4898L33.6727 42.2743L30.0835 42.3125Z" fill="white"/>
</mask>
<g mask="url(#mask3_317_3091)">
<path opacity="0.3" d="M33.6707 42.2722L30.0835 42.3165L30.5266 45.106C30.5266 45.106 28.8449 46.4777 27.8257 46.9187C26.8066 47.3598 25.5679 47.4505 24.9919 48.4253C24.6216 49.1011 24.3676 49.8344 24.2406 50.5945C24.2406 50.5945 23.0886 52.3206 22.5568 53.6056C22.0392 54.8584 22.3655 55.6861 23.4934 55.4787C23.2175 54.6509 22.9878 53.7083 23.3443 53.0839C23.9768 51.9762 25.7713 51.3437 26.1923 50.9752C26.6132 50.6066 25.1852 50.8684 25.1852 50.4998C25.1852 50.1312 25.3423 48.9691 25.87 48.2319C26.3977 47.4948 28.1923 47.2249 29.5115 46.5945C30.8308 45.9641 31.0402 44.959 31.0402 44.959C31.0402 44.959 31.1994 45.0658 32.5186 44.7576C32.9888 44.6556 33.43 44.449 33.8096 44.1534L33.6707 42.2722Z" fill="black"/>
<path opacity="0.3" d="M35.3726 58.2038C34.9517 58.2582 33.7895 58.0991 33.1047 58.0991C32.4199 58.0991 31.3101 57.8352 31.0906 56.9913C30.8711 56.1474 31.4088 53.4565 31.4612 53.0336C31.5136 52.6106 30.1601 52.9873 29.4108 52.1816C28.6616 51.376 28.2024 50.2823 28.2024 50.0185C28.2024 49.7546 27.7855 50.9429 27.7855 50.9429C27.7855 50.9429 29.5136 54.661 29.5136 55.374C29.5136 56.087 29.6002 57.1867 29.8217 57.809C29.9768 58.2441 32.0896 58.5683 33.9506 58.4797C34.7704 58.3347 35.6465 58.1696 35.3726 58.2038Z" fill="black"/>
<path opacity="0.3" d="M41.1229 60.7376C40.9658 60.5261 41.862 59.366 42.0735 59.0497C42.285 58.7335 42.2326 53.8252 42.2326 52.8765C42.2326 51.9279 42.0211 51.4505 41.282 50.8181C40.5428 50.1857 39.3303 48.234 38.9597 47.5955C38.5891 46.9571 38.7583 49.0054 38.7583 49.0054C38.7583 49.0054 40.7502 51.3961 41.0604 52.0266C41.3706 52.657 41.1047 54.373 41.282 55.8352C41.4592 57.2975 41.7069 59.2592 41.6707 59.3982C41.6344 59.5372 40.7946 60.2179 40.7502 60.661C40.7059 61.1041 41.0161 61.6338 41.0604 61.8111C41.1047 61.9883 41.5478 61.8554 41.7694 61.7668C41.9909 61.6782 42.9194 61.6782 43.0524 61.2794C43.1007 61.1343 43.143 61.0377 43.1772 60.945C42.8771 60.373 41.2699 60.9309 41.1229 60.7376Z" fill="black"/>
<path opacity="0.3" d="M34.2648 51.662C34.5877 51.9254 34.9238 52.1721 35.2719 52.4012C35.6928 52.665 36.1681 52.5603 35.5881 51.662C35.008 50.7637 34.005 49.8151 33.9003 50.4535C33.7955 51.092 34.2648 51.662 34.2648 51.662Z" fill="black"/>
<path opacity="0.3" d="M36.0594 45.9641C36.0594 45.9641 34.1601 46.8604 34.001 46.8604C33.8419 46.8604 33.6324 46.3327 33.8439 46.2279C34.0553 46.1232 36.0594 45.9641 36.0594 45.9641Z" fill="black"/>
</g>
<path d="M30.0835 42.3125L30.5266 45.1021C30.5266 45.1021 28.8448 46.4737 27.8257 46.9148C26.8066 47.3559 25.5679 47.4465 24.9919 48.4213C24.6215 49.0971 24.3676 49.8304 24.2406 50.5905C24.2406 50.5905 23.0885 52.3166 22.5568 53.6016C22.0251 54.8866 22.3796 55.7265 23.5759 55.4606C24.7723 55.1948 27.7814 50.945 27.7814 50.945C27.7814 50.945 29.5095 54.663 29.5095 55.376C29.5095 56.089 29.5961 57.1887 29.8177 57.8111C30.0392 58.4334 34.2487 58.8282 36.0171 58.1212C37.7855 57.4143 37.9204 57.0578 37.9204 57.0578C37.9204 57.0578 37.4773 53.6056 37.7432 52.9853C38.009 52.3649 38.7623 48.9994 38.7623 48.9994C38.7623 48.9994 40.7542 51.3901 41.0644 52.0205C41.3746 52.6509 41.1087 54.367 41.286 55.8292C41.4632 57.2914 41.7109 59.2532 41.6747 59.3921C41.6384 59.5311 40.7986 60.2119 40.7543 60.655C40.7099 61.0981 41.0201 61.6278 41.0644 61.805C41.1087 61.9823 41.5518 61.8494 41.7734 61.7607C41.9949 61.6721 42.9234 61.6721 43.0564 61.2733C43.1893 60.8745 43.2779 60.8322 43.2779 60.3005C43.2422 59.813 43.1565 59.3304 43.0221 58.8604C43.0221 58.8604 43.7653 53.8352 43.5881 52.3307C43.4109 50.8262 42.9678 50.3831 42.6133 49.7124C42.2588 49.0417 41.2034 47.3659 40.8429 46.8785C40.4065 46.2434 39.7674 45.7754 39.0302 45.5512C38.011 45.1967 37.6807 45.4827 36.5367 45.2813C35.6188 45.095 34.7185 44.8301 33.8459 44.4898L33.6727 42.2743L30.0835 42.3125Z" stroke="#263238" stroke-width="0.201411" stroke-linecap="round" stroke-linejoin="round"/>
<path d="M33.006 54.0487C33.006 54.0487 33.9365 54.226 34.0251 54.4515C34.1137 54.6771 34.2467 55.3821 34.0694 55.7365C33.8922 56.091 33.582 56.0467 33.4934 55.7365C33.4055 55.4623 33.3019 55.1933 33.1832 54.9309L33.006 54.0487Z" fill="#B2B2B2" stroke="#263238" stroke-width="0.201411" stroke-linecap="round" stroke-linejoin="round"/>
<path d="M24.0634 53.9158C24.0634 53.9158 27.0724 54.7577 28.7562 54.7577C30.44 54.7577 30.9254 54.5804 31.1027 54.4918C31.2799 54.4032 32.2527 53.3418 32.4743 53.4747C32.6958 53.6076 33.7593 54.5804 33.6706 54.8846C33.582 55.1887 33.006 55.8594 32.5629 56.0366C32.1198 56.2139 31.4571 55.8151 31.3242 55.7708C31.1913 55.7265 29.9506 56.1736 27.6485 56.3891C25.3463 56.6046 23.443 57.0538 22.5568 56.6107C21.6706 56.1676 21.8942 55.4163 21.9808 54.8846C22.0739 54.4885 22.2391 54.113 22.4682 53.7768" fill="#B2B2B2"/>
<mask id="mask4_317_3091" style="mask-type:luminance" maskUnits="userSpaceOnUse" x="21" y="53" width="13" height="4">
<path d="M24.0634 53.9158C24.0634 53.9158 27.0724 54.7577 28.7562 54.7577C30.44 54.7577 30.9254 54.5804 31.1027 54.4918C31.2799 54.4032 32.2527 53.3418 32.4743 53.4747C32.6958 53.6076 33.7593 54.5804 33.6706 54.8846C33.582 55.1887 33.006 55.8594 32.5629 56.0366C32.1198 56.2139 31.4571 55.8151 31.3242 55.7708C31.1913 55.7265 29.9506 56.1736 27.6485 56.3891C25.3463 56.6046 23.443 57.0538 22.5568 56.6107C21.6706 56.1676 21.8942 55.4163 21.9808 54.8846C22.0739 54.4885 22.2391 54.113 22.4682 53.7768" fill="white"/>
</mask>
<g mask="url(#mask4_317_3091)">
<path opacity="0.3" d="M28.726 55.5128C27.1429 55.5128 24.7683 55.3114 23.872 55.0395C23.0966 54.8119 22.9918 54.0324 22.9777 53.831L22.4682 53.7887C22.2391 54.1249 22.0739 54.5004 21.9807 54.8965C21.8941 55.4282 21.6726 56.1795 22.5568 56.6226C23.441 57.0657 25.3463 56.6226 27.6484 56.401C29.9506 56.1795 31.1913 55.7384 31.3242 55.7827C31.4571 55.827 32.0473 56.1855 32.4863 56.0707C32.1741 55.8935 31.6807 55.5793 31.6807 55.3617C31.6807 55.1442 32.3695 54.4111 32.7884 53.7323C32.69 53.6408 32.585 53.5567 32.4742 53.4806C32.2527 53.3476 31.2799 54.4091 31.1026 54.4977C30.6313 55.3698 30.3071 55.5128 28.726 55.5128Z" fill="black"/>
</g>
<path d="M24.0634 53.9158C24.0634 53.9158 27.0724 54.7577 28.7562 54.7577C30.44 54.7577 30.9254 54.5804 31.1027 54.4918C31.2799 54.4032 32.2527 53.3418 32.4743 53.4747C32.6958 53.6076 33.7593 54.5804 33.6706 54.8846C33.582 55.1887 33.006 55.8594 32.5629 56.0366C32.1198 56.2139 31.4571 55.8151 31.3242 55.7708C31.1913 55.7265 29.9506 56.1736 27.6485 56.3891C25.3463 56.6046 23.443 57.0538 22.5568 56.6107C21.6706 56.1676 21.8942 55.4163 21.9808 54.8846C22.0739 54.4885 22.2391 54.113 22.4682 53.7768" stroke="#263238" stroke-width="0.201411" stroke-linecap="round" stroke-linejoin="round"/>
<path d="M29.3766 40.7677C29.3766 40.7677 29.0221 40.812 29.0664 41.4747C29.1107 42.1373 29.8177 42.4052 29.8177 42.4052C29.8177 42.4052 30.5709 43.1584 31.0583 43.7325C31.5458 44.3065 32.0654 44.4857 32.9174 44.3971C33.7693 44.3085 34.0694 44.1313 34.2467 43.1141C34.3488 42.6337 34.3934 42.1429 34.3796 41.6519C34.3796 41.6519 34.6878 41.6962 34.6435 40.9006C34.5991 40.1051 34.291 40.0587 34.291 40.0587C34.291 40.0587 34.3776 39.0879 33.5357 37.9822C32.6938 36.8765 31.6787 36.8704 30.8811 37.2249C30.0835 37.5794 29.3323 38.1111 29.3323 39.0839C29.3323 40.0567 29.3766 40.7677 29.3766 40.7677Z" fill="#B2B2B2"/>
<mask id="mask5_317_3091" style="mask-type:luminance" maskUnits="userSpaceOnUse" x="29" y="37" width="6" height="8">
<path d="M29.3766 40.7677C29.3766 40.7677 29.0221 40.812 29.0664 41.4747C29.1107 42.1373 29.8177 42.4052 29.8177 42.4052C29.8177 42.4052 30.5709 43.1584 31.0583 43.7325C31.5458 44.3065 32.0654 44.4857 32.9174 44.3971C33.7693 44.3085 34.0694 44.1313 34.2467 43.1141C34.3488 42.6337 34.3934 42.1429 34.3796 41.6519C34.3796 41.6519 34.6878 41.6962 34.6435 40.9006C34.5991 40.1051 34.291 40.0587 34.291 40.0587C34.291 40.0587 34.3776 39.0879 33.5357 37.9822C32.6938 36.8765 31.6787 36.8704 30.8811 37.2249C30.0835 37.5794 29.3323 38.1111 29.3323 39.0839C29.3323 40.0567 29.3766 40.7677 29.3766 40.7677Z" fill="white"/>
</mask>
<g mask="url(#mask5_317_3091)">
<path opacity="0.3" d="M32.6273 43.9641C31.6304 43.8211 31.3927 42.6328 30.869 42.2058C30.3454 41.7788 30.013 40.3508 30.013 39.0678C30.013 38.1957 30.6696 37.5008 31.0926 37.1423C31.0201 37.1685 30.9496 37.1947 30.8912 37.2249C30.0855 37.5794 29.3423 38.1111 29.3423 39.0839C29.3423 40.0567 29.3866 40.7677 29.3866 40.7677C29.3866 40.7677 29.0322 40.812 29.0765 41.4747C29.1208 42.1373 29.8277 42.4052 29.8277 42.4052C29.8277 42.4052 30.581 43.1585 31.0684 43.7325C31.5558 44.3065 32.0755 44.4857 32.9274 44.3971C33.5317 44.3347 33.8559 44.2239 34.0614 43.7929C33.6072 43.9767 33.1121 44.0358 32.6273 43.9641Z" fill="black"/>
</g>
<path d="M29.3766 40.7677C29.3766 40.7677 29.0221 40.812 29.0664 41.4747C29.1107 42.1373 29.8177 42.4052 29.8177 42.4052C29.8177 42.4052 30.5709 43.1584 31.0583 43.7325C31.5458 44.3065 32.0654 44.4857 32.9174 44.3971C33.7693 44.3085 34.0694 44.1313 34.2467 43.1141C34.3488 42.6337 34.3934 42.1429 34.3796 41.6519C34.3796 41.6519 34.6878 41.6962 34.6435 40.9006C34.5991 40.1051 34.291 40.0587 34.291 40.0587C34.291 40.0587 34.3776 39.0879 33.5357 37.9822C32.6938 36.8765 31.6787 36.8704 30.8811 37.2249C30.0835 37.5794 29.3323 38.1111 29.3323 39.0839C29.3323 40.0567 29.3766 40.7677 29.3766 40.7677Z" stroke="#263238" stroke-width="0.201411" stroke-linecap="round" stroke-linejoin="round"/>
<path d="M31.6283 39.9762C31.6767 40.1776 31.6283 40.379 31.5216 40.3971C31.4148 40.4152 31.2859 40.2763 31.2356 40.0708C31.1852 39.8654 31.2356 39.668 31.3423 39.6499C31.4491 39.6317 31.5699 39.7707 31.6283 39.9762Z" fill="#263238"/>
<path d="M33.2395 40.0915C33.3476 40.0656 33.3951 39.877 33.3455 39.6705C33.2959 39.4639 33.168 39.3174 33.0599 39.3434C32.9517 39.3694 32.9042 39.5579 32.9538 39.7645C33.0034 39.9711 33.1313 40.1175 33.2395 40.0915Z" fill="#263238"/>
<path d="M32.4904 39.6096L32.7683 40.9913L31.9385 41.1745" stroke="#263238" stroke-width="0.201411" stroke-linecap="round" stroke-linejoin="round"/>
<path d="M30.8025 39.3337C30.9662 39.1919 31.1708 39.1058 31.3866 39.088" stroke="#263238" stroke-width="0.201411" stroke-linecap="round" stroke-linejoin="round"/>
<path d="M32.577 38.8422C32.577 38.8422 33.0382 38.6569 33.2839 38.8724" stroke="#263238" stroke-width="0.201411" stroke-linecap="round" stroke-linejoin="round"/>
<path d="M31.6404 41.9399C31.8098 42.0904 32.0239 42.1811 32.2499 42.1982C32.4758 42.2153 32.7011 42.1578 32.8912 42.0346" stroke="#263238" stroke-width="0.201411" stroke-linecap="round" stroke-linejoin="round"/>
<mask id="mask6_317_3091" style="mask-type:luminance" maskUnits="userSpaceOnUse" x="0" y="24" width="92" height="27">
<path d="M91.4634 24.5824H0.536591V50.234H91.4634V24.5824Z" fill="white"/>
</mask>
<g mask="url(#mask6_317_3091)">
<path d="M93.8622 25.0718H-2.35364V26.2238H93.8622V25.0718Z" fill="white" stroke="#263238" stroke-width="0.201411" stroke-linecap="round" stroke-linejoin="round"/>
<path d="M93.8622 48.095H-2.35364V49.2471H93.8622V48.095Z" fill="white" stroke="#263238" stroke-width="0.201411" stroke-linecap="round" stroke-linejoin="round"/>
<path d="M15.0744 26.2218V48.0386" stroke="#263238" stroke-width="0.100705" stroke-linecap="round" stroke-linejoin="round"/>
<path d="M12.5024 26.2218V48.0386" stroke="#263238" stroke-width="0.100705" stroke-linecap="round" stroke-linejoin="round"/>
<path d="M9.92838 26.2218V48.0386" stroke="#263238" stroke-width="0.100705" stroke-linecap="round" stroke-linejoin="round"/>
<path d="M7.35434 26.2218V48.0386" stroke="#263238" stroke-width="0.100705" stroke-linecap="round" stroke-linejoin="round"/>
<path d="M4.78235 26.2218V48.0386" stroke="#263238" stroke-width="0.100705" stroke-linecap="round" stroke-linejoin="round"/>
<path d="M2.20831 42.5482V48.0386" stroke="#263238" stroke-width="0.100705" stroke-linecap="round" stroke-linejoin="round"/>
<path d="M2.20831 31.9882V40.0628" stroke="#263238" stroke-width="0.100705" stroke-linecap="round" stroke-linejoin="round"/>
<path d="M2.20831 26.2218V29.5048" stroke="#263238" stroke-width="0.100705" stroke-linecap="round" stroke-linejoin="round"/>
<path d="M17.5316 26.2218V48.0386" stroke="#263238" stroke-width="0.100705" stroke-linecap="round" stroke-linejoin="round"/>
<path d="M19.9888 26.2218V48.0386" stroke="#263238" stroke-width="0.100705" stroke-linecap="round" stroke-linejoin="round"/>
<path d="M22.446 26.2218V48.0386" stroke="#263238" stroke-width="0.100705" stroke-linecap="round" stroke-linejoin="round"/>
<path d="M24.9033 26.2218V48.0386" stroke="#263238" stroke-width="0.100705" stroke-linecap="round" stroke-linejoin="round"/>
<path d="M27.3605 26.2218V48.0386" stroke="#263238" stroke-width="0.100705" stroke-linecap="round" stroke-linejoin="round"/>
<path d="M29.8177 26.2218V48.0386" stroke="#263238" stroke-width="0.100705" stroke-linecap="round" stroke-linejoin="round"/>
<path d="M32.2749 26.2218V48.0386" stroke="#263238" stroke-width="0.100705" stroke-linecap="round" stroke-linejoin="round"/>
<path d="M34.7321 26.2218V48.0386" stroke="#263238" stroke-width="0.100705" stroke-linecap="round" stroke-linejoin="round"/>
<path d="M37.1893 26.2218V48.0386" stroke="#263238" stroke-width="0.100705" stroke-linecap="round" stroke-linejoin="round"/>
<path d="M39.6465 26.2218V48.0386" stroke="#263238" stroke-width="0.100705" stroke-linecap="round" stroke-linejoin="round"/>
<path d="M42.1057 26.2218V48.0386" stroke="#263238" stroke-width="0.100705" stroke-linecap="round" stroke-linejoin="round"/>
<path d="M44.563 26.2218V48.0386" stroke="#263238" stroke-width="0.100705" stroke-linecap="round" stroke-linejoin="round"/>
<path d="M47.0202 26.2218V48.0386" stroke="#263238" stroke-width="0.100705" stroke-linecap="round" stroke-linejoin="round"/>
<path d="M49.4774 26.2218V48.0386" stroke="#263238" stroke-width="0.100705" stroke-linecap="round" stroke-linejoin="round"/>
<path d="M51.9346 26.2218V48.0386" stroke="#263238" stroke-width="0.100705" stroke-linecap="round" stroke-linejoin="round"/>
<path d="M54.3918 26.2218V48.0386" stroke="#263238" stroke-width="0.100705" stroke-linecap="round" stroke-linejoin="round"/>
<path d="M56.849 26.2218V48.0386" stroke="#263238" stroke-width="0.100705" stroke-linecap="round" stroke-linejoin="round"/>
<path d="M59.3062 26.2218V48.0386" stroke="#263238" stroke-width="0.100705" stroke-linecap="round" stroke-linejoin="round"/>
<path d="M61.7634 26.2218V48.0386" stroke="#263238" stroke-width="0.100705" stroke-linecap="round" stroke-linejoin="round"/>
<path d="M64.2206 26.2218V48.0386" stroke="#263238" stroke-width="0.100705" stroke-linecap="round" stroke-linejoin="round"/>
<path d="M66.6779 26.2218V48.0386" stroke="#263238" stroke-width="0.100705" stroke-linecap="round" stroke-linejoin="round"/>
<path d="M69.135 26.2218V48.0386" stroke="#263238" stroke-width="0.100705" stroke-linecap="round" stroke-linejoin="round"/>
<path d="M71.5923 26.2218V48.0386" stroke="#263238" stroke-width="0.100705" stroke-linecap="round" stroke-linejoin="round"/>
<path d="M74.0495 26.2218V48.0386" stroke="#263238" stroke-width="0.100705" stroke-linecap="round" stroke-linejoin="round"/>
<path d="M76.5067 26.2218V48.0386" stroke="#263238" stroke-width="0.100705" stroke-linecap="round" stroke-linejoin="round"/>
<path d="M78.8128 26.2218V48.0386" stroke="#263238" stroke-width="0.100705" stroke-linecap="round" stroke-linejoin="round"/>
<path d="M81.121 26.2218V48.0386" stroke="#263238" stroke-width="0.100705" stroke-linecap="round" stroke-linejoin="round"/>
<path d="M83.4271 26.2218V48.0386" stroke="#263238" stroke-width="0.100705" stroke-linecap="round" stroke-linejoin="round"/>
<path d="M85.7353 26.2218V48.0386" stroke="#263238" stroke-width="0.100705" stroke-linecap="round" stroke-linejoin="round"/>
<path d="M88.0414 26.2218V48.0386" stroke="#263238" stroke-width="0.100705" stroke-linecap="round" stroke-linejoin="round"/>
<path d="M90.3496 44.6771V48.0386" stroke="#263238" stroke-width="0.100705" stroke-linecap="round" stroke-linejoin="round"/>
<path d="M90.3496 31.8996V42.814" stroke="#263238" stroke-width="0.100705" stroke-linecap="round" stroke-linejoin="round"/>
<path d="M90.3496 26.2218V29.4162" stroke="#263238" stroke-width="0.100705" stroke-linecap="round" stroke-linejoin="round"/>
<path d="M1.57388 28.1272H89.3325" stroke="#263238" stroke-width="0.100705" stroke-linecap="round" stroke-linejoin="round"/>
<path d="M3.25967 30.385H91.9951" stroke="#263238" stroke-width="0.100705" stroke-linecap="round" stroke-linejoin="round"/>
<path d="M2.72797 32.6428H89.5098" stroke="#263238" stroke-width="0.100705" stroke-linecap="round" stroke-linejoin="round"/>
<path d="M2.19421 34.9006H90.8411" stroke="#263238" stroke-width="0.100705" stroke-linecap="round" stroke-linejoin="round"/>
<path d="M2.81656 37.1584H90.6638" stroke="#263238" stroke-width="0.100705" stroke-linecap="round" stroke-linejoin="round"/>
<path d="M1.30801 39.4162H90.398" stroke="#263238" stroke-width="0.100705" stroke-linecap="round" stroke-linejoin="round"/>
<path d="M2.72797 41.6741H91.3728" stroke="#263238" stroke-width="0.100705" stroke-linecap="round" stroke-linejoin="round"/>
<path d="M5.83371 43.9319H91.6387" stroke="#263238" stroke-width="0.100705" stroke-linecap="round" stroke-linejoin="round"/>
<path d="M1.92838 46.1897H92.6155" stroke="#263238" stroke-width="0.100705" stroke-linecap="round" stroke-linejoin="round"/>
</g>
<path d="M52.718 57.2169C52.718 57.2169 52.9396 61.7325 53.7372 65.4526C54.5348 69.1727 53.6486 69.1706 54.2689 71.9602C54.8893 74.7497 55.8621 77.6722 55.8621 79.4869C55.8621 81.3016 55.9064 81.1707 55.2417 82.365C54.7659 83.2022 54.1859 83.9758 53.5156 84.6672C53.1611 85.07 53.6929 85.07 54.4905 84.9773C55.288 84.8847 56.3495 84.8444 56.9698 84.0911C57.5902 83.3379 57.6768 83.3399 58.2528 82.5866C58.8288 81.8333 57.8097 80.9491 57.6325 80.4174C57.4552 79.8857 57.7211 78.5141 58.0353 76.9189C58.3495 75.3237 58.5227 72.935 58.2568 71.1646C57.991 69.3942 57.4149 68.4637 57.4149 67.3116C57.4149 66.1595 58.6556 60.804 58.6999 58.6348C58.7443 56.4657 58.7443 56.0165 58.7443 56.0165C58.7443 56.0165 55.9406 57.5251 52.718 57.2169Z" fill="white"/>
<mask id="mask7_317_3091" style="mask-type:luminance" maskUnits="userSpaceOnUse" x="52" y="56" width="7" height="30">
<path d="M52.718 57.2169C52.718 57.2169 52.9396 61.7325 53.7372 65.4526C54.5348 69.1727 53.6486 69.1706 54.2689 71.9602C54.8893 74.7497 55.8621 77.6722 55.8621 79.4869C55.8621 81.3016 55.9064 81.1707 55.2417 82.365C54.7659 83.2022 54.1859 83.9758 53.5156 84.6672C53.1611 85.07 53.6929 85.07 54.4905 84.9773C55.288 84.8847 56.3495 84.8444 56.9698 84.0911C57.5902 83.3379 57.6768 83.3399 58.2528 82.5866C58.8288 81.8333 57.8097 80.9491 57.6325 80.4174C57.4552 79.8857 57.7211 78.5141 58.0353 76.9189C58.3495 75.3237 58.5227 72.935 58.2568 71.1646C57.991 69.3942 57.4149 68.4637 57.4149 67.3116C57.4149 66.1595 58.6556 60.804 58.6999 58.6348C58.7443 56.4657 58.7443 56.0165 58.7443 56.0165C58.7443 56.0165 55.9406 57.5251 52.718 57.2169Z" fill="white"/>
</mask>
<g mask="url(#mask7_317_3091)">
<path opacity="0.3" d="M52.718 57.2167C52.718 57.2167 52.9396 61.7323 53.7372 65.4524C54.5348 69.1725 53.6486 69.1704 54.2689 71.96C54.8893 74.7495 55.8621 77.672 55.8621 79.4867C55.8621 81.3014 55.9064 81.1705 55.2417 82.3648C54.7659 83.202 54.1859 83.9756 53.5156 84.667C53.1853 85.0396 53.6244 85.0698 54.3213 84.9933C54.6659 84.8305 55.002 84.6503 55.3283 84.4535C56.1843 83.9298 57.4431 82.238 57.4431 81.533C57.4431 80.8281 56.9396 80.0224 56.9396 76.9006C56.9396 73.7787 56.3354 71.4625 55.5297 69.5491C54.7241 67.6357 54.422 63.3054 55.429 61.392C56.283 59.7686 58.1501 58.0747 58.6979 57.5974C58.7221 56.3164 58.7221 56.0224 58.7221 56.0224C58.7221 56.0224 55.9406 57.5249 52.718 57.2167Z" fill="black"/>
</g>
<path d="M52.718 57.2169C52.718 57.2169 52.9396 61.7325 53.7372 65.4526C54.5348 69.1727 53.6486 69.1706 54.2689 71.9602C54.8893 74.7497 55.8621 77.6722 55.8621 79.4869C55.8621 81.3016 55.9064 81.1707 55.2417 82.365C54.7659 83.2022 54.1859 83.9758 53.5156 84.6672C53.1611 85.07 53.6929 85.07 54.4905 84.9773C55.288 84.8847 56.3495 84.8444 56.9698 84.0911C57.5902 83.3379 57.6768 83.3399 58.2528 82.5866C58.8288 81.8333 57.8097 80.9491 57.6325 80.4174C57.4552 79.8857 57.7211 78.5141 58.0353 76.9189C58.3495 75.3237 58.5227 72.935 58.2568 71.1646C57.991 69.3942 57.4149 68.4637 57.4149 67.3116C57.4149 66.1595 58.6556 60.804 58.6999 58.6348C58.7443 56.4657 58.7443 56.0165 58.7443 56.0165C58.7443 56.0165 55.9406 57.5251 52.718 57.2169Z" stroke="#263238" stroke-width="0.201411" stroke-linecap="round" stroke-linejoin="round"/>
<path d="M45.9789 56.3287C45.9789 56.3287 46.0675 57.8796 46.3817 60.6691C46.6959 63.4586 47.4431 65.0075 47.4431 66.6892C47.4431 68.371 46.5589 71.0296 47.3545 73.9501C48.1501 76.8706 48.994 78.0689 49.2155 79.5735C49.4371 81.078 48.8127 83.9562 48.3736 84.4879C47.9345 85.0196 47.8419 85.3741 48.3293 85.4627C48.8167 85.5514 49.7392 85.1526 50.3213 84.6571C50.9033 84.1616 50.7241 83.5513 50.9859 83.0196C51.2478 82.4879 52.3575 82.3993 51.6949 81.072C51.3183 80.3207 50.8087 79.8313 50.7644 78.8142C50.7201 77.797 50.3213 77.6178 50.8087 73.1908C51.2961 68.7638 51.3847 68.4536 51.3404 66.1958C51.2961 63.938 51.5176 62.0769 51.6063 60.4395C51.6949 58.802 51.8681 57.2169 51.8681 57.2169C51.8681 57.2169 47.8399 56.6409 47.1752 56.4636C46.7859 56.3567 46.3822 56.3112 45.9789 56.3287Z" fill="white"/>
<mask id="mask8_317_3091" style="mask-type:luminance" maskUnits="userSpaceOnUse" x="45" y="56" width="7" height="30">
<path d="M45.9789 56.3287C45.9789 56.3287 46.0675 57.8796 46.3817 60.6691C46.6959 63.4586 47.4431 65.0075 47.4431 66.6892C47.4431 68.371 46.5589 71.0296 47.3545 73.9501C48.1501 76.8706 48.994 78.0689 49.2155 79.5735C49.4371 81.078 48.8127 83.9562 48.3736 84.4879C47.9345 85.0196 47.8419 85.3741 48.3293 85.4627C48.8167 85.5514 49.7392 85.1526 50.3213 84.6571C50.9033 84.1616 50.7241 83.5513 50.9859 83.0196C51.2478 82.4879 52.3575 82.3993 51.6949 81.072C51.3183 80.3207 50.8087 79.8313 50.7644 78.8142C50.7201 77.797 50.3213 77.6178 50.8087 73.1908C51.2961 68.7638 51.3847 68.4536 51.3404 66.1958C51.2961 63.938 51.5176 62.0769 51.6063 60.4395C51.6949 58.802 51.8681 57.2169 51.8681 57.2169C51.8681 57.2169 47.8399 56.6409 47.1752 56.4636C46.7859 56.3567 46.3822 56.3112 45.9789 56.3287Z" fill="white"/>
</mask>
<g mask="url(#mask8_317_3091)">
<path opacity="0.3" d="M51.141 57.1101C49.9487 56.9349 47.6606 56.5925 47.1752 56.4616C46.7858 56.3554 46.3821 56.3105 45.9789 56.3286C45.9789 56.3286 46.0675 57.8795 46.3817 60.669C46.6959 63.4586 47.4431 65.0074 47.4431 66.6892C47.4431 68.371 46.5589 71.0296 47.3545 73.9501C48.1501 76.8705 48.994 78.0689 49.2155 79.5734C49.4371 81.078 48.8127 83.9561 48.3736 84.4879C47.9345 85.0196 47.8419 85.3741 48.3293 85.4627C48.5014 85.4833 48.6758 85.4703 48.8429 85.4244C49.0877 85.0355 49.3755 84.6754 49.7009 84.3509C50.5066 83.646 50.8087 82.5382 51.2115 81.5312C51.6143 80.5241 49.9023 79.2149 49.3988 77.4022C48.8953 75.5895 49.0967 73.0719 49.0967 70.2522C49.0967 67.4324 48.6939 67.1303 48.8953 65.4183C49.0665 63.9682 51.1108 59.8513 51.7352 58.6207C51.7533 58.4193 51.7694 58.238 51.7855 58.0708L51.141 57.1101Z" fill="black"/>
</g>
<path d="M45.9789 56.3287C45.9789 56.3287 46.0675 57.8796 46.3817 60.6691C46.6959 63.4586 47.4431 65.0075 47.4431 66.6892C47.4431 68.371 46.5589 71.0296 47.3545 73.9501C48.1501 76.8706 48.994 78.0689 49.2155 79.5735C49.4371 81.078 48.8127 83.9562 48.3736 84.4879C47.9345 85.0196 47.8419 85.3741 48.3293 85.4627C48.8167 85.5514 49.7392 85.1526 50.3213 84.6571C50.9033 84.1616 50.7241 83.5513 50.9859 83.0196C51.2478 82.4879 52.3575 82.3993 51.6949 81.072C51.3183 80.3207 50.8087 79.8313 50.7644 78.8142C50.7201 77.797 50.3213 77.6178 50.8087 73.1908C51.2961 68.7638 51.3847 68.4536 51.3404 66.1958C51.2961 63.938 51.5176 62.0769 51.6063 60.4395C51.6949 58.802 51.8681 57.2169 51.8681 57.2169C51.8681 57.2169 47.8399 56.6409 47.1752 56.4636C46.7859 56.3567 46.3822 56.3112 45.9789 56.3287Z" stroke="#263238" stroke-width="0.201411" stroke-linecap="round" stroke-linejoin="round"/>
<path d="M49.3908 17.4363C51.2328 17.4363 52.7261 15.943 52.7261 14.1009C52.7261 12.2589 51.2328 10.7656 49.3908 10.7656C47.5487 10.7656 46.0554 12.2589 46.0554 14.1009C46.0554 15.943 47.5487 17.4363 49.3908 17.4363Z" fill="#FFC73C"/>
<mask id="mask9_317_3091" style="mask-type:luminance" maskUnits="userSpaceOnUse" x="46" y="10" width="7" height="8">
<path d="M49.3908 17.4363C51.2328 17.4363 52.7261 15.943 52.7261 14.1009C52.7261 12.2589 51.2328 10.7656 49.3908 10.7656C47.5487 10.7656 46.0554 12.2589 46.0554 14.1009C46.0554 15.943 47.5487 17.4363 49.3908 17.4363Z" fill="white"/>
</mask>
<g mask="url(#mask9_317_3091)">
<path opacity="0.3" d="M51.1813 16.0284C49.2699 16.0284 47.7211 14.5319 47.7211 12.685C47.7214 12.0962 47.883 11.5187 48.1883 11.0153C47.5696 11.2599 47.0378 11.6832 46.6607 12.2314C46.2837 12.7795 46.0786 13.4276 46.0715 14.0929C46.0715 15.9398 47.6203 17.4363 49.5317 17.4363C50.133 17.4396 50.7248 17.2872 51.2497 16.9939C51.7745 16.7006 52.2145 16.2764 52.5267 15.7626C52.0997 15.9377 51.6428 16.028 51.1813 16.0284Z" fill="black"/>
</g>
<path d="M49.3908 17.4363C51.2328 17.4363 52.7261 15.943 52.7261 14.1009C52.7261 12.2589 51.2328 10.7656 49.3908 10.7656C47.5487 10.7656 46.0554 12.2589 46.0554 14.1009C46.0554 15.943 47.5487 17.4363 49.3908 17.4363Z" stroke="#263238" stroke-width="0.201411" stroke-miterlimit="10"/>
<path d="M46.1682 13.2852C46.1682 13.2852 47.5921 15.0717 50.2145 14.389C50.2145 14.389 50.4481 12.4615 51.6586 11.6699" stroke="#263238" stroke-width="0.201411" stroke-miterlimit="10"/>
<path d="M50.2145 14.3889C50.2145 14.3889 51.4653 15.6437 50.6898 17.1604" stroke="#263238" stroke-width="0.201411" stroke-miterlimit="10"/>
<path d="M46.1682 14.9005C46.1682 14.9005 47.7029 16.7253 50.9154 15.9076" stroke="#263238" stroke-width="0.201411" stroke-miterlimit="10"/>
<path d="M50.7704 12.7052C50.7704 12.7052 52.4985 14.3849 52.0796 16.0969" stroke="#263238" stroke-width="0.201411" stroke-miterlimit="10"/>
<path d="M51.4169 11.8794C51.4169 11.8794 52.4985 12.8864 52.6596 13.5108" stroke="#263238" stroke-width="0.201411" stroke-miterlimit="10"/>
<path d="M48.2024 14.4635C48.2024 14.4635 48.7845 11.1845 50.8671 11.1201" stroke="#263238" stroke-width="0.201411" stroke-miterlimit="10"/>
<path d="M46.718 13.7847C46.718 13.7847 47.1692 11.2006 49.1551 10.7978" stroke="#263238" stroke-width="0.201411" stroke-miterlimit="10"/>
<path d="M51.006 33.3316C51.006 33.3316 51.2397 35.1987 50.6032 35.7808C49.9668 36.3629 48.2125 36.1836 47.2195 36.4817C46.7717 36.6209 46.3557 36.8471 45.9956 37.1475C45.6354 37.4478 45.3381 37.8164 45.1208 38.2319C44.7704 38.9308 41.6203 40.7979 41.6203 40.7979L43.433 37.531C43.725 37.0074 43.4914 36.7254 44.3071 36.7254C45.1228 36.7254 45.8237 36.4918 45.6485 36.0245L45.4753 35.5592C45.4753 35.5592 45.8781 34.6831 45.4753 34.391C45.0725 34.099 44.3655 34.2158 43.7834 34.2158C43.2014 34.2158 42.44 35.0335 42.2668 35.8493C42.0936 36.665 42.2084 36.8422 41.6243 37.5995C41.0402 38.3568 39.8116 39.9923 39.0584 41.3921C38.3051 42.7919 37.5397 44.3669 38.2406 44.5421C38.9415 44.7174 43.7834 42.9671 44.716 42.383C45.372 41.987 46.0543 41.6363 46.7583 41.3337L48.2749 46.1675C48.2749 46.1675 46.4622 50.5986 45.8821 52.8765C45.3021 55.1545 45.0765 56.3186 45.0765 56.3186C45.0765 56.3186 46.5931 57.8936 48.1097 58.3025C49.6264 58.7114 51.5519 58.7678 51.7351 58.6509C51.9184 58.5341 52.6032 57.9259 52.6032 57.9259C52.6032 57.9259 53.1108 58.7073 53.578 58.7658C54.0453 58.8242 57.3928 58.7658 58.2689 58.1857C59.145 57.6056 60.2528 57.2511 60.1944 56.9007C60.136 56.5502 59.6687 56.3186 59.3767 55.5593C59.0846 54.8 58.851 53.1685 57.86 50.8342C57.1569 49.0998 56.5518 47.3273 56.0473 45.525C56.0473 45.525 56.9235 42.8422 57.3887 41.1504C57.854 39.4585 57.6808 36.3669 57.9728 34.2078C58.2649 32.0486 58.1481 28.4333 58.0312 27.4988C57.9144 26.5642 55.2316 22.3084 54.2387 20.5582L53.2477 18.8079C53.2477 18.8079 54.0937 17.5028 54.1601 16.9952C54.2266 16.4877 54.2931 15.5007 54.1279 15.7001C53.9627 15.8995 54.0272 15.9318 53.9607 16.1634C53.8585 16.4273 53.7366 16.6831 53.5962 16.9287C53.5962 16.9287 53.6949 15.964 53.7291 15.533C53.7633 15.1019 53.5962 14.7273 53.4632 14.7696C53.3303 14.8119 53.3968 15.0355 53.3968 15.3336C53.3359 15.8143 53.2471 16.2911 53.1309 16.7616C53.1309 16.7616 52.9295 15.4 52.8328 14.9026C52.7362 14.4051 52.4663 14.5702 52.43 14.7354C52.3938 14.9005 52.4965 16.7293 52.4965 16.7293L52.1641 16.4292C52.1641 16.4292 51.999 14.536 51.8318 14.4715C51.6646 14.4071 51.5337 14.4373 51.6002 14.7354C51.6783 15.3633 51.7113 15.996 51.6989 16.6286C51.6667 16.7293 51.433 18.0244 51.433 18.0244C51.433 18.0244 51.002 17.0939 50.7704 16.6286C50.5388 16.1634 50.3676 16.9287 50.5045 17.2933C50.6877 17.7447 50.8319 18.211 50.9355 18.6871C51.002 19.1201 51.9647 19.5511 52.1641 19.7505C52.3635 19.9499 54.9839 26.5239 55.1188 27.0557C55.1947 27.3662 55.3062 27.667 55.4512 27.9519L54.9335 33.3075L54.3293 35.523C54.3293 35.523 54.1279 35.7888 53.997 35.7566C53.8661 35.7244 54.0312 33.5975 54.0312 33.5975L51.006 33.3316Z" fill="white"/>
<mask id="mask10_317_3091" style="mask-type:luminance" maskUnits="userSpaceOnUse" x="37" y="14" width="24" height="45">
<path d="M51.006 33.3316C51.006 33.3316 51.2397 35.1987 50.6032 35.7808C49.9668 36.3629 48.2125 36.1836 47.2195 36.4817C46.7717 36.6209 46.3557 36.8471 45.9956 37.1475C45.6354 37.4478 45.3381 37.8164 45.1208 38.2319C44.7704 38.9308 41.6203 40.7979 41.6203 40.7979L43.433 37.531C43.725 37.0074 43.4914 36.7254 44.3071 36.7254C45.1228 36.7254 45.8237 36.4918 45.6485 36.0245L45.4753 35.5592C45.4753 35.5592 45.8781 34.6831 45.4753 34.391C45.0725 34.099 44.3655 34.2158 43.7834 34.2158C43.2014 34.2158 42.44 35.0335 42.2668 35.8493C42.0936 36.665 42.2084 36.8422 41.6243 37.5995C41.0402 38.3568 39.8116 39.9923 39.0584 41.3921C38.3051 42.7919 37.5397 44.3669 38.2406 44.5421C38.9415 44.7174 43.7834 42.9671 44.716 42.383C45.372 41.987 46.0543 41.6363 46.7583 41.3337L48.2749 46.1675C48.2749 46.1675 46.4622 50.5986 45.8821 52.8765C45.3021 55.1545 45.0765 56.3186 45.0765 56.3186C45.0765 56.3186 46.5931 57.8936 48.1097 58.3025C49.6264 58.7114 51.5519 58.7678 51.7351 58.6509C51.9184 58.5341 52.6032 57.9259 52.6032 57.9259C52.6032 57.9259 53.1108 58.7073 53.578 58.7658C54.0453 58.8242 57.3928 58.7658 58.2689 58.1857C59.145 57.6056 60.2528 57.2511 60.1944 56.9007C60.136 56.5502 59.6687 56.3186 59.3767 55.5593C59.0846 54.8 58.851 53.1685 57.86 50.8342C57.1569 49.0998 56.5518 47.3273 56.0473 45.525C56.0473 45.525 56.9235 42.8422 57.3887 41.1504C57.854 39.4585 57.6808 36.3669 57.9728 34.2078C58.2649 32.0486 58.1481 28.4333 58.0312 27.4988C57.9144 26.5642 55.2316 22.3084 54.2387 20.5582L53.2477 18.8079C53.2477 18.8079 54.0937 17.5028 54.1601 16.9952C54.2266 16.4877 54.2931 15.5007 54.1279 15.7001C53.9627 15.8995 54.0272 15.9318 53.9607 16.1634C53.8585 16.4273 53.7366 16.6831 53.5962 16.9287C53.5962 16.9287 53.6949 15.964 53.7291 15.533C53.7633 15.1019 53.5962 14.7273 53.4632 14.7696C53.3303 14.8119 53.3968 15.0355 53.3968 15.3336C53.3359 15.8143 53.2471 16.2911 53.1309 16.7616C53.1309 16.7616 52.9295 15.4 52.8328 14.9026C52.7362 14.4051 52.4663 14.5702 52.43 14.7354C52.3938 14.9005 52.4965 16.7293 52.4965 16.7293L52.1641 16.4292C52.1641 16.4292 51.999 14.536 51.8318 14.4715C51.6646 14.4071 51.5337 14.4373 51.6002 14.7354C51.6783 15.3633 51.7113 15.996 51.6989 16.6286C51.6667 16.7293 51.433 18.0244 51.433 18.0244C51.433 18.0244 51.002 17.0939 50.7704 16.6286C50.5388 16.1634 50.3676 16.9287 50.5045 17.2933C50.6877 17.7447 50.8319 18.211 50.9355 18.6871C51.002 19.1201 51.9647 19.5511 52.1641 19.7505C52.3635 19.9499 54.9839 26.5239 55.1188 27.0557C55.1947 27.3662 55.3062 27.667 55.4512 27.9519L54.9335 33.3075L54.3293 35.523C54.3293 35.523 54.1279 35.7888 53.997 35.7566C53.8661 35.7244 54.0312 33.5975 54.0312 33.5975L51.006 33.3316Z" fill="white"/>
</mask>
<g mask="url(#mask10_317_3091)">
<path opacity="0.3" d="M56.5448 33.0919C56.5448 30.675 57.149 28.6609 56.142 26.1433C55.1349 23.6256 52.144 19.7545 52.144 19.7545C52.3454 19.9559 54.9637 26.528 55.0987 27.0597C55.1746 27.3703 55.2861 27.671 55.431 27.956L54.9335 33.3074L54.3293 35.523C54.3293 35.523 54.1279 35.7888 53.997 35.7566C53.8661 35.7244 54.0312 33.5975 54.0312 33.5975L51 33.3236C51 33.3236 51.2336 35.1906 50.5972 35.7727C49.9607 36.3548 48.2064 36.1755 47.2135 36.4736C46.7656 36.6128 46.3497 36.8391 45.9895 37.1394C45.6294 37.4398 45.3321 37.8083 45.1148 38.2239C44.7643 38.9228 41.6142 40.7899 41.6142 40.7899L41.8157 40.4414C41.3746 40.7254 40.7542 41.1323 40.1137 41.5673L40.3393 41.3417L41.9043 37.4182C41.719 37.7425 41.1631 38.3548 40.44 39.3276C39.4914 40.6046 38.6777 41.9198 38.4078 42.7798L38.3192 42.8463C37.9445 43.7083 37.7854 44.4112 38.2386 44.524C38.9395 44.6992 43.7814 42.949 44.714 42.3649C45.3699 41.9688 46.0523 41.6182 46.7563 41.3155L48.2729 46.1494C48.2729 46.1494 46.4602 50.5804 45.8801 52.8584C45.3001 55.1363 45.0745 56.3005 45.0745 56.3005C45.0745 56.3005 46.2688 57.5371 47.5961 58.1132C47.5961 56.4032 47.6545 51.7929 48.3051 50.0044C49.1107 47.7889 50.6213 46.8825 50.3192 45.3719C50.0171 43.8614 48.2044 41.3437 48.1037 40.236C48.003 39.1282 49.2115 38.8261 49.2115 38.8261C49.2115 38.8261 49.3122 41.5451 51.1249 41.8473C52.9375 42.1494 53.8439 42.1494 53.3404 43.4585C52.8368 44.7677 54.2467 45.6741 55.3545 44.8684C55.8013 44.5517 56.2155 44.1915 56.5911 43.7929C56.857 42.9429 57.1652 41.9339 57.3827 41.1423C57.581 40.2721 57.691 39.3841 57.711 38.4918C56.8328 35.2209 56.5448 35.4525 56.5448 33.0919Z" fill="black"/>
<path opacity="0.3" d="M42.9134 34.6186C42.9134 34.6186 43.0302 34.383 43.7935 34.5018C44.5569 34.6207 45.2034 34.6771 44.9657 35.2047C44.8127 35.5796 44.7137 35.9743 44.6717 36.377C44.6717 36.377 44.0856 36.5542 43.7935 36.6126C43.5015 36.671 42.3837 37.0154 42.15 37.0154C41.9164 37.0154 41.9748 35.7828 42.2084 35.2551C42.2739 35.105 42.3707 34.9706 42.4923 34.8608C42.6138 34.7511 42.7574 34.6685 42.9134 34.6186Z" fill="black"/>
<path opacity="0.3" d="M52.573 48.1836C52.573 48.1836 51.854 44.8765 52.3575 45.3075C52.861 45.7385 52.7885 47.7506 52.573 48.1836Z" fill="black"/>
</g>
<path d="M51.006 33.3316C51.006 33.3316 51.2397 35.1987 50.6032 35.7808C49.9668 36.3629 48.2125 36.1836 47.2195 36.4817C46.7717 36.6209 46.3557 36.8471 45.9956 37.1475C45.6354 37.4478 45.3381 37.8164 45.1208 38.2319C44.7704 38.9308 41.6203 40.7979 41.6203 40.7979L43.433 37.531C43.725 37.0074 43.4914 36.7254 44.3071 36.7254C45.1228 36.7254 45.8237 36.4918 45.6485 36.0245L45.4753 35.5592C45.4753 35.5592 45.8781 34.6831 45.4753 34.391C45.0725 34.099 44.3655 34.2158 43.7834 34.2158C43.2014 34.2158 42.44 35.0335 42.2668 35.8493C42.0936 36.665 42.2084 36.8422 41.6243 37.5995C41.0402 38.3568 39.8116 39.9923 39.0584 41.3921C38.3051 42.7919 37.5397 44.3669 38.2406 44.5421C38.9415 44.7174 43.7834 42.9671 44.716 42.383C45.372 41.987 46.0543 41.6363 46.7583 41.3337L48.2749 46.1675C48.2749 46.1675 46.4622 50.5986 45.8821 52.8765C45.3021 55.1545 45.0765 56.3186 45.0765 56.3186C45.0765 56.3186 46.5931 57.8936 48.1097 58.3025C49.6264 58.7114 51.5519 58.7678 51.7351 58.6509C51.9184 58.5341 52.6032 57.9259 52.6032 57.9259C52.6032 57.9259 53.1108 58.7073 53.578 58.7658C54.0453 58.8242 57.3928 58.7658 58.2689 58.1857C59.145 57.6056 60.2528 57.2511 60.1944 56.9007C60.136 56.5502 59.6687 56.3186 59.3767 55.5593C59.0846 54.8 58.851 53.1686 57.86 50.8342C57.1569 49.0998 56.5518 47.3273 56.0473 45.525C56.0473 45.525 56.9235 42.8422 57.3887 41.1504C57.854 39.4585 57.6808 36.3669 57.9728 34.2078C58.2649 32.0486 58.1481 28.4333 58.0312 27.4988C57.9144 26.5642 55.2316 22.3084 54.2387 20.5582L53.2477 18.8079C53.2477 18.8079 54.0937 17.5028 54.1601 16.9952C54.2266 16.4877 54.2931 15.5007 54.1279 15.7001C53.9627 15.8995 54.0272 15.9318 53.9607 16.1634C53.8585 16.4273 53.7366 16.6831 53.5962 16.9287C53.5962 16.9287 53.6949 15.964 53.7291 15.533C53.7633 15.1019 53.5962 14.7273 53.4632 14.7696C53.3303 14.8119 53.3968 15.0355 53.3968 15.3336C53.3359 15.8143 53.2471 16.2911 53.1309 16.7616C53.1309 16.7616 52.9295 15.4 52.8328 14.9026C52.7362 14.4051 52.4663 14.5702 52.43 14.7354C52.3938 14.9005 52.4965 16.7293 52.4965 16.7293L52.1641 16.4292C52.1641 16.4292 51.999 14.536 51.8318 14.4715C51.6646 14.4071 51.5337 14.4373 51.6002 14.7354C51.6783 15.3633 51.7113 15.996 51.6989 16.6286C51.6667 16.7293 51.433 18.0244 51.433 18.0244C51.433 18.0244 51.002 17.0939 50.7704 16.6286C50.5388 16.1634 50.3676 16.9287 50.5045 17.2933C50.6877 17.7447 50.8319 18.211 50.9355 18.6871C51.002 19.1201 51.9647 19.5511 52.1641 19.7505C52.3635 19.9499 54.9839 26.5239 55.1188 27.0557C55.1947 27.3662 55.3062 27.667 55.4512 27.9519L54.9335 33.3075L54.3293 35.523C54.3293 35.523 54.1279 35.7888 53.997 35.7566C53.8661 35.7244 54.0312 33.5975 54.0312 33.5975L51.006 33.3316Z" stroke="#263238" stroke-width="0.201411" stroke-linecap="round" stroke-linejoin="round"/>
<path d="M56.7462 43.233C56.8651 42.8503 56.9859 42.4535 57.0987 42.0728C53.7645 42.5794 50.3775 42.6363 47.0282 42.242L47.2296 42.9107C50.2427 43.6599 54.7563 43.4001 56.7462 43.233Z" fill="#FFC73C"/>
<mask id="mask11_317_3091" style="mask-type:luminance" maskUnits="userSpaceOnUse" x="47" y="42" width="11" height="2">
<path d="M56.7462 43.233C56.8651 42.8503 56.9859 42.4535 57.0987 42.0728C53.7645 42.5794 50.3775 42.6363 47.0282 42.242L47.2296 42.9107C50.2427 43.6599 54.7563 43.4001 56.7462 43.233Z" fill="white"/>
</mask>
<g mask="url(#mask11_317_3091)">
<g opacity="0.3">
<path d="M53.2779 43.4102C54.6757 43.386 55.9265 43.3015 56.7482 43.233C56.8671 42.8503 56.9879 42.4535 57.1007 42.0728C55.5359 42.3158 53.9568 42.4551 52.3736 42.4898C52.7016 42.7694 53.0042 43.0774 53.2779 43.4102Z" fill="black"/>
<path d="M49.1027 42.4293C48.1238 42.3709 47.4008 42.2904 47.0362 42.242L47.2376 42.9107C47.9545 43.0831 48.6828 43.2042 49.4169 43.2733L49.1027 42.4293Z" fill="black"/>
</g>
</g>
<path d="M56.7462 43.233C56.8651 42.8503 56.9859 42.4535 57.0987 42.0728C53.7645 42.5794 50.3775 42.6363 47.0282 42.242L47.2296 42.9107C50.2427 43.6599 54.7563 43.4001 56.7462 43.233Z" stroke="#263238" stroke-width="0.201411" stroke-linecap="round" stroke-linejoin="round"/>
<path d="M52.4642 25.5149C52.4642 25.5149 51.1813 25.5733 50.1903 27.4383C49.1994 29.3034 49.2558 31.3477 49.6646 32.5723C50.0735 33.7969 51.4149 34.673 52.6395 34.7314C53.864 34.7898 55.3243 34.0305 56.0232 31.4645C56.7221 28.8986 56.4904 27.1483 55.2074 26.0385C54.8358 25.7191 54.387 25.5027 53.9057 25.4108C53.4244 25.3189 52.9274 25.3548 52.4642 25.5149Z" fill="#263238" stroke="#263238" stroke-width="0.201411" stroke-linecap="round" stroke-linejoin="round"/>
<path d="M54.6314 28.2239C54.5696 28.3716 54.499 28.5155 54.42 28.6549C53.6264 30.0647 53.137 30.244 53.137 30.244C53.137 30.244 55.0322 30.3669 55.7654 29.5109C56.4985 28.6549 56.1944 27.8593 56.1944 27.8593" stroke="#A6A6A6" stroke-width="0.201411" stroke-linecap="round" stroke-linejoin="round"/>
<path d="M54.7321 26.1473C54.8212 26.379 54.8703 26.6242 54.8772 26.8724" stroke="#A6A6A6" stroke-width="0.201411" stroke-linecap="round" stroke-linejoin="round"/>
<path d="M53.0766 29.7546C53.0766 29.7546 53.137 27.247 51.7311 26.391" stroke="#A6A6A6" stroke-width="0.201411" stroke-linecap="round" stroke-linejoin="round"/>
<path d="M52.5166 30.3568C52.5166 30.3568 51 31.9318 50.3595 35.0819C49.719 38.2319 51.5257 40.2158 52.9779 40.5643C54.43 40.9127 55.3122 40.7979 55.2538 41.7909C55.1954 42.7838 53.6788 42.7818 54.2024 43.1323C54.7261 43.4827 55.7775 43.6579 57.4693 42.4313C59.1612 41.2048 60.3273 39.2229 59.1612 36.7153C57.995 34.2078 55.5358 33.9157 54.4361 32.6871C53.3364 31.4585 53.7352 30.1795 53.3283 29.8291C52.9215 29.4786 52.5166 30.3568 52.5166 30.3568Z" fill="#263238" stroke="#263238" stroke-width="0.201411" stroke-linecap="round" stroke-linejoin="round"/>
<path d="M57.288 41.7385C57.1517 42.0673 56.9202 42.3478 56.6234 42.5441" stroke="#A6A6A6" stroke-width="0.201411" stroke-linecap="round" stroke-linejoin="round"/>
<path d="M52.7704 30.4293C52.7704 30.4293 50.9355 33.8533 51.9144 35.9943C52.8933 38.1353 54.6657 38.1353 56.3777 38.814C57.1833 39.1322 57.5217 39.8533 57.5338 40.5864" stroke="#A6A6A6" stroke-width="0.201411" stroke-linecap="round" stroke-linejoin="round"/>
<path d="M52.8913 31.1604C52.8913 31.1604 52.2186 33.8533 53.9265 35.2631C55.6345 36.673 58.6335 37.4646 58.9396 38.9308C59.2458 40.3971 58.5126 41.1323 58.5126 41.1323" stroke="#A6A6A6" stroke-width="0.201411" stroke-linecap="round" stroke-linejoin="round"/>
<path d="M53.5378 39.9721C53.7895 40.0205 54.0453 40.0547 54.2991 40.0889" stroke="#A6A6A6" stroke-width="0.201411" stroke-linecap="round" stroke-linejoin="round"/>
<path d="M52.0977 31.7727C52.0977 31.7727 50.2004 35.1967 50.8731 37.4605C51.2276 38.6509 51.7855 39.2732 52.432 39.6076" stroke="#A6A6A6" stroke-width="0.201411" stroke-linecap="round" stroke-linejoin="round"/>
<path d="M60.1702 56.8987C60.1118 56.5502 59.6445 56.3166 59.3525 55.5573C59.0604 54.798 58.8268 53.1665 57.8359 50.8322C57.6747 50.4535 57.5197 50.0588 57.3706 49.664C52.9396 48.2541 48.7462 49.0598 46.9678 49.5371C46.5388 50.7133 46.1097 51.9661 45.8761 52.8745C45.294 55.1504 45.0705 56.3166 45.0705 56.3166C45.0705 56.3166 46.5871 57.8916 48.1037 58.3005C49.6203 58.7093 51.5458 58.7657 51.7291 58.6489C51.9124 58.5321 52.5972 57.9238 52.5972 57.9238C52.5972 57.9238 53.1047 58.7053 53.572 58.7637C54.0393 58.8221 57.3867 58.7637 58.2629 58.1837C59.139 57.6036 60.2246 57.2491 60.1702 56.8987Z" fill="#FFC73C"/>
<mask id="mask12_317_3091" style="mask-type:luminance" maskUnits="userSpaceOnUse" x="45" y="48" width="16" height="11">
<path d="M60.1702 56.8987C60.1118 56.5502 59.6445 56.3166 59.3525 55.5573C59.0604 54.798 58.8268 53.1665 57.8359 50.8322C57.6747 50.4535 57.5197 50.0588 57.3706 49.664C52.9396 48.2541 48.7462 49.0598 46.9678 49.5371C46.5388 50.7133 46.1097 51.9661 45.8761 52.8745C45.294 55.1504 45.0705 56.3166 45.0705 56.3166C45.0705 56.3166 46.5871 57.8916 48.1037 58.3005C49.6203 58.7093 51.5458 58.7657 51.7291 58.6489C51.9124 58.5321 52.5972 57.9238 52.5972 57.9238C52.5972 57.9238 53.1047 58.7053 53.572 58.7637C54.0393 58.8221 57.3867 58.7637 58.2629 58.1837C59.139 57.6036 60.2246 57.2491 60.1702 56.8987Z" fill="white"/>
</mask>
<g mask="url(#mask12_317_3091)">
<path opacity="0.3" d="M53.6244 58.1676C54.2286 57.5633 55.7392 56.9591 56.3434 56.3549C56.9476 55.7506 56.5448 55.6499 55.0342 56.1535C53.5237 56.657 52.9194 56.7577 51.3082 56.1535C49.6969 55.5492 48.6898 55.5492 47.7835 53.4344C47.0362 51.6902 48.0695 49.809 48.4542 49.2048C47.8499 49.3156 47.3524 49.4344 46.9637 49.5391C46.5347 50.7154 46.1057 51.9681 45.8721 52.8765C45.29 55.1524 45.0664 56.3186 45.0664 56.3186C45.0664 56.3186 46.5831 57.8936 48.0997 58.3025C49.6163 58.7114 51.5418 58.7678 51.7251 58.6509C51.9084 58.5341 52.5932 57.9259 52.5932 57.9259C52.5932 57.9259 53.1007 58.7073 53.568 58.7657C53.7689 58.7824 53.9706 58.7885 54.1722 58.7839C53.6949 58.6046 53.3988 58.3931 53.6244 58.1676Z" fill="black"/>
</g>
<path d="M60.1702 56.8987C60.1118 56.5502 59.6445 56.3166 59.3525 55.5573C59.0604 54.798 58.8268 53.1665 57.8359 50.8322C57.6747 50.4535 57.5197 50.0588 57.3706 49.664C52.9396 48.2541 48.7462 49.0598 46.9678 49.5371C46.5388 50.7133 46.1097 51.9661 45.8761 52.8745C45.294 55.1504 45.0705 56.3166 45.0705 56.3166C45.0705 56.3166 46.5871 57.8916 48.1037 58.3005C49.6203 58.7093 51.5458 58.7657 51.7291 58.6489C51.9124 58.5321 52.5972 57.9238 52.5972 57.9238C52.5972 57.9238 53.1047 58.7053 53.572 58.7637C54.0393 58.8221 57.3867 58.7637 58.2629 58.1837C59.139 57.6036 60.2246 57.2491 60.1702 56.8987Z" stroke="#263238" stroke-width="0.201411" stroke-linecap="round" stroke-linejoin="round"/>
<path d="M41.6143 40.7979L39.9567 41.8513" stroke="#263238" stroke-width="0.201411" stroke-linecap="round" stroke-linejoin="round"/>
</svg>
