<svg width="79" height="91" viewBox="0 0 79 91" fill="none" xmlns="http://www.w3.org/2000/svg">
<path d="M19.804 80.6668C19.804 80.6668 4.2376 68.8032 0.565254 50.2969C-3.10705 31.7908 11.9799 28.0599 20.8288 21.7884C29.6777 15.517 32.9345 8.45994 45.7566 8.02708C58.5788 7.59427 65.2118 12.3606 69.8414 21.5961C74.471 30.8315 76.9435 40.3151 78.3987 49.5707C79.854 58.8262 79.1388 66.219 70.9085 69.9065C62.6781 73.5941 58.8586 71.9763 54.9491 76.2229C51.0396 80.4695 33.1962 90.0815 19.804 80.6668Z" fill="#FF725E"/>
<path opacity="0.7" d="M19.804 80.6668C19.804 80.6668 4.2376 68.8032 0.565254 50.2969C-3.10705 31.7908 11.9799 28.0599 20.8288 21.7884C29.6777 15.517 32.9345 8.45994 45.7566 8.02708C58.5788 7.59427 65.2118 12.3606 69.8414 21.5961C74.471 30.8315 76.9435 40.3151 78.3987 49.5707C79.854 58.8262 79.1388 66.219 70.9085 69.9065C62.6781 73.5941 58.8586 71.9763 54.9491 76.2229C51.0396 80.4695 33.1962 90.0815 19.804 80.6668Z" fill="white"/>
<path d="M62.4559 106.661C62.1137 104.928 57.5509 81.6965 57.6876 76.0932C57.8296 70.2718 59.1662 65.9021 59.1662 65.9021C59.1662 65.9021 59.9543 64.3718 61.2917 62.1204C62.629 59.8689 64.4817 59.3102 64.4352 58.2921C64.3887 57.2741 64.6715 53.8767 64.8961 53.0142C65.1208 52.1519 64.7742 50.8715 64.621 49.8823C64.4678 48.8932 64.5235 47.6184 64.4325 47.0705C64.3414 46.5226 63.5324 46.2835 62.891 47.087C62.2496 47.8904 62.0683 48.9128 61.9937 49.9064C61.9191 50.9 61.6832 52.567 61.4008 53.216C61.1184 53.865 60.8505 54.5673 60.8505 54.5673C60.8505 54.5673 59.7314 54.2404 58.7835 53.0656C57.8357 51.8907 57.6424 51.5995 57.368 50.5859C57.0937 49.5722 56.512 44.4621 56.5622 43.5896C56.6123 42.7172 57.4058 39.0591 56.6269 38.2966C55.8479 37.5341 55.4355 37.7029 55.0709 38.2597C54.7063 38.8164 54.4773 39.451 54.4071 40.6724C54.3369 41.8938 54.0592 44.4961 54.0624 45.3541C54.0656 46.2121 54.1278 46.6533 54.0399 46.9634C53.9521 47.2735 53.6364 47.5879 53.2441 47.4078C52.8519 47.2277 52.8354 45.6862 52.8133 44.5471C52.7913 43.4079 52.499 40.2336 52.6903 39.0367C52.8817 37.8398 52.4962 36.6272 51.9294 36.4371C51.3626 36.247 50.538 36.5847 50.4433 37.9272C50.3486 39.2698 49.503 41.8359 49.5972 43.2418C49.6915 44.6477 50.1379 46.9317 50.1223 47.5085C50.1066 48.0853 49.452 48.2052 49.0597 48.0251C48.6674 47.845 47.8942 42.5739 47.6687 41.318C47.4433 40.0621 47.4514 38.3994 47.2781 37.7593C47.1048 37.1191 45.7835 36.0453 45.3399 37.3678C44.8963 38.6902 45.2472 40.1985 45.2605 40.8819C45.2737 41.5655 45.3915 44.8383 45.6891 46.3609C45.9868 47.8835 46.3478 49.2172 46.3133 49.5129C46.2788 49.8085 45.633 50.3841 45.2363 49.9761C44.8396 49.5682 43.7746 45.9378 43.6157 45.3509C43.4569 44.7641 43.3983 42.4324 42.9683 41.69C42.5383 40.9475 41.787 40.9218 41.708 41.6876C41.629 42.4533 41.333 45.1672 41.6795 46.4476C42.0261 47.728 42.7566 51.3917 43.0221 51.9496C43.2877 52.5076 43.6715 57.0987 44.3646 59.6595C45.0577 62.2202 47.2855 65.7969 47.4444 66.3838C47.6032 66.9706 47.8563 68.9634 47.7303 71.4595C47.6044 73.9556 46.1527 82.7653 46.0219 87.7821C45.893 92.728 45.5736 101.716 46.0666 106.661" fill="#DEDEDE"/>
<path d="M62.4559 106.661C62.1137 104.928 57.5509 81.6965 57.6876 76.0932C57.8296 70.2718 59.1662 65.9021 59.1662 65.9021C59.1662 65.9021 59.9544 64.3718 61.2917 62.1204C62.629 59.8689 64.4817 59.3102 64.4352 58.2921C64.3887 57.2741 64.6715 53.8767 64.8961 53.0142C65.1208 52.1519 64.7742 50.8715 64.621 49.8823C64.4678 48.8932 64.5235 47.6184 64.4325 47.0705C64.3414 46.5226 63.5324 46.2835 62.891 47.087C62.2496 47.8904 62.0683 48.9128 61.9937 49.9064C61.9191 50.9 61.6832 52.567 61.4008 53.216C61.1184 53.865 60.8505 54.5673 60.8505 54.5673C60.8505 54.5673 59.7314 54.2404 58.7835 53.0656C57.8357 51.8907 57.6424 51.5995 57.368 50.5859C57.0937 49.5722 56.512 44.4621 56.5622 43.5896C56.6123 42.7172 57.4058 39.0591 56.6269 38.2966C55.8479 37.5341 55.4355 37.7029 55.0709 38.2597C54.7063 38.8164 54.4773 39.451 54.4071 40.6724C54.3369 41.8938 54.0592 44.4961 54.0624 45.3541C54.0656 46.2121 54.1278 46.6533 54.0399 46.9634C53.9521 47.2735 53.6364 47.5879 53.2441 47.4078C52.8519 47.2277 52.8354 45.6862 52.8133 44.5471C52.7913 43.4079 52.499 40.2336 52.6903 39.0367C52.8817 37.8398 52.4962 36.6272 51.9294 36.4371C51.3626 36.247 50.538 36.5847 50.4433 37.9272C50.3486 39.2698 49.503 41.8359 49.5972 43.2418C49.6915 44.6477 50.1379 46.9317 50.1223 47.5085C50.1066 48.0853 49.452 48.2052 49.0597 48.0251C48.6674 47.845 47.8942 42.5739 47.6687 41.318C47.4433 40.0621 47.4514 38.3994 47.2781 37.7593C47.1048 37.1191 45.7835 36.0453 45.3399 37.3678C44.8963 38.6902 45.2472 40.1985 45.2605 40.8819C45.2737 41.5655 45.3915 44.8383 45.6891 46.3609C45.9868 47.8835 46.3478 49.2172 46.3133 49.5129C46.2788 49.8085 45.633 50.3841 45.2363 49.9761C44.8396 49.5682 43.7746 45.9378 43.6157 45.3509C43.4569 44.7641 43.3983 42.4324 42.9683 41.69C42.5383 40.9475 41.787 40.9218 41.708 41.6876C41.629 42.4533 41.333 45.1672 41.6795 46.4476C42.0261 47.728 42.7566 51.3917 43.0221 51.9496C43.2877 52.5076 43.6715 57.0987 44.3646 59.6595C45.0577 62.2202 47.2855 65.7969 47.4444 66.3838C47.6032 66.9706 47.8563 68.9634 47.7303 71.4595C47.6044 73.9556 46.1527 82.7653 46.0219 87.7821C45.893 92.728 45.5736 101.716 46.0666 106.661" stroke="#263238" stroke-width="0.225465" stroke-miterlimit="10"/>
<path d="M51.9455 67.4925C52.8273 67.3633 53.5946 66.8948 53.5946 66.8948C53.5946 66.8948 54.6793 67.5174 56.163 67.2875C57.6467 67.0577 58.5649 66.0076 58.9973 65.4897" stroke="#263238" stroke-width="0.225465" stroke-miterlimit="10"/>
<path d="M49.7748 66.9554C49.7748 66.9554 50.186 67.4167 51.3007 67.5157" stroke="#263238" stroke-width="0.225465" stroke-miterlimit="10"/>
<path d="M47.099 49.2429C47.099 49.2429 50.0055 47.7119 52.2694 47.6144" stroke="#263238" stroke-width="0.225465" stroke-miterlimit="10"/>
<path d="M53.117 58.6792C52.9584 60.0453 52.9766 60.5921 52.9766 60.5921" stroke="#263238" stroke-width="0.225465" stroke-miterlimit="10"/>
<path d="M56.4964 52.654C56.4964 52.654 53.7299 54.4907 53.3372 57.0591" stroke="#263238" stroke-width="0.225465" stroke-miterlimit="10"/>
<path d="M55.2366 41.6341C55.2366 41.6341 55.3888 41.7863 56.1498 41.6341" stroke="#263238" stroke-width="0.225465" stroke-miterlimit="10"/>
<path d="M54.7039 44.2975C54.7039 44.2975 55.4649 44.678 56.302 44.2214" stroke="#263238" stroke-width="0.225465" stroke-miterlimit="10"/>
<path d="M50.5947 39.7317C50.5947 39.7317 51.5839 40.4165 52.421 39.96" stroke="#263238" stroke-width="0.225465" stroke-miterlimit="10"/>
<path d="M49.5972 43.2418C49.5972 43.2418 51.2034 44.0692 52.3449 43.0799" stroke="#263238" stroke-width="0.225465" stroke-miterlimit="10"/>
<path d="M54.5517 47.2653C54.5517 47.2653 55.0844 47.874 56.0737 47.4175" stroke="#263238" stroke-width="0.225465" stroke-miterlimit="10"/>
<path d="M45.7245 40.8731C45.7245 40.8731 46.5615 41.3297 47.2464 40.4926" stroke="#263238" stroke-width="0.225465" stroke-miterlimit="10"/>
<path d="M45.6483 45.0585C45.6483 45.0585 47.0181 45.4389 47.8552 44.6019" stroke="#263238" stroke-width="0.225465" stroke-miterlimit="10"/>
<path d="M43.6157 45.3509C43.6157 45.3509 42.7567 45.8955 42.0718 45.8194" stroke="#263238" stroke-width="0.225465" stroke-miterlimit="10"/>
<path d="M44.2786 48.9394C44.2786 48.9394 43.822 49.4721 43.1371 49.5482" stroke="#263238" stroke-width="0.225465" stroke-miterlimit="10"/>
<path d="M60.8505 54.5673C60.8505 54.5673 59.5741 54.9511 59.1175 54.875C58.661 54.7989 57.4434 54.4945 57.0629 54.6467" stroke="#263238" stroke-width="0.225465" stroke-miterlimit="10"/>
<path d="M34.5893 106.661L34.2849 99.5511L35.7103 75.8176C35.7103 75.8176 37.6346 73.8933 38.5611 71.969C39.4877 70.0446 41.2695 64.4854 41.412 63.9865C41.5546 63.4876 43.1225 59.7102 44.2629 57.9284C45.4032 56.1466 46.0447 55.719 46.401 54.2223C46.7574 52.7256 45.6883 52.7256 45.2607 52.8681C44.833 53.0107 43.3364 54.6499 43.3364 54.6499C43.3364 54.6499 43.4789 54.2936 43.9065 53.5096C44.3342 52.7256 45.9266 49.9007 45.7128 48.9029C45.499 47.9051 43.9778 47.7366 43.6214 48.378C43.2651 49.0195 42.4098 51.3714 41.3407 52.6543C40.2717 53.9372 38.0922 57.3077 37.6646 57.3077C37.237 57.3077 36.5655 56.5743 36.9932 55.2914C37.4208 54.0085 38.4186 51.8703 38.6324 50.8013C38.8462 49.7322 40.4855 44.957 40.2004 44.3155C39.9153 43.6741 38.775 43.6028 38.2761 44.0304C37.7772 44.4581 35.9241 49.162 35.4252 50.0173C34.9263 50.8725 34.1423 55.5765 33.7859 56.0754C33.4296 56.5743 32.9307 56.0754 32.7169 55.5052C32.503 54.935 32.3605 51.7278 32.7169 50.0173C33.0732 48.3068 33.8572 46.1686 33.7147 45.0283C33.5721 43.8879 32.1467 43.8879 31.5053 44.8144C30.8638 45.741 29.6522 49.5184 29.5096 50.2311C29.3671 50.9438 29.7235 54.5787 29.2245 56.3605C28.7257 58.1423 26.6588 61.207 25.9461 61.6346C25.2333 62.0622 24.5919 61.7058 24.0217 60.708C23.4515 59.7102 23.309 57.9284 22.4537 57.2157C21.5985 56.503 19.6741 55.8615 18.1774 56.0754C16.6807 56.2892 17.0371 57.287 17.0371 57.287C17.0371 57.287 20.3156 59.0688 20.6007 61.4208C20.8858 63.7727 21.0283 66.9087 21.9548 68.6905C22.8814 70.4723 25.3046 73.537 25.3759 74.1784C25.4472 74.8198 24.7344 83.515 23.5941 88.7891C22.5402 93.6636 19.0127 104.975 18.4842 106.661" fill="#BABABA"/>
<path d="M34.5893 106.661L34.2849 99.5511L35.7103 75.8176C35.7103 75.8176 37.6346 73.8933 38.5611 71.969C39.4877 70.0446 41.2695 64.4854 41.412 63.9865C41.5546 63.4876 43.1225 59.7102 44.2629 57.9284C45.4032 56.1466 46.0447 55.719 46.401 54.2223C46.7574 52.7256 45.6883 52.7256 45.2607 52.8681C44.833 53.0107 43.3364 54.6499 43.3364 54.6499C43.3364 54.6499 43.4789 54.2936 43.9065 53.5096C44.3342 52.7256 45.9266 49.9007 45.7128 48.9029C45.499 47.9051 43.9778 47.7366 43.6214 48.378C43.2651 49.0195 42.4098 51.3714 41.3407 52.6543C40.2717 53.9372 38.0922 57.3077 37.6646 57.3077C37.237 57.3077 36.5655 56.5743 36.9932 55.2914C37.4208 54.0085 38.4186 51.8703 38.6324 50.8013C38.8462 49.7322 40.4855 44.957 40.2004 44.3155C39.9153 43.6741 38.775 43.6028 38.2761 44.0304C37.7772 44.4581 35.9241 49.162 35.4252 50.0173C34.9263 50.8725 34.1423 55.5765 33.7859 56.0754C33.4296 56.5743 32.9307 56.0754 32.7169 55.5052C32.503 54.935 32.3605 51.7278 32.7169 50.0173C33.0732 48.3068 33.8572 46.1686 33.7147 45.0283C33.5721 43.8879 32.1467 43.8879 31.5053 44.8144C30.8638 45.741 29.6522 49.5184 29.5096 50.2311C29.3671 50.9438 29.7235 54.5787 29.2245 56.3605C28.7257 58.1423 26.6588 61.207 25.9461 61.6346C25.2333 62.0622 24.5919 61.7058 24.0217 60.708C23.4515 59.7102 23.309 57.9284 22.4537 57.2157C21.5985 56.503 19.6741 55.8615 18.1774 56.0754C16.6807 56.2892 17.0371 57.287 17.0371 57.287C17.0371 57.287 20.3156 59.0688 20.6007 61.4208C20.8858 63.7727 21.0283 66.9087 21.9548 68.6905C22.8814 70.4723 25.3046 73.537 25.3759 74.1784C25.4472 74.8198 24.7344 83.515 23.5941 88.7891C22.5402 93.6636 19.0127 104.975 18.4842 106.661" stroke="#263238" stroke-width="0.225465" stroke-miterlimit="10"/>
<path d="M43.3364 54.6499C43.3364 54.6499 41.8397 57.4295 41.1982 58.4986C40.5568 59.5677 40.343 59.9953 40.343 59.9953" stroke="#263238" stroke-width="0.225465" stroke-miterlimit="10"/>
<path d="M36.544 60.9243C36.544 60.9243 36.0346 61.7394 36.2893 62.4525" stroke="#263238" stroke-width="0.225465" stroke-miterlimit="10"/>
<path d="M33.6405 58.9378C33.6405 58.9378 33.3348 60.2112 33.4876 60.7206C33.6405 61.23 33.7933 61.4847 33.7933 61.4847" stroke="#263238" stroke-width="0.225465" stroke-miterlimit="10"/>
<path d="M39.5493 61.9431C39.5493 61.9431 38.7852 63.1656 39.1418 63.8788" stroke="#263238" stroke-width="0.225465" stroke-miterlimit="10"/>
<path d="M25.946 61.6346C25.946 61.6346 24.6244 62.5034 24.0132 62.9619" stroke="#263238" stroke-width="0.225465" stroke-miterlimit="10"/>
<path d="M32.1123 58.0718C32.1123 58.0718 31.552 60.0075 30.9408 60.415" stroke="#263238" stroke-width="0.225465" stroke-miterlimit="10"/>
<path d="M42.2433 35.3787C52.0129 35.3787 59.9326 27.4589 59.9326 17.6893C59.9326 7.91981 52.0129 3.8147e-05 42.2433 3.8147e-05C32.4738 3.8147e-05 24.554 7.91981 24.554 17.6893C24.554 27.4589 32.4738 35.3787 42.2433 35.3787Z" fill="#FF725E" stroke="#263238" stroke-width="0.450929" stroke-miterlimit="10"/>
<path d="M42.2433 0C32.4738 0 24.554 7.91976 24.554 17.6893C24.554 18.2645 24.5825 18.833 24.6361 19.3941C29.2599 21.2055 35.0361 22.2822 41.3032 22.2822C48.4812 22.2822 55.0155 20.8703 59.9112 18.5591C59.9252 18.2709 59.9327 17.981 59.9327 17.6893C59.9327 7.91976 52.0129 0 42.2433 0Z" stroke="#263238" stroke-width="0.225465" stroke-miterlimit="10"/>
<path d="M42.2534 0.0373383C35.9313 1.7343 30.8081 8.48223 30.0742 16.8727C29.3579 25.0621 33.0433 32.2966 38.7517 35.0272" stroke="#263238" stroke-width="0.225465" stroke-miterlimit="10"/>
<path d="M54.5581 4.99215C53.211 5.06256 51.3309 5.28586 49.0104 5.87581C44.0297 7.14211 40.9906 10.7722 37.7826 13.558C34.5747 16.3439 31.7044 17.3569 28.7497 15.4152C26.968 14.2444 26.6599 11.3551 26.696 9.24511C25.3302 11.7545 24.554 14.6313 24.554 17.6893C24.554 21.107 25.5242 24.2975 27.2028 27.0025C27.783 26.3103 29.109 25.2923 30.9446 25.2923C33.3084 25.2923 37.867 28.6691 43.0166 30.864C46.3377 32.2796 49.5863 32.6764 51.4762 32.78C56.5485 29.67 59.9326 24.0751 59.9326 17.6893C59.9326 12.7073 57.8722 8.20709 54.5581 4.99215Z" stroke="#263238" stroke-width="0.225465" stroke-miterlimit="10"/>
<path d="M63.7469 26.034C64.5299 23.7013 64.9541 21.2039 64.9541 18.6074C64.9541 16.117 64.5638 13.7178 63.8411 11.4675" stroke="#263238" stroke-width="0.225465" stroke-miterlimit="10"/>
<path d="M25.2939 1.95577C20.9793 6.18876 18.3026 12.0855 18.3026 18.6074C18.3026 18.9282 18.3091 19.2476 18.322 19.5653" stroke="#263238" stroke-width="0.225465" stroke-miterlimit="10"/>
<path d="M62.2362 22.737C62.5023 21.4018 62.6419 20.0209 62.6419 18.6074C62.6419 15.4544 61.9475 12.4636 60.7032 9.7796" stroke="#263238" stroke-width="0.225465" stroke-miterlimit="10"/>
<path d="M61.4231 25.6769C61.6361 25.0806 61.8229 24.4718 61.9821 23.852" stroke="#263238" stroke-width="0.225465" stroke-miterlimit="10"/>
<path d="M21.5908 12.2591C20.9568 14.262 20.6148 16.3948 20.6148 18.6074C20.6148 19.866 20.7255 21.0987 20.9376 22.2964" stroke="#263238" stroke-width="0.225465" stroke-miterlimit="10"/>
<path d="M22.9262 9.0166C22.5349 9.77815 22.1887 10.5667 21.8912 11.3787" stroke="#263238" stroke-width="0.225465" stroke-miterlimit="10"/>
</svg>
