<svg width="24" height="24" viewBox="0 0 24 24" fill="none" xmlns="http://www.w3.org/2000/svg">
<path d="M22.2749 5.325C21.6913 4.55124 20.8923 3.96701 19.978 3.64556C19.5998 2.74917 18.9168 2.01537 18.0498 1.57392C17.1828 1.13247 16.1876 1.01179 15.2402 1.23323C14.3477 0.438869 13.1946 0 11.9998 0C10.805 0 9.65182 0.438869 8.75935 1.23323C7.81187 1.01179 6.81661 1.13244 5.94949 1.57386C5.08237 2.01529 4.39923 2.74906 4.02083 3.64547C3.10665 3.96695 2.30775 4.55123 1.72435 5.325C1.07936 6.18547 0.736937 7.23503 0.750381 8.31032C0.763826 9.3856 1.13238 10.4263 1.79868 11.2703C2.46498 12.1144 3.39165 12.7146 4.43443 12.9773C5.47722 13.2401 6.57762 13.1507 7.56435 12.7232C8.2664 14.475 8.62634 16.3451 8.62473 18.2323V21.4687C8.62504 21.7422 8.73379 22.0043 8.92712 22.1976C9.12045 22.3909 9.38258 22.4997 9.65599 22.5H14.3436C14.617 22.4997 14.8791 22.3909 15.0724 22.1976C15.2658 22.0043 15.3745 21.7422 15.3748 21.4687V18.2323C15.3732 16.3451 15.7332 14.475 16.4352 12.7232C17.4219 13.151 18.5225 13.2405 19.5654 12.9779C20.6083 12.7152 21.5351 12.115 22.2015 11.2708C22.8678 10.4266 23.2363 9.38581 23.2496 8.31041C23.2629 7.235 22.9202 6.18539 22.2749 5.325ZM14.6248 18.2323V21.4687C14.6247 21.5433 14.5951 21.6148 14.5423 21.6675C14.4896 21.7203 14.4181 21.7499 14.3436 21.75H9.65599C9.58142 21.7499 9.50992 21.7203 9.4572 21.6675C9.40447 21.6148 9.37481 21.5433 9.37474 21.4687V18.2323C9.37644 16.2229 8.988 14.2322 8.23097 12.3708C8.49976 12.2005 8.75122 12.0042 8.98173 11.7848L9.77862 13.6445L10.248 14.8179C10.4147 15.2335 10.5001 15.6772 10.4998 16.125C10.4998 16.2245 10.5393 16.3198 10.6096 16.3902C10.6799 16.4605 10.7753 16.5 10.8748 16.5C10.9742 16.5 11.0696 16.4605 11.1399 16.3902C11.2103 16.3198 11.2498 16.2245 11.2498 16.125C11.2503 15.5818 11.1466 15.0436 10.9444 14.5394L10.5154 13.4668L11.025 11.0883C11.657 11.3039 12.3426 11.3039 12.9745 11.0883L13.4842 13.4668L13.0552 14.5394C12.853 15.0435 12.7493 15.5818 12.7498 16.125C12.7498 16.2245 12.7893 16.3198 12.8596 16.3902C12.9299 16.4605 13.0253 16.5 13.1248 16.5C13.2242 16.5 13.3196 16.4605 13.39 16.3902C13.4603 16.3198 13.4998 16.2245 13.4998 16.125C13.4994 15.6772 13.5849 15.2335 13.7515 14.8179L14.2209 13.6445L15.0178 11.7849C15.2483 12.0043 15.4997 12.2005 15.7685 12.3708C15.0115 14.2322 14.6231 16.2229 14.6248 18.2323ZM10.3206 10.7964L10.0051 12.2687L9.532 11.165C9.55853 11.1295 9.58465 11.0935 9.61033 11.0572C9.85473 10.9858 10.0931 10.8952 10.3233 10.7863C10.3224 10.7899 10.3213 10.7931 10.3206 10.7964ZM14.3894 11.0574C14.415 11.0937 14.4411 11.1296 14.4677 11.1652L13.9947 12.269L13.6791 10.7967C13.6784 10.7933 13.6773 10.7901 13.6765 10.7867C13.9066 10.8956 14.1449 10.9861 14.3892 11.0574H14.3894ZM18.3749 12.375C17.693 12.3756 17.0216 12.2068 16.421 11.884C15.8204 11.5611 15.3094 11.0942 14.9337 10.5251C14.933 10.524 14.9322 10.5231 14.9315 10.5221C14.6141 10.0439 14.4012 9.50396 14.3069 8.93775C14.299 8.88892 14.2815 8.84213 14.2555 8.80007C14.2295 8.75802 14.1954 8.72152 14.1553 8.69269C14.1151 8.66385 14.0696 8.64325 14.0214 8.63207C13.9732 8.62089 13.9233 8.61934 13.8746 8.62753C13.8258 8.63571 13.7791 8.65347 13.7372 8.67976C13.6953 8.70606 13.6591 8.74038 13.6305 8.78075C13.6019 8.82112 13.5816 8.86674 13.5708 8.91499C13.5599 8.96324 13.5587 9.01315 13.5672 9.06187C13.6224 9.392 13.7117 9.71552 13.8336 10.0272C13.8161 10.0178 13.7983 10.009 13.7809 9.99951C13.717 9.96472 13.6443 9.94926 13.5718 9.95502C13.4993 9.96078 13.43 9.98751 13.3724 10.0319C12.9791 10.3353 12.4965 10.4998 11.9998 10.4998C11.5031 10.4998 11.0204 10.3353 10.6271 10.0319C10.5695 9.98751 10.5002 9.96078 10.4277 9.95502C10.3552 9.94926 10.2826 9.96472 10.2187 9.99951C10.2012 10.0089 10.1835 10.018 10.1659 10.0272C10.2879 9.71552 10.3772 9.392 10.4323 9.06187C10.4409 9.01315 10.4396 8.96324 10.4288 8.91499C10.4179 8.86674 10.3976 8.82112 10.369 8.78075C10.3405 8.74038 10.3042 8.70606 10.2623 8.67976C10.2204 8.65347 10.1738 8.63571 10.125 8.62753C10.0762 8.61934 10.0263 8.62089 9.97814 8.63207C9.92996 8.64325 9.88447 8.66385 9.84429 8.69269C9.80411 8.72152 9.77003 8.75802 9.74401 8.80007C9.718 8.84213 9.70055 8.88892 9.69269 8.93775C9.59833 9.50396 9.38546 10.0439 9.06803 10.5221C9.06733 10.5231 9.06653 10.524 9.06583 10.5251C8.76103 10.9847 8.36718 11.3785 7.90754 11.6833C7.4479 11.988 6.93182 12.1975 6.38982 12.2994C5.84781 12.4012 5.29088 12.3934 4.75197 12.2762C4.21305 12.1591 3.70309 11.9351 3.25225 11.6175C2.8014 11.2999 2.41882 10.8951 2.12713 10.4271C1.83544 9.95905 1.64057 9.43728 1.55403 8.89262C1.46749 8.34797 1.49104 7.79149 1.6233 7.2561C1.75556 6.72071 1.99383 6.21727 2.32403 5.77556C2.70866 5.26572 3.20526 4.85105 3.77553 4.56351C3.74225 4.65149 3.72251 4.74402 3.71698 4.83792C3.71211 4.88693 3.71694 4.93641 3.7312 4.98355C3.74545 5.03069 3.76885 5.07456 3.80006 5.11265C3.83127 5.15075 3.86968 5.18232 3.91309 5.20558C3.95651 5.22883 4.00408 5.2433 4.05308 5.24817C4.06569 5.24939 4.07821 5.25004 4.09058 5.25004C4.18356 5.24994 4.27318 5.2153 4.34206 5.15285C4.41093 5.0904 4.45416 5.00459 4.46334 4.91208C4.49216 4.6226 4.55853 4.3381 4.66078 4.06575C4.67292 4.03336 4.70578 3.95208 4.70939 3.94345C5.02975 3.18028 5.61942 2.56147 6.36625 2.20466C7.11308 1.84786 7.965 1.77797 8.76001 2.00826C8.7856 2.01567 8.86276 2.03845 8.88188 2.04483C9.39241 2.21457 9.85518 2.50345 10.2319 2.88754C10.2663 2.923 10.3074 2.95131 10.3528 2.97084C10.3981 2.99038 10.4469 3.00075 10.4963 3.00137C10.5457 3.00199 10.5948 2.99284 10.6406 2.97444C10.6865 2.95605 10.7283 2.92878 10.7635 2.8942C10.7988 2.85961 10.8269 2.8184 10.8462 2.77292C10.8655 2.72744 10.8757 2.6786 10.876 2.6292C10.8764 2.57979 10.867 2.5308 10.8484 2.48504C10.8298 2.43928 10.8023 2.39765 10.7675 2.36254C10.428 2.01686 10.0306 1.73327 9.59332 1.52461C10.2946 1.02098 11.1363 0.750086 11.9997 0.750086C12.8631 0.750086 13.7048 1.02098 14.4061 1.52461C13.9689 1.73326 13.5715 2.01684 13.232 2.3625C13.163 2.43364 13.1249 2.52922 13.1261 2.62834C13.1274 2.72746 13.1678 2.82206 13.2386 2.89145C13.3094 2.96084 13.4048 2.99938 13.5039 2.99864C13.603 2.9979 13.6978 2.95794 13.7676 2.8875C14.1443 2.5034 14.6071 2.21453 15.1176 2.04478C15.1368 2.0384 15.214 2.01562 15.2395 2.00822C16.0583 1.77099 16.9366 1.85252 17.6978 2.2364C18.459 2.62029 19.0467 3.27809 19.3427 4.07756C19.3528 4.10479 19.3855 4.19606 19.3984 4.23731C19.4673 4.45689 19.5134 4.68297 19.5362 4.91198C19.5453 5.00452 19.5886 5.09034 19.6574 5.15281C19.7263 5.21527 19.816 5.2499 19.909 5.25C19.9213 5.25 19.9339 5.24934 19.9465 5.24812C19.9955 5.24326 20.043 5.22879 20.0865 5.20555C20.1299 5.1823 20.1683 5.15073 20.1995 5.11264C20.2307 5.07455 20.2541 5.03068 20.2684 4.98355C20.2826 4.93641 20.2875 4.88693 20.2826 4.83792C20.2741 4.74899 20.2605 4.66062 20.242 4.57322C20.8047 4.8603 21.2948 5.27144 21.6754 5.77561C22.2131 6.48823 22.5027 7.35729 22.4999 8.25C22.4987 9.34363 22.0637 10.3921 21.2903 11.1654C20.517 11.9388 19.4685 12.3738 18.3749 12.375Z" fill="#45C55B"/>
<path d="M5.29688 7.96875C5.52987 7.96875 5.71875 7.77987 5.71875 7.54688C5.71875 7.31388 5.52987 7.125 5.29688 7.125C5.06388 7.125 4.875 7.31388 4.875 7.54688C4.875 7.77987 5.06388 7.96875 5.29688 7.96875Z" fill="#45C55B"/>
<path d="M19.4531 10.5C19.6861 10.5 19.875 10.3111 19.875 10.0781C19.875 9.84513 19.6861 9.65625 19.4531 9.65625C19.2201 9.65625 19.0312 9.84513 19.0312 10.0781C19.0312 10.3111 19.2201 10.5 19.4531 10.5Z" fill="#45C55B"/>
<path d="M13.0781 6.46875C13.3111 6.46875 13.5 6.27987 13.5 6.04688C13.5 5.81388 13.3111 5.625 13.0781 5.625C12.8451 5.625 12.6562 5.81388 12.6562 6.04688C12.6562 6.27987 12.8451 6.46875 13.0781 6.46875Z" fill="#45C55B"/>
<path d="M18.0469 5.25C18.2799 5.25 18.4688 5.06112 18.4688 4.82812C18.4688 4.59513 18.2799 4.40625 18.0469 4.40625C17.8139 4.40625 17.625 4.59513 17.625 4.82812C17.625 5.06112 17.8139 5.25 18.0469 5.25Z" fill="#45C55B"/>
<path d="M6.04688 9.75C6.27987 9.75 6.46875 9.56112 6.46875 9.32812C6.46875 9.09513 6.27987 8.90625 6.04688 8.90625C5.81388 8.90625 5.625 9.09513 5.625 9.32812C5.625 9.56112 5.81388 9.75 6.04688 9.75Z" fill="#45C55B"/>
<path d="M16.0781 4.96875C16.3111 4.96875 16.5 4.77987 16.5 4.54688C16.5 4.31388 16.3111 4.125 16.0781 4.125C15.8451 4.125 15.6562 4.31388 15.6562 4.54688C15.6562 4.77987 15.8451 4.96875 16.0781 4.96875Z" fill="#45C55B"/>
<path d="M8.20312 3.84375C8.43612 3.84375 8.625 3.65487 8.625 3.42188C8.625 3.18888 8.43612 3 8.20312 3C7.97013 3 7.78125 3.18888 7.78125 3.42188C7.78125 3.65487 7.97013 3.84375 8.20312 3.84375Z" fill="#45C55B"/>
<path d="M4.59375 9.375C4.85263 9.375 5.0625 9.16513 5.0625 8.90625C5.0625 8.64737 4.85263 8.4375 4.59375 8.4375C4.33487 8.4375 4.125 8.64737 4.125 8.90625C4.125 9.16513 4.33487 9.375 4.59375 9.375Z" fill="#45C55B"/>
<path d="M9.28125 5.25C9.54013 5.25 9.75 5.04013 9.75 4.78125C9.75 4.52237 9.54013 4.3125 9.28125 4.3125C9.02237 4.3125 8.8125 4.52237 8.8125 4.78125C8.8125 5.04013 9.02237 5.25 9.28125 5.25Z" fill="#45C55B"/>
<path d="M16.7812 6.75C17.0401 6.75 17.25 6.54013 17.25 6.28125C17.25 6.02237 17.0401 5.8125 16.7812 5.8125C16.5224 5.8125 16.3125 6.02237 16.3125 6.28125C16.3125 6.54013 16.5224 6.75 16.7812 6.75Z" fill="#45C55B"/>
<path d="M11.7188 7.875C11.9776 7.875 12.1875 7.66513 12.1875 7.40625C12.1875 7.14737 11.9776 6.9375 11.7188 6.9375C11.4599 6.9375 11.25 7.14737 11.25 7.40625C11.25 7.66513 11.4599 7.875 11.7188 7.875Z" fill="#45C55B"/>
<path d="M20.1562 9.375C20.4151 9.375 20.625 9.16513 20.625 8.90625C20.625 8.64737 20.4151 8.4375 20.1562 8.4375C19.8974 8.4375 19.6875 8.64737 19.6875 8.90625C19.6875 9.16513 19.8974 9.375 20.1562 9.375Z" fill="#45C55B"/>
<path d="M13.125 17.25C13.0255 17.25 12.9302 17.2895 12.8598 17.3598C12.7895 17.4302 12.75 17.5255 12.75 17.625V18.375C12.75 18.4745 12.7895 18.5698 12.8598 18.6402C12.9302 18.7105 13.0255 18.75 13.125 18.75C13.2245 18.75 13.3198 18.7105 13.3902 18.6402C13.4605 18.5698 13.5 18.4745 13.5 18.375V17.625C13.5 17.5255 13.4605 17.4302 13.3902 17.3598C13.3198 17.2895 13.2245 17.25 13.125 17.25Z" fill="#45C55B"/>
</svg>
