<svg width="20" height="21" viewBox="0 0 20 21" fill="none" xmlns="http://www.w3.org/2000/svg">
<path d="M18.2159 2.26047C17.0821 1.12647 15.6223 0.493301 14.1053 0.477557C12.5399 0.462283 11.0153 1.11448 9.81148 2.31672C8.71878 3.40802 7.91308 4.89637 7.60105 6.40012C7.25905 8.04744 6.47163 9.52493 5.32378 10.6729L5.27394 10.7227C5.16265 10.834 5.10003 10.9849 5.10003 11.1424C5.10003 11.2998 5.16253 11.4507 5.27386 11.5621L5.53671 11.825L3.28268 14.0791C2.93546 13.8842 2.53733 13.784 2.13401 13.7966C1.52003 13.8157 0.957291 14.0807 0.5494 14.5427C-0.182593 15.3719 -0.183218 16.6229 0.548033 17.4526C0.941275 17.899 1.48374 18.1636 2.0755 18.1977C2.18182 18.2038 2.27331 18.2953 2.2794 18.4017C2.31346 18.9934 2.57803 19.5359 3.02436 19.9292C3.43893 20.2946 3.95866 20.4773 4.47847 20.4773C4.99886 20.4773 5.51937 20.2941 5.93417 19.9279C6.39616 19.52 6.66112 18.9571 6.68019 18.3431C6.69269 17.9396 6.59261 17.5417 6.39765 17.1943L8.65167 14.9402L8.91472 15.2032C9.03058 15.3191 9.18249 15.3771 9.33433 15.3771C9.48613 15.3771 9.63796 15.3192 9.75382 15.2034L9.80394 15.1533C10.9512 14.0059 12.4293 13.2183 14.0782 12.8755C15.5794 12.5634 17.0657 11.7591 18.1558 10.6689C19.3604 9.46422 20.0153 7.93883 19.9997 6.37375C19.9846 4.85664 19.3511 3.39587 18.2159 2.26047ZM5.19679 16.7166C4.96503 16.9484 4.96503 17.3241 5.19679 17.5559C5.39714 17.7563 5.50265 18.0228 5.49386 18.3062C5.48503 18.5893 5.36241 18.8492 5.14858 19.038C4.77315 19.3695 4.18468 19.3698 3.80893 19.0387C3.60233 18.8566 3.47995 18.6062 3.46425 18.3335C3.42331 17.6215 2.85553 17.0537 2.14358 17.0127C1.87085 16.997 1.62042 16.8746 1.43839 16.668C1.10729 16.2922 1.1076 15.7037 1.43909 15.3282C1.62784 15.1144 1.88772 14.9918 2.17081 14.983C2.18178 14.9827 2.19272 14.9825 2.20362 14.9825C2.47479 14.9825 2.72846 15.0874 2.92108 15.28C3.15276 15.5118 3.5285 15.5118 3.7603 15.28L6.37593 12.6642L7.81245 14.1008L5.19679 16.7166ZM17.3166 9.82945C16.3994 10.7467 15.0985 11.4509 13.8366 11.7133C12.1372 12.0665 10.5947 12.8378 9.34476 13.9546L6.5223 11.132C7.6396 9.8814 8.41062 8.33941 8.76308 6.64131C9.02542 5.37739 9.73085 4.07467 10.6502 3.15659C12.6169 1.19246 15.4458 1.16859 17.3766 3.09975C19.3087 5.03209 19.2835 7.86238 17.3166 9.82945Z" fill="#45C55B"/>
</svg>
