<svg width="22" height="22" viewBox="0 0 22 22" fill="none" xmlns="http://www.w3.org/2000/svg">
<path d="M11.7174 14.5491C11.7088 14.3533 11.5508 14.1937 11.3548 14.1937V14.1937C11.1589 14.1937 10.9992 14.3532 11.0072 14.549C11.1147 17.1659 12.4229 19.0156 14.8115 19.9291C14.9944 19.9991 15.1961 19.898 15.258 19.7121V19.7121C15.32 19.5262 15.2185 19.326 15.0357 19.2553C12.9342 18.4423 11.8196 16.8615 11.7174 14.5491Z" fill="#45C55B"/>
<path d="M7.23594 9.83035C7.26394 9.63643 7.13677 9.45169 6.94404 9.41642V9.41642C6.75128 9.38114 6.56595 9.5087 6.53748 9.70259C6.43748 10.3837 6.38672 11.1763 6.38672 12.0646C6.38672 13.062 6.55127 13.9594 6.87631 14.7383C6.95181 14.9192 7.16598 14.9904 7.34151 14.9031V14.9031C7.51696 14.8158 7.58726 14.6032 7.51353 14.4216C7.23665 13.7398 7.0964 12.9487 7.0964 12.0646C7.0964 11.2208 7.14341 10.4714 7.23594 9.83035Z" fill="#45C55B"/>
<path d="M20.3844 15.2208C21.4865 14.6694 22 13.5538 22 11.7097C22 9.06223 19.5353 7.85861 18.7798 7.55168C18.7263 7.26923 18.5868 6.99813 18.3842 6.74194H18.8065C20.1761 6.74194 21.2903 5.62774 21.2903 4.25806V3.90323H19.5161C18.3799 3.90323 17.4254 4.65868 17.1295 5.70403C16.1562 5.12281 14.9706 4.72929 14.1747 4.63526C14.0335 3.25884 13.0694 2.277 13.0251 2.23265L12.9211 2.12903H11L11.0007 3.38268L11.1568 3.48806C11.1661 3.49445 12.0645 4.11081 12.0645 4.96774C12.0645 5.16752 11.9144 5.35203 11.6951 5.54223C11.6224 4.91381 11.0646 4.44116 10.5174 3.98555C10.0568 3.60161 9.58064 3.2049 9.58064 2.83871C9.58064 1.29019 8.46006 0.151516 8.41216 0.103968L8.30819 0H6.3871L6.38781 1.25365L6.54394 1.35903C6.55068 1.36365 7.05242 1.70819 7.30684 2.23903C6.5631 2.40439 5.65081 2.75319 4.873 3.223C4.57813 2.17623 3.6229 1.41935 2.48565 1.41935H0.711452V1.77419C0.711452 3.14387 1.82565 4.25806 3.19532 4.25806H3.62929C3.42348 4.51532 3.28013 4.78606 3.22442 5.06603C2.47323 5.37048 0 6.5741 0 9.22581C0 11.0699 0.513452 12.1855 1.61558 12.7369L2.12903 12.9935V12.4194C2.12903 11.3499 2.55342 10.4049 2.84758 9.87871L3.49339 10.8471L3.79926 10.5408C3.84716 10.4936 4.96774 9.35497 4.96774 7.80645C4.96774 6.30335 4.26658 5.48403 3.92594 5.17426C4.1211 4.26587 6.03474 3.25032 7.43635 2.93629C7.36326 3.27481 6.93461 3.63532 6.51448 3.98555C5.92864 4.47381 5.32258 4.9791 5.32258 5.67742V7.2341L5.78955 7.07868C5.80197 7.07442 5.82219 7.06768 5.84384 7.05987C5.357 8.0261 4.96774 9.52103 4.96774 12.0645C4.96774 17.6181 9.1559 19.2088 11.7274 19.662C13.9892 21.7633 17.4126 22 18.8065 22H19.6737C20.174 22 20.5806 21.5934 20.5806 21.0742C20.5806 20.6424 20.2744 20.2755 19.8362 20.1822C18.276 19.8507 15.9677 17.6053 15.9677 13.8387C15.9677 10.9386 15.8006 10.0505 15.5817 9.10658C15.714 9.1591 15.8137 9.19387 15.8553 9.20771L16.3226 9.36313V7.80645C16.3226 6.86755 15.5895 6.32216 15.0005 5.88394C14.7638 5.70794 14.5473 5.54506 14.3972 5.38184C15.7942 5.64264 17.8665 6.7281 18.0734 7.65884C17.7327 7.96861 17.0323 8.78758 17.0323 10.2903C17.0323 11.8388 18.1528 12.9775 18.2007 13.0251L18.5066 13.3313L19.1531 12.3619C19.4473 12.886 19.871 13.8288 19.871 14.9032V15.4774L20.3844 15.2208ZM19.5161 4.6129H20.5448C20.3802 5.42158 19.663 6.03226 18.8065 6.03226H17.7771C17.9406 5.21684 18.6567 4.6129 19.5161 4.6129ZM1.45661 2.12903H2.48529C3.34471 2.12903 4.06077 2.73297 4.22435 3.54839H3.19497C2.33839 3.54839 1.62161 2.93771 1.45661 2.12903V2.12903ZM4.25806 7.80645C4.25806 8.61229 3.86206 9.30387 3.57855 9.69597L2.85574 8.61158L2.55484 9.0129C2.51368 9.06755 1.661 10.2215 1.46087 11.7775C1.05423 11.3903 0.709677 10.6831 0.709677 9.22581C0.709677 7.05135 2.84439 5.99535 3.48274 5.72852C3.73397 5.96768 4.25806 6.60994 4.25806 7.80645V7.80645ZM6.03226 5.67742C6.03226 5.31123 6.50845 4.91452 6.96903 4.53058C7.55523 4.04232 8.16129 3.53703 8.16129 2.83871C8.16129 1.85829 7.42855 1.15535 7.09677 0.887452V0.709677H8.00445C8.2461 0.991774 8.87097 1.81926 8.87097 2.83871C8.87097 3.53703 9.47703 4.04232 10.0632 4.53058C10.5238 4.91452 11 5.31123 11 5.67742V6.0791C10.9635 6.10748 10.9269 6.13729 10.8904 6.16674C10.0756 5.78494 9.58064 5.33855 9.58064 4.96774H8.87097C8.87097 5.18597 8.93484 5.38823 9.03916 5.57523C8.82945 6.16 8.61123 6.3871 8.51613 6.3871C8.42103 6.3871 8.20281 6.15965 7.99274 5.57381C8.09635 5.38752 8.16129 5.18597 8.16129 4.96774H7.45161C7.45161 5.44606 6.66706 5.9329 6.03226 6.21961V5.67742ZM5.67742 12.0645C5.67742 8.51826 6.4421 7.18903 7.12055 6.43748C7.24226 6.358 7.36184 6.27248 7.47397 6.17881C7.75571 6.78523 8.10416 7.09677 8.51613 7.09677C8.92845 7.09677 9.27761 6.78452 9.559 6.17632C9.80171 6.37858 10.0803 6.55032 10.3506 6.69155C10.1079 6.99352 9.93548 7.35368 9.93548 7.80645V9.36313L10.4025 9.20771C10.4149 9.20345 10.4351 9.19671 10.4567 9.1889C9.9699 10.1551 9.58064 11.6501 9.58064 14.1935C9.58064 16.1746 10.1111 17.6536 10.923 18.7603C8.33339 18.0812 5.67742 16.3432 5.67742 12.0645V12.0645ZM14.8475 9.08387C15.0771 10.0611 15.2581 10.8332 15.2581 13.8387C15.2581 18.0435 17.8487 20.4855 19.6886 20.8762C19.7794 20.8957 19.871 20.9646 19.871 21.093C19.871 21.2016 19.7823 21.2903 19.6737 21.2903H18.8065C16.2459 21.2903 10.2903 20.5987 10.2903 14.1935C10.2903 10.6473 11.055 9.31806 11.7335 8.56652C11.8552 8.48703 11.9747 8.40152 12.0869 8.30784C12.3686 8.91426 12.7171 9.22581 13.129 9.22581C13.541 9.22581 13.8895 8.91426 14.1712 8.30784C14.3561 8.46219 14.5608 8.59703 14.7624 8.71342C14.7911 8.84152 14.8198 8.96535 14.8475 9.08387V9.08387ZM14.5771 6.45345C15.1097 6.84981 15.6129 7.22416 15.6129 7.80645V8.34864C14.9781 8.06194 14.1935 7.5751 14.1935 7.09677H13.4839C13.4839 7.315 13.5488 7.51655 13.6524 7.70284C13.4424 8.28868 13.2245 8.51613 13.129 8.51613C13.0339 8.51613 12.8157 8.28868 12.6056 7.70284C12.7093 7.51655 12.7742 7.315 12.7742 7.09677H12.0645C12.0645 7.5751 11.28 8.06194 10.6452 8.34864V7.80645C10.6452 7.22416 11.1483 6.84981 11.6809 6.45345C12.2185 6.05355 12.7742 5.64016 12.7742 4.96774C12.7742 3.98732 12.0415 3.28439 11.7097 3.01648V2.83871H12.6174C12.859 3.12081 13.4839 3.94829 13.4839 4.96774C13.4839 5.64016 14.0395 6.05355 14.5771 6.45345ZM19.4452 11.4968L19.1443 11.0955L18.4207 12.1809C18.1372 11.7909 17.7419 11.1011 17.7419 10.2903C17.7419 9.09416 18.2646 8.45261 18.518 8.21203C19.1567 8.47745 21.2903 9.52742 21.2903 11.7097C21.2903 13.167 20.9458 13.8742 20.5388 14.2613C20.339 12.7054 19.4863 11.5514 19.4452 11.4968V11.4968Z" fill="#45C55B"/>
</svg>
