<svg width="24" height="24" viewBox="0 0 24 24" fill="none" xmlns="http://www.w3.org/2000/svg">
<path d="M21.235 1.97341C21.6757 2.02966 22.2429 2.22185 22.5897 2.42341C22.7538 2.52185 23.035 2.75623 23.2132 2.94841C24.0757 3.8531 24.2304 5.13279 23.6444 6.50154C23.0304 7.93591 21.9991 9.03748 20.11 10.2797C17.9866 11.6719 16.0366 12.3187 13.36 12.5203C12.9616 12.5484 12.6241 12.5812 12.6194 12.5859C12.61 12.5953 12.5913 12.6844 12.5772 12.7875L12.5538 12.975L12.7882 13.0265C13.6647 13.214 14.4663 13.664 15.1038 14.3344C15.6757 14.9344 16.0366 15.5719 16.2335 16.3312C16.3272 16.7015 16.3272 16.725 16.2522 16.8422C16.1538 16.9922 15.9757 17.0484 15.8163 16.9734C15.6897 16.9172 15.6663 16.8703 15.4929 16.3031C15.1788 15.2906 14.4241 14.4469 13.3975 13.9734C12.8725 13.7297 12.4179 13.6265 11.8132 13.6312C10.7116 13.6312 9.76941 14.0344 9.01473 14.8312C7.58504 16.3312 7.58504 18.6375 9.01473 20.1422C9.56785 20.7234 10.2663 21.1172 11.0397 21.2859C11.4007 21.3656 12.2257 21.3656 12.5866 21.2859C14.0491 20.9672 15.2022 19.8609 15.5679 18.4265C15.6663 18.0375 15.7694 17.9062 15.9804 17.9062C16.1397 17.9062 16.3132 18.0844 16.3132 18.2437C16.3132 18.4687 16.0741 19.1859 15.8679 19.589C15.2257 20.8312 14.0632 21.6937 12.6335 21.989C12.2725 22.064 11.3538 22.064 10.9929 21.989C9.80691 21.7453 8.82254 21.1219 8.11941 20.1797C7.4866 19.3265 7.13973 18.0844 7.25691 17.0765L7.29441 16.739L6.96629 16.6594C6.78348 16.6172 6.57254 16.5515 6.49754 16.5234C6.38504 16.4765 6.31004 16.4812 6.01941 16.575C5.55066 16.725 5.17098 16.7812 4.61785 16.7812C3.80223 16.7812 2.82254 16.514 2.67723 16.2562C2.58348 16.0922 2.6491 15.8953 2.82254 15.7969C2.94441 15.7312 2.97723 15.7359 3.24442 15.8344C3.86316 16.0547 4.70691 16.139 5.26941 16.0406L5.45223 16.0078L5.11473 15.7312C4.44441 15.1781 3.89598 14.3344 3.6241 13.4297C3.5116 13.05 3.50223 12.9328 3.49754 12.2578C3.49754 11.4328 3.54441 11.1469 3.80223 10.5047C4.07879 9.8156 4.54754 9.18748 5.17098 8.66248C5.51316 8.38123 5.48973 8.36716 4.64129 8.36716C3.90535 8.37185 3.51629 8.46091 2.90692 8.7656C1.85223 9.29529 1.05066 10.35 0.844416 11.4844C0.755352 11.9578 0.77879 12.7125 0.886602 13.1484C1.01785 13.6594 1.34129 14.2969 1.68348 14.714C2.00223 15.0984 2.03973 15.2484 1.8616 15.4125C1.67879 15.5859 1.51473 15.5484 1.25692 15.2765C0.0241032 14.0015 -0.27121 11.8312 0.558477 10.1765C0.792852 9.71716 1.23816 9.11716 1.55692 8.84529L1.79598 8.63904L1.48191 8.2781C0.370977 7.00779 -0.17746 5.4656 0.0662899 4.31248C0.183477 3.74529 0.422541 3.31873 0.863165 2.8781C1.52879 2.21716 2.2366 1.95935 3.35223 1.95466C4.5991 1.95466 5.72879 2.31091 7.13973 3.14529C8.05848 3.68904 8.70066 3.95623 9.61004 4.17185C10.8757 4.46716 12.8304 4.48591 14.1757 4.21404C15.146 4.01716 15.8866 3.72654 16.8569 3.14998C18.0288 2.45623 19.0647 2.08123 20.1194 1.96873C20.6163 1.91716 20.8038 1.91716 21.235 1.97341ZM19.6741 2.74216C18.9147 2.89685 17.9725 3.2906 17.1335 3.79685C15.6147 4.71091 14.0679 5.10935 12.0007 5.10935C9.93348 5.10935 8.3866 4.71091 6.86785 3.79685C4.95066 2.63904 3.18348 2.33435 1.94129 2.9531C1.30848 3.26248 0.867853 3.82498 0.745977 4.47654C0.633478 5.07185 0.802227 5.88279 1.1866 6.63279C1.39285 7.03123 1.94598 7.79529 2.21785 8.05779L2.38191 8.21248L2.78504 8.04373C3.12254 7.89841 3.67566 7.73435 4.00379 7.6781C4.06473 7.66873 3.9616 7.57966 3.67566 7.38279C3.23035 7.08279 2.32098 6.23904 2.26941 6.08435C2.1991 5.85935 2.46629 5.58279 2.69129 5.6531C2.74285 5.67185 2.99129 5.8781 3.23504 6.11248C3.9616 6.80623 5.21317 7.60779 5.91629 7.8281L6.34754 7.96404L6.61473 7.87498C7.68348 7.51404 8.93504 7.59373 9.97566 8.08591C10.4913 8.32966 10.7819 8.53123 11.2132 8.94841L11.5319 9.24841L12.4319 9.2156C14.5366 9.13591 15.9522 8.85935 17.3772 8.24998C18.5679 7.73435 20.0257 6.82029 20.7522 6.12185C21.0054 5.88279 21.2585 5.67185 21.31 5.6531C21.535 5.58279 21.8022 5.85935 21.7319 6.08435C21.6897 6.2156 20.996 6.88591 20.5975 7.18591C19.7585 7.81873 18.4132 8.58279 17.4522 8.97654C16.2241 9.47341 14.7288 9.80154 13.3366 9.86716C13.0272 9.88123 12.6007 9.90466 12.3897 9.91873L12.01 9.94685L12.1835 10.3125C12.3475 10.6453 12.5069 11.2031 12.5866 11.6906L12.6147 11.8687L13.0929 11.8359C14.7194 11.7328 16.0975 11.4469 17.2975 10.9687C18.8725 10.3453 20.7335 9.13591 21.7366 8.09529C23.1147 6.66091 23.635 5.01091 23.0632 3.89529C23.0116 3.79216 22.8522 3.58123 22.7069 3.42654C22.3835 3.07498 21.8491 2.79373 21.3288 2.69529C20.9069 2.6156 20.1944 2.63435 19.6741 2.74216ZM7.10691 8.46091C6.40848 8.64841 5.91629 8.92029 5.41004 9.38904C4.55692 10.1812 4.13035 11.2406 4.1866 12.3937C4.23816 13.4672 4.63191 14.3015 5.42879 15.0562C5.93973 15.5344 6.69441 15.9234 7.27567 16.0078L7.47723 16.0359L7.61316 15.6984C7.8991 14.9812 8.58348 14.1562 9.27723 13.6922C9.90066 13.2703 10.6225 13.0125 11.3866 12.9422C11.621 12.9187 11.8319 12.8859 11.8507 12.8672C11.8694 12.8531 11.8835 12.5484 11.8788 12.1969C11.8788 11.475 11.8132 11.1703 11.5507 10.6031C11.035 9.4781 10.0132 8.67654 8.76629 8.40935C8.38192 8.32966 7.4866 8.3531 7.10691 8.46091Z" fill="#45C55B"/>
<path d="M20.1703 4.25626C20.2172 4.30313 20.25 4.42032 20.25 4.51407C20.25 4.71563 20.1797 4.77657 19.4297 5.20782C18.5531 5.70938 17.2875 6.25782 16.875 6.31407C16.6828 6.34219 16.5187 6.22969 16.4766 6.04688C16.425 5.83594 16.5844 5.70469 17.1281 5.51251C17.7234 5.29688 18.7547 4.80001 19.35 4.43907C19.8234 4.14844 20.0344 4.10626 20.1703 4.25626Z" fill="#45C55B"/>
<path d="M4.94538 4.41096C5.76569 4.92658 7.00319 5.47033 7.99694 5.76096C9.78288 6.28596 12.5298 6.42189 14.7516 6.09846C15.2673 6.01877 15.3657 6.01877 15.4735 6.07502C15.6844 6.18283 15.7173 6.39377 15.5485 6.58596C15.4594 6.69377 15.3751 6.71721 14.8313 6.79689C13.0876 7.05002 10.8657 7.03127 9.18757 6.74533C8.15163 6.57189 7.13444 6.26721 6.14069 5.84064C5.43757 5.53596 4.20007 4.82814 4.12507 4.68752C4.05007 4.54689 4.06882 4.36877 4.17194 4.26564C4.32194 4.11564 4.52819 4.15314 4.94538 4.41096Z" fill="#45C55B"/>
<path d="M7.70718 9.70313C7.92281 9.96563 7.97906 10.3734 7.84781 10.7578C7.74468 11.0625 7.53843 11.3906 7.44937 11.3906C7.33218 11.3906 7.03218 10.7813 6.99937 10.4859C6.92906 9.81094 7.37906 9.31406 7.70718 9.70313Z" fill="#45C55B"/>
<path d="M9.75014 11.1609C10.5142 11.3953 10.2611 12.0187 9.39858 12.0234C9.0517 12.0234 8.69077 11.8969 8.43764 11.6766L8.32045 11.5781L8.43764 11.4797C8.78452 11.1844 9.36577 11.0437 9.75014 11.1609Z" fill="#45C55B"/>
<path d="M8.11101 12.4969C8.18601 12.6188 8.28445 12.8203 8.32663 12.9516C8.51882 13.5328 8.18601 14.2922 7.81101 14.1188C7.53445 13.9922 7.37976 13.3734 7.52038 12.9516C7.60945 12.6844 7.8532 12.2813 7.92351 12.2813C7.95163 12.2813 8.03601 12.3797 8.11101 12.4969Z" fill="#45C55B"/>
<path d="M2.71058 10.7484C2.99183 11.0484 3.03871 11.6156 2.81839 12.0703C2.74339 12.225 2.64964 12.3937 2.61214 12.4453C2.54183 12.5344 2.53714 12.5344 2.44808 12.4547C2.39652 12.4078 2.28402 12.2297 2.19964 12.0562C2.07777 11.8031 2.04496 11.6906 2.04964 11.4562C2.05433 10.8375 2.42464 10.439 2.71058 10.7484Z" fill="#45C55B"/>
<path d="M12.3473 14.9531C12.502 15.1406 12.577 15.4359 12.5489 15.7359C12.5161 16.0406 12.2161 16.6406 12.0942 16.6406C11.9723 16.6406 11.6723 16.0406 11.6395 15.7359C11.5926 15.2719 11.8176 14.8125 12.0942 14.8125C12.1832 14.8125 12.2629 14.8594 12.3473 14.9531Z" fill="#45C55B"/>
<path d="M13.9464 16.5235C14.0542 16.6266 14.0683 16.6688 14.0402 16.8188C13.9511 17.3063 13.562 17.6485 12.9198 17.8078C12.7839 17.8406 12.6714 17.8453 12.648 17.8219C12.6245 17.7985 12.6292 17.686 12.662 17.55C12.8261 16.8985 13.1589 16.5235 13.6511 16.4297C13.8011 16.4016 13.8433 16.4156 13.9464 16.5235Z" fill="#45C55B"/>
<path d="M11.0303 16.9406C11.4194 17.0859 11.5506 17.3625 11.3256 17.5734C11.1897 17.7 10.8381 17.8125 10.5756 17.8125C10.3647 17.8078 9.93815 17.6531 9.70846 17.4891C9.56315 17.3812 9.55846 17.3766 9.64283 17.2875C9.9194 16.9828 10.6506 16.8 11.0303 16.9406Z" fill="#45C55B"/>
<path d="M11.795 18.3046C11.8372 18.4171 11.6403 18.9984 11.4903 19.2046C11.3262 19.4343 10.9981 19.6406 10.745 19.6734C10.5856 19.6968 10.5481 19.6781 10.459 19.5656C10.384 19.4671 10.3653 19.4015 10.3887 19.2937C10.4731 18.8906 10.7919 18.539 11.209 18.389C11.5887 18.2484 11.7669 18.2249 11.795 18.3046Z" fill="#45C55B"/>
</svg>
