<svg width="10" height="8" viewBox="0 0 10 8" fill="none" xmlns="http://www.w3.org/2000/svg">
<path d="M2.3731 0.121074C2.17584 0.207012 2.12896 0.468731 2.28326 0.623027C2.50201 0.84373 2.86138 0.646465 2.80474 0.337871C2.76959 0.154277 2.54888 0.0429493 2.3731 0.121074Z" fill="black"/>
<path d="M3.0293 1.08398C2.83594 1.33008 2.69336 1.63086 2.66602 1.85938L2.65234 1.96875H2.80664H2.96094L2.98437 1.84961C3.01367 1.69531 3.11719 1.48438 3.25195 1.31445C3.31055 1.23828 3.36523 1.16602 3.37109 1.15234C3.38477 1.12305 3.21094 0.933594 3.17187 0.933594C3.16016 0.933594 3.0957 1.00195 3.0293 1.08398Z" fill="black"/>
<path d="M1.27935 1.21482C1.08209 1.30076 1.03521 1.56248 1.18951 1.71678C1.40826 1.93748 1.76763 1.74021 1.71099 1.43162C1.67584 1.24803 1.45513 1.1367 1.27935 1.21482Z" fill="black"/>
<path d="M9.2977 1.70311C9.20786 1.74022 7.11411 2.69335 6.8602 2.81249C6.66489 2.90428 6.5477 3.13085 6.57114 3.36717C6.57895 3.43358 6.577 3.49413 6.56919 3.49803C6.55942 3.50389 6.49106 3.48827 6.41684 3.46288C5.80942 3.25975 4.55161 3.42967 3.16489 3.90038C2.97739 3.96288 2.82114 4.01366 2.81723 4.00975C2.81528 4.0078 2.80356 3.95311 2.79184 3.8867C2.75278 3.66405 2.82505 3.38085 2.9813 3.14647C3.02817 3.07616 3.06723 3.0117 3.06723 3.00585C3.06723 2.98436 2.88169 2.80858 2.8602 2.80858C2.827 2.80858 2.68052 3.01952 2.60825 3.16991C2.4852 3.42772 2.44419 3.67772 2.48325 3.93553C2.49692 4.02928 2.51059 4.11522 2.51059 4.12303C2.51059 4.1328 2.44028 4.16991 2.35434 4.20311C2.26841 4.23827 2.1102 4.30858 2.00278 4.35741C1.89536 4.40428 1.80552 4.44335 1.80356 4.44139C1.79966 4.43944 1.78208 4.3535 1.76059 4.25194C1.702 3.97264 1.68052 3.72264 1.68052 3.35936C1.68052 2.99413 1.66489 2.91795 1.56528 2.791C1.53403 2.75194 1.46177 2.69335 1.40317 2.66014C1.31333 2.61131 1.28013 2.6035 1.15317 2.6035C1.03989 2.6035 0.987157 2.61522 0.92661 2.64647C0.823094 2.70116 0.733251 2.791 0.678563 2.89452C0.637547 2.97264 0.635594 2.99803 0.629735 3.61913C0.625829 4.03905 0.616063 4.27147 0.602391 4.2871C0.590672 4.30077 0.555516 4.31249 0.524266 4.31249C0.373876 4.31249 0.211766 4.43944 0.166844 4.59569C0.123876 4.73827 0.162938 5.06639 0.264501 5.41795C0.274266 5.4453 0.254735 5.48436 0.200047 5.55077C0.0262193 5.75975 -0.0304213 5.96483 0.0281725 6.15233C0.217626 6.74022 0.737157 7.31444 1.37192 7.63475C2.21567 8.05858 3.27427 8.12303 4.26841 7.81053C5.64536 7.37499 6.65903 6.33006 6.90903 5.08397C6.97739 4.73436 6.95005 4.23045 6.83872 3.87108L6.80356 3.75194L6.88364 3.79295C6.94419 3.82225 7.00083 3.83202 7.1102 3.83202C7.25473 3.83202 7.26255 3.82811 7.61802 3.65428C7.81723 3.55663 8.38755 3.27733 8.88755 3.03514C9.38755 2.791 9.82114 2.56835 9.85044 2.53905C9.95005 2.4453 9.98911 2.34569 9.98911 2.19335C9.98911 2.08202 9.97934 2.0371 9.93638 1.95506C9.79966 1.69139 9.55552 1.59374 9.2977 1.70311ZM1.31138 2.98045L1.36216 3.0371L1.37388 3.48436C1.3895 4.14842 1.47544 4.58006 1.67856 5.0078C1.88364 5.43749 2.17075 5.75389 2.52622 5.9453L2.64341 6.0078L2.56723 6.02928C2.42856 6.0703 1.92856 6.16405 1.72739 6.18944C1.55356 6.21092 1.5145 6.21092 1.39536 6.18163C0.991063 6.08202 0.719579 5.79881 0.561376 5.30858C0.493016 5.09764 0.436376 4.71483 0.467626 4.666C0.477391 4.65233 0.526219 4.6328 0.577001 4.62303C0.727391 4.59569 0.828954 4.52342 0.887547 4.40624L0.938329 4.30467V3.69335C0.938329 3.02342 0.942235 2.99608 1.05161 2.93553C1.13169 2.89061 1.24888 2.91014 1.31138 2.98045ZM7.27036 3.1367C7.33677 3.20311 7.3602 3.3203 7.32114 3.39452C7.28989 3.45116 7.17856 3.53124 7.12778 3.53124C7.09653 3.53124 7.09848 3.52538 7.1395 3.48241C7.27231 3.35155 7.09067 3.1367 6.94223 3.24803C6.8895 3.28905 6.87192 3.28319 6.88559 3.23241C6.90317 3.17967 6.96958 3.1035 7.02231 3.08006C7.09263 3.04881 7.20981 3.0742 7.27036 3.1367ZM6.10434 3.70702C6.28794 3.73436 6.41098 3.77733 6.47544 3.83592C6.52036 3.87694 6.52817 3.89647 6.51841 3.95702C6.50473 4.0371 6.40317 4.19139 6.29966 4.29295L6.2313 4.35936V4.30467C6.2313 4.18944 6.18442 4.08788 6.08481 3.99022C5.89536 3.79881 5.65122 3.79295 5.45005 3.9746C5.34848 4.06639 5.327 4.11327 5.2645 4.39647C5.20591 4.66795 5.10239 4.87889 4.91489 5.11131C4.82895 5.22069 4.7938 5.24608 4.6395 5.31835C4.38755 5.43749 3.86802 5.63866 3.51059 5.7578L3.202 5.85936L3.06138 5.8242C2.75473 5.74999 2.39536 5.51952 2.20591 5.27733C2.06919 5.0996 1.91489 4.82616 1.91489 4.7578C1.91489 4.74022 2.16684 4.61913 2.45981 4.49803C2.58872 4.44335 2.64731 4.42772 2.65317 4.4453C2.65903 4.46288 2.80747 4.67772 2.84458 4.72069C2.84848 4.7246 2.90317 4.68163 2.96958 4.62499L3.08677 4.52342L3.01841 4.42967C2.9813 4.37889 2.95005 4.32811 2.95005 4.31835C2.95005 4.29881 3.53013 4.10155 3.89145 3.99999C4.33872 3.87303 4.95591 3.74999 5.36216 3.70897C5.58677 3.68553 5.94614 3.68553 6.10434 3.70702ZM5.86997 4.20506C5.89927 4.23241 5.9188 4.27342 5.9188 4.30663C5.91684 4.39842 5.86997 4.59764 5.83677 4.64647C5.80747 4.68944 5.52427 4.87889 5.44223 4.91014C5.40903 4.92381 5.40903 4.92186 5.44028 4.85936C5.49497 4.75389 5.5477 4.58788 5.58677 4.40038C5.61216 4.27342 5.63364 4.21678 5.66489 4.19139C5.72739 4.14061 5.81333 4.14647 5.86997 4.20506ZM0.670751 6.12499L0.772313 6.23241L0.684422 6.21874C0.545751 6.19725 0.418797 6.15038 0.362157 6.09764C0.317235 6.05663 0.311376 6.0371 0.319188 5.98045C0.325047 5.94335 0.350438 5.8828 0.371922 5.84374L0.414891 5.77733L0.491063 5.89647C0.534032 5.96288 0.61411 6.06444 0.670751 6.12499Z" fill="black"/>
<path d="M1.10156 5.47852C1.13477 5.66797 1.31836 5.92969 1.52148 6.07812C1.57422 6.11719 1.62109 6.14844 1.62695 6.14844C1.63477 6.14844 1.67578 6.0957 1.71875 6.03125L1.79883 5.91211L1.65039 5.77344C1.54492 5.67578 1.48828 5.60352 1.44922 5.52148L1.39648 5.40625H1.24219H1.08984L1.10156 5.47852Z" fill="black"/>
<path d="M2.8125 5.09375V5.25H2.96875H3.125V5.09375V4.9375H2.96875H2.8125V5.09375Z" fill="black"/>
<path d="M0.3125 2.125V2.28125H0.46875H0.625V2.125V1.96875H0.46875H0.3125V2.125Z" fill="black"/>
<path d="M2.03125 2.28125V2.4375H2.1875H2.34375V2.28125V2.125H2.1875H2.03125V2.28125Z" fill="black"/>
<path d="M1.875 3.6875V3.84375H2.03125H2.1875V3.6875V3.53125H2.03125H1.875V3.6875Z" fill="black"/>
</svg>
