<svg width="24" height="24" viewBox="0 0 24 24" fill="none" xmlns="http://www.w3.org/2000/svg">
<path d="M19.8017 5.8258C20.0706 5.01956 20.0669 4.14798 19.7911 3.34405C19.5153 2.54011 18.9825 1.84796 18.274 1.37317C17.0601 0.558971 15.7581 0.363371 14.6081 0.82258C13.4433 1.28773 12.5925 2.39178 12.274 3.8516C12.1705 4.32652 12.0746 4.83305 11.9888 5.3572C11.9364 5.67752 11.8742 6.00952 11.804 6.34401C11.7953 6.39098 11.7718 6.434 11.737 6.46693C11.7022 6.49985 11.6578 6.521 11.6102 6.52735C11.5614 6.53589 11.5111 6.52919 11.4662 6.50816C11.4213 6.48713 11.3841 6.45281 11.3597 6.40991C11.0537 5.88729 10.7889 5.38823 10.5729 4.92634C10.4538 4.67354 10.2837 4.44773 10.0732 4.2629C9.86277 4.07807 9.61639 3.93815 9.34934 3.85179C9.09342 3.7667 8.82249 3.7355 8.55378 3.76017C8.28507 3.78484 8.02446 3.86484 7.78854 3.99509C7.33012 4.24551 6.98927 4.66529 6.83973 5.16362C6.69019 5.66196 6.74397 6.19879 6.98945 6.658C7.73864 8.08333 9.25338 9.53664 10.392 10.5049C10.4295 10.5364 10.4562 10.5788 10.4683 10.6262C10.4803 10.6736 10.4772 10.7235 10.4592 10.769C9.72162 12.6096 8.78538 14.3652 7.66695 16.005C7.50008 15.801 7.34766 15.6016 7.21451 15.41C7.10207 15.2463 6.9535 15.1104 6.78014 15.0125C6.60678 14.9147 6.41323 14.8575 6.21425 14.8454C6.01632 14.8322 5.81797 14.8644 5.63452 14.9394C5.45107 15.0145 5.28741 15.1305 5.15618 15.2784C4.94397 15.5167 4.82682 15.8239 4.82687 16.1422C4.82607 16.3624 4.88235 16.5792 4.99028 16.7715C5.27576 17.2852 5.5941 17.7802 5.94333 18.2534C5.52403 18.74 5.08958 19.2061 4.63996 19.6519C4.39681 19.894 4.21392 20.1893 4.10586 20.5142C3.99781 20.8391 3.96758 21.1846 4.01759 21.5231C4.0676 21.8617 4.19646 22.1839 4.39391 22.4642C4.59135 22.7445 4.85192 22.975 5.15483 23.1374L5.20012 23.1618C5.513 23.331 5.86345 23.4199 6.21965 23.4204C6.64419 23.4206 7.05876 23.2924 7.40836 23.0529C9.14798 21.8631 11.3688 19.6887 13.3489 17.2359C13.3747 17.203 13.4088 17.1775 13.4476 17.1618C13.4865 17.1461 13.5289 17.1409 13.5704 17.1466C14.7595 17.3135 15.9332 17.5747 17.0803 17.9277C17.3606 18.0213 17.6593 18.0467 17.9515 18.0018C18.2437 17.9568 18.5207 17.8429 18.7594 17.6694C18.9966 17.5005 19.1895 17.2774 19.3221 17.019C19.4547 16.7606 19.5231 16.4744 19.5215 16.1843V16.12C19.5278 15.6446 19.3724 15.181 19.0806 14.8043C18.7888 14.4276 18.3776 14.1599 17.9137 14.0444C17.3693 13.921 16.8145 13.8476 16.2566 13.8251C16.2156 13.8233 16.1758 13.8106 16.1413 13.7885C16.1068 13.7663 16.0789 13.7355 16.0604 13.699C16.0405 13.6616 16.031 13.6197 16.033 13.5774C16.0349 13.5352 16.0482 13.4942 16.0714 13.4588C17.6193 11.073 18.8718 8.51012 19.8017 5.8258ZM5.57895 16.4447C5.52722 16.3523 5.50065 16.248 5.50187 16.1422C5.50211 15.9883 5.55876 15.8399 5.66123 15.7246C5.72452 15.653 5.80344 15.5968 5.89195 15.5603C5.98047 15.5238 6.07621 15.5079 6.17186 15.5138C6.26889 15.5199 6.36325 15.5478 6.44774 15.5957C6.53222 15.6435 6.60461 15.7098 6.65937 15.7897C6.83453 16.0422 7.03878 16.3056 7.26596 16.5752C6.98335 16.9667 6.69104 17.3486 6.38902 17.7206C6.09463 17.3111 5.82416 16.8851 5.57895 16.4447ZM15.4613 14.0061C15.5335 14.1471 15.642 14.2665 15.7758 14.3521C15.9095 14.4378 16.0637 14.4866 16.2227 14.4937C16.7387 14.5142 17.2518 14.5818 17.7555 14.6954C18.0721 14.7758 18.3522 14.9601 18.5503 15.2185C18.7484 15.4769 18.853 15.7942 18.8471 16.119V16.1843C18.8482 16.3685 18.8049 16.5502 18.7208 16.7143C18.6367 16.8784 18.5142 17.02 18.3636 17.1273C18.211 17.2379 18.034 17.3105 17.8473 17.3391C17.6606 17.3677 17.4698 17.3513 17.2907 17.2915C16.9585 17.183 16.6184 17.0863 16.2799 16.9993C16.4446 16.6405 16.6524 16.1248 16.6614 15.787C16.6638 15.6981 16.6305 15.6119 16.5689 15.5474C16.5384 15.5154 16.5019 15.4898 16.4614 15.4718C16.421 15.4539 16.3773 15.4441 16.3331 15.4429C16.2436 15.4406 16.1569 15.4737 16.092 15.5349C16.0271 15.5961 15.9893 15.6805 15.987 15.7694C15.9144 16.1426 15.7871 16.5032 15.6093 16.8397C14.8871 16.679 14.2042 16.5625 13.6672 16.4842C13.5094 16.4616 13.3484 16.4804 13.2002 16.5387C13.0519 16.597 12.9216 16.6928 12.822 16.8165C12.5908 17.1028 12.3569 17.3845 12.1202 17.6618C11.6512 17.4831 11.2054 17.249 10.7924 16.9646C10.758 16.9369 10.7185 16.9161 10.6761 16.9035C10.6336 16.891 10.5891 16.8868 10.545 16.8914C10.501 16.8959 10.4583 16.909 10.4193 16.93C10.3803 16.9509 10.3459 16.9793 10.318 17.0135C10.2901 17.0477 10.2692 17.087 10.2566 17.1292C10.2439 17.1714 10.2398 17.2156 10.2443 17.2594C10.2489 17.3032 10.2621 17.3457 10.2832 17.3844C10.3042 17.4232 10.3328 17.4574 10.3671 17.4852C10.767 17.7725 11.2 18.0111 11.657 18.1959C10.5629 19.4527 9.37136 20.6223 8.09338 21.6939C7.75757 21.4406 7.45352 21.1481 7.18773 20.8228C7.16555 20.7847 7.13604 20.7513 7.10089 20.7246C7.06574 20.6978 7.02563 20.6782 6.98286 20.6669C6.94008 20.6555 6.89548 20.6527 6.8516 20.6585C6.80772 20.6643 6.76541 20.6786 6.7271 20.7007C6.68879 20.7227 6.65522 20.7521 6.62831 20.787C6.60141 20.822 6.58169 20.8618 6.57028 20.9044C6.55887 20.9469 6.556 20.9912 6.56183 21.0349C6.56766 21.0785 6.58208 21.1205 6.60426 21.1586C6.76997 21.4433 7.22415 21.8483 7.5523 22.1198C7.37252 22.2556 7.19582 22.3847 7.02529 22.5014C6.80574 22.6506 6.54884 22.7364 6.28318 22.7491C6.01752 22.7618 5.75352 22.701 5.52056 22.5734L5.47528 22.5489C5.26296 22.4359 5.0805 22.2746 4.94274 22.0782C4.80498 21.8817 4.71583 21.6558 4.68255 21.4186C4.64729 21.1849 4.66804 20.9462 4.74311 20.7219C4.81818 20.4977 4.94545 20.2942 5.11456 20.1281C5.63772 19.6109 6.14007 19.0634 6.62237 18.4915C6.62796 18.4852 6.63316 18.4787 6.63837 18.4723C7.69941 17.2072 8.64114 15.8476 9.45166 14.4109C9.72014 14.5621 9.99939 14.6934 10.2872 14.804C10.3706 14.8337 10.4625 14.8294 10.5428 14.7923C10.6231 14.7551 10.6855 14.688 10.7165 14.6055C10.7475 14.5229 10.7445 14.4316 10.7083 14.3512C10.672 14.2708 10.6054 14.2078 10.5228 14.1759C10.2654 14.0762 10.0155 13.9582 9.77519 13.8228C10.2629 12.9125 10.7004 11.9764 11.0855 11.0187C11.1557 10.8431 11.1688 10.6502 11.123 10.4668C11.0773 10.2835 10.9749 10.119 10.8304 9.99642C9.9026 9.22535 9.05407 8.36465 8.29725 7.42699C8.53233 7.11913 8.92889 6.64632 9.23585 6.47141C9.27427 6.44952 9.30799 6.42032 9.33506 6.38548C9.36214 6.35064 9.38204 6.31084 9.39365 6.26835C9.40525 6.22586 9.40832 6.18151 9.40269 6.13784C9.39706 6.09417 9.38282 6.05203 9.36081 6.01383C9.33879 5.97563 9.30943 5.94211 9.27438 5.91519C9.23934 5.88827 9.19931 5.86848 9.15657 5.85694C9.11383 5.8454 9.06923 5.84235 9.0253 5.84795C8.98138 5.85355 8.93899 5.8677 8.90057 5.88959C8.51074 6.15284 8.16856 6.47982 7.88855 6.85667C7.77756 6.68655 7.67659 6.51643 7.58718 6.34708C7.42436 6.0427 7.38855 5.68685 7.48749 5.35644C7.58643 5.02603 7.81217 4.74759 8.11593 4.58131C8.30302 4.4776 8.51371 4.42325 8.72791 4.42345C8.86813 4.42383 9.00742 4.44613 9.14066 4.48955C9.31963 4.54731 9.48478 4.64097 9.62587 4.76474C9.76697 4.88851 9.88101 5.03975 9.96095 5.20911C10.1858 5.68958 10.46 6.20703 10.7766 6.74728C10.8694 6.90611 11.0084 7.03331 11.1753 7.11214C11.3422 7.19097 11.5292 7.21775 11.7117 7.18896C11.8941 7.16017 12.0636 7.07716 12.1977 6.95083C12.3319 6.82451 12.4244 6.66078 12.4632 6.48118C12.5357 6.13634 12.5997 5.79495 12.6538 5.46582C12.707 5.13976 12.7642 4.82244 12.8255 4.51388C13.2816 4.74051 13.7051 4.92424 13.7281 4.9342C13.8101 4.96976 13.9029 4.97149 13.9862 4.93899C14.0695 4.9065 14.1364 4.84244 14.1721 4.76092C14.2079 4.67939 14.2096 4.58708 14.1769 4.50428C14.1443 4.42149 14.0798 4.35499 13.9978 4.31943C13.9917 4.31675 13.4679 4.08954 12.9718 3.83551C13.266 2.67666 13.947 1.81016 14.8601 1.44578C15.7951 1.07086 16.8738 1.24328 17.8971 1.92913C18.4048 2.26982 18.8052 2.74637 19.0521 3.30372C19.2989 3.86107 19.3821 4.47647 19.292 5.07884C18.714 4.93145 18.15 4.73408 17.6066 4.48897C17.5671 4.46722 17.5236 4.45357 17.4787 4.44884C17.4337 4.44411 17.3883 4.4484 17.3451 4.46145C17.3019 4.4745 17.2618 4.49605 17.2271 4.52482C17.1924 4.55358 17.1639 4.58898 17.1433 4.6289C17.1226 4.66883 17.1102 4.71247 17.1069 4.75725C17.1035 4.80202 17.1092 4.84701 17.1237 4.88955C17.1381 4.93208 17.161 4.9713 17.191 5.00487C17.221 5.03844 17.2575 5.06568 17.2983 5.08497C17.8856 5.35296 18.4959 5.56813 19.1219 5.7279C18.776 6.73078 18.3789 7.71548 17.9322 8.67818C17.4341 8.52952 16.2928 8.1592 15.6519 7.71148C15.6157 7.68616 15.5748 7.66819 15.5315 7.65858C15.4883 7.64897 15.4436 7.64792 15.4 7.65549C15.3563 7.66306 15.3146 7.6791 15.2772 7.70269C15.2398 7.72629 15.2075 7.75697 15.182 7.793C15.1566 7.82903 15.1385 7.86969 15.1288 7.91266C15.1191 7.95564 15.1181 8.00008 15.1257 8.04346C15.1333 8.08684 15.1494 8.12831 15.1732 8.16549C15.1969 8.20267 15.2278 8.23484 15.264 8.26016C15.949 8.7391 17.0707 9.11785 17.6436 9.29238C17.0044 10.601 16.2894 11.8717 15.5022 13.098C15.4152 13.2323 15.3657 13.3871 15.3585 13.5466C15.3513 13.7061 15.3868 13.8647 15.4613 14.0061Z" fill="#45C55B"/>
<path d="M8.99346 19.3329C8.83121 19.4915 8.67018 19.6456 8.51038 19.7952C8.44525 19.8562 8.40714 19.9404 8.40445 20.0293C8.40176 20.1182 8.4347 20.2045 8.49602 20.2692C8.55735 20.334 8.64204 20.3719 8.73146 20.3746C8.82088 20.3772 8.90771 20.3445 8.97284 20.2835C9.13624 20.1303 9.30087 19.9727 9.46671 19.8107C9.49906 19.78 9.52495 19.7432 9.54287 19.7025C9.56079 19.6617 9.57037 19.6179 9.57107 19.5734C9.57177 19.5289 9.56357 19.4848 9.54694 19.4435C9.53031 19.4022 9.50559 19.3647 9.47422 19.333C9.44284 19.3013 9.40544 19.2761 9.36419 19.2589C9.32294 19.2418 9.27867 19.2329 9.23395 19.2329C9.18922 19.2329 9.14495 19.2417 9.10369 19.2589C9.06244 19.2761 9.02503 19.3012 8.99365 19.3329H8.99346Z" fill="#45C55B"/>
<path d="M15.1003 10.5476C15.0937 10.5449 14.4308 10.2805 13.9231 10.0217C13.8837 10.0016 13.8407 9.98935 13.7966 9.98574C13.7524 9.98214 13.708 9.98722 13.6658 10.0007C13.6236 10.0141 13.5845 10.0357 13.5508 10.0642C13.517 10.0927 13.4892 10.1275 13.4689 10.1667C13.4487 10.2059 13.4364 10.2486 13.4328 10.2925C13.4291 10.3364 13.4343 10.3806 13.4478 10.4225C13.4613 10.4645 13.4831 10.5033 13.5117 10.5369C13.5404 10.5705 13.5754 10.5981 13.6148 10.6183C14.1511 10.8916 14.821 11.1589 14.8492 11.1702C14.9322 11.2032 15.0251 11.2021 15.1073 11.1671C15.1895 11.132 15.2543 11.066 15.2875 10.9834C15.3208 10.9008 15.3196 10.8085 15.2844 10.7268C15.2492 10.6451 15.1827 10.5806 15.0997 10.5476H15.1003Z" fill="#45C55B"/>
</svg>
