<svg width="24" height="24" viewBox="0 0 24 24" fill="none" xmlns="http://www.w3.org/2000/svg">
<g clip-path="url(#clip0_2328_5983)">
<path d="M16.8796 8.50798C16.9392 8.58754 17.0281 8.64014 17.1265 8.65421C17.225 8.66827 17.325 8.64265 17.4046 8.58298C17.4841 8.5233 17.5367 8.43447 17.5508 8.33601C17.5649 8.23756 17.5392 8.13754 17.4796 8.05798C17.3833 7.92963 17.2811 7.80298 17.1757 7.68157C17.1436 7.64395 17.1043 7.61307 17.0602 7.59069C17.016 7.56832 16.9679 7.5549 16.9186 7.55121C16.8692 7.54753 16.8196 7.55364 16.7727 7.5692C16.7257 7.58477 16.6823 7.60947 16.6449 7.6419C16.6075 7.67432 16.5769 7.71382 16.5549 7.75812C16.5328 7.80242 16.5198 7.85065 16.5165 7.90002C16.5132 7.94939 16.5196 7.99893 16.5356 8.04578C16.5515 8.09264 16.5765 8.13588 16.6092 8.17301C16.7029 8.28115 16.7939 8.39384 16.8796 8.50798Z" fill="#45C55B"/>
<path d="M17.881 14.589C17.9269 14.6067 17.9759 14.6152 18.0252 14.614C18.0744 14.6128 18.123 14.6018 18.168 14.5818C18.213 14.5618 18.2536 14.5332 18.2876 14.4974C18.3215 14.4617 18.348 14.4196 18.3657 14.3737C18.907 12.9657 18.9478 11.4143 18.4811 9.97986C18.4502 9.8853 18.3831 9.80685 18.2945 9.76178C18.2058 9.71671 18.1029 9.70871 18.0083 9.73953C17.9137 9.77036 17.8353 9.83749 17.7902 9.92615C17.7451 10.0148 17.7371 10.1178 17.768 10.2123C18.1813 11.483 18.1452 12.8572 17.6656 14.1044C17.6299 14.1972 17.6325 14.3004 17.6729 14.3913C17.7133 14.4822 17.7882 14.5533 17.881 14.589Z" fill="#45C55B"/>
<path d="M6.39455 13.707C6.4642 13.7325 6.53984 13.7368 6.61192 13.7193C6.68399 13.7018 6.74926 13.6633 6.79946 13.6087C6.84967 13.5541 6.88256 13.4858 6.89397 13.4126C6.90539 13.3393 6.89481 13.2643 6.86359 13.197C6.83236 13.1297 6.78189 13.0732 6.71855 13.0346C6.65521 12.996 6.58185 12.9771 6.50775 12.9802C6.43364 12.9833 6.36212 13.0083 6.30223 13.0521C6.24234 13.0958 6.19677 13.1563 6.17128 13.226C6.1371 13.3194 6.14142 13.4225 6.18329 13.5127C6.22516 13.6029 6.30115 13.6728 6.39455 13.707Z" fill="#45C55B"/>
<path d="M4.97263 12.0791C5.04228 12.1046 5.11792 12.1088 5.19 12.0914C5.26208 12.0739 5.32735 12.0354 5.37756 11.9808C5.42777 11.9262 5.46067 11.858 5.47209 11.7847C5.48351 11.7114 5.47294 11.6364 5.44172 11.5691C5.4105 11.5018 5.36003 11.4453 5.2967 11.4067C5.23336 11.3681 5.16 11.3492 5.08589 11.3523C5.01179 11.3554 4.94027 11.3804 4.88037 11.4241C4.82048 11.4679 4.7749 11.5284 4.74941 11.598C4.71523 11.6914 4.71954 11.7946 4.7614 11.8848C4.80326 11.975 4.87924 12.0449 4.97263 12.0791Z" fill="#45C55B"/>
<path d="M5.39316 13.2641C5.41866 13.1944 5.42293 13.1188 5.40544 13.0467C5.38795 12.9746 5.34947 12.9093 5.29489 12.8591C5.2403 12.8089 5.17205 12.776 5.09877 12.7646C5.02548 12.7532 4.95046 12.7637 4.88318 12.795C4.8159 12.8262 4.75939 12.8766 4.7208 12.94C4.6822 13.0033 4.66325 13.0767 4.66634 13.1508C4.66944 13.2249 4.69443 13.2964 4.73817 13.3563C4.78192 13.4162 4.84244 13.4618 4.91208 13.4873C4.95833 13.5042 5.00745 13.5119 5.05666 13.5098C5.10586 13.5078 5.15418 13.496 5.19885 13.4753C5.24353 13.4546 5.28368 13.4253 5.31702 13.389C5.35036 13.3528 5.37623 13.3103 5.39316 13.2641Z" fill="#45C55B"/>
<path d="M5.73826 14.3555C5.66861 14.33 5.59296 14.3257 5.52089 14.3432C5.44882 14.3607 5.38355 14.3992 5.33335 14.4538C5.28315 14.5084 5.25026 14.5766 5.23884 14.6499C5.22743 14.7232 5.238 14.7982 5.26922 14.8655C5.30044 14.9328 5.35091 14.9893 5.41425 15.0279C5.47758 15.0665 5.55094 15.0854 5.62504 15.0823C5.69914 15.0792 5.77066 15.0542 5.83056 15.0105C5.89045 14.9667 5.93602 14.9062 5.96152 14.8366C5.97845 14.7903 5.98611 14.7412 5.98405 14.692C5.98199 14.6428 5.97026 14.5945 5.94953 14.5498C5.9288 14.5051 5.89947 14.465 5.86322 14.4316C5.82697 14.3983 5.78451 14.3724 5.73826 14.3555Z" fill="#45C55B"/>
<path d="M6.75978 15.9278C6.69013 15.9023 6.61449 15.898 6.54241 15.9155C6.47034 15.933 6.40507 15.9715 6.35486 16.026C6.30465 16.0806 6.27175 16.1489 6.26033 16.2222C6.24891 16.2954 6.25948 16.3705 6.29069 16.4377C6.32191 16.505 6.37238 16.5615 6.43571 16.6001C6.49904 16.6387 6.5724 16.6577 6.6465 16.6546C6.7206 16.6515 6.79212 16.6265 6.85202 16.5827C6.91191 16.539 6.95749 16.4785 6.98299 16.4088C6.99993 16.3626 7.00758 16.3135 7.00553 16.2643C7.00347 16.2151 6.99175 16.1667 6.97102 16.1221C6.95029 16.0774 6.92097 16.0372 6.88472 16.0039C6.84848 15.9706 6.80602 15.9447 6.75978 15.9278Z" fill="#45C55B"/>
<path d="M7.27557 14.519C7.20593 14.4935 7.13027 14.4892 7.05818 14.5066C6.98609 14.5241 6.9208 14.5626 6.87056 14.6171C6.82033 14.6717 6.78741 14.74 6.77597 14.8133C6.76453 14.8866 6.77509 14.9616 6.8063 15.0289C6.83751 15.0962 6.88798 15.1527 6.95132 15.1913C7.01466 15.2299 7.08803 15.2489 7.16214 15.2458C7.23626 15.2427 7.30779 15.2177 7.36769 15.1739C7.42758 15.1302 7.47316 15.0696 7.49865 15C7.53281 14.9066 7.5285 14.8035 7.48667 14.7133C7.44484 14.6231 7.36891 14.5532 7.27557 14.519Z" fill="#45C55B"/>
<path d="M22.8817 15.375H19.5462C20.0446 14.3198 20.3019 13.167 20.2994 12C20.2994 7.8 17.0014 4.32337 12.7525 3.81431V1.125C12.7525 1.02554 12.713 0.930161 12.6427 0.859835C12.5724 0.789509 12.477 0.75 12.3775 0.75H10.9244C10.8249 0.75 10.7296 0.789509 10.6592 0.859835C10.5889 0.930161 10.5494 1.02554 10.5494 1.125V2.295L9.48064 2.43211L7.30822 2.709C5.65266 2.91696 4.14245 3.7594 3.09575 5.05884L0.833378 7.85691C0.783898 7.91811 0.754929 7.99333 0.750575 8.07191C0.74622 8.1505 0.7667 8.22846 0.809114 8.29476C0.851529 8.36105 0.913727 8.41232 0.986899 8.44131C1.06007 8.47029 1.14051 8.47552 1.21682 8.45625L4.33714 7.66814C3.42924 9.06258 2.98175 10.7067 3.05774 12.369C3.13373 14.0312 3.72936 15.6277 4.76071 16.9335C5.83492 18.3051 7.30146 19.317 8.96507 19.8344C9.26724 20.2858 9.61718 20.7033 10.0088 21.0797C11.4703 22.4859 13.418 23.2605 15.4932 23.2605C17.5684 23.2605 19.5163 22.486 20.9776 21.0797C21.6994 20.3926 22.2737 19.5656 22.6655 18.6494C23.0574 17.7331 23.2585 16.7466 23.2567 15.75C23.2567 15.6505 23.2172 15.5552 23.1469 15.4848C23.0765 15.4145 22.9811 15.375 22.8817 15.375ZM11.7026 19.4197C10.7948 18.552 10.2424 17.3776 10.1528 16.125H14.6743L12.1969 19.8413C12.0237 19.711 11.8586 19.5701 11.7026 19.4197ZM15.375 16.426L17.9852 20.3413C17.1811 20.7414 16.2925 20.9419 15.3945 20.9258C14.4965 20.9097 13.6156 20.6775 12.8264 20.2489L15.375 16.426ZM18.63 19.9566L16.0757 16.125H20.8338C20.7442 17.3776 20.1918 18.552 19.284 19.4197C19.0806 19.6157 18.8619 19.7952 18.63 19.9566ZM11.2994 1.5H12.0025V3.75H11.2994V1.5ZM10.5494 3.82031C10.0574 3.88173 9.57145 3.98418 9.09655 4.12659L9.7453 3.15431L10.5496 3.05119L10.5494 3.82031ZM8.24136 4.05703L7.97778 4.45214C7.94628 4.49934 7.91371 4.54589 7.8808 4.59234C7.44933 4.79521 7.03522 5.03312 6.64264 5.30367L6.66608 5.04844L8.24136 4.05703ZM7.40296 3.453L7.89196 3.39066L5.42952 4.94063C5.40139 4.92619 4.48011 4.719 4.48011 4.719C5.31403 4.0274 6.32803 3.5882 7.40296 3.453ZM3.67878 5.53036C3.73007 5.46695 3.7826 5.40488 3.83638 5.34413C3.84332 5.34609 3.85016 5.34825 3.85728 5.34984L4.54053 5.49984L2.83621 6.57263L3.67878 5.53036ZM4.62097 6.82294L3.3275 7.14966L5.86677 5.5515L5.83119 5.93766C5.56428 6.17315 5.31246 6.42522 5.07721 6.69234C4.95102 6.73214 4.73539 6.79406 4.62088 6.82294H4.62097ZM5.35175 16.4719C4.34551 15.1986 3.79853 13.6229 3.79939 12C3.79939 7.8645 7.33208 4.5 11.6744 4.5C16.0167 4.5 19.5494 7.8645 19.5494 12C19.5519 13.1758 19.2638 14.334 18.7107 15.3716C18.71 15.3727 18.7097 15.3739 18.7091 15.375H8.10467C8.00522 15.375 7.90984 15.4145 7.83951 15.4848C7.76918 15.5552 7.72967 15.6505 7.72967 15.75C7.72754 16.8096 7.95509 17.8571 8.39666 18.8203C7.20381 18.3002 6.15787 17.4935 5.35175 16.4719ZM20.4576 20.5394C19.1367 21.8106 17.3736 22.5107 15.4933 22.5107C13.6129 22.5107 11.85 21.8106 10.5289 20.5394C9.31203 19.3812 8.5829 17.8024 8.49027 16.125H9.40152C9.49136 17.5816 10.1271 18.9508 11.182 19.9594C12.33 21.0667 13.8611 21.6766 15.4933 21.6766C17.1254 21.6766 18.6566 21.0668 19.8047 19.9594C20.8595 18.9508 21.4953 17.5816 21.5851 16.125H22.4963C22.4036 17.8024 21.6745 19.3812 20.4576 20.5394Z" fill="#45C55B"/>
</g>
<defs>
<clipPath id="clip0_2328_5983">
<rect width="24" height="24" fill="white"/>
</clipPath>
</defs>
</svg>
