<svg fill="none" height="24" viewBox="0 0 24 24" width="24" xmlns="http://www.w3.org/2000/svg">
    <path
        d="M16.0781 8.78125L15.8435 8.86668L15.8595 9.11581C15.9376 10.333 16.3266 11.834 16.8215 13.3665C17.292 14.8236 17.8663 16.3328 18.3809 17.6853C18.4092 17.7597 18.4373 17.8336 18.4652 17.9069C19.2227 19.8998 17.748 22.039 15.6153 22.039H8.3848C6.25282 22.039 4.77723 19.9004 5.53493 17.9069C5.56869 17.8182 5.60281 17.7285 5.63726 17.638C6.13541 16.3292 6.70066 14.8441 7.16796 13.4001C7.66599 11.8611 8.0619 10.3421 8.14061 9.11581L8.15661 8.86667L7.92203 8.78125C7.36173 8.5772 6.96177 8.03926 6.96177 7.41139C6.96177 6.74845 7.40801 6.18613 8.01727 6.01101L8.34507 5.91679L8.24335 5.59124C7.99319 4.79062 8.27961 3.99719 8.96808 3.37863C9.66066 2.75639 10.7454 2.33333 12 2.33333C13.2545 2.33333 14.3393 2.75631 15.032 3.37853C15.7205 3.99706 16.007 4.79047 15.7568 5.59122L15.655 5.91677L15.9828 6.01101C16.5921 6.18617 17.0383 6.74845 17.0383 7.41139C17.0383 8.03926 16.6384 8.57721 16.0781 8.78125ZM15.3355 9.17953L15.3145 8.8686H15.0029H8.99728H8.68564L8.6647 9.17953C8.5525 10.8452 7.9139 12.9516 7.14519 15.1007L6.86324 15.889L7.60984 15.5103L11.8809 13.3438L11.8809 13.3438C11.9558 13.3058 12.0444 13.3058 12.1193 13.3438L12.1193 13.3438L16.3903 15.5103L17.1369 15.889L16.855 15.1007C16.0863 12.9516 15.4477 10.8452 15.3355 9.17953ZM10.5428 3.58251V3.05422L10.066 3.28165C9.5785 3.51417 9.1356 3.8588 8.88686 4.29006C8.62685 4.74083 8.5894 5.27526 8.91331 5.79674L9.01111 5.95419H9.19646H14.8035H14.9889L15.0867 5.79673C15.3959 5.29891 15.3788 4.77513 15.1309 4.32118C14.8928 3.88519 14.4535 3.52936 13.9341 3.28165L13.4572 3.05424V3.58251V3.83032C13.4572 3.97585 13.3393 4.09384 13.1937 4.09384C13.0482 4.09384 12.9302 3.97585 12.9302 3.83032V3.23416V2.94301L12.6417 2.90385C12.2145 2.84586 11.7854 2.84586 11.3583 2.90385L11.0699 2.94303V3.23416V3.83032C11.0699 3.97585 10.9519 4.09384 10.8064 4.09384C10.6608 4.09384 10.5428 3.97585 10.5428 3.83032V3.58251ZM6.02759 18.0942L6.33917 18.2126L6.02759 18.0942C5.39973 19.7459 6.61602 21.512 8.3848 21.512H15.6153C17.3823 21.512 18.601 19.7476 17.9725 18.0942L17.661 18.2127L17.9725 18.0942C17.9462 18.025 17.9202 17.9567 17.8945 17.8889C17.7445 17.4944 17.6026 17.1214 17.4596 16.7417L17.414 16.6204L17.2985 16.5619L12.1508 13.9507L12 13.8742L11.8493 13.9507L6.70166 16.5618L6.58615 16.6204L6.54051 16.7416C6.39954 17.116 6.26322 17.4745 6.10866 17.8809C6.08221 17.9505 6.05522 18.0215 6.02759 18.0942ZM15.5811 6.48122H8.41897C7.90578 6.48122 7.4888 6.8982 7.4888 7.41139C7.4888 7.92459 7.90578 8.34157 8.41897 8.34157H15.5811C16.0943 8.34157 16.5113 7.92459 16.5113 7.41139C16.5113 6.8982 16.0943 6.48122 15.5811 6.48122Z"
        fill="#45C55B" stroke="#45C55B" stroke-width="0.666667" />
    <path
        d="M9.61247 18.7511C9.9421 18.7511 10.2093 18.4839 10.2093 18.1543C10.2093 17.8247 9.9421 17.5574 9.61247 17.5574C9.28284 17.5574 9.01562 17.8247 9.01562 18.1543C9.01562 18.4839 9.28284 18.7511 9.61247 18.7511Z"
        fill="#45C55B" />
    <path
        d="M11.4035 16.9608C11.7331 16.9608 12.0003 16.6936 12.0003 16.3639C12.0003 16.0343 11.7331 15.7671 11.4035 15.7671C11.0739 15.7671 10.8066 16.0343 10.8066 16.3639C10.8066 16.6936 11.0739 16.9608 11.4035 16.9608Z"
        fill="#45C55B" />
    <path
        d="M12.5968 19.3482C12.9265 19.3482 13.1937 19.081 13.1937 18.7513C13.1937 18.4217 12.9265 18.1545 12.5968 18.1545C12.2672 18.1545 12 18.4217 12 18.7513C12 19.081 12.2672 19.3482 12.5968 19.3482Z"
        fill="#45C55B" />
</svg>
