<svg width="92" height="81" viewBox="0 0 92 81" fill="none" xmlns="http://www.w3.org/2000/svg">
<path d="M86.7065 48.5489C87.6911 43.9967 87.2626 39.2523 85.4783 34.9501C83.0451 28.9334 77.8183 24.6589 71.9596 22.1645C63.4464 18.541 55.0912 18.4715 48.1706 11.3698C46.0365 9.17879 44.2458 6.6697 42.0612 4.52297C35.6336 -1.79715 26.2209 -1.03663 19.195 3.98155C4.54495 14.4582 -0.734453 35.1903 0.0808426 52.3305C0.44741 60.02 4.12361 67.1828 9.9318 72.2389C23.0777 83.653 45.4003 81.7338 60.4928 75.776C71.7489 71.3224 84.0542 60.9574 86.7065 48.5489Z" fill="#E166CB"/>
<path opacity="0.7" d="M86.7065 48.5489C87.6911 43.9967 87.2626 39.2523 85.4783 34.9501C83.0451 28.9334 77.8183 24.6589 71.9596 22.1645C63.4464 18.541 55.0912 18.4715 48.1706 11.3698C46.0365 9.17879 44.2458 6.6697 42.0612 4.52297C35.6336 -1.79715 26.2209 -1.03663 19.195 3.98155C4.54495 14.4582 -0.734453 35.1903 0.0808426 52.3305C0.44741 60.02 4.12361 67.1828 9.9318 72.2389C23.0777 83.653 45.4003 81.7338 60.4928 75.776C71.7489 71.3224 84.0542 60.9574 86.7065 48.5489Z" fill="white"/>
<path d="M10.0329 16.8767H6.31458C6.31458 16.8767 6.68536 15.9561 9.57786 16.2636C9.57786 16.2636 11.0189 14.612 13.1192 14.612C13.1597 14.222 13.3296 13.8568 13.6018 13.5746C13.8741 13.2924 14.233 13.1095 14.6213 13.0551C16.056 12.777 16.3341 14.0558 16.3341 14.0558C16.726 13.887 17.1482 13.8 17.5749 13.8C18.0016 13.8 18.4239 13.887 18.8158 14.0558C20.2378 14.6183 19.9492 16.2594 19.9492 16.2594C19.9492 16.2594 24.053 16.1246 24.7588 16.8767H22.6626" stroke="#263238" stroke-width="0.210671" stroke-linecap="round" stroke-linejoin="round"/>
<path d="M73.9989 37.8426H57.7772C57.7772 37.8426 58.4493 36.1847 63.657 36.7387C63.657 36.7387 66.2504 33.764 70.034 33.764C70.034 33.764 70.1604 31.4467 72.7433 30.9558C75.3261 30.4649 75.8275 32.7634 75.8275 32.7634C75.8275 32.7634 77.7362 31.7521 80.2979 32.7634C82.8597 33.7746 82.3414 36.7303 82.3414 36.7303C82.3414 36.7303 89.7339 36.488 91 37.8426H87.2522" stroke="#263238" stroke-width="0.210671" stroke-linecap="round" stroke-linejoin="round"/>
<path d="M63.5475 57.9132H76.4848C76.4848 57.9132 75.9518 56.5923 71.7974 57.0326C71.7974 57.0326 69.7265 54.6605 66.7097 54.6605C66.7097 54.6605 66.6085 52.8171 64.5503 52.421C62.492 52.025 62.0897 53.862 62.0897 53.862C62.0897 53.862 60.5665 53.0552 58.5251 53.862C56.4837 54.6689 56.8945 57.0221 56.8945 57.0221C56.8945 57.0221 50.9957 56.8283 49.9866 57.909H53.903" stroke="#263238" stroke-width="0.210671" stroke-linecap="round" stroke-linejoin="round"/>
<path d="M16.8608 51.8649H3.2999C4.31322 50.7842 10.2078 50.978 10.2078 50.978C10.2078 50.978 9.78645 48.6206 11.8384 47.8179C13.8903 47.0153 15.4029 47.8179 15.4029 47.8179C15.4029 47.8179 15.8032 45.9809 17.8636 46.3769C19.9239 46.773 20.0229 48.6163 20.0229 48.6163C23.0418 48.6163 25.1106 50.9885 25.1106 50.9885C29.2651 50.5482 29.8002 51.8691 29.8002 51.8691H28.2854" stroke="#263238" stroke-width="0.210671" stroke-linecap="round" stroke-linejoin="round"/>
<path d="M34.3127 31.6131H28.8732C28.8732 31.6131 29.1913 30.8273 31.6583 31.0906C31.6583 31.0906 32.8865 29.6813 34.6793 29.6813C34.7145 29.3484 34.8598 29.0368 35.0923 28.796C35.3247 28.5552 35.6309 28.3989 35.9623 28.3519C37.1863 28.116 37.4244 29.2072 37.4244 29.2072C37.7585 29.0626 38.1188 28.988 38.483 28.988C38.8471 28.988 39.2074 29.0626 39.5416 29.2072C40.7551 29.6855 40.5086 31.0864 40.5086 31.0864C40.5086 31.0864 44.012 30.9706 44.6124 31.6131H43.3084" stroke="#263238" stroke-width="0.210671" stroke-linecap="round" stroke-linejoin="round"/>
<path d="M10.6818 16.8767H11.3012" stroke="#263238" stroke-width="0.210671" stroke-linecap="round" stroke-linejoin="round"/>
<path d="M14.7267 16.8683H20.4085" stroke="#263238" stroke-width="0.210671" stroke-linecap="round" stroke-linejoin="round"/>
<path d="M35.5957 31.5731H36.3731" stroke="#263238" stroke-width="0.210671" stroke-linecap="round" stroke-linejoin="round"/>
<path d="M33.9272 5.30036H28.4877C28.4877 5.30036 28.8058 4.51455 31.2727 4.77789C31.2727 4.77789 32.501 3.36851 34.2938 3.36851C34.3289 3.03566 34.4743 2.7241 34.7067 2.48327C34.9391 2.24244 35.2454 2.08614 35.5767 2.03917C36.8007 1.80322 37.0388 2.8945 37.0388 2.8945C37.3715 2.75133 37.7299 2.67749 38.0922 2.67749C38.4544 2.67749 38.8128 2.75133 39.1455 2.8945C40.359 3.37272 40.1125 4.77368 40.1125 4.77368C40.1125 4.77368 43.6159 4.65992 44.2163 5.30036H42.8997" stroke="#263238" stroke-width="0.210671" stroke-linecap="round" stroke-linejoin="round"/>
<path d="M35.2081 5.26242H35.9875" stroke="#263238" stroke-width="0.210671" stroke-linecap="round" stroke-linejoin="round"/>
<path d="M27.1499 51.8649H26.5748" stroke="#263238" stroke-width="0.210671" stroke-linecap="round" stroke-linejoin="round"/>
<path d="M19.2076 51.8649H21.1879" stroke="#263238" stroke-width="0.210671" stroke-linecap="round" stroke-linejoin="round"/>
<path d="M54.9564 57.9217H56.865" stroke="#263238" stroke-width="0.210671" stroke-linecap="round" stroke-linejoin="round"/>
<path d="M75.5494 37.8427H77.0578" stroke="#263238" stroke-width="0.210671" stroke-linecap="round" stroke-linejoin="round"/>
<path d="M20.4443 32.795C20.4443 32.795 16.1318 35.3926 14.9479 35.5105C13.7639 35.6285 10.9557 35.5105 10.9557 35.5105C10.9557 35.5105 10.389 35.6833 10.0098 35.8329C9.58841 36.0014 8.74573 36.2184 8.93112 35.7444C9.11651 35.2704 9.98447 34.4993 10.4859 34.5056C10.6102 34.5056 10.9072 34.7542 10.9072 34.7542L13.9451 34.5056L15.6831 33.6903C15.6831 33.6903 15.2913 33.6145 14.7414 33.5134H14.7288C13.589 33.3027 11.7794 32.972 11.3812 32.9551C10.7766 32.9298 8.54559 30.5071 8.31175 30.2164C8.0779 29.9257 6.88762 30.2691 6.59268 30.1511C6.29774 30.0331 6.49155 29.755 6.49155 29.755C7.00881 29.411 7.5886 29.1719 8.19799 29.0514C8.99643 28.8976 8.93112 29.5212 8.93112 29.5212C8.93112 29.5212 11.2485 31.2234 11.7204 31.2234C12.1923 31.2234 16.4984 31.0865 17.0841 30.8505C17.5792 30.6398 19.6395 32.1777 20.2631 32.6538C20.379 32.7423 20.4443 32.795 20.4443 32.795Z" fill="#757575" stroke="#263238" stroke-width="0.210671" stroke-linecap="round" stroke-linejoin="round"/>
<path d="M8.31596 30.2185C8.08001 29.9341 6.89183 30.2712 6.59689 30.1532C6.30195 30.0352 6.49577 29.7571 6.49577 29.7571C7.01159 29.4129 7.58991 29.1731 8.19798 29.0514C8.99643 28.8976 8.93112 29.5212 8.93112 29.5212C8.93112 29.5212 8.26961 29.6539 8.31596 30.2185Z" fill="#263238"/>
<path d="M20.4443 32.795C20.4443 32.795 16.1319 35.3926 14.9479 35.5105C13.7639 35.6285 10.9557 35.5105 10.9557 35.5105C10.9557 35.5105 10.389 35.6833 10.0098 35.8329C9.58842 36.0014 8.74574 36.2184 8.93113 35.7444C9.11652 35.2704 9.98448 34.4993 10.4859 34.5056C10.6102 34.5056 10.9072 34.7542 10.9072 34.7542L13.9451 34.5056L15.6831 33.6903C15.6831 33.6903 15.2913 33.6145 14.7414 33.5134H14.7604L16.6354 33.6103C16.6354 33.6103 15.7021 33.3259 15.7927 33.1594C15.8833 32.993 17.0567 33.604 18.6409 33.0057C19.1528 32.7952 19.6975 32.6761 20.2505 32.6538C20.379 32.7423 20.4443 32.795 20.4443 32.795Z" fill="#263238"/>
<path d="M21.4513 28.7311L23.4126 31.3519L26.5306 33.6545C26.5306 33.6545 27.5734 33.9305 27.704 34.198C27.7293 34.2465 27.9147 34.8511 27.8156 34.8301C27.3606 34.7437 27.152 34.5351 27.0277 34.6004C26.6275 34.8111 27.1689 35.1966 27.0277 35.2324C26.6359 35.302 26.1492 34.158 26.1492 34.158C26.1492 34.158 23.4864 32.4979 22.9112 32.163C22.3361 31.828 20.3094 30.2669 20.3094 30.2669C20.3094 30.2669 20.8656 29.0261 21.4513 28.7311Z" fill="#BFBFBF" stroke="#263238" stroke-width="0.210671" stroke-miterlimit="10"/>
<path d="M24.2511 30.7789L24.6261 31.5562C24.6261 31.5562 24.8473 31.3456 24.8473 31.5562C24.8473 31.7669 23.4295 33.1236 22.9302 33.0014C22.4309 32.8793 22.3487 32.597 22.3487 32.597C22.3487 32.597 23.0566 31.097 23.3473 30.9306C23.638 30.7641 24.2511 30.7789 24.2511 30.7789Z" fill="#E166CB" stroke="#263238" stroke-width="0.210671" stroke-linecap="round" stroke-linejoin="round"/>
<path d="M16.6396 29.4453C16.6396 29.4453 21.3417 31.8891 21.1922 32.7086C21.0426 33.5281 20.9162 33.6124 20.9162 33.6124C20.9162 33.6124 22.6247 33.0394 22.8628 31.9439C23.1008 30.8484 20.1346 27.958 16.6396 29.4453Z" fill="#263238"/>
<path d="M18.3839 26.8499C19.6762 26.9639 20.9102 27.4399 21.9443 28.2234C23.3199 29.2768 24.1753 30.4334 24.0699 30.9305C23.9035 31.7227 21.1732 32.7444 19.4246 33.2016C17.6761 33.6587 15.7843 32.3589 15.8053 31.531C15.8264 30.703 16.7976 30.7852 16.7976 30.7852C16.7976 30.7852 17.6761 27.5156 18.3839 26.8499Z" fill="#263238"/>
<path d="M20.9352 28.0991C20.6862 28.0181 20.418 28.0183 20.1692 28.0998C19.9204 28.1812 19.7039 28.3396 19.551 28.5521C19.0304 29.3081 18.2523 29.8487 17.3622 30.0731C15.4451 30.5345 12.5905 29.9235 12.5905 29.9235C12.7919 29.2392 13.0426 28.5703 13.3405 27.9222C13.8608 26.7635 15.1101 25.9924 16.4437 25.8154C17.0104 25.7375 19.6753 26.755 19.6753 26.755C23.7539 25.6048 24.4639 30.0836 24.4639 30.0836H24.0784C24.2076 30.3266 24.2653 30.6013 24.2448 30.8758L23.0671 31.9291C22.1865 33.9031 20.1683 34.0358 19.9429 33.6987C19.9429 33.6987 22.551 33.6714 23.2251 29.5422C23.3263 28.9144 21.8663 28.3962 20.9352 28.0991Z" fill="#E166CB" stroke="#263238" stroke-width="0.210671" stroke-linecap="round" stroke-linejoin="round"/>
<path d="M18.3839 26.8499L15.167 26.2494L11.7225 24.4714C11.7225 24.4714 11.0125 23.6603 10.7155 23.6603C10.6607 23.6603 10.0392 23.7656 10.0961 23.8394C10.3763 24.2059 10.6544 24.305 10.6544 24.444C10.6544 24.8948 10.0561 24.583 10.094 24.7158C10.2036 25.0971 11.4465 25.0276 11.4465 25.0276C11.4465 25.0276 14.1136 26.6813 14.6677 27.05C15.2217 27.4187 17.5138 28.5458 17.5138 28.5458C17.5138 28.5458 18.3797 27.505 18.3839 26.8499Z" fill="#BFBFBF" stroke="#263238" stroke-width="0.210671" stroke-miterlimit="10"/>
<path d="M18.7779 28.1813C18.306 28.9439 17.0546 29.024 17.0546 29.024L16.0286 28.0486L15.5546 27.918C15.7505 27.564 15.8053 26.0978 15.8053 26.0978C15.8053 26.0978 18.1648 26.635 18.5272 26.5507C18.8895 26.4665 19.0012 27.4398 19.0012 27.4398" fill="#E166CB"/>
<path d="M18.7779 28.1813C18.306 28.9439 17.0546 29.024 17.0546 29.024L16.0286 28.0486L15.5546 27.918C15.7505 27.564 15.8053 26.0978 15.8053 26.0978C15.8053 26.0978 18.1648 26.635 18.5272 26.5507C18.8895 26.4665 19.0012 27.4398 19.0012 27.4398" stroke="#263238" stroke-width="0.210671" stroke-linecap="round" stroke-linejoin="round"/>
<path d="M19.4246 28.1813C19.4246 28.1813 19.9028 27.366 19.4246 26.8499C19.4246 26.8499 20.6423 26.1736 22.1823 26.9721C23.7223 27.7705 24.2616 28.8407 24.4639 30.0731C24.4639 30.0731 23.5833 29.7508 23.1998 30.8337" stroke="#263238" stroke-width="0.210671" stroke-linecap="round" stroke-linejoin="round"/>
<path d="M24.4028 26.6813C24.7504 26.7804 25.1949 27.3133 24.8346 27.4735C24.4744 27.6336 24.6577 27.8611 24.683 27.9454C24.7082 28.0296 24.723 28.2234 24.4028 28.2508C24.0826 28.2782 24.0573 28.1392 23.9309 28.333C23.8045 28.5268 24.0109 28.4109 23.7012 28.5437C23.3916 28.6764 23.4463 28.689 23.2083 28.6975C22.9702 28.7059 22.6963 28.8449 22.551 28.4573C22.4056 28.0697 23.7792 26.5002 24.4028 26.6813Z" fill="#263238"/>
<path d="M21.7547 25.5964C20.202 25.51 19.8376 28.076 21.0615 29.6391C22.2855 31.2023 25.9217 25.8344 21.7547 25.5964Z" fill="#BFBFBF" stroke="#263238" stroke-width="0.210671" stroke-miterlimit="10"/>
<path d="M21.2912 27.1553C21.4618 26.8941 22.0707 27.682 22.1339 27.4882C22.1971 27.2944 22.4941 27.7157 22.6205 27.7621C22.8199 27.7917 23.0236 27.7593 23.2041 27.6694C23.3705 27.5851 23.9814 27.958 24.1753 27.7789C24.2299 27.7386 24.2701 27.6819 24.2902 27.6171C24.3103 27.5523 24.3092 27.4828 24.2869 27.4187C24.2869 27.4187 24.7462 27.3492 24.8283 27.1553C24.9105 26.9615 24.5503 27.2438 24.7314 26.852C24.9126 26.4601 25.3634 26.22 25.0348 26.0577C24.7061 25.8955 24.4681 25.7101 24.5924 25.4047C24.7167 25.0992 24.6345 24.6399 24.3564 24.6399C24.0783 24.6399 23.3705 24.8358 23.3979 24.4882C23.4253 24.1406 22.2876 24.029 22.1191 24.2523C21.9506 24.4756 21.4871 24.1322 21.2448 24.1364C21.0026 24.1406 20.301 24.6399 20.4021 24.9601C20.5033 25.2804 20.2652 25.2888 20.1662 25.5922C20.1252 25.7052 20.1101 25.826 20.1221 25.9456C20.1342 26.0652 20.173 26.1806 20.2357 26.2832C20.32 26.359 19.8144 26.2073 19.9998 26.6371C20.1852 27.0669 20.1936 27.2586 20.2631 27.2859C20.3326 27.3133 20.3621 26.8035 20.6528 26.6919C20.9436 26.5802 20.8467 27.4145 20.8467 27.4145C20.8467 27.4145 21.0847 27.4734 21.2912 27.1553Z" fill="#263238"/>
<path d="M21.1879 27.7494C21.3011 27.7106 21.4213 27.6964 21.5405 27.7076C21.6596 27.7189 21.775 27.7554 21.8789 27.8147" stroke="#263238" stroke-width="0.210671" stroke-linecap="round" stroke-linejoin="round"/>
<path d="M22.7364 27.9727C22.7901 27.9453 22.8488 27.929 22.909 27.9248C22.9692 27.9206 23.0296 27.9285 23.0866 27.9482C23.1436 27.9679 23.1961 27.9988 23.2409 28.0392C23.2857 28.0796 23.3219 28.1287 23.3473 28.1834" stroke="#263238" stroke-width="0.210671" stroke-linecap="round" stroke-linejoin="round"/>
<path d="M22.3487 28.472C22.3066 28.9165 22.4878 29.2367 22.0159 29.1398" stroke="#263238" stroke-width="0.210671" stroke-linecap="round" stroke-linejoin="round"/>
<path d="M21.6093 28.3477C21.5903 28.4278 21.5335 28.4804 21.4808 28.4699C21.4281 28.4594 21.3986 28.3835 21.4155 28.3056C21.4323 28.2276 21.4913 28.1729 21.544 28.1855C21.5967 28.1981 21.6093 28.2698 21.6093 28.3477Z" fill="#263238"/>
<path d="M22.9576 28.5689C22.9407 28.6469 22.8838 28.6995 22.829 28.689C22.7743 28.6785 22.7469 28.6026 22.7658 28.5247C22.7848 28.4467 22.8417 28.3919 22.8944 28.4046C22.947 28.4172 22.9765 28.4889 22.9576 28.5689Z" fill="#263238"/>
<path d="M76.9904 27.5451C76.8635 27.5903 76.7268 27.6012 76.5943 27.5767C76.0761 27.5114 75.3472 27.1258 75.206 26.5739C75.1966 26.5359 75.1846 26.4986 75.1702 26.4622C75.1267 26.2952 75.0399 26.1426 74.9186 26.0198C74.7972 25.897 74.6457 25.8083 74.4792 25.7628C74.4792 25.7628 74.1379 25.4847 74.1379 25.3014C74.1379 25.1181 74.3633 24.6989 74.3086 24.3745C74.2538 24.05 74.416 23.4728 74.6709 23.3338C74.8688 23.2383 75.0904 23.2028 75.3082 23.2317C75.526 23.2605 75.7307 23.3524 75.897 23.496C76.3184 23.8646 76.7081 25.1813 77.102 25.8555C77.496 26.5296 77.4075 27.366 76.9904 27.5451Z" fill="#E166CB"/>
<mask id="mask0_317_7030" style="mask-type:luminance" maskUnits="userSpaceOnUse" x="74" y="23" width="4" height="5">
<path d="M76.9904 27.5451C76.8635 27.5903 76.7268 27.6012 76.5943 27.5767C76.0761 27.5114 75.3472 27.1258 75.206 26.5739C75.1966 26.5359 75.1846 26.4986 75.1702 26.4622C75.1267 26.2952 75.0399 26.1426 74.9186 26.0198C74.7972 25.897 74.6457 25.8083 74.4792 25.7628C74.4792 25.7628 74.1379 25.4847 74.1379 25.3014C74.1379 25.1181 74.3633 24.6989 74.3086 24.3745C74.2538 24.05 74.416 23.4728 74.6709 23.3338C74.8688 23.2383 75.0904 23.2028 75.3082 23.2317C75.526 23.2605 75.7307 23.3524 75.897 23.496C76.3184 23.8646 76.7081 25.1813 77.102 25.8555C77.496 26.5296 77.4075 27.366 76.9904 27.5451Z" fill="white"/>
</mask>
<g mask="url(#mask0_317_7030)">
<path opacity="0.3" d="M76.5943 27.5767C76.0761 27.5114 75.3472 27.1259 75.206 26.5739C75.1966 26.5359 75.1846 26.4986 75.1702 26.4622C75.5136 26.4349 76.1161 26.2516 76.2109 25.4089C76.2151 25.4047 77.2411 26.6708 76.5943 27.5767Z" fill="black" fill-opacity="0.7"/>
</g>
<path d="M76.9904 27.5451C76.8635 27.5903 76.7268 27.6012 76.5943 27.5767C76.0761 27.5114 75.3472 27.1258 75.206 26.5739C75.1966 26.5359 75.1846 26.4986 75.1702 26.4622C75.1267 26.2952 75.0399 26.1426 74.9186 26.0198C74.7972 25.897 74.6457 25.8083 74.4792 25.7628C74.4792 25.7628 74.1379 25.4847 74.1379 25.3014C74.1379 25.1181 74.3633 24.6989 74.3086 24.3745C74.2538 24.05 74.416 23.4728 74.6709 23.3338C74.8688 23.2383 75.0904 23.2028 75.3082 23.2317C75.526 23.2605 75.7307 23.3524 75.897 23.496C76.3184 23.8646 76.7081 25.1813 77.102 25.8555C77.496 26.5296 77.4075 27.366 76.9904 27.5451Z" stroke="#263238" stroke-width="0.210671" stroke-linecap="round" stroke-linejoin="round"/>
<path d="M76.2151 25.1729C76.2151 25.1729 76.1646 26.2515 75.7306 26.3021" stroke="#263238" stroke-width="0.210671" stroke-linecap="round" stroke-linejoin="round"/>
<path d="M75.9202 37.2317L73.8556 31.7121C73.8367 31.6574 73.8177 31.6026 73.8029 31.5457C73.4827 30.4018 73.9083 28.8618 74.18 27.9032C74.2647 27.5877 74.3274 27.2667 74.3675 26.9426C74.4359 26.4106 74.4774 25.8755 74.4918 25.3394C75.2018 24.8148 75.7559 25.6912 75.7559 25.6912C75.7559 25.6912 75.5705 26.3885 76.0803 29.5022C76.5901 32.6159 77.2916 36.5281 75.9202 37.2317Z" fill="white"/>
<mask id="mask1_317_7030" style="mask-type:luminance" maskUnits="userSpaceOnUse" x="73" y="25" width="4" height="13">
<path d="M75.9202 37.2317L73.8556 31.7121C73.8367 31.6574 73.8177 31.6026 73.8029 31.5457C73.4827 30.4018 73.9083 28.8618 74.18 27.9032C74.2647 27.5877 74.3274 27.2667 74.3675 26.9426C74.4359 26.4106 74.4774 25.8755 74.4918 25.3394C75.2018 24.8148 75.7559 25.6912 75.7559 25.6912C75.7559 25.6912 75.5705 26.3885 76.0803 29.5022C76.5901 32.6159 77.2916 36.5281 75.9202 37.2317Z" fill="white"/>
</mask>
<g mask="url(#mask1_317_7030)">
<path opacity="0.4" d="M75.3809 32.4642L73.8114 31.5457C73.4911 30.4018 73.9167 28.8618 74.1885 27.9032C74.2731 27.5877 74.3358 27.2667 74.376 26.9426C75.6505 28.5647 75.3809 32.4642 75.3809 32.4642Z" fill="#E166CB"/>
</g>
<path d="M75.9202 37.2317L73.8556 31.7121C73.8367 31.6574 73.8177 31.6026 73.8029 31.5457C73.4827 30.4018 73.9083 28.8618 74.18 27.9032C74.2647 27.5877 74.3274 27.2667 74.3675 26.9426C74.4359 26.4106 74.4774 25.8755 74.4918 25.3394C75.2018 24.8148 75.7559 25.6912 75.7559 25.6912C75.7559 25.6912 75.5705 26.3885 76.0803 29.5022C76.5901 32.6159 77.2916 36.5281 75.9202 37.2317Z" stroke="#263238" stroke-width="0.210671" stroke-linecap="round" stroke-linejoin="round"/>
<path d="M71.7826 34.4446C68.6794 35.7402 59.2814 29.5823 59.0497 29.5338C59.0497 29.5338 66.5496 28.2087 67.664 27.9475C67.7113 27.9395 67.7574 27.9253 67.8009 27.9053C67.8347 27.939 68.1802 28.2045 68.6731 28.6111C70.4575 30.0879 74.1632 33.4481 71.7826 34.4446Z" fill="white"/>
<mask id="mask2_317_7030" style="mask-type:luminance" maskUnits="userSpaceOnUse" x="59" y="27" width="14" height="8">
<path d="M71.7826 34.4446C68.6794 35.7402 59.2814 29.5823 59.0497 29.5338C59.0497 29.5338 66.5496 28.2087 67.664 27.9475C67.7113 27.9395 67.7574 27.9253 67.8009 27.9053C67.8347 27.939 68.1802 28.2045 68.6731 28.6111C70.4575 30.0879 74.1632 33.4481 71.7826 34.4446Z" fill="white"/>
</mask>
<g mask="url(#mask2_317_7030)">
<path opacity="0.4" d="M71.7826 34.4446C68.6794 35.7402 59.2814 29.5823 59.0497 29.5338C59.0497 29.5338 66.5496 28.2087 67.664 27.9475C67.9983 28.1567 68.3346 28.378 68.6731 28.6111C70.4575 30.0879 74.1632 33.4481 71.7826 34.4446Z" fill="#E166CB"/>
</g>
<path d="M71.7826 34.4446C68.6794 35.7402 59.2814 29.5823 59.0497 29.5338C59.0497 29.5338 66.5496 28.2087 67.664 27.9475C67.7113 27.9395 67.7574 27.9253 67.8009 27.9053C67.8347 27.939 68.1801 28.2045 68.6731 28.6111C70.4575 30.0879 74.1632 33.4481 71.7826 34.4446Z" stroke="#263238" stroke-width="0.210671" stroke-linecap="round" stroke-linejoin="round"/>
<path d="M76.5817 34.8659C76.8092 36.6692 76.1098 37.6804 74.6751 37.4066L74.5129 37.3729C71.9996 36.8357 71.6773 35.361 68.4582 32.7381C67.3438 31.8259 66.2525 31.097 65.3213 30.446C63.8466 29.4074 62.7575 28.5626 62.6142 27.4966C62.3825 25.7502 60.2315 23.2179 64.2469 21.7053C67.2637 20.5719 72.4188 26.3927 74.6751 30.1026C75.0754 30.7564 75.4342 31.4347 75.7495 32.1335" fill="white"/>
<mask id="mask3_317_7030" style="mask-type:luminance" maskUnits="userSpaceOnUse" x="61" y="21" width="16" height="17">
<path d="M76.5817 34.8659C76.8092 36.6692 76.1098 37.6804 74.6751 37.4066L74.5129 37.3729C71.9996 36.8357 71.6773 35.361 68.4582 32.7381C67.3438 31.8259 66.2525 31.097 65.3213 30.446C63.8466 29.4074 62.7575 28.5626 62.6142 27.4966C62.3825 25.7502 60.2315 23.2179 64.2469 21.7053C67.2637 20.5719 72.4188 26.3927 74.6751 30.1026C75.0754 30.7564 75.4342 31.4347 75.7495 32.1335" fill="white"/>
</mask>
<g mask="url(#mask3_317_7030)">
<path opacity="0.4" d="M74.5129 37.3728C71.9996 36.8356 71.6773 35.3609 68.4582 32.7381C67.3438 31.8259 66.2525 31.0969 65.3214 30.446L66.6296 30.0668L67.4302 30.3596C68.8539 31.6846 70.1791 33.1119 71.395 34.6299C72.2348 35.7487 73.2962 36.6824 74.5129 37.3728Z" fill="#E166CB"/>
</g>
<path d="M76.5817 34.8659C76.8092 36.6692 76.1098 37.6804 74.6751 37.4066L74.5129 37.3729C71.9996 36.8357 71.6773 35.361 68.4582 32.7381C67.3438 31.8259 66.2525 31.097 65.3213 30.446C63.8466 29.4074 62.7575 28.5626 62.6142 27.4966C62.3825 25.7502 60.2315 23.2179 64.2469 21.7053C67.2637 20.5719 72.4188 26.3927 74.6751 30.1026C75.0754 30.7564 75.4342 31.4347 75.7495 32.1335" stroke="#263238" stroke-width="0.210671" stroke-linecap="round" stroke-linejoin="round"/>
<path d="M67.4301 21.8212C68.8648 22.0824 72.0649 25.0339 72.1976 25.3394C72.3303 25.6448 72.7074 26.2958 72.7074 26.2958H73.0782C73.0782 26.2958 72.4294 28.9819 71.3655 29.9994C70.3016 31.0169 65.9196 31.156 65.4941 31.0191C65.1683 30.8855 64.8676 30.6975 64.6051 30.4629L61.4113 29.5338L67.4301 21.8212Z" fill="#263238"/>
<path d="M48.731 27.4398C48.3961 28.1287 46.7402 28.6743 46.6243 29.005C46.5016 29.2616 46.3116 29.48 46.0745 29.6371C46.0013 29.5571 45.9608 29.4526 45.9608 29.3442C45.9608 29.2358 46.0013 29.1314 46.0745 29.0514C46.342 28.7501 46.3715 28.1055 46.3715 28.1055C46.1437 28.0006 45.9094 27.9106 45.67 27.8358C45.5899 27.8169 45.4193 27.7853 45.2192 27.7516C44.8189 27.682 44.3006 27.5999 44.1658 27.5641C44.0064 27.5068 43.8623 27.4139 43.7445 27.2923C43.4748 27.3134 43.0619 26.7509 43.3084 26.7888C43.9683 26.8663 44.635 26.8663 45.295 26.7888C43.5801 26.3674 43.7423 25.9461 43.7423 25.9461C44.2796 26.2263 45.8027 26.3148 45.8027 26.3148C45.8027 26.3148 44.8842 25.9187 44.7241 25.7102C44.6899 25.6595 44.6693 25.601 44.6641 25.5402C44.659 25.4793 44.6695 25.4182 44.6946 25.3625C45.1219 25.5991 45.5759 25.7837 46.0471 25.9124C46.8702 26.0804 47.718 26.0868 48.5435 25.9314L48.731 27.4398Z" fill="white"/>
<mask id="mask4_317_7030" style="mask-type:luminance" maskUnits="userSpaceOnUse" x="43" y="25" width="6" height="5">
<path d="M48.731 27.4398C48.3961 28.1287 46.7402 28.6743 46.6243 29.005C46.5016 29.2616 46.3116 29.48 46.0745 29.6371C46.0013 29.5571 45.9608 29.4526 45.9608 29.3442C45.9608 29.2358 46.0013 29.1314 46.0745 29.0514C46.342 28.7501 46.3715 28.1055 46.3715 28.1055C46.1437 28.0006 45.9094 27.9106 45.67 27.8358C45.5899 27.8169 45.4193 27.7853 45.2192 27.7516C44.8189 27.682 44.3006 27.5999 44.1658 27.5641C44.0064 27.5068 43.8623 27.4139 43.7445 27.2923C43.4748 27.3134 43.0619 26.7509 43.3084 26.7888C43.9683 26.8663 44.635 26.8663 45.295 26.7888C43.5801 26.3674 43.7423 25.9461 43.7423 25.9461C44.2796 26.2263 45.8027 26.3148 45.8027 26.3148C45.8027 26.3148 44.8842 25.9187 44.7241 25.7102C44.6899 25.6595 44.6693 25.601 44.6641 25.5402C44.659 25.4793 44.6695 25.4182 44.6946 25.3625C45.1219 25.5991 45.5759 25.7837 46.0471 25.9124C46.8702 26.0804 47.718 26.0868 48.5435 25.9314L48.731 27.4398Z" fill="white"/>
</mask>
<g mask="url(#mask4_317_7030)">
<path opacity="0.4" d="M48.731 27.4398C48.3961 28.1287 46.7402 28.6743 46.6243 29.0051C46.5016 29.2616 46.3116 29.48 46.0745 29.6371C46.0013 29.5571 45.9608 29.4526 45.9608 29.3442C45.9608 29.2359 46.0013 29.1314 46.0745 29.0514C46.342 28.7501 46.3715 28.1055 46.3715 28.1055C46.1437 28.0006 45.9094 27.9106 45.67 27.8358C45.5899 27.8169 45.4193 27.7853 45.2191 27.7516C46.0365 27.7368 47.0625 27.682 47.3532 27.4924C47.3532 27.4924 46.9424 26.6856 47.0204 26.043C47.0286 25.9286 47.0611 25.8173 47.1155 25.7163C47.17 25.6153 47.2453 25.5271 47.3364 25.4574C47.5892 25.272 48.0358 25.5248 48.514 25.9377H48.5246L48.731 27.4398Z" fill="#E166CB"/>
</g>
<path d="M48.731 27.4398C48.3961 28.1287 46.7402 28.6743 46.6243 29.005C46.5016 29.2616 46.3116 29.48 46.0745 29.6371C46.0013 29.5571 45.9608 29.4526 45.9608 29.3442C45.9608 29.2358 46.0013 29.1314 46.0745 29.0514C46.342 28.7501 46.3715 28.1055 46.3715 28.1055C46.1437 28.0006 45.9094 27.9106 45.67 27.8358C45.5899 27.8169 45.4193 27.7853 45.2192 27.7516C44.8189 27.682 44.3006 27.5999 44.1658 27.5641C44.0064 27.5068 43.8623 27.4139 43.7445 27.2923C43.4748 27.3134 43.0619 26.7509 43.3084 26.7888C43.9683 26.8663 44.635 26.8663 45.295 26.7888C43.5801 26.3674 43.7423 25.9461 43.7423 25.9461C44.2796 26.2263 45.8027 26.3148 45.8027 26.3148C45.8027 26.3148 44.8842 25.9187 44.7241 25.7102C44.6899 25.6595 44.6693 25.601 44.6641 25.5402C44.659 25.4793 44.6695 25.4182 44.6946 25.3625C45.1219 25.5991 45.5759 25.7837 46.0471 25.9124C46.8702 26.0804 47.718 26.0868 48.5435 25.9314L48.731 27.4398Z" stroke="#263238" stroke-width="0.210671" stroke-linecap="round" stroke-linejoin="round"/>
<path d="M43.7655 27.2859C43.7655 27.2859 43.5843 27.2543 44.3975 27.227C44.7539 27.2212 45.1097 27.1966 45.4635 27.1532" stroke="#263238" stroke-width="0.210671" stroke-linecap="round" stroke-linejoin="round"/>
<path d="M80.7277 17.6983C81.1216 17.6056 82.3246 16.7714 82.7649 16.2384C83.0626 15.8594 83.3144 15.4464 83.5149 15.0081C83.5675 15.0391 83.6114 15.0831 83.6423 15.1358C83.6733 15.1885 83.6903 15.2482 83.6918 15.3093C83.6813 15.5727 83.1588 16.4238 83.1588 16.4238C83.1588 16.4238 84.3512 15.4736 84.6335 14.9364C84.6335 14.9364 85.0148 15.1956 83.8583 16.5291C84.4424 16.2132 84.9875 15.83 85.4825 15.3873C85.6637 15.2145 85.649 15.9118 85.4172 16.0509C85.3916 16.2168 85.3282 16.3747 85.2318 16.5122C85.0949 16.6745 84.3196 17.4202 84.1574 17.6056C84.0032 17.8068 83.8625 18.0179 83.7361 18.2376C83.7361 18.2376 84.1279 18.7475 84.5219 18.8402C84.6283 18.8611 84.723 18.9212 84.7874 19.0086C84.8517 19.0959 84.881 19.2042 84.8695 19.3121C84.5866 19.3218 84.3063 19.2548 84.0584 19.1182C83.7824 18.9076 82.116 19.4195 81.444 19.0487" fill="white"/>
<path d="M80.7277 17.6983C81.1216 17.6056 82.3246 16.7714 82.7649 16.2384C83.0626 15.8594 83.3144 15.4464 83.5149 15.0081C83.5675 15.0391 83.6114 15.0831 83.6423 15.1358C83.6733 15.1885 83.6903 15.2482 83.6918 15.3093C83.6813 15.5727 83.1588 16.4238 83.1588 16.4238C83.1588 16.4238 84.3512 15.4736 84.6335 14.9364C84.6335 14.9364 85.0148 15.1956 83.8583 16.5291C84.4424 16.2132 84.9875 15.83 85.4825 15.3873C85.6637 15.2145 85.649 15.9118 85.4172 16.0509C85.3916 16.2168 85.3282 16.3747 85.2318 16.5122C85.0949 16.6745 84.3196 17.4202 84.1574 17.6056C84.0032 17.8068 83.8625 18.0179 83.7361 18.2376C83.7361 18.2376 84.1279 18.7475 84.5219 18.8402C84.6283 18.8611 84.723 18.9212 84.7874 19.0086C84.8517 19.0959 84.881 19.2042 84.8695 19.3121C84.5866 19.3218 84.3063 19.2548 84.0584 19.1182C83.7824 18.9076 82.116 19.4195 81.444 19.0487" stroke="#263238" stroke-width="0.210671" stroke-linecap="round" stroke-linejoin="round"/>
<path d="M81.9201 19.0171C81.9201 19.0171 76.5943 21.8212 75.4398 21.8212C73.8893 21.8212 69.2819 24.5367 69.2819 24.5367L67.4301 20.0726C67.4301 20.0726 71.4603 19.4258 72.5684 19.4574C73.8177 19.4911 74.7446 18.3388 76.7818 18.145C79.5585 17.8795 81.1806 17.6288 81.1806 17.6288" fill="white"/>
<mask id="mask5_317_7030" style="mask-type:luminance" maskUnits="userSpaceOnUse" x="67" y="17" width="15" height="8">
<path d="M81.9201 19.0171C81.9201 19.0171 76.5943 21.8212 75.4398 21.8212C73.8893 21.8212 69.2819 24.5367 69.2819 24.5367L67.4301 20.0726C67.4301 20.0726 71.4603 19.4258 72.5684 19.4574C73.8177 19.4911 74.7446 18.3388 76.7818 18.145C79.5585 17.8795 81.1806 17.6288 81.1806 17.6288" fill="white"/>
</mask>
<g mask="url(#mask5_317_7030)">
<path opacity="0.4" d="M81.9201 19.0171C81.9201 19.0171 76.5943 21.8211 75.4398 21.8211C73.8893 21.8211 69.2819 24.5367 69.2819 24.5367L67.4301 20.0726C67.4301 20.0726 68.8374 19.8472 70.2173 19.6681C71.0441 20.2862 71.6629 21.1416 71.9912 22.1203C71.9912 22.1203 74.0979 21.3134 74.4371 21.0838C74.7762 20.8542 74.4371 20.0073 74.4371 20.0073C74.7582 19.9494 75.0871 19.9494 75.4082 20.0073C75.9644 20.1021 75.5747 20.9806 75.5747 20.9806C77.7537 20.5554 79.88 19.8943 81.9159 19.0087L81.9201 19.0171Z" fill="#E166CB"/>
</g>
<path d="M81.9201 19.0171C81.9201 19.0171 76.5943 21.8212 75.4398 21.8212C73.8893 21.8212 69.2819 24.5367 69.2819 24.5367L67.4301 20.0726C67.4301 20.0726 71.4603 19.4258 72.5684 19.4574C73.8177 19.4911 74.7446 18.3388 76.7818 18.145C79.5585 17.8795 81.1806 17.6288 81.1806 17.6288" stroke="#263238" stroke-width="0.210671" stroke-linecap="round" stroke-linejoin="round"/>
<path d="M70.5312 24.5367L69.8992 24.7811L67.1942 25.8344C67.1942 25.8344 66.1282 28.1034 65.157 29.1694C64.1858 30.2353 60.5834 30.7367 58.7252 30.3702C56.8671 30.0036 54.0505 31.5268 52.7443 30.3702C51.4382 29.2136 48.2633 27.7768 47.0141 25.8323C46.6327 25.2382 46.7613 24.6147 47.1257 24.0353C47.9579 22.7144 50.0077 21.621 50.0077 21.621C52.6709 20.4426 55.5075 19.7034 58.4071 19.4322C60.6425 19.2425 62.8937 19.3845 65.0875 19.8535C65.7996 19.9967 66.2209 20.0916 66.3178 20.0073C66.6928 19.6807 67.4049 19.7798 67.5439 19.7966H67.5692C67.5692 19.7966 67.4849 19.2657 67.8494 19.1646C68.0917 19.093 68.532 19.2109 69.3241 19.7966C71.3276 21.2818 70.5312 24.5367 70.5312 24.5367Z" fill="#E166CB"/>
<mask id="mask6_317_7030" style="mask-type:luminance" maskUnits="userSpaceOnUse" x="46" y="19" width="25" height="12">
<path d="M70.5312 24.5367L69.8992 24.7811L67.1942 25.8344C67.1942 25.8344 66.1282 28.1034 65.157 29.1694C64.1858 30.2353 60.5834 30.7367 58.7252 30.3702C56.8671 30.0036 54.0505 31.5268 52.7443 30.3702C51.4382 29.2136 48.2633 27.7768 47.0141 25.8323C46.6327 25.2382 46.7613 24.6147 47.1257 24.0353C47.9579 22.7144 50.0077 21.621 50.0077 21.621C52.6709 20.4426 55.5075 19.7034 58.4071 19.4322C60.6425 19.2425 62.8937 19.3845 65.0875 19.8535C65.7996 19.9967 66.2209 20.0916 66.3178 20.0073C66.6928 19.6807 67.4049 19.7798 67.5439 19.7966H67.5692C67.5692 19.7966 67.4849 19.2657 67.8494 19.1646C68.0917 19.093 68.532 19.2109 69.3241 19.7966C71.3276 21.2818 70.5312 24.5367 70.5312 24.5367Z" fill="white"/>
</mask>
<g mask="url(#mask6_317_7030)">
<path opacity="0.3" d="M69.9034 24.7811L67.1984 25.8344C67.1984 25.8344 66.1324 28.1033 65.1612 29.1693C64.19 30.2353 60.5834 30.7367 58.7252 30.3702C56.8671 30.0036 54.0505 31.5267 52.7443 30.3702C51.4382 29.2136 48.2633 27.7768 47.0141 25.8323C46.6327 25.2382 46.7613 24.6146 47.1257 24.0353C47.1257 24.0353 47.0141 26.418 48.9607 27.2164C50.9073 28.0149 51.0674 27.9811 51.0674 27.9811C51.0674 27.9811 52.9002 29.9615 53.4838 30.2395C54.0673 30.5176 58.0111 29.3421 58.3734 29.5001C58.7358 29.6581 60.0398 30.6841 62.1781 29.9888C64.3165 29.2936 66.3747 27.3491 66.3452 26.0725C66.3269 25.3292 66.355 24.5855 66.4295 23.8457C66.4295 23.8457 67.2722 24.6884 67.7356 24.7663C67.7356 24.7663 68.5657 23.5802 68.6794 23.0978C68.6794 23.0978 69.1303 23.3295 68.8079 24.5346C68.4856 25.7396 69.8466 23.4328 69.8466 22.489C69.8529 21.8127 70.2742 23.1526 69.9034 24.7811Z" fill="black" fill-opacity="0.7"/>
<path opacity="0.3" d="M65.0875 19.8534C64.7589 20.3738 63.834 21.1385 61.228 21.2123C57.24 21.3239 57.0146 20.2916 57.0146 20.2916L58.4029 19.4321C60.6397 19.242 62.8923 19.384 65.0875 19.8534Z" fill="black" fill-opacity="0.7"/>
<path opacity="0.3" d="M67.5355 19.8029H67.5608C67.5608 19.8029 67.4765 19.272 67.841 19.1709C68.3592 19.4806 69.0186 19.9777 69.0165 20.4981C68.547 20.2181 68.0509 19.9852 67.5355 19.8029Z" fill="black" fill-opacity="0.7"/>
</g>
<path d="M70.5312 24.5367L69.8992 24.7811L67.1942 25.8344C67.1942 25.8344 66.1282 28.1034 65.157 29.1694C64.1858 30.2353 60.5834 30.7367 58.7252 30.3702C56.8671 30.0036 54.0505 31.5268 52.7443 30.3702C51.4382 29.2136 48.2633 27.7768 47.0141 25.8323C46.6327 25.2382 46.7613 24.6147 47.1257 24.0353C47.9579 22.7144 50.0077 21.621 50.0077 21.621C52.6709 20.4426 55.5075 19.7034 58.4071 19.4322C60.6425 19.2425 62.8937 19.3845 65.0875 19.8535C65.7996 19.9967 66.2209 20.0916 66.3178 20.0073C66.6928 19.6807 67.4049 19.7798 67.5439 19.7966H67.5692C67.5692 19.7966 67.4849 19.2657 67.8494 19.1646C68.0917 19.093 68.532 19.2109 69.3241 19.7966C71.3276 21.2818 70.5312 24.5367 70.5312 24.5367Z" stroke="#263238" stroke-width="0.210671" stroke-linecap="round" stroke-linejoin="round"/>
<path d="M61.0173 26.5697C60.839 26.7116 60.6526 26.8431 60.4591 26.9636C60.1243 27.1789 59.7676 27.3583 59.3952 27.4987C57.5223 28.1961 54.1958 27.9643 52.0849 27.0058C51.8734 26.9118 51.668 26.8049 51.4697 26.6856C51.1976 26.5256 50.9464 26.3324 50.7219 26.1104C49.0913 24.444 49.7949 23.0747 50.7219 22.4384C50.975 22.2686 51.2413 22.1193 51.5182 21.9918C51.7289 21.8865 51.9775 21.7811 52.2282 21.6948C54.5603 20.8331 58.0701 20.4307 60.4696 20.713C60.7371 20.7425 60.99 20.7804 61.228 20.831C62.1634 21.0185 62.8375 21.3429 63.0503 21.8212C63.7202 23.3106 62.6205 25.3099 61.0173 26.5697Z" fill="white" stroke="#263238" stroke-width="0.210671" stroke-linecap="round" stroke-linejoin="round"/>
<path d="M61.0174 26.5697C60.839 26.7116 60.6526 26.8431 60.4591 26.9636C59.7055 24.9482 59.7055 22.7284 60.4591 20.713C60.7266 20.7425 60.9794 20.7804 61.2175 20.831C60.162 22.9693 60.6992 25.47 61.0174 26.5697Z" fill="#263238"/>
<path d="M52.0849 27.0058C51.8735 26.9118 51.668 26.8049 51.4698 26.6856C51.3462 25.1226 51.3624 23.5518 51.5182 21.9918C51.7289 21.8865 51.9775 21.7811 52.2282 21.6948C51.7183 23.7488 51.9311 25.9503 52.0849 27.0058Z" fill="#263238"/>
<path d="M85.413 16.0509C85.413 16.0509 85.5436 15.9203 84.8716 16.3606C84.5771 16.5617 84.2719 16.7466 83.9573 16.9146" stroke="#263238" stroke-width="0.210671" stroke-linecap="round" stroke-linejoin="round"/>
<path d="M67.5692 19.8071C68.0581 19.9053 68.5116 20.133 68.8822 20.4666C69.2529 20.8002 69.527 21.2273 69.6759 21.7032C70.2026 23.3611 69.954 23.8562 69.954 23.8562" stroke="#263238" stroke-width="0.210671" stroke-linecap="round" stroke-linejoin="round"/>
<path d="M66.3178 20.0073C66.3178 20.0073 65.7532 21.324 65.8038 22.2951C65.8543 23.2663 66.6296 24.4735 66.6296 24.4735" stroke="#263238" stroke-width="0.210671" stroke-linecap="round" stroke-linejoin="round"/>
<path d="M63.4632 24.2628C63.4632 24.2628 61.0468 29.1083 56.8229 28.6301" stroke="#263238" stroke-width="0.210671" stroke-linecap="round" stroke-linejoin="round"/>
<path d="M49.4283 24.4735C49.4283 24.4735 49.2387 26.7909 52.9613 28.1308" stroke="#263238" stroke-width="0.210671" stroke-linecap="round" stroke-linejoin="round"/>
<path d="M67.1984 25.8323C67.1984 25.8323 69.0102 23.2685 68.7995 22.2404" stroke="#263238" stroke-width="0.210671" stroke-linecap="round" stroke-linejoin="round"/>
<g opacity="0.2">
<path d="M72.5558 26.4622C72.5558 26.4622 71.2412 29.5106 69.8529 29.5022" stroke="white" stroke-width="0.210671" stroke-linecap="round" stroke-linejoin="round"/>
<path d="M69.4926 25.5163C69.4926 25.5163 69.9371 28.5205 68.4919 29.6307" stroke="white" stroke-width="0.210671" stroke-linecap="round" stroke-linejoin="round"/>
</g>
<path d="M55.3924 25.8323C54.9858 24.9728 54.0273 24.6125 53.1172 24.4735C52.44 24.3773 51.7533 24.3674 51.0737 24.444L51.1537 24.2797L52.7443 20.9806C52.7443 20.9806 56.8987 19.8598 57.7077 21.8233" fill="white"/>
<path d="M55.3924 25.8323C54.9858 24.9728 54.0273 24.6125 53.1172 24.4735C52.44 24.3773 51.7533 24.3674 51.0737 24.444L51.1537 24.2797L52.7443 20.9806C52.7443 20.9806 56.8987 19.8598 57.7077 21.8233" stroke="#263238" stroke-width="0.210671" stroke-linecap="round" stroke-linejoin="round"/>
<path d="M53.1172 24.4735C52.44 24.3773 51.7533 24.3674 51.0737 24.444L51.1537 24.2797C51.5203 23.8857 52.1713 23.496 53.212 23.2263C53.2807 23.4299 53.3077 23.6453 53.2914 23.8595C53.2751 24.0738 53.2159 24.2826 53.1172 24.4735Z" fill="#263238"/>
<path d="M47.3575 19.0593C47.3575 19.0593 46.9066 20.2306 45.295 19.152C43.6834 18.0733 44.7662 17.2959 44.7662 17.2959C44.7662 17.2959 44.2395 17.9575 45.6278 18.5157C45.6278 18.5157 44.5745 18.0944 44.9958 16.685C45.4172 15.2756 47.3575 19.0593 47.3575 19.0593Z" fill="#263238"/>
<path d="M53.4901 23.0325C53.3131 24.0669 51.3539 25.6617 49.9318 25.5058C49.2703 25.4321 46.6686 23.6498 46.7486 21.1913C46.8055 19.4174 45.3708 17.7047 46.441 14.9533C47.7409 11.6121 52.3925 10.131 55.1523 13.1542C56.7281 14.8796 56.1951 18.7201 54.6846 21.6653" fill="white"/>
<path d="M53.4901 23.0325C53.3131 24.0669 51.3539 25.6617 49.9318 25.5058C49.2703 25.4321 46.6686 23.6498 46.7486 21.1913C46.8055 19.4174 45.3708 17.7047 46.441 14.9533C47.7409 11.6121 52.3925 10.131 55.1523 13.1542C56.7281 14.8796 56.1951 18.7201 54.6846 21.6653" stroke="#263238" stroke-width="0.210671" stroke-linecap="round" stroke-linejoin="round"/>
<path d="M49.4283 18.008C49.4283 18.008 50.6439 17.5361 51.3876 18.4083" stroke="#263238" stroke-width="0.210671" stroke-linecap="round" stroke-linejoin="round"/>
<path d="M50.2605 20.0094C50.2605 20.239 50.1488 20.4307 50.014 20.4307C49.8792 20.4307 49.7717 20.2411 49.7738 20.0094C49.7759 19.7776 49.8876 19.588 50.0203 19.588C50.153 19.588 50.2605 19.7819 50.2605 20.0094Z" fill="#263238"/>
<path d="M47.5997 19.8093C47.5997 20.041 47.4881 20.2306 47.3532 20.2306C47.2184 20.2306 47.1131 20.0431 47.1131 19.8093C47.1131 19.5754 47.2268 19.3879 47.3617 19.3879C47.4965 19.3879 47.6018 19.5712 47.5997 19.8093Z" fill="#263238"/>
<path d="M47.3743 18.1365C47.3743 18.1365 46.5042 17.5045 46.165 18.1955" stroke="#263238" stroke-width="0.210671" stroke-linecap="round" stroke-linejoin="round"/>
<path d="M48.1959 20.0726C48.1622 20.3823 47.3132 21.126 47.6124 21.4399C47.7755 21.6195 47.9845 21.7514 48.217 21.8212" stroke="#263238" stroke-width="0.210671" stroke-linecap="round" stroke-linejoin="round"/>
<path d="M47.9431 22.6154C48.8012 22.7576 49.6807 22.697 50.5112 22.4384" stroke="#263238" stroke-width="0.210671" stroke-linecap="round" stroke-linejoin="round"/>
<path d="M50.507 22.4384C50.507 22.4384 50.1552 23.5887 49.283 23.5803C48.4108 23.5718 48.2992 22.6638 48.2992 22.6638" stroke="#263238" stroke-width="0.210671" stroke-linecap="round" stroke-linejoin="round"/>
<path d="M52.3145 16.8514C52.3145 16.8514 52.8117 18.7728 53.6397 19.3058C54.1264 19.6101 54.5051 20.0596 54.7225 20.5908L54.9753 21.9202C54.9753 21.9202 56.9662 23.2643 58.0785 22.3415C59.1908 21.4188 59.8144 21.5325 59.8144 21.5325C59.8144 21.5325 59.7217 21.0227 58.7611 21.1849C58.7611 21.1849 60.8678 21.3956 60.5433 19.4996C60.2189 17.6035 53.4016 13.9821 52.3145 16.8514Z" fill="#263238"/>
<path d="M50.0077 15.3009C50.0077 15.3009 48.8659 15.0692 47.5492 16.6197C46.6875 17.6351 45.4277 17.5235 44.6988 16.7946C43.9699 16.0656 44.0394 13.7735 43.0324 13.704C43.0324 13.704 44.0731 13.1478 44.802 13.9463C44.802 13.9463 45.2887 13.4596 44.7683 12.8361C44.2479 12.2125 45.0211 10.5187 46.7697 10.822C46.7697 10.822 45.9101 11.0327 46.519 11.513C46.519 11.513 47.6503 10.1626 49.0744 10.3017C50.4985 10.4407 54.0673 8.78907 54.9732 11.6542C54.9732 11.6542 56.3278 11.0959 57.1262 11.513C57.9247 11.9302 58.5167 14.2244 59.3846 14.7805C60.2526 15.3367 61.2933 14.3276 62.0222 14.5025C62.7512 14.6773 63.3073 15.4041 63.3073 15.4041C63.3073 15.4041 62.6121 15.126 62.1276 15.4736C62.1276 15.4736 63.5496 16.5165 64.2448 15.895C64.2448 15.895 63.933 18.9855 61.2238 19.3331C61.2238 19.3331 62.3361 19.8177 63.933 19.3331C62.7257 20.1867 61.3328 20.7412 59.8692 20.9511C57.5518 21.2418 58.03 19.6576 54.3033 18.9855C53.1404 18.7749 53.1214 17.0895 53.1214 17.0895C53.0175 17.523 52.9862 17.9708 53.0287 18.4146C53.0982 19.1604 53.7239 19.8071 54.2443 19.8135C54.2443 19.8135 52.7422 20.0789 52.0912 19.1962C50.9768 17.6836 51.5709 15.6548 51.5709 15.6548C51.5709 15.6548 50.4059 15.0755 49.0028 16.5923C47.8631 17.8226 46.9888 17.4245 46.9888 17.4245C47.4589 17.3638 47.8928 17.1401 48.2149 16.7924C48.691 16.2384 49.224 15.3009 50.0077 15.3009Z" fill="#263238"/>
<path d="M53.7955 20.0726C53.7955 20.0726 54.6487 18.5979 55.2976 19.2067C55.9465 19.8156 56.0181 20.2074 55.8327 20.6014C55.6027 21.0748 55.3147 21.5178 54.9753 21.9202C54.9227 21.9823 54.8572 22.0322 54.7833 22.0665C54.7095 22.1007 54.629 22.1184 54.5476 22.1184C54.4662 22.1184 54.3858 22.1007 54.3119 22.0665C54.2381 22.0322 54.1726 21.9823 54.12 21.9202" fill="white"/>
<path d="M53.7955 20.0726C53.7955 20.0726 54.6487 18.5979 55.2976 19.2067C55.9465 19.8156 56.0181 20.2074 55.8327 20.6014C55.6027 21.0748 55.3147 21.5178 54.9753 21.9202C54.9227 21.9823 54.8572 22.0322 54.7833 22.0665C54.7095 22.1007 54.629 22.1184 54.5476 22.1184C54.4662 22.1184 54.3858 22.1007 54.3119 22.0665C54.2381 22.0322 54.1726 21.9823 54.12 21.9202" stroke="#263238" stroke-width="0.210671" stroke-linecap="round" stroke-linejoin="round"/>
<g opacity="0.2">
<path d="M52.0723 14.572C52.0723 14.572 52.2218 13.1289 50.7113 13.2679C48.9059 13.4344 47.7851 16.3458 46.165 16.3669C44.6904 16.3858 45.295 14.4709 45.295 14.4709" stroke="white" stroke-width="0.210671" stroke-linecap="round" stroke-linejoin="round"/>
<path d="M52.9613 14.6015C52.9613 14.6015 52.0828 15.1113 52.3145 16.3837C52.5463 17.6562 53.6839 18.956 55.5462 18.5157C57.4086 18.0754 58.1017 17.9343 59.075 18.9371C60.0483 19.9399 62.4899 19.055 61.9906 17.8711" stroke="white" stroke-width="0.210671" stroke-linecap="round" stroke-linejoin="round"/>
<path d="M53.351 13.7672C53.351 13.7672 54.1558 16.8514 56.7407 16.5186C59.3256 16.1857 61.0679 14.435 62.058 15.0165" stroke="white" stroke-width="0.210671" stroke-linecap="round" stroke-linejoin="round"/>
<path d="M54.0189 12.8635C54.0189 12.8635 54.2127 11.9344 55.5188 12.9899C56.825 14.0453 57.4633 14.7953 58.3524 14.296" stroke="white" stroke-width="0.210671" stroke-linecap="round" stroke-linejoin="round"/>
<path d="M53.2099 13.2511C53.2099 13.2511 53.9051 12.5938 53.0434 11.7616C52.1818 10.9295 49.6264 12.7328 47.7093 12.6506C45.7922 12.5685 47.3722 11.2602 47.3722 11.2602" stroke="white" stroke-width="0.210671" stroke-linecap="round" stroke-linejoin="round"/>
<path d="M54.0188 11.8227C54.0188 11.8227 54.4065 10.5166 52.7127 10.1837" stroke="white" stroke-width="0.210671" stroke-linecap="round" stroke-linejoin="round"/>
</g>
<path d="M43.222 44.8917C43.4469 44.7081 43.709 44.5754 43.9901 44.5027C44.2712 44.4299 44.5647 44.4189 44.8505 44.4704C44.9762 44.4798 45.0981 44.5174 45.2074 44.5803C45.3166 44.6431 45.4104 44.7297 45.4818 44.8336C45.5531 44.9375 45.6003 45.0561 45.6197 45.1806C45.6392 45.3052 45.6304 45.4325 45.5941 45.5532C45.5941 45.5532 47.3617 47.0532 48.731 49.9773C50.1004 52.9014 51.0168 58.1239 51.0168 58.1239L29.5157 57.0706C29.5157 57.0706 32.8612 51.7301 33.5627 50.7294C34.2643 49.7287 35.6694 48.4879 35.6694 48.4879C35.7427 48.2918 35.866 48.1185 36.0272 47.985C36.1884 47.8516 36.3817 47.7627 36.588 47.7273C37.338 47.5609 37.9278 47.6431 38.0922 47.8938C38.1369 47.9864 38.1602 48.0879 38.1602 48.1908C38.1602 48.2937 38.1369 48.3952 38.0922 48.4879C38.0922 48.4879 38.149 52.598 38.5367 52.6633C38.9243 52.7287 43.2114 52.3115 43.2114 52.3115C43.2114 52.3115 43.7002 50.0763 43.8119 49.6529L43.519 46.2252C43.519 46.2252 42.571 45.2414 43.222 44.8917Z" fill="#263238"/>
<path d="M43.0977 45.2119C43.0977 45.2119 42.5057 44.2997 42.6447 44.0806C42.7838 43.8615 44.0899 43.4718 44.4376 43.5582C44.7852 43.6445 45.1496 45.0813 44.7936 45.2119C44.4376 45.3425 43.0977 45.2119 43.0977 45.2119Z" stroke="#263238" stroke-width="0.210671" stroke-linecap="round" stroke-linejoin="round"/>
<path d="M37.871 48.096C37.871 48.096 38.3534 47.3481 38.2396 47.1712C38.1259 46.9942 37.0578 46.6719 36.7649 46.7498C36.4721 46.8278 36.1814 47.9949 36.4742 48.1023C36.767 48.2098 37.871 48.096 37.871 48.096Z" stroke="#263238" stroke-width="0.210671" stroke-linecap="round" stroke-linejoin="round"/>
<path opacity="0.4" d="M44.4333 49.2526C44.4333 49.2526 44.9326 47.4577 45.7943 47.4387" stroke="white" stroke-width="0.210671" stroke-linecap="round" stroke-linejoin="round"/>
<path opacity="0.4" d="M45.7943 48.6964C45.7943 48.6964 47.7177 49.1451 48.3223 50.7273" stroke="white" stroke-width="0.210671" stroke-linecap="round" stroke-linejoin="round"/>
<path opacity="0.4" d="M33.8471 51.2876C33.8471 51.2876 35.3766 49.6971 36.9882 49.9752" stroke="white" stroke-width="0.210671" stroke-linecap="round" stroke-linejoin="round"/>
<path opacity="0.4" d="M36.4826 48.096C36.4826 48.096 37.4138 47.7526 37.774 48.6964" stroke="white" stroke-width="0.210671" stroke-linecap="round" stroke-linejoin="round"/>
<path opacity="0.4" d="M43.7761 45.53C43.7761 45.53 44.3575 44.7232 45.1138 45.2709" stroke="white" stroke-width="0.210671" stroke-linecap="round" stroke-linejoin="round"/>
<path d="M75.7664 74.7332L74.081 77.2718C74.1297 77.4075 74.186 77.5404 74.2496 77.6699C74.475 78.1418 74.9342 78.9024 75.6716 79.2479C76.6976 79.7303 76.9546 80.3138 77.5508 80.1285C77.6008 80.1147 77.6495 80.0964 77.6961 80.0737C78.3998 79.7408 77.8668 79.1846 78.0964 78.7401C78.326 78.2956 79.3436 78.1671 79.7144 77.8132C80.0851 77.4593 79.866 76.9705 80.0599 76.5155C80.2537 76.0604 79.7565 75.6391 79.4932 75.5316C79.2298 75.4242 79.2614 74.5752 78.6989 74.6889C78.1364 74.8027 78.0437 74.2971 77.9237 74.1749C77.8036 74.0527 76.0508 74.5836 75.7664 74.7332Z" fill="white"/>
<mask id="mask7_317_7030" style="mask-type:luminance" maskUnits="userSpaceOnUse" x="74" y="74" width="7" height="7">
<path d="M75.7664 74.7332L74.081 77.2718C74.1297 77.4075 74.186 77.5404 74.2496 77.6699C74.475 78.1418 74.9342 78.9024 75.6716 79.2479C76.6976 79.7303 76.9546 80.3138 77.5508 80.1285C77.6008 80.1147 77.6495 80.0964 77.6961 80.0737C78.3998 79.7408 77.8668 79.1846 78.0964 78.7401C78.326 78.2956 79.3436 78.1671 79.7144 77.8132C80.0851 77.4593 79.866 76.9705 80.0599 76.5155C80.2537 76.0604 79.7565 75.6391 79.4932 75.5316C79.2298 75.4242 79.2614 74.5752 78.6989 74.6889C78.1364 74.8027 78.0437 74.2971 77.9237 74.1749C77.8036 74.0527 76.0508 74.5836 75.7664 74.7332Z" fill="white"/>
</mask>
<g mask="url(#mask7_317_7030)">
<path opacity="0.4" d="M74.2474 77.6699C74.4729 78.1418 74.9321 78.9023 75.6695 79.2478C76.6954 79.7303 76.9525 80.3138 77.5486 80.1285C77.0451 79.8082 76.6322 79.3553 76.5079 79.0182C76.3331 78.559 75.1997 77.9501 74.2474 77.6699Z" fill="#E166CB"/>
</g>
<path d="M75.7664 74.7332L74.081 77.2718C74.1297 77.4075 74.186 77.5404 74.2496 77.6699C74.475 78.1418 74.9342 78.9024 75.6716 79.2479C76.6976 79.7303 76.9546 80.3138 77.5508 80.1285C77.6008 80.1147 77.6495 80.0964 77.6961 80.0737C78.3998 79.7408 77.8668 79.1846 78.0964 78.7401C78.326 78.2956 79.3436 78.1671 79.7144 77.8132C80.0851 77.4593 79.866 76.9705 80.0599 76.5155C80.2537 76.0604 79.7565 75.6391 79.4932 75.5316C79.2298 75.4242 79.2614 74.5752 78.6989 74.6889C78.1364 74.8027 78.0437 74.2971 77.9237 74.1749C77.8036 74.0527 76.0508 74.5836 75.7664 74.7332Z" stroke="#263238" stroke-width="0.210671" stroke-linecap="round" stroke-linejoin="round"/>
<path d="M76.3837 75.0366L71.85 72.8245C70.7166 72.2705 68.3339 71.1876 67.1394 70.5935C66.7935 70.4085 66.4137 70.2953 66.0229 70.2607C65.5594 70.2312 65.2518 70.3576 64.9105 70.3154C64.3565 70.2459 60.2421 70.1153 60.2421 70.1153L59.53 72.7234L58.0869 78.0218L59.6037 77.514L65.4288 75.5611C65.4288 75.5611 67.6724 76.5513 69.8908 76.526C71.6499 76.5049 73.8303 77.4551 74.6604 77.8511C74.8711 77.9544 75.0017 78.0197 75.0017 78.0197" fill="white"/>
<mask id="mask8_317_7030" style="mask-type:luminance" maskUnits="userSpaceOnUse" x="58" y="70" width="19" height="9">
<path d="M76.3837 75.0366L71.85 72.8245C70.7166 72.2705 68.3339 71.1876 67.1394 70.5935C66.7935 70.4085 66.4137 70.2953 66.0229 70.2607C65.5594 70.2312 65.2518 70.3576 64.9105 70.3154C64.3565 70.2459 60.2421 70.1153 60.2421 70.1153L59.53 72.7234L58.0869 78.0218L59.6037 77.514L65.4288 75.5611C65.4288 75.5611 67.6724 76.5513 69.8908 76.526C71.6499 76.5049 73.8303 77.4551 74.6604 77.8511C74.8711 77.9544 75.0017 78.0197 75.0017 78.0197" fill="white"/>
</mask>
<g mask="url(#mask8_317_7030)">
<path opacity="0.4" d="M60.2442 70.1153L59.53 72.7234L59.6037 77.514L65.4288 75.5611C65.4288 75.5611 67.6724 76.5513 69.8908 76.526C71.6499 76.5049 73.8303 77.455 74.6604 77.8511C73.2952 76.8125 70.8809 75.9277 69.9076 75.8982C68.3845 75.8539 66.6275 74.3561 66.6275 74.3561C65.8901 75.1671 64.5671 75.1229 64.5671 75.1229C66.4042 73.0288 66.3262 71.2676 66.0229 70.2606C65.5594 70.2311 65.2518 70.3575 64.9105 70.3154C64.3586 70.2459 60.2442 70.1153 60.2442 70.1153Z" fill="#E166CB"/>
</g>
<path d="M76.3837 75.0366L71.85 72.8245C70.7166 72.2705 68.3339 71.1876 67.1394 70.5935C66.7935 70.4085 66.4137 70.2953 66.0229 70.2607C65.5594 70.2312 65.2518 70.3576 64.9105 70.3154C64.3565 70.2459 60.2421 70.1153 60.2421 70.1153L59.53 72.7234L58.0869 78.0218L59.6037 77.514L65.4288 75.5611C65.4288 75.5611 67.6724 76.5513 69.8908 76.526C71.6499 76.5049 73.8303 77.4551 74.6604 77.8511C74.8711 77.9544 75.0017 78.0197 75.0017 78.0197" stroke="#263238" stroke-width="0.210671" stroke-linecap="round" stroke-linejoin="round"/>
<path d="M7.70502 54.3171V57.3655C7.58975 57.4519 7.46945 57.5314 7.34478 57.6036C6.89605 57.8711 6.08075 58.2503 5.28652 58.1303C4.16575 57.9638 3.62854 58.3072 3.23459 57.8248C3.20125 57.785 3.17096 57.7427 3.144 57.6984C2.74162 57.0306 3.49371 56.8557 3.54849 56.3648C3.60326 55.874 2.82589 55.1977 2.70581 54.6984C2.58572 54.1991 3.04077 53.9189 3.12715 53.4344C3.21352 52.9499 3.86449 52.8719 4.14258 52.9288C4.42067 52.9857 4.86518 52.261 5.26967 52.6697C5.67416 53.0784 6.0323 52.7055 6.19873 52.6697C6.36516 52.6339 7.54281 54.0348 7.70502 54.3171Z" fill="white"/>
<mask id="mask9_317_7030" style="mask-type:luminance" maskUnits="userSpaceOnUse" x="2" y="52" width="6" height="7">
<path d="M7.70502 54.3171V57.3655C7.58975 57.4519 7.46945 57.5314 7.34478 57.6036C6.89605 57.8711 6.08075 58.2503 5.28652 58.1303C4.16575 57.9638 3.62854 58.3072 3.23459 57.8248C3.20125 57.785 3.17096 57.7427 3.144 57.6984C2.74162 57.0306 3.49371 56.8557 3.54849 56.3648C3.60326 55.874 2.82589 55.1977 2.70581 54.6984C2.58572 54.1991 3.04077 53.9189 3.12715 53.4344C3.21352 52.9499 3.86449 52.8719 4.14258 52.9288C4.42067 52.9857 4.86518 52.261 5.26967 52.6697C5.67416 53.0784 6.0323 52.7055 6.19873 52.6697C6.36516 52.6339 7.54281 54.0348 7.70502 54.3171Z" fill="white"/>
</mask>
<g mask="url(#mask9_317_7030)">
<path opacity="0.4" d="M7.33635 57.6036C6.88762 57.8711 6.07233 58.2503 5.2781 58.1302C4.15733 57.9638 3.62012 58.3072 3.22617 57.8248C3.82236 57.8353 4.41646 57.6878 4.70086 57.4751C5.11167 57.1822 6.38833 57.3086 7.33635 57.6036Z" fill="#E166CB"/>
</g>
<path d="M7.70502 54.3171V57.3655C7.58975 57.4519 7.46945 57.5314 7.34478 57.6036C6.89605 57.8711 6.08075 58.2503 5.28652 58.1303C4.16575 57.9638 3.62854 58.3072 3.23459 57.8248C3.20125 57.785 3.17096 57.7427 3.144 57.6984C2.74162 57.0306 3.49371 56.8557 3.54849 56.3648C3.60326 55.874 2.82589 55.1977 2.70581 54.6984C2.58572 54.1991 3.04077 53.9189 3.12715 53.4344C3.21352 52.9499 3.86449 52.8719 4.14258 52.9288C4.42067 52.9857 4.86518 52.261 5.26967 52.6697C5.67416 53.0784 6.0323 52.7055 6.19873 52.6697C6.36516 52.6339 7.54281 54.0348 7.70502 54.3171Z" stroke="#263238" stroke-width="0.210671" stroke-linecap="round" stroke-linejoin="round"/>
<path d="M7.01192 54.2265L12.0132 54.8922C13.2625 55.0587 15.8475 55.4758 17.1705 55.6422C17.561 55.6789 17.9401 55.7942 18.2849 55.9814C18.6873 56.2131 18.8748 56.4891 19.1803 56.6429C19.6817 56.8915 23.183 59.0593 23.183 59.0593L22.3298 61.6253L20.6002 66.8372L19.6185 65.5732L15.8496 60.7278C15.8496 60.7278 13.4332 60.3065 11.5982 59.0614C10.1446 58.0712 7.80615 57.6562 6.89184 57.5256C6.65378 57.4919 6.51474 57.4771 6.51474 57.4771" fill="white"/>
<mask id="mask10_317_7030" style="mask-type:luminance" maskUnits="userSpaceOnUse" x="6" y="54" width="18" height="13">
<path d="M7.01192 54.2265L12.0132 54.8922C13.2625 55.0587 15.8475 55.4758 17.1705 55.6422C17.561 55.6789 17.9401 55.7942 18.2849 55.9814C18.6873 56.2131 18.8748 56.4891 19.1803 56.6429C19.6817 56.8915 23.183 59.0593 23.183 59.0593L22.3298 61.6253L20.6002 66.8372L19.6185 65.5732L15.8496 60.7278C15.8496 60.7278 13.4332 60.3065 11.5982 59.0614C10.1446 58.0712 7.80615 57.6562 6.89184 57.5256C6.65378 57.4919 6.51474 57.4771 6.51474 57.4771" fill="white"/>
</mask>
<g mask="url(#mask10_317_7030)">
<path opacity="0.4" d="M23.1809 59.0593L22.3277 61.6252L19.6164 65.5753L15.8475 60.7299C15.8475 60.7299 13.4311 60.3086 11.5961 59.0635C10.1425 58.0733 7.80405 57.6583 6.88974 57.5277C8.60249 57.4182 11.1032 58.0186 11.929 58.5326C13.2225 59.3374 15.5104 59.0635 15.5104 59.0635C15.6768 60.1463 16.8018 60.8416 16.8018 60.8416C16.431 58.0797 17.4717 56.6576 18.2765 55.9856C18.6789 56.2173 18.8664 56.4933 19.1718 56.6471C19.6817 56.8915 23.1809 59.0593 23.1809 59.0593Z" fill="#E166CB"/>
</g>
<path d="M7.01192 54.2265L12.0132 54.8922C13.2625 55.0587 15.8475 55.4758 17.1705 55.6422C17.561 55.6789 17.9401 55.7942 18.2849 55.9814C18.6873 56.2131 18.8748 56.4891 19.1803 56.6429C19.6817 56.8915 23.183 59.0593 23.183 59.0593L22.3298 61.6253L20.6002 66.8372L19.6185 65.5732L15.8496 60.7278C15.8496 60.7278 13.4332 60.3065 11.5982 59.0614C10.1446 58.0712 7.80615 57.6562 6.89184 57.5256C6.65378 57.4919 6.51474 57.4771 6.51474 57.4771" stroke="#263238" stroke-width="0.210671" stroke-linecap="round" stroke-linejoin="round"/>
<path d="M26.6506 59.5164L24.9926 72.1567L24.9126 72.774C24.9126 72.774 20.7666 69.4727 18.1711 65.2067C18.03 64.9728 17.9036 64.7453 17.794 64.5199C15.898 60.6372 18.7252 58.0712 21.2469 57.2939C23.9119 56.4723 22.8227 58.126 22.8227 58.126C24.7335 57.8669 26.6506 59.5164 26.6506 59.5164Z" fill="#757575"/>
<mask id="mask11_317_7030" style="mask-type:luminance" maskUnits="userSpaceOnUse" x="17" y="57" width="10" height="16">
<path d="M26.6506 59.5164L24.9926 72.1567L24.9126 72.774C24.9126 72.774 20.7666 69.4727 18.1711 65.2067C18.03 64.9728 17.9036 64.7453 17.794 64.5199C15.898 60.6372 18.7252 58.0712 21.2469 57.2939C23.9119 56.4723 22.8227 58.126 22.8227 58.126C24.7335 57.8669 26.6506 59.5164 26.6506 59.5164Z" fill="white"/>
</mask>
<g mask="url(#mask11_317_7030)">
<path opacity="0.3" d="M24.9926 72.1609L24.9126 72.7782C24.9126 72.7782 20.7666 69.477 18.1711 65.2109C18.03 64.9771 17.9036 64.7495 17.794 64.5241C17.596 63.4918 17.4907 62.5543 17.6571 62.2067C18.1016 61.2608 19.4899 60.8437 19.4899 60.8437C19.4899 60.8437 20.0229 66.871 21.3228 68.6617C22.2251 69.856 23.2582 70.9456 24.4028 71.9102L24.9926 72.1609Z" fill="black" fill-opacity="0.7"/>
</g>
<path d="M26.6506 59.5164L24.9926 72.1567L24.9126 72.774C24.9126 72.774 20.7666 69.4727 18.1711 65.2067C18.03 64.9728 17.9036 64.7453 17.794 64.5199C15.898 60.6372 18.7252 58.0712 21.2469 57.2939C23.9119 56.4723 22.8227 58.126 22.8227 58.126C24.7335 57.8669 26.6506 59.5164 26.6506 59.5164Z" stroke="#263238" stroke-width="0.210671" stroke-linecap="round" stroke-linejoin="round"/>
<path d="M63.9267 75.934C63.1632 76.5803 62.2809 77.0712 61.3292 77.3792C57.9837 78.5063 49.7739 79.4016 49.7739 79.4016L50.2437 78.5L55.7948 67.8316C55.7948 67.8316 62.4605 68.4194 63.7793 69.7003C63.7793 69.7003 63.6128 67.7326 65.1086 70.5872C66.1514 72.578 65.5299 74.5436 63.9267 75.934Z" fill="#757575"/>
<mask id="mask12_317_7030" style="mask-type:luminance" maskUnits="userSpaceOnUse" x="49" y="67" width="17" height="13">
<path d="M63.9267 75.934C63.1632 76.5803 62.2809 77.0712 61.3292 77.3792C57.9837 78.5063 49.7739 79.4016 49.7739 79.4016L50.2437 78.5L55.7948 67.8316C55.7948 67.8316 62.4605 68.4194 63.7793 69.7003C63.7793 69.7003 63.6128 67.7326 65.1086 70.5872C66.1514 72.578 65.5299 74.5436 63.9267 75.934Z" fill="white"/>
</mask>
<g mask="url(#mask12_317_7030)">
<path opacity="0.3" d="M63.9267 75.934C63.1632 76.5803 62.2809 77.0712 61.3292 77.3792C57.9837 78.5063 49.7739 79.4016 49.7739 79.4016L50.2437 78.5C53.1193 78.0344 57.3011 77.1264 58.3334 76.2331C59.8081 74.9691 59.3868 76.3659 59.3868 76.3659C59.3868 76.3659 61.997 74.3118 62.6079 72.755C63.2189 71.1981 63.7329 70.9832 63.9204 72.0092C64.0452 72.6949 64.0186 73.3995 63.8424 74.0739C63.6663 74.7482 63.3449 75.3758 62.9008 75.9129C62.3741 76.5449 63.0524 76.4249 63.9267 75.934Z" fill="black" fill-opacity="0.7"/>
</g>
<path d="M63.9267 75.934C63.1632 76.5803 62.2809 77.0712 61.3292 77.3792C57.9837 78.5063 49.7739 79.4016 49.7739 79.4016L50.2437 78.5L55.7948 67.8316C55.7948 67.8316 62.4605 68.4194 63.7793 69.7003C63.7793 69.7003 63.6128 67.7326 65.1086 70.5872C66.1514 72.578 65.5299 74.5436 63.9267 75.934Z" stroke="#263238" stroke-width="0.210671" stroke-linecap="round" stroke-linejoin="round"/>
<path d="M21.6388 67.8316C19.7427 63.6624 25.5804 58.7938 25.5804 58.7938L27.9294 58.4062C28.1696 54.4751 36.3288 51.018 39.0591 50.7483C43.4032 50.327 52.0617 56.1626 54.1642 59.192C56.2667 62.2215 55.4409 65.9335 55.4409 65.9335C55.4409 65.9335 60.5686 70.0563 60.8804 72.774C61.1922 75.4916 52.2429 81.6495 42.3414 78.776C32.4399 75.9024 26.0165 77.4087 21.6388 67.8316Z" fill="#757575"/>
<mask id="mask13_317_7030" style="mask-type:luminance" maskUnits="userSpaceOnUse" x="21" y="50" width="40" height="30">
<path d="M21.6388 67.8316C19.7427 63.6624 25.5804 58.7938 25.5804 58.7938L27.9294 58.4062C28.1696 54.4751 36.3288 51.018 39.0591 50.7483C43.4032 50.327 52.0617 56.1626 54.1642 59.192C56.2667 62.2215 55.4409 65.9335 55.4409 65.9335C55.4409 65.9335 60.5686 70.0563 60.8804 72.774C61.1922 75.4916 52.2429 81.6495 42.3414 78.776C32.4399 75.9024 26.0165 77.4087 21.6388 67.8316Z" fill="white"/>
</mask>
<g mask="url(#mask13_317_7030)">
<path opacity="0.3" d="M41.8758 55.4611C36.4299 54.393 30.8914 58.2925 30.8914 58.2925C30.0256 58.2735 28.4371 58.3936 27.5417 58.4694L27.921 58.4062C28.0052 57.0221 29.0712 55.697 30.5354 54.551C33.449 53.3839 37.2221 52.3221 37.5212 52.5306C37.9426 52.8193 34.8436 54.3951 34.0136 54.8101C38.0163 52.8846 40.8941 54.0411 41.8758 54.6416C42.8575 55.242 41.8758 55.4611 41.8758 55.4611Z" fill="black" fill-opacity="0.7"/>
<path opacity="0.3" d="M55.4346 65.9314C54.8573 65.4637 54.0357 64.8549 53.3447 64.5747C53.3447 64.5747 52.6284 61.5326 46.6264 58.2925C46.6264 58.2925 45.9417 57.4709 46.0492 57.0853C46.3041 56.1647 51.2043 58.7328 51.3349 58.8002C51.2591 58.7243 49.6306 57.0832 50.8019 57.0116C51.6446 56.961 53.7513 59.0635 55.0743 60.9954C55.6081 62.5841 55.732 64.282 55.4346 65.9314Z" fill="black" fill-opacity="0.7"/>
<path opacity="0.3" d="M38.2523 59.0593C38.2523 59.0593 44.0689 59.9315 48.7121 62.2531C48.7121 62.2531 45.217 58.8297 42.5247 58.1534C39.8323 57.4772 37.4686 57.5467 37.3211 58.1218C37.1736 58.6969 38.2523 59.0593 38.2523 59.0593Z" fill="black" fill-opacity="0.7"/>
<path opacity="0.3" d="M47.6313 78.8118C48.9164 78.8118 56.0202 77.6447 58.0364 76.4396C54.6656 78.7444 48.6994 80.6278 42.3414 78.7802C33.7587 76.288 27.7798 77.0948 23.4885 71.0886C24.0215 71.5942 24.3986 71.9039 24.3986 71.9039L29.5158 74.1054C29.5158 74.1054 26.5348 68.6111 32.1491 69.2115C37.7635 69.8119 42.8323 77.1854 42.8323 77.1854C42.8323 77.1854 45.3224 76.9979 44.939 77.5162C44.5555 78.0344 43.5254 78.2114 43.5254 78.2114C43.5254 78.2114 46.2725 78.8118 47.6313 78.8118Z" fill="black" fill-opacity="0.7"/>
<path opacity="0.3" d="M58.8243 75.8582C58.6726 75.9804 58.5146 76.1005 58.3481 76.2205C58.497 76.0873 58.6562 75.9661 58.8243 75.8582Z" fill="black" fill-opacity="0.7"/>
</g>
<path d="M21.6388 67.8316C19.7427 63.6624 25.5804 58.7938 25.5804 58.7938L27.9294 58.4062C28.1696 54.4751 36.3289 51.018 39.0591 50.7483C43.4032 50.327 52.0617 56.1626 54.1642 59.192C56.2667 62.2215 55.4409 65.9335 55.4409 65.9335C55.4409 65.9335 60.5686 70.0563 60.8804 72.774C61.1922 75.4916 52.2429 81.6495 42.3414 78.776C32.4399 75.9024 26.0165 77.4087 21.6388 67.8316Z" stroke="#263238" stroke-width="0.210671" stroke-linecap="round" stroke-linejoin="round"/>
<path d="M39.6406 78.0723C39.6406 78.0723 43.6749 78.7275 45.3877 77.1854" stroke="#263238" stroke-width="0.210671" stroke-linecap="round" stroke-linejoin="round"/>
<path d="M55.4325 65.9377C55.4325 65.9377 53.7682 64.3092 50.7682 63.7256" stroke="#263238" stroke-width="0.210671" stroke-linecap="round" stroke-linejoin="round"/>
<path d="M46.3863 54.9091C48.0111 55.8631 49.5605 56.9399 51.021 58.1303" stroke="#263238" stroke-width="0.210671" stroke-linecap="round" stroke-linejoin="round"/>
<path d="M32.8928 55.44C36.7776 53.0678 41.8337 51.5931 45.6489 54.4899" stroke="#263238" stroke-width="0.210671" stroke-linecap="round" stroke-linejoin="round"/>
<path d="M31.0895 56.5165C31.4392 56.3058 31.7889 56.0952 32.1428 55.8845" stroke="#263238" stroke-width="0.210671" stroke-linecap="round" stroke-linejoin="round"/>
<path d="M48.3265 59.2742C50.6587 60.7236 53.1425 62.5817 54.3475 65.1266" stroke="#263238" stroke-width="0.210671" stroke-linecap="round" stroke-linejoin="round"/>
<path d="M45.7943 57.8711C46.4263 58.1703 47.0309 58.5031 47.6313 58.855" stroke="#263238" stroke-width="0.210671" stroke-linecap="round" stroke-linejoin="round"/>
<path d="M53.9915 60.2686C53.9915 60.2686 55.4304 62.942 55.4325 65.9377" stroke="#263238" stroke-width="0.210671" stroke-linecap="round" stroke-linejoin="round"/>
<path d="M33.4742 58.5895C34.0465 58.7058 34.6097 58.8628 35.1596 59.0593" stroke="#263238" stroke-width="0.210671" stroke-linecap="round" stroke-linejoin="round"/>
<path d="M25.5804 58.7939C27.8469 58.2494 30.1939 58.1252 32.5052 58.4273" stroke="#263238" stroke-width="0.210671" stroke-linecap="round" stroke-linejoin="round"/>
<path d="M36.8028 55.5959C34.6763 56.1088 32.669 57.028 30.8914 58.303" stroke="#263238" stroke-width="0.210671" stroke-linecap="round" stroke-linejoin="round"/>
<path d="M42.6448 55.6843C41.0795 55.124 39.2551 55.1598 37.6413 55.4231" stroke="#263238" stroke-width="0.210671" stroke-linecap="round" stroke-linejoin="round"/>
<path d="M63.2273 73.3997C61.7779 75.8435 59.3931 77.5541 56.7133 78.4284" stroke="#263238" stroke-width="0.210671" stroke-linecap="round" stroke-linejoin="round"/>
<path d="M64.1648 71.2614C64.0253 71.7787 63.8303 72.2795 63.5833 72.755" stroke="#263238" stroke-width="0.210671" stroke-linecap="round" stroke-linejoin="round"/>
<path d="M57.7583 68.057C57.7583 68.057 60.8235 68.5879 61.8242 70.3744" stroke="#263238" stroke-width="0.210671" stroke-linecap="round" stroke-linejoin="round"/>
<path d="M22.8185 58.1239C22.8185 58.1239 20.5981 57.928 19.8207 59.4764" stroke="#263238" stroke-width="0.210671" stroke-linecap="round" stroke-linejoin="round"/>
<path d="M19.9871 63.22C19.8354 66.5655 21.3607 69.6307 23.9604 71.7101" stroke="#263238" stroke-width="0.210671" stroke-linecap="round" stroke-linejoin="round"/>
<path d="M20.3748 60.8626C20.2104 61.3968 20.0989 61.9457 20.0419 62.5017" stroke="#263238" stroke-width="0.210671" stroke-linecap="round" stroke-linejoin="round"/>
<path d="M46.0471 70.4187C43.9404 67.6041 40.1483 66.7614 36.7776 66.8373" stroke="#263238" stroke-width="0.210671" stroke-linecap="round" stroke-linejoin="round"/>
<path d="M47.4333 72.7782C47.2001 72.1582 46.8886 71.5706 46.5063 71.0296" stroke="#263238" stroke-width="0.210671" stroke-linecap="round" stroke-linejoin="round"/>
<path d="M39.9377 77.6784C38.6019 77.6159 37.2754 77.4232 35.977 77.1032C35.6133 77.0176 35.2671 76.927 34.9384 76.8315C27.0446 74.5562 28.9259 70.0163 31.3423 68.6575C35.3661 66.397 41.1237 68.5479 44.1595 71.413C47.3512 74.4235 45.8364 77.8869 39.9377 77.6784Z" fill="white" stroke="#263238" stroke-width="0.210671" stroke-linecap="round" stroke-linejoin="round"/>
<path d="M39.9376 77.6784C38.6019 77.6159 37.2754 77.4233 35.977 77.1033C35.6133 77.0176 35.2671 76.927 34.9384 76.8315C35.5379 75.8627 36.224 74.9503 36.9882 74.1054C37.142 74.2276 40.2578 75.5569 39.9376 77.6784Z" fill="#263238"/>
<path d="M39.6532 75.677C39.6532 77.3392 37.1252 80.7605 32.9497 80.7331C30.6323 80.7205 28.3528 77.0063 28.1527 71.9123C27.9947 67.9096 26.0923 63.3212 31.0199 59.9715C35.9812 56.6008 42.6447 59.2384 42.6447 66.6076C42.6447 68.9987 42.4046 71.1813 41.8273 73.0857" fill="white"/>
<path d="M39.6532 75.677C39.6532 77.3392 37.1252 80.7605 32.9497 80.7331C30.6323 80.7205 28.3528 77.0063 28.1527 71.9123C27.9947 67.9096 26.0923 63.3212 31.0199 59.9715C35.9812 56.6008 42.6447 59.2384 42.6447 66.6076C42.6447 68.9987 42.4046 71.1813 41.8273 73.0857" stroke="#263238" stroke-width="0.210671" stroke-linecap="round" stroke-linejoin="round"/>
<path d="M32.7306 68.9734C32.7306 68.9734 34.9195 68.3098 36.3562 69.635" stroke="#263238" stroke-width="0.210671" stroke-linecap="round" stroke-linejoin="round"/>
<path d="M29.8571 68.807C29.8571 68.807 28.9322 67.9643 27.7883 68.3667" stroke="#263238" stroke-width="0.210671" stroke-linecap="round" stroke-linejoin="round"/>
<path d="M34.5445 71.7143C34.5445 72.1061 34.3528 72.4221 34.1231 72.42C33.8935 72.4179 33.7018 72.0998 33.7144 71.708C33.7271 71.3161 33.9061 71.0001 34.1358 71.0022C34.3654 71.0043 34.5466 71.3224 34.5445 71.7143Z" fill="#263238"/>
<path d="M29.6506 71.2655C29.6506 71.6553 29.4589 71.9713 29.2292 71.9692C28.9996 71.9671 28.8184 71.649 28.8226 71.2571C28.8269 70.8653 29.0144 70.5493 29.244 70.5514C29.4736 70.5535 29.6527 70.8737 29.6506 71.2655Z" fill="#263238"/>
<path d="M30.2679 69.635C30.3154 70.4172 30.3154 71.2017 30.2679 71.984C30.1225 73.3449 29.482 74.3013 29.7222 74.6005C30.0361 75.0029 31.5593 75.1398 31.5593 75.1398" stroke="#263238" stroke-width="0.210671" stroke-linecap="round" stroke-linejoin="round"/>
<path d="M30.6133 76.1658C30.6133 76.1658 33.3816 76.7051 35.5114 75.8835C35.5114 75.8835 35.9981 76.5513 34.6688 77.2444C33.3394 77.9375 31.2812 77.9628 31.1527 76.4017" stroke="#263238" stroke-width="0.210671" stroke-linecap="round" stroke-linejoin="round"/>
<path d="M36.3562 66.5802C36.3562 66.5802 37.3148 69.2873 38.4777 70.2733L38.899 71.7101C38.899 71.7101 39.7881 70.2059 40.814 70.958C41.84 71.7101 41.4945 74.1054 41.4945 74.1054C41.4945 74.1054 44.6546 72.6012 44.7135 70.8905C44.7406 69.8995 44.97 68.9245 45.3877 68.0254C45.3877 68.0254 44.703 68.3014 44.4291 68.8091C44.4291 68.8091 45.9354 65.5564 44.9769 64.7347C44.0183 63.9131 36.3562 66.5802 36.3562 66.5802Z" fill="#E166CB"/>
<mask id="mask14_317_7030" style="mask-type:luminance" maskUnits="userSpaceOnUse" x="36" y="64" width="10" height="11">
<path d="M36.3562 66.5802C36.3562 66.5802 37.3148 69.2873 38.4777 70.2733L38.899 71.7101C38.899 71.7101 39.7881 70.2059 40.814 70.958C41.84 71.7101 41.4945 74.1054 41.4945 74.1054C41.4945 74.1054 44.6546 72.6012 44.7135 70.8905C44.7406 69.8995 44.97 68.9245 45.3877 68.0254C45.3877 68.0254 44.703 68.3014 44.4291 68.8091C44.4291 68.8091 45.9354 65.5564 44.9769 64.7347C44.0183 63.9131 36.3562 66.5802 36.3562 66.5802Z" fill="white"/>
</mask>
<g mask="url(#mask14_317_7030)">
<path opacity="0.3" d="M36.3562 66.5802C36.3562 66.5802 37.3148 69.2873 38.4777 70.2733L38.899 71.7101C38.899 71.7101 39.7881 70.2059 40.814 70.958C41.84 71.7101 41.4945 74.1054 41.4945 74.1054C41.4945 74.1054 44.6546 72.6012 44.7135 70.8905C44.7406 69.8995 44.97 68.9245 45.3877 68.0254C45.3877 68.0254 44.703 68.3014 44.4291 68.8091C44.4291 68.8091 45.9354 65.5564 44.9769 64.7347C44.0183 63.9131 36.3562 66.5802 36.3562 66.5802Z" fill="black" fill-opacity="0.7"/>
</g>
<path d="M36.3562 66.5802C36.3562 66.5802 37.3148 69.2873 38.4777 70.2733L38.899 71.7101C38.899 71.7101 39.7881 70.2059 40.814 70.958C41.84 71.7101 41.4945 74.1054 41.4945 74.1054C41.4945 74.1054 44.6546 72.6012 44.7135 70.8905C44.7406 69.8995 44.97 68.9245 45.3877 68.0254C45.3877 68.0254 44.703 68.3014 44.4291 68.8091C44.4291 68.8091 45.9354 65.5564 44.9769 64.7347C44.0183 63.9131 36.3562 66.5802 36.3562 66.5802Z" stroke="#263238" stroke-width="0.210671" stroke-linecap="round" stroke-linejoin="round"/>
<path d="M44.6356 66.6477L41.2017 67.8337C39.3543 68.2402 37.4374 68.2091 35.6041 67.7432C32.6547 66.9342 31.022 65.4637 30.685 65.1393L30.6197 65.074C30.8303 65.8956 31.5656 66.9215 31.5656 66.9215C29.4357 66.7109 28.3592 64.6042 28.3592 64.6042C27.6071 65.5627 27.7272 67.6842 27.7272 67.6842C26.4821 64.6273 27.6661 63.0305 27.6661 63.0305C27.1794 60.5024 28.0874 59.5417 28.0874 59.5417L28.8311 60.02C30.1899 57.0095 34.1379 57.0937 34.1379 57.0937L33.5606 57.7616C36.845 56.2574 43.6855 57.7616 43.6855 57.7616L44.0289 60.6351L45.1222 60.2938C45.1538 60.3739 45.1833 60.4582 45.2086 60.5424C45.5137 61.586 45.6913 62.6626 45.7374 63.7488C45.7374 63.7699 45.7374 63.7825 45.7374 63.7825L46.1335 63.5108L46.8308 63.0305C46.8308 63.0305 46.8898 65.0761 44.6356 66.6477Z" fill="#E166CB"/>
<mask id="mask15_317_7030" style="mask-type:luminance" maskUnits="userSpaceOnUse" x="27" y="57" width="20" height="12">
<path d="M44.6356 66.6477L41.2017 67.8337C39.3543 68.2402 37.4374 68.2091 35.6041 67.7432C32.6547 66.9342 31.022 65.4637 30.685 65.1393L30.6197 65.074C30.8303 65.8956 31.5656 66.9215 31.5656 66.9215C29.4357 66.7109 28.3592 64.6042 28.3592 64.6042C27.6071 65.5627 27.7272 67.6842 27.7272 67.6842C26.4821 64.6273 27.6661 63.0305 27.6661 63.0305C27.1794 60.5024 28.0874 59.5417 28.0874 59.5417L28.8311 60.02C30.1899 57.0095 34.1379 57.0937 34.1379 57.0937L33.5606 57.7616C36.845 56.2574 43.6855 57.7616 43.6855 57.7616L44.0289 60.6351L45.1222 60.2938C45.1538 60.3739 45.1833 60.4582 45.2086 60.5424C45.5137 61.586 45.6913 62.6626 45.7374 63.7488C45.7374 63.7699 45.7374 63.7825 45.7374 63.7825L46.1335 63.5108L46.8308 63.0305C46.8308 63.0305 46.8898 65.0761 44.6356 66.6477Z" fill="white"/>
</mask>
<g mask="url(#mask15_317_7030)">
<path opacity="0.3" d="M37.5212 64.5747C43.42 65.2678 45.1517 60.6688 45.2002 60.534C45.5053 61.5775 45.6829 62.6542 45.729 63.7404C41.6967 66.0156 37.5212 64.5747 37.5212 64.5747Z" fill="black" fill-opacity="0.7"/>
<path opacity="0.3" d="M44.6356 66.6476L41.2017 67.8337C39.3543 68.2401 37.4374 68.2091 35.6042 67.7431C32.6548 66.9342 31.0221 65.4637 30.685 65.1392C30.5602 64.9637 30.4509 64.7776 30.3585 64.5831C30.4448 64.7369 31.7742 66.9489 37.5213 67.7136C43.4811 68.5058 46.8245 63.022 46.8245 63.022C46.8245 63.022 46.8898 65.076 44.6356 66.6476Z" fill="black" fill-opacity="0.7"/>
<path opacity="0.3" d="M31.5593 60.2686C31.5593 60.2686 32.2187 58.659 34.93 57.8711C34.93 57.8711 32.482 57.9765 31.3149 59.6976C31.3149 59.6976 31.2643 58.9287 31.5529 58.5284C31.5529 58.5284 29.8339 58.4399 29.5094 60.869C29.5094 60.869 28.5509 61.0501 28.1717 60.5319C28.1717 60.5319 27.7503 61.8676 29.225 62.2531C29.225 62.2531 28.2749 63.456 29.659 65.1435C29.659 65.1435 29.4778 63.6161 30.0804 62.6028C30.0804 62.6028 30.2047 64.3155 33.0866 64.9518C33.0866 64.9518 30.586 63.6625 31.0789 61.5073C31.0789 61.5073 31.8753 63.555 35.3998 63.4307C35.3998 63.4307 32.1807 62.4869 31.751 60.8374C32.5475 60.4782 33.4349 60.3716 34.2938 60.5319C34.2938 60.5319 32.7432 59.9483 31.5593 60.2686Z" fill="black" fill-opacity="0.7"/>
</g>
<path d="M44.6356 66.6477L41.2017 67.8337C39.3543 68.2402 37.4374 68.2091 35.6041 67.7432C32.6547 66.9342 31.022 65.4637 30.685 65.1393L30.6197 65.074C30.8303 65.8956 31.5656 66.9215 31.5656 66.9215C29.4357 66.7109 28.3592 64.6042 28.3592 64.6042C27.6071 65.5627 27.7272 67.6842 27.7272 67.6842C26.4821 64.6273 27.6661 63.0305 27.6661 63.0305C27.1794 60.5024 28.0874 59.5417 28.0874 59.5417L28.8311 60.02C30.1899 57.0095 34.1379 57.0937 34.1379 57.0937L33.5606 57.7616C36.845 56.2574 43.6855 57.7616 43.6855 57.7616L44.0289 60.6351L45.1222 60.2938C45.1538 60.3739 45.1833 60.4582 45.2086 60.5424C45.5137 61.586 45.6913 62.6626 45.7374 63.7488C45.7374 63.7699 45.7374 63.7825 45.7374 63.7825L46.1335 63.5108L46.8308 63.0305C46.8308 63.0305 46.8898 65.0761 44.6356 66.6477Z" stroke="#263238" stroke-width="0.210671" stroke-linecap="round" stroke-linejoin="round"/>
<path d="M39.6406 71.2613C39.6406 71.2613 40.7361 68.925 41.899 69.635C43.0619 70.3449 42.9123 71.6953 42.6448 72.3863C42.3772 73.0773 41.1469 76.2943 40.0514 74.4467" fill="white"/>
<path d="M39.6406 71.2613C39.6406 71.2613 40.7361 68.925 41.899 69.635C43.0619 70.3449 42.9123 71.6953 42.6448 72.3863C42.3772 73.0773 41.1469 76.2943 40.0514 74.4467" stroke="#263238" stroke-width="0.210671" stroke-linecap="round" stroke-linejoin="round"/>
<path d="M29.6696 62.2531C29.0755 62.5965 28.8269 64.4104 30.0909 65.6702" stroke="#263238" stroke-width="0.210671" stroke-linecap="round" stroke-linejoin="round"/>
<path d="M30.6133 61.9771C30.6133 64.3745 34.8078 66.4349 39.6406 66.0178C44.4734 65.6006 44.9326 64.4104 44.9326 64.4104" stroke="#263238" stroke-width="0.210671" stroke-linecap="round" stroke-linejoin="round"/>
<path d="M32.0986 61.56C33.5985 63.9616 41.8863 64.5599 43.222 60.2686" stroke="#263238" stroke-width="0.210671" stroke-linecap="round" stroke-linejoin="round"/>
<path d="M30.6133 60.8374C30.0256 60.652 30.4027 58.9203 31.8479 58.1302" stroke="#263238" stroke-width="0.210671" stroke-linecap="round" stroke-linejoin="round"/>
<path d="M28.2096 59.9757C27.9989 60.5445 28.4497 62.0171 29.5874 61.7264" stroke="#263238" stroke-width="0.210671" stroke-linecap="round" stroke-linejoin="round"/>
<path opacity="0.3" d="M46.1271 63.5023L46.8245 63.022C46.5927 63.1969 46.361 63.357 46.1271 63.5023Z" fill="black" fill-opacity="0.7"/>
</svg>
