<svg width="100" height="84" viewBox="0 0 100 84" fill="none" xmlns="http://www.w3.org/2000/svg">
<path d="M99.1287 63.4536C101.283 45.8742 90.8538 22.5095 80.0403 12.8618C60.5215 -4.57057 44.304 -1.18761 31.6928 5.04989C19.0816 11.2874 17.2785 32.119 8.56774 41.5488C-0.142973 50.9786 -5.09484 63.6416 8.11831 76.2582C21.3315 88.8749 31.9924 82.4658 45.8076 81.665C59.6227 80.8642 77.9484 87.1643 87.8494 81.6868C94.7706 77.8625 98.1781 71.2137 99.1287 63.4536Z" fill="#FF9B29"/>
<path opacity="0.7" d="M99.1287 63.4536C101.283 45.8742 90.8538 22.5095 80.0403 12.8618C60.5215 -4.57057 44.304 -1.18761 31.6928 5.04989C19.0816 11.2874 17.2785 32.119 8.56774 41.5488C-0.142973 50.9786 -5.09484 63.6416 8.11831 76.2582C21.3315 88.8749 31.9924 82.4658 45.8076 81.665C59.6227 80.8642 77.9484 87.1643 87.8494 81.6868C94.7706 77.8625 98.1781 71.2137 99.1287 63.4536Z" fill="white"/>
<path d="M46.9869 83.9012C59.5209 83.9012 69.6817 83.3329 69.6817 82.6319C69.6817 81.9309 59.5209 81.3626 46.9869 81.3626C34.453 81.3626 24.2922 81.9309 24.2922 82.6319C24.2922 83.3329 34.453 83.9012 46.9869 83.9012Z" fill="#263238"/>
<path d="M37.5463 30.5992C37.5463 30.5992 35.6151 30.5992 34.58 30.8715C33.545 31.1439 24.7226 34.181 24.502 34.181C24.2814 34.181 22.1568 33.3638 21.8817 33.3638C21.6066 33.3638 20.2964 34.0529 20.4326 34.6712C20.5688 35.2896 21.9498 36.2592 22.3638 36.5343C22.7778 36.8094 25.0522 35.7172 25.0522 35.7172C25.0522 35.7172 31.878 35.2351 33.4633 34.9C35.0485 34.565 36.9797 34.3553 36.9797 34.3553L37.5463 30.5992Z" fill="white" stroke="#263238" stroke-width="0.27238" stroke-linecap="round" stroke-linejoin="round"/>
<path d="M24.0063 36.4036L19.2423 30.5964L18.0929 26.6605C18.0756 26.6073 18.0423 26.5607 17.9976 26.5271C17.9803 26.2231 17.9402 25.9208 17.8777 25.6228C17.4921 24.0221 16.8153 22.5061 15.8812 21.1503C13.7266 17.8817 10.9565 16.0595 9.57828 16.972C8.20004 17.8844 8.80472 21.1503 10.9592 24.4079C11.8425 25.7971 12.9735 27.0121 14.2959 27.9925C14.4621 28.1069 14.6255 28.2076 14.7862 28.3003L18.6921 31.2311L23.3689 36.9293C23.4077 36.9761 23.4564 37.0138 23.5115 37.0397C23.5666 37.0656 23.6267 37.0791 23.6876 37.0791C23.7864 37.081 23.8828 37.0483 23.9599 36.9865C24.0433 36.9152 24.0949 36.8139 24.1036 36.7046C24.1123 36.5953 24.0773 36.4871 24.0063 36.4036ZM16.9952 27.5703L17.3629 27.4967C17.3277 27.6248 17.2755 27.7475 17.2076 27.8617L16.9952 27.5703ZM9.42575 19.3662C9.40668 19.2273 9.39579 19.0938 9.39034 18.9631L9.62459 18.9168L9.92148 19.3226L9.46116 19.4152L9.42575 19.3662ZM9.48295 19.7312C9.46388 19.6277 9.44754 19.5296 9.43392 19.4316C9.45571 19.5296 9.45571 19.6277 9.48295 19.7339V19.7312ZM15.5679 25.62L15.271 25.2142L15.7313 25.1189L16.0282 25.5247L15.5679 25.62ZM16.1617 25.7099L16.4586 26.1158L15.9983 26.2084L15.7014 25.8025L16.1617 25.7099ZM15.1348 25.029L14.8407 24.6367L15.301 24.5441L15.5979 24.95L15.1348 25.029ZM12.2857 20.3985L12.5826 20.8044L12.1223 20.897L11.8227 20.4911L12.2857 20.3985ZM11.6892 20.3086L11.3951 19.9028L11.8554 19.8102L12.1495 20.216L11.6892 20.3086ZM14.2768 23.8496L13.9772 23.4437L14.4375 23.3484L14.7372 23.7542L14.2768 23.8496ZM14.8706 23.9395L15.1675 24.3453L14.7045 24.4379L14.4103 24.0321L14.8706 23.9395ZM13.8465 23.2748L13.5469 22.869L14.0072 22.7764L14.3068 23.1822L13.8465 23.2748ZM13.4134 22.6838L13.1165 22.2779L13.5768 22.1853L13.8737 22.5912L13.4134 22.6838ZM12.9967 22.0845L12.6998 21.6787L13.1601 21.5861L13.457 21.9919L12.9967 22.0845ZM12.5663 21.4962L12.2667 21.0904L12.7324 20.9977L13.0266 21.4036L12.5663 21.4962ZM12.3429 21.5398L11.8826 21.6351L11.583 21.2293L12.0433 21.1339L12.3429 21.5398ZM12.4764 21.725L12.7733 22.1308L12.313 22.2207L12.0161 21.8149L12.4764 21.725ZM12.9068 22.3133L13.2037 22.7165L12.7433 22.8118L12.4464 22.406L12.9068 22.3133ZM13.3371 22.9017L13.6367 23.3075L13.1764 23.4029L12.8768 22.997L13.3371 22.9017ZM13.7675 23.4928L14.0671 23.8986L13.6041 23.9885L13.3072 23.5826L13.7675 23.4928ZM14.2006 24.0811L14.4947 24.4842L14.0344 24.5795L13.7402 24.1737L14.2006 24.0811ZM14.6309 24.6694L14.9251 25.0753L14.4648 25.1706L14.1706 24.7648L14.6309 24.6694ZM15.1076 23.8986L15.5679 23.8033L15.8648 24.2091L15.4045 24.3044L15.1076 23.8986ZM14.9741 23.7134L14.6745 23.3075L15.1376 23.2149L15.4345 23.6208L14.9741 23.7134ZM14.5438 23.1223L14.2442 22.7165L14.7045 22.6266L15.0041 23.0324L14.5438 23.1223ZM14.0862 22.5367L13.8138 22.1308L14.2768 22.0355L14.5737 22.4414L14.0862 22.5367ZM13.6558 21.9456L13.3589 21.5398L13.822 21.4472L14.1161 21.853L13.6558 21.9456ZM13.2363 21.3682L12.9395 20.9651L13.4025 20.8697L13.6967 21.2756L13.2363 21.3682ZM12.806 20.7798L12.5091 20.374L12.9694 20.2787L13.2663 20.6845L12.806 20.7798ZM12.3729 20.1888L12.0787 19.7829L12.5391 19.693L12.8359 20.0962L12.3729 20.1888ZM11.9425 19.6004L11.6484 19.1891L12.1087 19.0938L12.4029 19.4997L11.9425 19.6004ZM11.7192 19.6467L11.2589 19.7394L10.9647 19.3335L11.425 19.2409L11.7192 19.6467ZM10.8176 19.1374L10.5452 18.7343L11.0083 18.6389L11.3024 19.0448L10.8176 19.1374ZM11.0246 19.772L10.5643 19.8674L10.2729 19.4615L10.7332 19.3662L11.0246 19.772ZM11.1608 19.9573L11.455 20.3631L10.9947 20.453L10.6978 20.0471L11.1608 19.9573ZM11.5884 20.5456L11.8881 20.9514L11.4277 21.0441L11.1281 20.6382L11.5884 20.5456ZM11.6348 21.6787L11.1744 21.7713L10.8748 21.3655L11.3351 21.2729L11.6348 21.6787ZM11.7682 21.8639L12.0651 22.267L11.6048 22.3596L11.3079 21.9565L11.7682 21.8639ZM12.1986 22.4495L12.4955 22.8554L12.0324 22.9507L11.7383 22.5449L12.1986 22.4495ZM12.6289 23.0406L12.9286 23.4464L12.4628 23.5391L12.1795 23.1332L12.6289 23.0406ZM13.0593 23.6317L13.3562 24.0348L12.8959 24.1274L12.599 23.7215L13.0593 23.6317ZM13.4924 24.2173L13.7866 24.6231L13.3262 24.7185L13.0293 24.3126L13.4924 24.2173ZM13.9227 24.8083L14.2169 25.2142L13.7566 25.3068L13.4733 24.9091L13.9227 24.8083ZM14.3586 25.3994L14.6554 25.8025L14.1924 25.8951L13.8982 25.4893L14.3586 25.3994ZM14.5819 25.3504L15.0422 25.2578L15.3391 25.6636L14.8788 25.7562L14.5819 25.3504ZM15.4726 25.8488L15.7695 26.252L15.3092 26.3473L15.0123 25.9414L15.4726 25.8488ZM15.9057 26.4372L16.1998 26.843L15.7395 26.9356L15.4481 26.5434L15.9057 26.4372ZM16.336 27.0255L16.6302 27.4314L16.1699 27.524L15.8757 27.1181L16.336 27.0255ZM16.5594 26.9819L17.0197 26.8866L17.3139 27.2925L16.8536 27.3878L16.5594 26.9819ZM16.4232 26.7967L16.129 26.3909L16.5893 26.301L16.8835 26.7068L16.4232 26.7967ZM16.3796 25.6663L16.8427 25.571L17.1396 25.9769L16.6765 26.0722L16.3796 25.6663ZM16.2461 25.4811L15.9492 25.0753L16.4096 24.9827L16.7092 25.3885L16.2461 25.4811ZM15.8158 24.8901L15.5189 24.4842L15.9792 24.3943L16.2788 24.8002L15.8158 24.8901ZM15.7722 23.7597L16.2325 23.6671L16.5294 24.0729L16.0691 24.1655L15.7722 23.7597ZM15.6387 23.5745L15.3391 23.1713L15.8022 23.076L16.0991 23.4819L15.6387 23.5745ZM15.2084 22.9861L14.9088 22.5803L15.3718 22.4877L15.6687 22.8935L15.2084 22.9861ZM14.7753 22.3978L14.4811 21.9919L14.9414 21.8993L15.2383 22.3052L14.7753 22.3978ZM14.3586 21.8067L14.0644 21.4036L14.5247 21.3083L14.8189 21.7141L14.3586 21.8067ZM14.3177 20.6736L14.778 20.5837L15.0722 20.9896L14.6119 21.0795L14.3177 20.6736ZM14.3885 21.1258L13.9282 21.2184L13.6258 20.8234L14.0862 20.7308L14.3885 21.1258ZM13.4978 20.63L13.2009 20.2242L13.6613 20.1316L13.95 20.551L13.4978 20.63ZM13.0647 20.039L12.7706 19.6358L13.2309 19.5405L13.5278 19.9464L13.0647 20.039ZM12.6262 19.4615L12.332 19.0557L12.7924 18.9631L13.0865 19.3662L12.6262 19.4615ZM12.1959 18.8705L11.9071 18.4564L12.3675 18.3638L12.6616 18.7697L12.1959 18.8705ZM11.9725 18.914L11.5122 19.0094L11.2153 18.6035L11.6783 18.5082L11.9725 18.914ZM11.09 18.4101L10.7931 18.0043L11.2534 17.9144L11.5503 18.3203L11.09 18.4101ZM10.8666 18.4564L10.4063 18.549L10.1094 18.1432L10.5697 18.0506L10.8666 18.4564ZM10.6133 19.1837L10.153 19.2763L9.85611 18.8705L10.3164 18.7779L10.6133 19.1837ZM10.0686 19.5051L10.3627 19.9109L9.90241 20.0036L9.60552 19.5977L10.0686 19.5051ZM10.4962 20.0962L10.7931 20.4993L10.3328 20.5946L10.0359 20.1888L10.4962 20.0962ZM10.9266 20.6818L11.2262 21.0876L10.7631 21.183L10.4662 20.7771L10.9266 20.6818ZM10.9729 21.8149L10.5125 21.9102L10.2129 21.5044L10.6732 21.4118L10.9729 21.8149ZM10.2892 21.9538H10.2402L10.1585 21.7659L10.2892 21.9538ZM10.4227 22.139L10.7168 22.5449L10.5398 22.5803C10.4662 22.4386 10.3954 22.3079 10.33 22.1581L10.4227 22.139ZM10.6433 22.0954L11.1063 22.0001L11.4032 22.406L10.9402 22.5013L10.6433 22.0954ZM11.5367 22.5884L11.8309 22.9943L11.3705 23.0869L11.0764 22.6811L11.5367 22.5884ZM11.9671 23.1795L12.2639 23.5826L11.8009 23.678L11.4958 23.2748L11.9671 23.1795ZM12.3974 23.7679L12.6943 24.1737L12.234 24.2636L11.9371 23.8632L12.3974 23.7679ZM12.8305 24.3562L13.1247 24.762L12.6643 24.8547L12.3675 24.4488L12.8305 24.3562ZM12.8714 25.4893L12.52 25.5601C12.411 25.4321 12.3048 25.2877 12.1986 25.1597L12.5772 25.0834L12.8714 25.4893ZM12.8005 25.0399L13.2609 24.9473L13.555 25.3504L13.0947 25.4457L12.8005 25.0399ZM13.6912 25.5356L13.9881 25.9414L13.5251 26.0313L13.2309 25.6282L13.6912 25.5356ZM14.1216 26.1239L14.4185 26.5298L13.9582 26.6224L13.6613 26.2166L14.1216 26.1239ZM14.3449 26.0804L14.8053 25.985L15.1021 26.3909L14.6418 26.4835L14.3449 26.0804ZM15.2383 26.5761L15.5325 26.9819L15.0722 27.0745L14.7753 26.6687L15.2383 26.5761ZM15.6687 27.1672L15.9629 27.5676L15.5025 27.6629L15.2084 27.257L15.6687 27.1672ZM15.5298 28.0469C15.4426 28.0088 15.3555 27.968 15.2574 27.9216L15.4072 27.8917L15.5298 28.0469ZM15.6387 27.8481L16.0991 27.7528L16.4722 28.2676C16.5505 28.2648 16.6282 28.2529 16.7037 28.2322L16.3224 27.7092L16.7827 27.6166L17.0824 28.0252C17.0485 28.0623 17.0111 28.096 16.9707 28.1259C16.8035 28.2128 16.6195 28.2621 16.4313 28.2706C16.2432 28.279 16.0554 28.2464 15.8812 28.175L15.6387 27.8481ZM17.4501 27.1045L17.2594 26.8321L17.4664 26.7913C17.4573 26.9057 17.4482 27.0101 17.4392 27.1045H17.4501ZM17.4038 27.3769C17.4038 27.3769 17.4038 27.3932 17.4038 27.4014V27.3769ZM17.4637 26.5788L17.1232 26.6442L16.81 26.252L17.2703 26.1621L17.4255 26.3718C17.4392 26.4453 17.4473 26.5216 17.4528 26.5924L17.4637 26.5788ZM17.3493 25.7208C17.3629 25.7889 17.3711 25.8516 17.382 25.9169L17.0824 25.5111L17.2921 25.4675C17.2975 25.5683 17.322 25.6527 17.3384 25.7263L17.3493 25.7208ZM17.2403 25.2687L16.9489 25.3286L16.6493 24.9255L17.1096 24.8301C17.145 24.9908 17.1913 25.1379 17.2294 25.2823L17.2403 25.2687ZM16.5158 24.7403L16.2189 24.3344L16.6792 24.2418L16.9788 24.6476L16.5158 24.7403ZM16.8045 24.0048H16.7691L16.4722 23.6017L16.622 23.569C16.7473 23.8414 16.8563 24.1138 16.9543 24.3862C16.8971 24.2745 16.8481 24.1492 16.7936 24.0184L16.8045 24.0048ZM16.3388 23.4247L16.0419 23.0188L16.3142 22.9616C16.3887 23.1032 16.4595 23.2449 16.5267 23.3865L16.3388 23.4247ZM16.2216 22.7709L15.9084 22.8336L15.6115 22.4277L15.9901 22.3515C16.0609 22.504 16.1372 22.6456 16.2107 22.7846L16.2216 22.7709ZM15.6524 21.7876C15.7323 21.9129 15.8085 22.0382 15.8812 22.1635C15.9084 22.2098 15.9356 22.2534 15.9601 22.2997L15.8812 22.1635L15.478 22.2452L15.1757 21.8557L15.6224 21.7631L15.6524 21.7876ZM15.4317 21.4417C15.3909 21.3818 15.3255 21.2865 15.2737 21.2102C15.3146 21.3001 15.3691 21.3682 15.4208 21.4553L15.4317 21.4417ZM15.5053 21.5616L15.0449 21.6569L14.7508 21.2511L15.2111 21.1585L15.5053 21.5616ZM14.334 20.0063L14.3558 20.0308C14.4158 20.0989 14.473 20.1724 14.5329 20.246C14.473 20.1752 14.4158 20.1016 14.3586 20.0308L14.6309 20.4121L14.1706 20.5047L13.8737 20.1016L14.3313 20.0063L14.255 19.9164L14.334 20.0063ZM13.8274 19.4343C13.9391 19.5541 14.0508 19.6767 14.1624 19.8074L14.1815 19.8265L13.743 19.9164L13.4461 19.5106L13.8274 19.4343ZM13.2827 18.8732C13.4025 18.9849 13.5251 19.1047 13.6476 19.23L13.6749 19.2572L13.3235 19.3253L13.0157 18.9168L13.2663 18.8677L13.2827 18.8732ZM12.6453 18.3284L13.062 18.6771H13.0784L12.8795 18.7179L12.5854 18.3148L12.6453 18.3284ZM11.8908 17.8055C11.9262 17.8272 11.9616 17.8463 11.9997 17.8735C12.0923 17.9307 12.185 17.9934 12.2721 18.0588C12.1768 17.9934 12.0842 17.9307 11.9997 17.8763L12.2394 18.2004L11.7791 18.293L11.4822 17.8899L11.8908 17.8082C11.7982 17.7537 11.711 17.7019 11.6184 17.6584C11.6947 17.6829 11.7846 17.7319 11.8772 17.7864L11.8908 17.8055ZM11.346 17.7047L11.1635 17.4568C11.3146 17.5118 11.462 17.5764 11.6048 17.6502L11.346 17.7047ZM10.8176 17.337L11.1063 17.7292L10.6433 17.8218L10.2729 17.3016C10.325 17.2918 10.3778 17.2863 10.4308 17.2852C10.5613 17.288 10.691 17.3053 10.8176 17.337ZM9.87518 17.4323C9.92779 17.398 9.98454 17.3706 10.0441 17.3506L10.4227 17.8681L9.95961 17.9607L9.68723 17.6012C9.74239 17.535 9.80766 17.478 9.88062 17.4323H9.87518ZM9.57283 17.7809L9.73626 18.0043L9.46388 18.0588C9.49316 17.9628 9.53147 17.8697 9.57828 17.7809H9.57283ZM9.41213 18.2848L9.86973 18.195L10.1666 18.6008L9.7063 18.6934L9.41213 18.2903C9.4108 18.3039 9.4108 18.3176 9.41213 18.3311C9.41485 18.3121 9.41758 18.2985 9.41758 18.2848H9.41213ZM9.38217 18.5926L9.48567 18.7343L9.37944 18.7561C9.38489 18.7016 9.38489 18.6444 9.38761 18.5926H9.38217ZM9.49384 19.8183L9.66272 20.0471L9.55104 20.0717C9.56739 20.137 9.581 20.1969 9.59735 20.265C9.56194 20.1098 9.52925 19.9627 9.49929 19.8183H9.49384ZM9.79618 20.2324L10.0931 20.6382L9.73081 20.709C9.68179 20.5619 9.63548 20.4121 9.60007 20.2705L9.79618 20.2324ZM9.79618 20.9079L10.2265 20.8234L10.5262 21.2293L10.0631 21.3192L9.83159 21.0032C9.82615 20.9732 9.81253 20.9405 9.80163 20.9079H9.79618ZM10.0468 21.5643V21.5289C10.0501 21.5404 10.052 21.5523 10.0522 21.5643H10.0468ZM10.5262 22.5857C10.5262 22.613 10.5561 22.6402 10.5697 22.6702L10.5262 22.5857ZM10.6242 22.7709L10.8367 22.7301L11.1308 23.1332L10.8585 23.1904C10.7768 23.0488 10.7032 22.9099 10.6297 22.7709H10.6242ZM10.9647 23.3784L11.267 23.3157L11.5612 23.7215L11.218 23.7924C11.1363 23.6535 11.0519 23.5173 10.9701 23.3784H10.9647ZM11.4141 24.1029L11.2861 23.9013L11.3351 23.9776L11.6974 23.9068L11.9943 24.3126L11.613 24.3889C11.5503 24.2935 11.4849 24.2009 11.4196 24.092L11.4141 24.1029ZM11.7383 24.5741L12.1278 24.4978L12.4247 24.8982L12.0406 24.9799C11.9425 24.8465 11.8445 24.713 11.7437 24.5741H11.7383ZM12.6589 25.7399L12.9912 25.6745L13.2854 26.0804L13.013 26.1348C12.8986 25.9986 12.7815 25.8734 12.6643 25.7399H12.6589ZM13.5768 26.6959C13.4434 26.5734 13.3044 26.4453 13.1819 26.3119L13.4216 26.2601L13.7185 26.666L13.5768 26.6959ZM13.7648 26.8703L13.8519 26.8512L14.0317 27.0991L13.7648 26.8703ZM14.0862 26.8158L14.5492 26.7232L14.8434 27.1263L14.3831 27.2216L14.0862 26.8158ZM14.9959 27.7718L14.8951 27.6983C14.869 27.6803 14.8393 27.6682 14.808 27.6629L14.6364 27.5594L14.7018 27.603L14.6228 27.5539L14.5765 27.5185L14.6228 27.5512L14.5138 27.4014L14.9741 27.3088L15.2683 27.7146L14.9959 27.7691V27.7718ZM16.4232 28.8314C16.7413 28.8433 17.0544 28.7496 17.3136 28.5648C17.5728 28.38 17.7635 28.1146 17.8559 27.81L18.4769 29.9291C18.3885 29.9339 18.3037 29.9663 18.2345 30.0217C18.1978 30.0537 18.1665 30.0914 18.1419 30.1334L16.4069 28.8314H16.4232Z" fill="#263238"/>
<path d="M20.8603 34.3226C20.8603 34.3226 21.8272 34.1837 22.2412 34.3907C22.6553 34.5977 23.8265 35.6327 23.4806 35.8398C23.1347 36.0468 22.7915 36.597 22.3774 36.5289C21.9634 36.4608 20.9311 35.5619 20.5852 35.1506" fill="white"/>
<path d="M20.8603 34.3226C20.8603 34.3226 21.8272 34.1837 22.2412 34.3907C22.6553 34.5977 23.8265 35.6327 23.4806 35.8398C23.1347 36.0468 22.7915 36.597 22.3774 36.5289C21.9634 36.4608 20.9311 35.5619 20.5852 35.1506" stroke="#263238" stroke-width="0.27238" stroke-linecap="round" stroke-linejoin="round"/>
<path d="M23.1374 34.1156C22.6254 34.2991 22.0915 34.4144 21.5494 34.4588C20.9311 34.4588 20.3101 35.0035 20.5852 35.1506C20.8603 35.2977 21.8953 35.1506 21.8953 35.1506C21.8953 35.1506 23.0665 36.1148 24.1016 35.2187" fill="white"/>
<path d="M23.1374 34.1156C22.6254 34.2991 22.0915 34.4144 21.5494 34.4588C20.9311 34.4588 20.3101 35.0035 20.5852 35.1506C20.8603 35.2977 21.8953 35.1506 21.8953 35.1506C21.8953 35.1506 23.0665 36.1148 24.1016 35.2187" stroke="#263238" stroke-width="0.27238" stroke-linecap="round" stroke-linejoin="round"/>
<path d="M63.7056 33.0479C63.7056 33.0479 66.4567 35.2269 66.7236 35.6491C67.5081 36.8802 66.3831 40.8543 65.9746 42.6601C65.6041 44.2944 64.9613 46.4272 65.0539 46.5661C65.1465 46.705 66.6337 47.8217 66.7263 48.4237C66.8189 49.0257 66.9116 49.7257 66.7263 49.8646C66.5411 50.0035 66.454 49.4942 66.3995 49.2136C66.3427 48.9848 66.2508 48.7661 66.1271 48.5653C66.1271 48.5653 65.9419 49.9109 65.9419 50.0961C65.9419 50.2813 65.5224 50.8397 65.3835 50.8397C65.2446 50.8397 65.2909 50.1915 65.2909 50.0498C65.2909 49.9082 65.2446 48.7969 65.2446 48.7969C65.2446 48.7969 64.9722 50.2841 64.8714 50.4693C64.7706 50.6545 64.3621 51.3981 64.1306 51.074C63.899 50.7498 64.1769 50.3767 64.2232 50.0498C64.2695 49.723 64.343 48.7533 64.343 48.7533C64.343 48.7533 63.8582 49.7774 63.7656 50.009C63.673 50.2405 63.1691 50.7934 63.0138 50.6545C62.8585 50.5156 63.0329 50.0879 63.2426 49.6167C63.31 49.2899 63.3284 48.9548 63.2971 48.6225C63.2971 48.6225 62.7823 47.356 62.5044 47.356C62.2266 47.356 61.1099 47.9007 60.6904 48.0996C60.2709 48.2984 59.7616 48.1459 60.0421 47.9607C60.4478 47.6587 60.8352 47.3331 61.2025 46.9855C61.4631 46.7135 61.7601 46.4789 62.085 46.2882C62.3165 46.1956 63.4741 45.7925 63.4741 45.7925C63.4741 45.7925 63.4741 40.9932 63.4305 39.8764C63.4033 39.1846 63.406 38.4192 63.4142 37.9371C63.4153 37.7877 63.3813 37.6402 63.3151 37.5064C63.2489 37.3725 63.1522 37.256 63.0329 37.1662L62.2648 36.5806C62.2648 36.5806 61.1017 33.7451 63.7056 33.0479Z" fill="white" stroke="#263238" stroke-width="0.27238" stroke-linecap="round" stroke-linejoin="round"/>
<path d="M64.3376 48.7533C64.3616 48.5059 64.3432 48.2563 64.2831 48.0151" stroke="#263238" stroke-width="0.27238" stroke-linecap="round" stroke-linejoin="round"/>
<path d="M65.2391 48.7969C65.2475 48.5361 65.2411 48.2751 65.2201 48.0151" stroke="#263238" stroke-width="0.27238" stroke-linecap="round" stroke-linejoin="round"/>
<path d="M66.1108 48.5653C66.1311 48.3627 66.0872 48.1588 65.9855 47.9825" stroke="#263238" stroke-width="0.27238" stroke-linecap="round" stroke-linejoin="round"/>
<path d="M36.7836 73.0659C36.7836 73.0659 34.7407 72.5539 34.0435 73.2511C33.3462 73.9484 34.275 75.1115 34.0435 75.9477C33.8119 76.7839 33.624 78.3637 33.8555 78.9657C34.087 79.5676 34.9723 81.4743 35.6233 81.1039C36.2742 80.7334 36.4132 78.9657 36.4132 77.9906C36.4132 77.0154 36.6447 75.343 36.9225 75.1115C37.2003 74.88 37.4809 73.9021 36.7836 73.0659Z" fill="#FF9B29" stroke="#263238" stroke-width="0.27238" stroke-linecap="round" stroke-linejoin="round"/>
<path d="M46.4477 60.4302C46.4477 60.4302 45.0068 64.9817 44.9142 65.5401C44.875 65.828 44.7971 66.1092 44.6826 66.3763C44.6826 66.3763 41.5693 67.8635 40.6868 68.9312C39.8043 69.9989 38.5078 71.625 37.8513 72.0445C37.1703 72.4567 36.5589 72.9743 36.04 73.578C35.6696 74.0874 35.8902 76.4353 36.4595 76.0294C37.5272 75.2858 42.2203 71.9437 45.0531 70.4538C46.8072 69.5332 49.561 67.8526 50.2092 66.9129C50.8575 65.9732 51.8816 61.7077 52.2548 60.501C52.628 59.2944 47.2839 59.7329 46.4477 60.4302Z" fill="white" stroke="#263238" stroke-width="0.27238" stroke-linecap="round" stroke-linejoin="round"/>
<path d="M39.3549 70.5301C38.913 71.0905 38.4086 71.5986 37.8513 72.0445C37.1703 72.4567 36.5589 72.9743 36.04 73.578C35.6696 74.0874 35.8902 76.4353 36.4595 76.0294C37.0723 75.6018 38.8891 74.3107 40.8611 73.0087C39.2732 73.0823 39.2595 71.3881 39.3549 70.5301Z" fill="#263238" stroke="#263238" stroke-width="0.27238" stroke-linecap="round" stroke-linejoin="round"/>
<path d="M43.3807 47.3287C43.128 48.6152 42.9867 49.9211 42.9585 51.2319C42.9585 53.0896 45.9764 57.9679 46.1617 58.1994C46.3469 58.4309 45.8893 60.4765 45.8893 60.4765C45.8893 60.4765 46.1617 61.2201 48.0683 61.4979C49.975 61.7758 52.5272 61.3127 52.5272 61.3127C52.5272 61.3127 54.5727 57.2706 55.5016 54.7157C56.4304 52.1607 56.7545 46.863 56.7545 46.863C55.0819 47.4408 53.3215 47.7237 51.5521 47.6992C48.4387 47.6992 43.841 47.0945 43.841 47.0945C43.841 47.0945 43.427 47.0019 43.3807 47.3287Z" fill="#263238" stroke="#263238" stroke-width="0.27238" stroke-linecap="round" stroke-linejoin="round"/>
<path d="M46.1644 27.1535C46.1644 27.1535 42.716 26.4617 41.0599 27.2216C39.4039 27.9816 39.1315 28.3112 38.7175 28.875C38.2025 29.4629 37.6493 30.0161 37.0614 30.5311C36.8547 31.3486 36.6937 32.177 36.5793 33.0124C36.578 33.6717 36.6951 34.3258 36.9252 34.9436L40.7167 36.597C40.7167 36.597 43.337 42.6656 43.4732 43.9049C43.6094 45.1443 43.8192 45.4221 43.4051 45.6972C42.9911 45.9723 42.509 46.8711 42.7841 47.3533C43.0592 47.8354 45.9573 48.0424 47.4718 48.2494C48.9862 48.4564 53.9544 48.5926 55.1938 48.3175C56.4331 48.0424 57.1249 47.4213 57.1249 46.7322C57.0826 46.1051 56.9916 45.4822 56.8525 44.8691C56.7817 44.387 56.3704 36.1829 56.3704 36.1829C56.3704 36.1829 59.7588 37.4577 60.4561 37.8717C61.1005 38.2173 61.7686 38.5168 62.4554 38.7678C62.4554 38.7678 62.1122 36.5616 62.8013 35.0471C63.4904 33.5327 63.9726 33.2521 63.9726 33.2521C63.9726 33.2521 58.9608 29.0357 58.6148 28.9676C58.2689 28.8995 55.2046 27.4287 53.6194 27.1535C52.0341 26.8784 46.1644 27.1535 46.1644 27.1535Z" fill="#FF9B29" stroke="#263238" stroke-width="0.27238" stroke-linecap="round" stroke-linejoin="round"/>
<path d="M40.7167 36.597C40.2546 34.9476 39.8908 33.2722 39.6272 31.5797" stroke="#263238" stroke-width="0.27238" stroke-linecap="round" stroke-linejoin="round"/>
<path d="M38.6004 31.2529C38.6004 31.2529 39.7171 34.9708 40.6459 36.1775" stroke="#263238" stroke-width="0.27238" stroke-linecap="round" stroke-linejoin="round"/>
<path d="M56.3677 36.1829C54.953 35.0575 53.9348 33.5096 53.4614 31.7649" stroke="#263238" stroke-width="0.27238" stroke-linecap="round" stroke-linejoin="round"/>
<path d="M56.2043 36.0767C56.2043 36.0767 54.7171 35.9841 53.1373 34.1265" stroke="#263238" stroke-width="0.27238" stroke-linecap="round" stroke-linejoin="round"/>
<path d="M41.5693 38.7324C41.5693 38.7324 45.4725 45.1442 47.8885 46.6777" stroke="#263238" stroke-width="0.27238" stroke-linecap="round" stroke-linejoin="round"/>
<path d="M43.1954 42.6819C43.1954 42.6819 44.9605 45.7026 45.843 46.3999" stroke="#263238" stroke-width="0.27238" stroke-linecap="round" stroke-linejoin="round"/>
<path d="M45.704 26.7368C45.3333 26.7621 44.9732 26.8714 44.6509 27.0564C44.3286 27.2414 44.0526 27.4972 43.8437 27.8045C43.2117 28.8341 42.9339 33.7806 42.9748 33.9794C43.0156 34.1782 45.2682 32.3451 47.0605 32.3969C48.8527 32.4486 50.6613 35.009 50.6613 35.009C51.4303 33.4817 51.7072 31.7537 51.454 30.0626C51.0481 27.1318 48.0383 26.064 45.704 26.7368Z" fill="#263238" stroke="#263238" stroke-width="0.27238" stroke-linecap="round" stroke-linejoin="round"/>
<path d="M50.3127 20.4421C50.5858 20.4927 50.8679 20.4528 51.1162 20.3284C51.3644 20.2041 51.5653 20.002 51.6882 19.753C52.1703 18.8568 51.8271 18.3747 51.2061 18.3747H50.1166C50.1166 18.3747 50.3536 16.991 49.2532 16.991C48.1527 16.991 46.0581 18.1078 46.0581 18.1078C46.0581 18.1078 42.6507 18.5817 42.5717 20.9678C42.46 24.3099 44.5355 24.9881 44.5355 24.9881C44.5355 24.9881 45.0803 25.6091 45.5706 25.127C45.8596 24.8389 46.0722 24.4831 46.1889 24.092C46.1889 24.092 47.1531 23.8196 47.1531 23.1278C47.1531 22.4359 46.0636 21.8203 46.5348 21.4063C47.006 20.9923 50.3127 20.4421 50.3127 20.4421Z" fill="#263238" stroke="#263238" stroke-width="0.27238" stroke-linecap="round" stroke-linejoin="round"/>
<path d="M47.4936 18.5817C47.4936 18.5817 47.3356 17.7864 47.8912 17.7864C48.4469 17.7864 48.7274 18.7915 48.4088 19.5868C48.0901 20.3822 45.9029 20.5701 44.6309 21.1285C43.3588 21.6869 42.8822 23.0352 42.8822 23.0352" stroke="white" stroke-width="0.13619" stroke-linecap="round" stroke-linejoin="round"/>
<path d="M43.5958 23.7515C43.5958 23.7515 43.9145 22.8772 45.1865 22.3896" stroke="white" stroke-width="0.13619" stroke-linecap="round" stroke-linejoin="round"/>
<path d="M52.2194 56.7122C52.2194 56.7122 53.2871 59.4061 53.5187 60.8933C53.7502 62.3805 53.6603 68.0487 53.8455 70.2332C54.0307 72.4177 55.7032 77.8598 55.7032 77.8598C55.7032 77.8598 58.3044 76.5115 59.2441 76.0485C60.1838 75.5854 60.8239 75.2586 60.8239 75.9559C60.8239 76.6532 60.2791 78.4645 59.4783 78.9739C58.6775 79.4832 57.1549 80.0443 56.9697 80.4611C56.7845 80.8778 55.853 82.1335 55.202 82.2724C54.551 82.4113 53.9953 81.6241 53.7638 81.112C53.5323 80.6 53.1591 78.696 53.1591 78.696C53.1591 78.696 50.9283 73.7714 49.8606 71.6332C48.7929 69.495 48.1882 67.0817 48.1882 65.7798C48.1882 64.4778 48.9318 62.2034 48.8392 61.8766C48.7466 61.5497 46.701 58.5317 46.701 58.5317C46.701 58.5317 46.9734 57.3251 48.7929 56.813C49.911 56.5088 51.0853 56.4743 52.2194 56.7122Z" fill="white" stroke="#263238" stroke-width="0.27238" stroke-linecap="round" stroke-linejoin="round"/>
<path d="M59.2223 76.0403C58.2935 76.5034 55.6813 77.8517 55.6813 77.8517C55.6813 77.8517 54.6899 74.6267 54.1478 72.1453C53.1872 72.1788 52.2747 72.5737 51.5929 73.2512C51.3423 73.5045 51.1299 73.736 50.9446 73.9539C51.9851 76.1683 53.1237 78.6879 53.1237 78.6879C53.1237 78.6879 53.4941 80.5945 53.7284 81.1039C53.9626 81.6132 54.5183 82.4059 55.1665 82.2642C55.8148 82.1226 56.7463 80.8724 56.9343 80.4529C57.1222 80.0334 58.653 79.4778 59.4429 78.9657C60.2328 78.4536 60.7885 76.6423 60.7885 75.9477C60.7885 75.2531 60.1538 75.5718 59.2223 76.0403Z" fill="#263238" stroke="#263238" stroke-width="0.27238" stroke-linecap="round" stroke-linejoin="round"/>
<path d="M53.4532 80.1315C53.5248 80.4624 53.6213 80.7875 53.742 81.1039C53.9735 81.6159 54.5319 82.4058 55.1801 82.2642C55.8284 82.1226 56.7599 80.8724 56.9479 80.4529C57.1358 80.0334 58.6666 79.4778 59.4565 78.9657C60.2464 78.4536 60.8021 76.6423 60.8021 75.9477C60.8021 75.2531 60.1538 75.5746 59.2223 76.0403C58.2907 76.5061 55.6813 77.8517 55.6813 77.8517C54.7122 78.3514 53.9306 79.1511 53.4532 80.1315Z" fill="#FF9B29" stroke="#263238" stroke-width="0.27238" stroke-linecap="round" stroke-linejoin="round"/>
<path d="M56.9479 80.4529C57.1331 80.0362 58.6666 79.4778 59.4565 78.9657C60.2464 78.4536 60.8021 76.6423 60.8021 75.9477C60.8021 75.5964 60.6387 75.5038 60.3554 75.5582C59.2849 76.359 56.0954 78.8132 55.1339 80.314C54.6218 81.1148 54.4447 81.695 54.4938 82.0872C54.5886 82.1645 54.6991 82.2204 54.8176 82.251C54.936 82.2815 55.0598 82.2861 55.1802 82.2642C55.8312 82.1253 56.76 80.8724 56.9479 80.4529Z" fill="white" stroke="#263238" stroke-width="0.27238" stroke-linecap="round" stroke-linejoin="round"/>
<path d="M48.4905 49.7448C48.4905 49.7448 50.2555 51.4172 50.9991 52.8554C51.7427 54.2935 52.5789 57.0854 52.5789 57.0854C52.5789 57.0854 50.0703 57.2243 49.038 57.5485C48.0057 57.8726 46.5294 60.1497 46.5294 60.1497C46.5294 60.1497 44.8951 57.4095 43.9744 55.5982C43.0538 53.7869 42.7651 51.9728 42.9993 50.581C43.2336 49.1891 43.5441 49.0012 43.5441 49.0012" fill="#263238"/>
<path d="M48.4905 49.7448C48.4905 49.7448 50.2555 51.4172 50.9991 52.8554C51.7427 54.2935 52.5789 57.0854 52.5789 57.0854C52.5789 57.0854 50.0703 57.2243 49.038 57.5485C48.0057 57.8726 46.5294 60.1497 46.5294 60.1497C46.5294 60.1497 44.8951 57.4095 43.9744 55.5982C43.0538 53.7869 42.7651 51.9728 42.9993 50.581C43.2336 49.1891 43.5441 49.0012 43.5441 49.0012" stroke="#263238" stroke-width="0.27238" stroke-linecap="round" stroke-linejoin="round"/>
<path d="M48.9508 49.279C48.9508 49.279 51.552 51.458 52.2956 53.8795" stroke="white" stroke-width="0.27238" stroke-linecap="round" stroke-linejoin="round"/>
<path d="M52.3474 51.7413C52.3474 51.7413 53.3225 53.4137 53.4614 54.4351" stroke="white" stroke-width="0.27238" stroke-linecap="round" stroke-linejoin="round"/>
<path d="M44.7834 26.0504L45.5433 28.5318C45.3437 29.4376 45.3196 30.3734 45.4725 31.2883C45.7449 32.5984 46.2325 33.5626 46.8535 33.5626C47.4745 33.5626 49.9559 31.0813 50.1629 29.7711C50.2698 29.1788 50.3381 28.5801 50.3672 27.9789C49.3748 27.9841 48.3993 27.7226 47.5426 27.2216C46.1644 26.3936 44.7834 25.1516 44.7834 26.0504Z" fill="white" stroke="#263238" stroke-width="0.27238" stroke-linecap="round" stroke-linejoin="round"/>
<path d="M44.5927 24.713C44.5927 24.713 43.3997 24.1192 43.3997 24.9473C43.407 25.2552 43.4877 25.5569 43.635 25.8274C43.7824 26.0979 43.9921 26.3294 44.2468 26.5026C44.3762 26.5832 44.5307 26.6139 44.6811 26.5888C44.8315 26.5637 44.9676 26.4846 45.0639 26.3664L47.1994 28.2948C47.8858 28.9131 49.1278 29.6022 50.0212 28.9131C50.9147 28.224 50.8384 26.7096 50.8384 26.7096C50.8384 26.7096 51.3831 24.1628 51.1108 22.7137C50.9791 21.9131 50.7022 21.1432 50.2936 20.4421C50.2936 20.4421 47.469 20.0962 46.2978 20.9869C45.1266 21.8775 45.4017 22.2262 45.8838 22.6402C46.3659 23.0542 46.5729 23.3974 46.3659 23.6044C46.1324 23.793 45.8784 23.9547 45.6087 24.0865C45.6087 24.0865 45.6305 25.2632 44.5927 24.713Z" fill="white" stroke="#263238" stroke-width="0.27238" stroke-linecap="round" stroke-linejoin="round"/>
<path d="M49.6182 23.5255C49.6182 23.5255 50.1629 25.2496 50.0376 25.3749C49.9123 25.5002 48.9862 25.5846 48.9862 25.5846" stroke="#263238" stroke-width="0.27238" stroke-linecap="round" stroke-linejoin="round"/>
<path d="M49.4493 23.1033C49.4493 23.1033 49.787 22.3052 50.5851 22.3052" stroke="#263238" stroke-width="0.27238" stroke-linecap="round" stroke-linejoin="round"/>
<path d="M48.7356 23.4819C48.7356 23.4819 47.4309 23.0624 46.7581 23.6507" stroke="#263238" stroke-width="0.27238" stroke-linecap="round" stroke-linejoin="round"/>
<path d="M48.7356 26.9302H49.4493" stroke="#263238" stroke-width="0.27238" stroke-linecap="round" stroke-linejoin="round"/>
<path d="M48.1882 24.1764C48.1882 24.3317 48.1228 24.4488 48.0411 24.4488C47.9594 24.4488 47.894 24.3235 47.894 24.1764C47.894 24.0293 47.9594 23.9041 48.0411 23.9041C48.1228 23.9041 48.1882 24.0212 48.1882 24.1764Z" fill="#263238"/>
<path d="M50.1847 23.6998C50.2659 23.6998 50.3318 23.5742 50.3318 23.4192C50.3318 23.2643 50.2659 23.1387 50.1847 23.1387C50.1034 23.1387 50.0376 23.2643 50.0376 23.4192C50.0376 23.5742 50.1034 23.6998 50.1847 23.6998Z" fill="#263238"/>
<path d="M45.5433 28.5318L46.3686 30.8062" stroke="#263238" stroke-width="0.27238" stroke-linecap="round" stroke-linejoin="round"/>
<mask id="mask0_319_7730" style="mask-type:luminance" maskUnits="userSpaceOnUse" x="75" y="51" width="25" height="33">
<path d="M75.5732 51.6786V83.9366C80.2827 84.032 84.5373 83.5172 87.8494 81.6868C94.7706 77.8734 98.1781 71.2219 99.1287 63.4536C99.5632 59.5358 99.4918 55.5783 98.9162 51.6786H75.5732Z" fill="white"/>
</mask>
<g mask="url(#mask0_319_7730)">
<path d="M86.0299 59.7466V84.6939" stroke="#263238" stroke-width="0.27238" stroke-linecap="round" stroke-linejoin="round"/>
<path d="M87.6968 59.7466V84.6939" stroke="#263238" stroke-width="0.27238" stroke-linecap="round" stroke-linejoin="round"/>
<path d="M89.3665 59.7466V84.6939" stroke="#263238" stroke-width="0.27238" stroke-linecap="round" stroke-linejoin="round"/>
<path d="M91.0362 59.7466V84.6939" stroke="#263238" stroke-width="0.27238" stroke-linecap="round" stroke-linejoin="round"/>
<path d="M92.7032 59.7466V84.6939" stroke="#263238" stroke-width="0.27238" stroke-linecap="round" stroke-linejoin="round"/>
<path d="M94.3729 59.7466V84.6939" stroke="#263238" stroke-width="0.27238" stroke-linecap="round" stroke-linejoin="round"/>
<path d="M96.0426 59.7466V84.6939" stroke="#263238" stroke-width="0.27238" stroke-linecap="round" stroke-linejoin="round"/>
<path d="M97.7122 59.7466V84.6939" stroke="#263238" stroke-width="0.27238" stroke-linecap="round" stroke-linejoin="round"/>
<path d="M99.3792 59.7466V84.6939" stroke="#263238" stroke-width="0.27238" stroke-linecap="round" stroke-linejoin="round"/>
<path d="M83.6575 61.9419H102.719" stroke="#263238" stroke-width="0.27238" stroke-linecap="round" stroke-linejoin="round"/>
<path d="M83.6575 63.5244H102.719" stroke="#263238" stroke-width="0.27238" stroke-linecap="round" stroke-linejoin="round"/>
<path d="M83.6575 65.1043H102.719" stroke="#263238" stroke-width="0.27238" stroke-linecap="round" stroke-linejoin="round"/>
<path d="M83.6575 66.6868H102.719" stroke="#263238" stroke-width="0.27238" stroke-linecap="round" stroke-linejoin="round"/>
<path d="M83.6575 68.2666H102.719" stroke="#263238" stroke-width="0.27238" stroke-linecap="round" stroke-linejoin="round"/>
<path d="M83.6575 69.8491H102.719" stroke="#263238" stroke-width="0.27238" stroke-linecap="round" stroke-linejoin="round"/>
<path d="M83.6575 71.4289H102.719" stroke="#263238" stroke-width="0.27238" stroke-linecap="round" stroke-linejoin="round"/>
<path d="M83.6575 73.0115H102.719" stroke="#263238" stroke-width="0.27238" stroke-linecap="round" stroke-linejoin="round"/>
<path d="M83.6575 74.5912H102.719" stroke="#263238" stroke-width="0.27238" stroke-linecap="round" stroke-linejoin="round"/>
<path d="M83.6575 76.1738H102.719" stroke="#263238" stroke-width="0.27238" stroke-linecap="round" stroke-linejoin="round"/>
<path d="M83.6575 77.7536H102.719" stroke="#263238" stroke-width="0.27238" stroke-linecap="round" stroke-linejoin="round"/>
<path d="M83.6575 79.3361H102.719" stroke="#263238" stroke-width="0.27238" stroke-linecap="round" stroke-linejoin="round"/>
<path d="M83.6575 80.9159H102.719" stroke="#263238" stroke-width="0.27238" stroke-linecap="round" stroke-linejoin="round"/>
<path d="M83.6575 82.4985H102.719" stroke="#263238" stroke-width="0.27238" stroke-linecap="round" stroke-linejoin="round"/>
<path d="M102.806 58.2593H82.5489V60.6291H102.806V58.2593Z" fill="white" stroke="#263238" stroke-width="0.27238" stroke-miterlimit="10"/>
<path d="M81.3177 85.0643V59.3843C81.3177 58.9227 81.5011 58.48 81.8275 58.1535C82.1539 57.8271 82.5966 57.6438 83.0582 57.6438C83.5194 57.6445 83.9614 57.8282 84.2872 58.1545C84.613 58.4808 84.796 58.9231 84.796 59.3843V84.0401" fill="#263238"/>
<path d="M81.3177 85.0643V59.3843C81.3177 58.9227 81.5011 58.48 81.8275 58.1535C82.1539 57.8271 82.5966 57.6438 83.0582 57.6438C83.5194 57.6445 83.9614 57.8282 84.2872 58.1545C84.613 58.4808 84.796 58.9231 84.796 59.3843V84.0401" stroke="white" stroke-width="0.27238" stroke-miterlimit="10"/>
</g>
</svg>
