<svg width="21" height="22" viewBox="0 0 21 22" fill="none" xmlns="http://www.w3.org/2000/svg">
<path d="M16.998 12.0126C16.7328 12.0126 16.4785 12.1179 16.2909 12.3055C16.1034 12.493 15.998 12.7474 15.998 13.0126V13.3926L14.518 11.9126C13.9955 11.3941 13.2892 11.1032 12.553 11.1032C11.8169 11.1032 11.1106 11.3941 10.588 11.9126L9.88805 12.6126L7.40805 10.1326C6.87817 9.6282 6.17461 9.34688 5.44305 9.34688C4.71148 9.34688 4.00793 9.6282 3.47805 10.1326L1.99805 11.6126V6.01259C1.99805 5.74738 2.1034 5.49302 2.29094 5.30548C2.47848 5.11795 2.73283 5.01259 2.99805 5.01259H9.99805C10.2633 5.01259 10.5176 4.90723 10.7052 4.7197C10.8927 4.53216 10.998 4.27781 10.998 4.01259C10.998 3.74738 10.8927 3.49302 10.7052 3.30549C10.5176 3.11795 10.2633 3.01259 9.99805 3.01259H2.99805C2.2024 3.01259 1.43934 3.32866 0.876727 3.89127C0.314117 4.45388 -0.00195312 5.21694 -0.00195312 6.01259V18.0126C-0.00195312 18.8082 0.314117 19.5713 0.876727 20.1339C1.43934 20.6965 2.2024 21.0126 2.99805 21.0126H14.998C15.7937 21.0126 16.5568 20.6965 17.1194 20.1339C17.682 19.5713 17.998 18.8082 17.998 18.0126V13.0126C17.998 12.7474 17.8927 12.493 17.7052 12.3055C17.5176 12.1179 17.2633 12.0126 16.998 12.0126ZM2.99805 19.0126C2.73283 19.0126 2.47848 18.9072 2.29094 18.7197C2.1034 18.5322 1.99805 18.2778 1.99805 18.0126V14.4426L4.89805 11.5426C5.04496 11.4026 5.24011 11.3245 5.44305 11.3245C5.64598 11.3245 5.84114 11.4026 5.98805 11.5426L9.15805 14.7126L13.458 19.0126H2.99805ZM15.998 18.0126C15.9966 18.204 15.9335 18.3899 15.818 18.5426L11.308 14.0126L12.008 13.3126C12.0797 13.2394 12.1653 13.1813 12.2598 13.1416C12.3542 13.1019 12.4556 13.0815 12.558 13.0815C12.6605 13.0815 12.7619 13.1019 12.8563 13.1416C12.9508 13.1813 13.0364 13.2394 13.108 13.3126L15.998 16.2226V18.0126ZM20.708 3.30259L17.708 0.302592C17.6129 0.211551 17.5008 0.140186 17.378 0.0925916C17.1346 -0.00742638 16.8615 -0.00742638 16.618 0.0925916C16.4953 0.140186 16.3832 0.211551 16.288 0.302592L13.288 3.30259C13.1948 3.39583 13.1208 3.50652 13.0704 3.62834C13.0199 3.75016 12.994 3.88073 12.994 4.01259C12.994 4.27889 13.0997 4.53429 13.288 4.72259C13.4764 4.9109 13.7317 5.01668 13.998 5.01668C14.2643 5.01668 14.5197 4.9109 14.708 4.72259L15.998 3.42259V9.01259C15.998 9.27781 16.1034 9.53216 16.2909 9.7197C16.4785 9.90723 16.7328 10.0126 16.998 10.0126C17.2633 10.0126 17.5176 9.90723 17.7052 9.7197C17.8927 9.53216 17.998 9.27781 17.998 9.01259V3.42259L19.288 4.72259C19.381 4.81632 19.4916 4.89071 19.6135 4.94148C19.7353 4.99225 19.866 5.01839 19.998 5.01839C20.1301 5.01839 20.2608 4.99225 20.3826 4.94148C20.5045 4.89071 20.6151 4.81632 20.708 4.72259C20.8018 4.62963 20.8762 4.51903 20.9269 4.39717C20.9777 4.27531 21.0038 4.1446 21.0038 4.01259C21.0038 3.88058 20.9777 3.74987 20.9269 3.62801C20.8762 3.50616 20.8018 3.39555 20.708 3.30259Z" fill="#1F1F1F"/>
</svg>
