<svg width="24" height="24" viewBox="0 0 24 24" fill="none" xmlns="http://www.w3.org/2000/svg">
<path d="M22.7486 8.30574C22.1624 6.73039 21.1061 5.51359 19.694 4.78674C19.4237 4.65067 19.1943 4.44524 19.0293 4.19146C18.8644 3.93768 18.7698 3.64465 18.7552 3.34232L18.749 3.11263C18.7468 3.02903 18.7168 2.94857 18.6636 2.88402C18.6105 2.81947 18.5372 2.77455 18.4556 2.75638C18.374 2.73821 18.2886 2.74785 18.2131 2.78376C18.1376 2.81967 18.0763 2.87979 18.0388 2.95456L17.936 3.1595C17.7945 3.42713 17.5845 3.6524 17.3274 3.81226C17.0703 3.97213 16.7754 4.06087 16.4728 4.0694C14.7857 4.13203 13.245 4.87871 12.0478 6.12879C11.5196 4.91614 10.6933 3.85676 9.6458 3.04918C8.59827 2.24159 7.36352 1.71204 6.0564 1.50976L1.18257 0.754787C1.11972 0.74505 1.05543 0.751458 0.995741 0.773407C0.936051 0.795356 0.882924 0.832125 0.841354 0.880258C0.799785 0.92839 0.77114 0.986303 0.758113 1.04855C0.745085 1.1108 0.748103 1.17534 0.766882 1.23611L2.2238 5.9479C2.82622 7.89652 4.16361 9.53406 5.95262 10.5136C5.57286 10.681 5.20702 10.8783 4.85855 11.1037C3.44841 12.0184 2.49029 13.3138 2.08777 14.8502C2.01369 15.1437 1.86299 15.4123 1.65109 15.6285C1.43918 15.8447 1.17366 16.0007 0.881679 16.0807L0.659211 16.1364C0.57804 16.1567 0.505974 16.2035 0.454474 16.2694C0.402975 16.3354 0.375 16.4166 0.375 16.5003C0.375 16.5839 0.402975 16.6652 0.454474 16.7311C0.505974 16.7971 0.57804 16.8439 0.659211 16.8641L0.881679 16.9199C1.17365 16.9998 1.43917 17.1559 1.65108 17.372C1.86298 17.5882 2.01369 17.8568 2.08777 18.1503C2.49029 19.6867 3.44841 20.9822 4.85855 21.8968C6.22388 22.7824 7.91537 23.2504 9.75015 23.2504C12.9023 23.2504 15.5161 21.9073 16.7848 19.6939C16.7918 19.6939 16.7989 19.6945 16.8055 19.6945C16.9299 19.6945 17.0541 19.6844 17.1768 19.6643C20.0116 19.2024 22.2453 16.7923 23.0064 13.3746C23.4053 11.5836 23.3161 9.83088 22.7486 8.30574ZM11.499 6.7685C11.0582 7.34608 10.6912 7.97635 10.4064 8.64474L10.0989 8.37924L10.1771 4.56938C10.7475 5.21617 11.1954 5.96135 11.499 6.7685ZM3.26199 6.56965L6.13074 5.9433L7.1687 6.83966L3.72095 7.41955C3.54884 7.147 3.3955 6.86305 3.26199 6.56965ZM3.97918 4.08525L2.51701 4.35713L1.86966 2.26357L3.97918 4.08525ZM2.35984 1.69591L4.52523 2.0314L4.46935 3.51763L2.35984 1.69591ZM2.94034 5.72632L2.73999 5.0784L4.70607 4.71305L5.4211 5.33059L2.98505 5.86249C2.97001 5.81735 2.95445 5.77202 2.94034 5.72632ZM7.73045 2.77667L7.65877 6.27204L6.62082 5.37569L6.82276 2.44639C7.13248 2.53571 7.43575 2.64606 7.73045 2.77667ZM8.47281 3.15857C8.81445 3.36132 9.13849 3.59237 9.44152 3.84928L9.36184 7.74267L8.39621 6.90861L8.47281 3.15857ZM6.08279 2.27534L5.91132 4.76293L5.19624 4.14539L5.27124 2.14704L5.94155 2.25091C5.98885 2.25823 6.03577 2.26704 6.08279 2.27534ZM4.2069 8.09841L7.90571 7.47627L8.87134 8.31028L5.03115 8.95623C4.73289 8.69384 4.45718 8.40689 4.2069 8.09841ZM5.8516 9.57883L9.60863 8.9469L10.1214 9.38978C10.0811 9.50956 10.0429 9.63097 10.0068 9.754C9.92157 9.75203 9.83621 9.75021 9.75015 9.75021C8.79456 9.7456 7.84348 9.88143 6.92738 10.1533C6.55292 9.99317 6.19298 9.80095 5.8516 9.57883ZM5.2667 11.733C5.8082 11.3848 6.39334 11.1097 7.00693 10.9147C7.0179 10.9117 7.02854 10.9079 7.03918 10.904C7.9168 10.6312 8.83114 10.495 9.75015 10.5002C12.9384 10.5002 15.5095 11.9761 16.4603 14.352C16.5844 14.6578 16.6067 14.9954 16.5238 15.3148C16.4409 15.6343 16.2573 15.9185 16.0002 16.1253H15.6221C15.7213 15.8439 15.7635 15.5456 15.7464 15.2477C15.7293 14.9498 15.6532 14.6583 15.5225 14.3901C15.3918 14.1219 15.2092 13.8823 14.9851 13.6853C14.761 13.4883 14.5001 13.3378 14.2173 13.2424C13.8694 12.7704 13.3418 12.397 12.7166 12.1833C12.3411 12.0537 11.9454 11.9923 11.5483 12.0021C11.0538 11.5283 10.3024 11.2502 9.49656 11.2502C8.67226 11.2502 7.90749 11.54 7.41371 12.0323C7.12246 12.0586 6.83587 12.1226 6.56115 12.2229C5.60888 12.568 4.91429 13.2735 4.7312 14.0597C4.32744 14.2329 3.98358 14.5212 3.74246 14.8885C3.50133 15.2558 3.37359 15.6859 3.37515 16.1253H2.21293C2.50077 15.8196 2.70721 15.4465 2.8133 15.0403C3.16763 13.6878 4.01598 12.544 5.2667 11.733ZM8.51513 19.2352L8.14857 18.8686C7.83551 18.5544 7.41378 18.3725 6.97046 18.3604L5.26248 18.3041C5.23616 18.3033 5.20983 18.3053 5.18391 18.31C5.18157 18.3092 5.17923 18.308 5.17702 18.3072C4.87146 18.2127 4.60432 18.0225 4.41496 17.7647C4.22559 17.5069 4.12401 17.1952 4.12515 16.8753H14.7998C14.9303 17.1018 14.9994 17.3586 15.0001 17.6201C15.0008 17.8815 14.9332 18.1387 14.8039 18.3659L12.4622 18.3718C12.1404 18.3721 11.8251 18.4622 11.5518 18.6318C11.2784 18.8015 11.0578 19.0441 10.9148 19.3324C10.8923 19.3765 10.8787 19.4246 10.8749 19.4739C10.8711 19.5233 10.8772 19.5729 10.8926 19.6199C10.9081 19.6669 10.9327 19.7104 10.9651 19.7478C10.9974 19.7853 11.0369 19.816 11.0811 19.8381C11.1254 19.8602 11.1736 19.8734 11.223 19.8768C11.2723 19.8802 11.3219 19.8738 11.3688 19.858C11.4157 19.8422 11.459 19.8172 11.4962 19.7846C11.5334 19.7519 11.5637 19.7122 11.5855 19.6678C11.6668 19.504 11.7921 19.3662 11.9474 19.2698C12.1027 19.1733 12.2818 19.1221 12.4646 19.1218L13.786 19.1185C13.7396 19.1473 13.6999 19.1859 13.6699 19.2317C13.4205 19.6137 12.9845 19.9328 12.4739 20.1074C12.1399 20.2242 11.7852 20.2694 11.4326 20.2402C11.3734 20.2346 11.3137 20.2432 11.2585 20.2653C11.2032 20.2874 11.154 20.3223 11.115 20.3671C10.7746 20.7576 10.1544 21 9.49656 21C8.83299 21 8.21016 20.7544 7.87112 20.3591C7.83748 20.3199 7.79611 20.288 7.74959 20.2656C7.70307 20.2431 7.65241 20.2305 7.60079 20.2285C7.33292 20.2172 7.06841 20.1645 6.81671 20.0722C6.25374 19.8681 5.79418 19.4849 5.5742 19.0643L6.94763 19.1095C7.20002 19.1162 7.44019 19.2196 7.61846 19.3984L7.98502 19.7649C8.0197 19.8004 8.06106 19.8286 8.10672 19.848C8.15238 19.8674 8.20143 19.8775 8.25103 19.8778C8.30063 19.8781 8.34979 19.8685 8.39567 19.8496C8.44155 19.8308 8.48323 19.803 8.5183 19.768C8.55338 19.7329 8.58115 19.6912 8.60001 19.6453C8.61886 19.5995 8.62843 19.5503 8.62816 19.5007C8.62788 19.4511 8.61777 19.4021 8.59841 19.3564C8.57905 19.3107 8.55083 19.2694 8.51537 19.2347L8.51513 19.2352ZM5.17702 14.6933C5.17946 14.6926 5.18171 14.6914 5.1841 14.6906C5.20576 14.6945 5.22772 14.6965 5.24973 14.6966H5.26229L6.96854 14.6404C7.41255 14.6286 7.83506 14.4466 8.14866 14.1321L8.51523 13.7655C8.55069 13.7308 8.57891 13.6894 8.59827 13.6438C8.61763 13.5981 8.62774 13.549 8.62802 13.4994C8.62829 13.4498 8.61872 13.4007 8.59986 13.3548C8.58101 13.3089 8.55324 13.2673 8.51816 13.2322C8.48309 13.1971 8.44141 13.1694 8.39553 13.1505C8.34965 13.1317 8.30049 13.1221 8.25089 13.1224C8.20129 13.1227 8.15224 13.1328 8.10658 13.1521C8.06092 13.1715 8.01956 13.1998 7.98488 13.2352L7.61832 13.6017C7.43955 13.7809 7.19868 13.8844 6.94566 13.8907L5.5741 13.9358C5.79413 13.5153 6.25379 13.1322 6.81662 12.928C7.06832 12.8356 7.33282 12.7829 7.6007 12.7717C7.65232 12.7697 7.70298 12.7571 7.7495 12.7346C7.79602 12.7121 7.83739 12.6803 7.87102 12.6411C8.21016 12.2458 8.83299 12.0002 9.49656 12.0002C10.1544 12.0002 10.7746 12.2428 11.115 12.6331C11.1541 12.6778 11.2033 12.7127 11.2585 12.7348C11.3137 12.7568 11.3734 12.7655 11.4326 12.76C11.7852 12.7308 12.1399 12.776 12.4739 12.8928C12.9845 13.0674 13.4205 13.3865 13.6699 13.7685C13.6999 13.8143 13.7396 13.8529 13.786 13.8817L12.4651 13.8783C12.2822 13.8782 12.103 13.827 11.9476 13.7306C11.7922 13.6341 11.6668 13.4962 11.5855 13.3324C11.5406 13.2442 11.4626 13.1774 11.3686 13.1465C11.2746 13.1156 11.1722 13.1231 11.0837 13.1673C10.9952 13.2116 10.9278 13.289 10.8962 13.3828C10.8645 13.4765 10.8712 13.579 10.9148 13.6678C11.0578 13.9561 11.2785 14.1988 11.552 14.3685C11.8255 14.5382 12.1409 14.6282 12.4627 14.6284L14.8039 14.6343C14.9332 14.8615 15.0008 15.1187 15.0001 15.3801C14.9994 15.6416 14.9303 15.8983 14.7998 16.1249L4.12515 16.1253C4.12401 15.8054 4.22559 15.4936 4.41496 15.2358C4.60432 14.9781 4.87146 14.7879 5.17702 14.6933ZM9.75015 22.5004C8.06054 22.5004 6.5102 22.0741 5.2667 21.2675C4.01598 20.4566 3.16763 19.3128 2.8133 17.9603C2.70721 17.554 2.50077 17.181 2.21293 16.8753H3.37515C3.37359 17.3147 3.50133 17.7448 3.74246 18.1121C3.98358 18.4794 4.32744 18.7676 4.7312 18.9409C4.91429 19.7271 5.60888 20.4325 6.56115 20.7777C6.83587 20.8779 7.12246 20.942 7.41371 20.9683C7.90726 21.4606 8.67226 21.7503 9.49656 21.7503C10.3024 21.7503 11.0538 21.4722 11.5481 20.9986C11.9452 21.0085 12.3409 20.9471 12.7164 20.8175C13.3416 20.6038 13.8692 20.2305 14.2171 19.7584C14.4999 19.6631 14.7609 19.5126 14.985 19.3156C15.2091 19.1185 15.3919 18.8789 15.5226 18.6107C15.6533 18.3424 15.7294 18.0509 15.7465 17.753C15.7636 17.4551 15.7213 17.1567 15.6221 16.8753H16.0002C16.2573 17.0821 16.4409 17.3663 16.5238 17.6857C16.6067 18.0052 16.5844 18.3428 16.4603 18.6485C15.5095 21.0244 12.9384 22.5004 9.75015 22.5004ZM22.2744 13.2115C21.5914 16.2784 19.6393 18.4475 17.1655 18.9038C17.264 18.6513 17.3172 18.3834 17.3229 18.1124L18.1941 17.105C18.4056 16.8603 18.6041 16.6048 18.7888 16.3394C18.845 16.2577 18.8666 16.1571 18.8489 16.0596C18.8311 15.962 18.7755 15.8754 18.6941 15.8188C18.6127 15.7622 18.5122 15.7401 18.4145 15.7574C18.3169 15.7747 18.2301 15.83 18.1731 15.9112C18.0034 16.1549 17.8211 16.3896 17.6268 16.6143L17.1415 17.1753C17.0352 16.9257 16.885 16.697 16.6981 16.5003C16.9994 16.1824 17.2029 15.7846 17.2842 15.3542C17.3655 14.9239 17.3212 14.4792 17.1566 14.0734C16.9996 13.6819 16.8025 13.3079 16.5683 12.9572L17.2642 9.83172C17.2753 9.78351 17.2768 9.73359 17.2685 9.68481C17.2602 9.63604 17.2423 9.58939 17.2159 9.54755C17.1895 9.50571 17.1551 9.4695 17.1147 9.44102C17.0742 9.41253 17.0286 9.39233 16.9803 9.38158C16.932 9.37082 16.8821 9.36973 16.8333 9.37836C16.7846 9.38699 16.7381 9.40517 16.6965 9.43186C16.6548 9.45855 16.6188 9.49321 16.5907 9.53386C16.5625 9.5745 16.5426 9.62033 16.5322 9.66869L15.9697 12.1953C15.23 11.3895 14.2711 10.7587 13.1555 10.34C13.3763 9.67599 13.6786 9.04194 14.0555 8.45241C14.0821 8.41092 14.1002 8.36461 14.1088 8.31612C14.1174 8.26763 14.1165 8.21792 14.1059 8.16982C14.0953 8.12171 14.0754 8.07617 14.0472 8.03577C14.019 7.99538 13.9832 7.96093 13.9417 7.93439C13.9002 7.90785 13.8539 7.88974 13.8054 7.8811C13.7569 7.87246 13.7072 7.87346 13.6591 7.88403C13.611 7.89461 13.5654 7.91455 13.525 7.94273C13.4846 7.9709 13.4502 8.00676 13.4236 8.04825C13.0126 8.69133 12.6831 9.383 12.4427 10.1074C11.8976 9.95606 11.3402 9.85318 10.777 9.79989C11.7057 6.85405 13.9151 4.91504 16.5009 4.81904C17.1207 4.79759 17.7103 4.54547 18.154 4.11206C18.3719 4.69281 18.7987 5.17129 19.3509 5.45378C20.5941 6.09359 21.5259 7.17027 22.0458 8.56744C22.5626 9.95646 22.6417 11.5623 22.2744 13.2115Z" fill="#45C55B"/>
<path d="M17.732 6.0092C17.635 5.9876 17.5333 6.00543 17.4494 6.05879C17.3654 6.11215 17.3061 6.19666 17.2845 6.29374L16.867 8.16874C16.8559 8.21695 16.8544 8.26688 16.8627 8.31565C16.871 8.36442 16.8889 8.41107 16.9152 8.45291C16.9416 8.49475 16.976 8.53095 17.0165 8.55944C17.0569 8.58792 17.1026 8.60813 17.1509 8.61888C17.1992 8.62963 17.2491 8.63073 17.2978 8.6221C17.3465 8.61347 17.3931 8.59529 17.4347 8.5686C17.4764 8.54191 17.5123 8.50725 17.5405 8.4666C17.5687 8.42596 17.5886 8.38013 17.599 8.33177L18.0166 6.45677C18.0273 6.4087 18.0284 6.35899 18.0199 6.31048C18.0114 6.26197 17.9934 6.21562 17.967 6.17406C17.9406 6.13249 17.9062 6.09655 17.8659 6.06826C17.8256 6.03998 17.7801 6.01991 17.732 6.0092Z" fill="#45C55B"/>
<path d="M15.9013 5.34964L14.9309 6.24682C14.7158 6.44572 14.508 6.65717 14.3132 6.87523C14.2802 6.91192 14.2547 6.95478 14.2382 7.00135C14.2218 7.04792 14.2147 7.09729 14.2173 7.1466C14.22 7.19592 14.2324 7.24423 14.2538 7.28874C14.2752 7.33326 14.3052 7.3731 14.342 7.406C14.3789 7.43889 14.4219 7.46419 14.4685 7.48042C14.5152 7.49666 14.5646 7.50353 14.6139 7.50062C14.6632 7.49772 14.7114 7.4851 14.7558 7.46349C14.8002 7.44189 14.84 7.41173 14.8727 7.37473C15.0515 7.17448 15.2424 6.98023 15.4399 6.79751L16.4102 5.90032C16.4469 5.86704 16.4766 5.82681 16.4977 5.78196C16.5187 5.73712 16.5307 5.68854 16.5329 5.63904C16.5351 5.58954 16.5274 5.5401 16.5104 5.49358C16.4933 5.44706 16.4672 5.40437 16.4336 5.36799C16.4 5.33161 16.3595 5.30226 16.3144 5.28162C16.2694 5.26099 16.2207 5.24949 16.1712 5.24778C16.1216 5.24607 16.0723 5.2542 16.0259 5.27168C15.9796 5.28916 15.9371 5.31566 15.9011 5.34964H15.9013Z" fill="#45C55B"/>
<path d="M20.0635 11.7335C20.0148 11.7262 19.9652 11.7286 19.9174 11.7406C19.8696 11.7525 19.8246 11.7737 19.7851 11.8031C19.7455 11.8324 19.7121 11.8692 19.6868 11.9114C19.6614 11.9536 19.6446 12.0005 19.6374 12.0492L19.5963 12.3251C19.4645 13.2119 19.1923 14.0721 18.7901 14.8733C18.7672 14.9174 18.7534 14.9656 18.7493 15.0151C18.7452 15.0646 18.751 15.1144 18.7664 15.1616C18.7817 15.2089 18.8063 15.2526 18.8386 15.2902C18.871 15.3279 18.9105 15.3588 18.9549 15.381C18.9993 15.4033 19.0476 15.4165 19.0972 15.42C19.1467 15.4234 19.1964 15.4169 19.2435 15.401C19.2905 15.385 19.3339 15.3599 19.3711 15.3271C19.4084 15.2942 19.4387 15.2543 19.4604 15.2096C19.8983 14.3374 20.1946 13.401 20.338 12.4356L20.3791 12.1596C20.3938 12.0613 20.3688 11.9611 20.3096 11.8812C20.2504 11.8013 20.1619 11.7481 20.0635 11.7335Z" fill="#45C55B"/>
<path d="M20.358 9.31394C20.3367 9.18363 20.3123 9.05224 20.2854 8.92338C20.2755 8.87502 20.2561 8.82908 20.2284 8.78821C20.2007 8.74734 20.1653 8.71234 20.124 8.68522C20.0828 8.65809 20.0366 8.63938 19.9881 8.63015C19.9396 8.62092 19.8897 8.62135 19.8414 8.63143C19.7931 8.64151 19.7472 8.66103 19.7065 8.68887C19.6657 8.71671 19.6308 8.75233 19.6039 8.79368C19.5769 8.83502 19.5584 8.88129 19.5493 8.92982C19.5403 8.97835 19.5409 9.02819 19.5512 9.07647C19.5759 9.19479 19.5983 9.31554 19.6179 9.4353C19.6762 9.79176 19.7117 10.1516 19.7242 10.5125C19.7275 10.6097 19.7684 10.7017 19.8383 10.7693C19.9081 10.8368 20.0015 10.8746 20.0987 10.8747H20.1118C20.2112 10.8713 20.3052 10.8285 20.373 10.7558C20.4409 10.6831 20.4771 10.5865 20.4737 10.4871C20.4601 10.0941 20.4215 9.70238 20.3581 9.31432L20.358 9.31394Z" fill="#45C55B"/>
<path d="M19.2521 7.99927C19.2684 8.04575 19.2937 8.08856 19.3266 8.12525C19.3594 8.16195 19.3992 8.19181 19.4436 8.21314C19.488 8.23447 19.5362 8.24684 19.5853 8.24956C19.6345 8.25227 19.6837 8.24527 19.7302 8.22896C19.7767 8.21265 19.8195 8.18734 19.8562 8.15449C19.8929 8.12163 19.9228 8.08187 19.9441 8.03747C19.9654 7.99307 19.9778 7.94491 19.9805 7.89573C19.9832 7.84655 19.9762 7.79731 19.9599 7.75084C19.9106 7.61021 19.8572 7.46959 19.801 7.33121L19.3544 6.23373C19.3166 6.1421 19.244 6.06918 19.1526 6.03091C19.0612 5.99264 18.9583 5.99212 18.8665 6.02948C18.7747 6.06684 18.7014 6.13903 18.6626 6.23027C18.6239 6.32151 18.6229 6.42438 18.6597 6.51638L19.1063 7.61387C19.1575 7.74076 19.2066 7.87037 19.2521 7.99927Z" fill="#45C55B"/>
<path d="M8.51518 15.6404L8.73488 15.4207C9.00412 15.1515 9.36928 15.0003 9.75003 15.0003C10.1308 15.0003 10.4959 15.1515 10.7652 15.4207L10.9848 15.6404C11.0197 15.6752 11.061 15.7028 11.1065 15.7217C11.152 15.7405 11.2008 15.7502 11.25 15.7502C11.2993 15.7502 11.348 15.7405 11.3935 15.7217C11.439 15.7028 11.4804 15.6752 11.5152 15.6404C11.55 15.6056 11.5776 15.5642 11.5965 15.5187C11.6153 15.4732 11.625 15.4245 11.625 15.3752C11.625 15.326 11.6153 15.2772 11.5965 15.2317C11.5776 15.1862 11.55 15.1449 11.5152 15.1101L11.2955 14.8904C10.8856 14.4805 10.3297 14.2502 9.75003 14.2502C9.17036 14.2502 8.61444 14.4805 8.20454 14.8904L7.98484 15.1101C7.91451 15.1804 7.875 15.2758 7.875 15.3753C7.875 15.4747 7.91451 15.5701 7.98484 15.6404C8.05517 15.7108 8.15055 15.7503 8.25001 15.7503C8.34947 15.7503 8.44485 15.7108 8.51518 15.6404Z" fill="#45C55B"/>
<path d="M11.2955 18.1101L11.5152 17.8904C11.55 17.8556 11.5776 17.8143 11.5965 17.7688C11.6153 17.7233 11.625 17.6745 11.625 17.6253C11.625 17.576 11.6153 17.5272 11.5965 17.4817C11.5776 17.4362 11.55 17.3949 11.5152 17.3601C11.4804 17.3253 11.439 17.2976 11.3935 17.2788C11.348 17.2599 11.2993 17.2502 11.25 17.2502C11.2008 17.2502 11.152 17.2599 11.1065 17.2788C11.061 17.2976 11.0197 17.3253 10.9848 17.3601L10.7651 17.5798C10.4959 17.849 10.1307 18.0003 9.74999 18.0003C9.36923 18.0003 9.00407 17.849 8.73484 17.5798L8.51518 17.3601C8.44485 17.2898 8.34947 17.2503 8.25001 17.2503C8.15055 17.2503 8.05517 17.2898 7.98484 17.3601C7.91451 17.4305 7.875 17.5258 7.875 17.6253C7.875 17.7248 7.91451 17.8201 7.98484 17.8905L8.20449 18.1101C8.61439 18.52 9.17032 18.7503 9.74999 18.7503C10.3297 18.7503 10.8856 18.52 11.2955 18.1101Z" fill="#45C55B"/>
</svg>
