<svg width="16" height="16" viewBox="0 0 16 16" fill="none" xmlns="http://www.w3.org/2000/svg">
<path d="M6.75 14.875C6.75 15.2206 6.47062 15.5 6.125 15.5H3.625C1.90188 15.5 0.5 14.0981 0.5 12.375V3.625C0.5 1.90188 1.90188 0.5 3.625 0.5H8.625C10.3481 0.5 11.75 1.90188 11.75 3.625V4.875C11.75 5.22062 11.4706 5.5 11.125 5.5C10.7794 5.5 10.5 5.22062 10.5 4.875V3.625C10.5 2.59125 9.65875 1.75 8.625 1.75H3.625C2.59125 1.75 1.75 2.59125 1.75 3.625V12.375C1.75 13.4088 2.59125 14.25 3.625 14.25H6.125C6.47062 14.25 6.75 14.5294 6.75 14.875ZM9.25 4.25C9.25 3.90438 8.97062 3.625 8.625 3.625H3.625C3.27938 3.625 3 3.90438 3 4.25C3 4.59562 3.27938 4.875 3.625 4.875H8.625C8.97062 4.875 9.25 4.59562 9.25 4.25ZM6.75 7.375C6.75 7.02938 6.47062 6.75 6.125 6.75H3.625C3.27938 6.75 3 7.02938 3 7.375C3 7.72062 3.27938 8 3.625 8H6.125C6.47062 8 6.75 7.72062 6.75 7.375ZM3.625 9.875C3.27938 9.875 3 10.1544 3 10.5C3 10.8456 3.27938 11.125 3.625 11.125H4.875C5.22062 11.125 5.5 10.8456 5.5 10.5C5.5 10.1544 5.22062 9.875 4.875 9.875H3.625ZM15.5 11.125C15.5 13.5369 13.5369 15.5 11.125 15.5C8.71313 15.5 6.75 13.5369 6.75 11.125C6.75 8.71313 8.71313 6.75 11.125 6.75C13.5369 6.75 15.5 8.71313 15.5 11.125ZM14.25 11.125C14.25 9.40188 12.8481 8 11.125 8C9.40188 8 8 9.40188 8 11.125C8 12.8481 9.40188 14.25 11.125 14.25C12.8481 14.25 14.25 12.8481 14.25 11.125ZM12.255 10.3494L10.8656 11.6831C10.7756 11.7712 10.6287 11.7731 10.5394 11.6844L9.8325 10.9919C9.585 10.7494 9.19 10.7531 8.94875 11.0006C8.70687 11.2475 8.71062 11.6425 8.9575 11.8844L9.665 12.5775C9.9525 12.8581 10.3287 12.9987 10.7044 12.9987C11.08 12.9987 11.455 12.8581 11.7375 12.5794L13.1206 11.2519C13.3694 11.0125 13.3775 10.6169 13.1388 10.3681C12.8994 10.1181 12.5031 10.1113 12.255 10.35V10.3494Z" fill="white"/>
</svg>
