<svg fill="none" height="25" viewBox="0 0 24 25" width="24" xmlns="http://www.w3.org/2000/svg">
    <path
        d="M5.26855 9.24994C5.26731 8.36045 5.44213 7.47951 5.78294 6.6579C6.12375 5.83628 6.62381 5.09025 7.25429 4.4628C7.88476 3.83535 8.6332 3.33889 9.45644 3.00204C10.2797 2.66519 11.1615 2.49461 12.0509 2.50013C15.7625 2.52772 18.7312 5.61275 18.7312 9.33468V9.99994C18.7312 13.3577 19.4337 15.3061 20.0524 16.371C20.1191 16.4848 20.1546 16.6142 20.1553 16.746C20.156 16.8779 20.1219 17.0076 20.0565 17.1221C19.991 17.2366 19.8966 17.3318 19.7826 17.3982C19.6686 17.4645 19.5392 17.4996 19.4073 17.4999H4.59173C4.45985 17.4996 4.33038 17.4645 4.2164 17.3981C4.10242 17.3318 4.00795 17.2366 3.94252 17.122C3.8771 17.0075 3.84303 16.8778 3.84376 16.7459C3.84449 16.614 3.87999 16.4846 3.94667 16.3709C4.56573 15.3059 5.26855 13.3575 5.26855 9.99994L5.26855 9.24994Z"
        stroke="#1F1F1F" stroke-linecap="round" stroke-linejoin="round" stroke-width="2" />
    <path
        d="M9 17.4999V18.2499C9 19.0456 9.31607 19.8086 9.87868 20.3713C10.4413 20.9339 11.2044 21.2499 12 21.2499C12.7956 21.2499 13.5587 20.9339 14.1213 20.3713C14.6839 19.8086 15 19.0456 15 18.2499V17.4999"
        stroke="#1F1F1F" stroke-linecap="round" stroke-linejoin="round" stroke-width="2" />
</svg>
