<svg width="24" height="25" viewBox="0 0 24 25" fill="none" xmlns="http://www.w3.org/2000/svg">
<path d="M6.3421 3.92276H5.4739C4.25799 3.92276 3.64959 3.92276 3.18517 4.15939C2.77666 4.36754 2.44478 4.69943 2.23663 5.10793C2 5.57235 2 6.18075 2 7.39666V8.26486M6.3421 3.92276H15.0263M6.3421 3.92276V1.75171M15.0263 3.92276H15.8949C17.1108 3.92276 17.7179 3.92276 18.1824 4.15939C18.5909 4.36754 18.9239 4.69943 19.132 5.10793C19.3684 5.57189 19.3684 10.4889 19.3684 11.7024V8.26486H2M15.0263 3.92276V1.75171M2 8.26486V17.8177C2 19.0336 2 19.6412 2.23663 20.1057C2.44478 20.5142 2.77666 20.8466 3.18517 21.0548C3.64913 21.2912 8.38515 21.2912 9.59868 21.2912M10.6842 16.9491H10.6864L10.6863 16.9512M6.3421 16.9491H6.34427L6.34422 16.9512L6.3421 16.9512V16.9491ZM15.0284 12.607V12.6091L15.0263 12.6091V12.607H15.0284ZM10.6842 12.607H10.6864L10.6863 12.6091L10.6842 12.6091V12.607ZM6.3421 12.607H6.34427L6.34422 12.6091L6.3421 12.6091V12.607Z" stroke="#F7F7F7" stroke-width="2.17105" stroke-linecap="round" stroke-linejoin="round"/>
<path d="M17.7401 23.5075C20.2131 23.5075 22.2179 21.5027 22.2179 19.0297C22.2179 16.5567 20.2131 14.5519 17.7401 14.5519C15.267 14.5519 13.2623 16.5567 13.2623 19.0297C13.2623 21.5027 15.267 23.5075 17.7401 23.5075Z" stroke="#F7F7F7" stroke-width="1.4926" stroke-linecap="round" stroke-linejoin="round"/>
<path d="M17.7401 17V19.0296L20 19.612" stroke="#F7F7F7" stroke-width="1.4926" stroke-linecap="round" stroke-linejoin="round"/>
</svg>
