<svg width="22" height="22" viewBox="0 0 22 22" fill="none" xmlns="http://www.w3.org/2000/svg">
<path fill-rule="evenodd" clip-rule="evenodd" d="M11 1.75C8.54676 1.75 6.19398 2.72455 4.45927 4.45926C2.72456 6.19397 1.75001 8.54675 1.75001 11C1.75001 12.481 2.09801 13.879 2.71501 15.118C2.96301 15.616 3.05801 16.21 2.90201 16.795L2.30601 19.02C2.28099 19.1132 2.28093 19.2114 2.30586 19.3046C2.33078 19.3979 2.37981 19.4829 2.44801 19.5512C2.51621 19.6195 2.60118 19.6687 2.69438 19.6937C2.78759 19.7188 2.88576 19.7189 2.97901 19.694L5.20601 19.098C5.76878 18.9537 6.36489 19.0202 6.88201 19.285C8.16111 19.9221 9.57103 20.2525 11 20.25C13.4533 20.25 15.806 19.2754 17.5407 17.5407C19.2755 15.806 20.25 13.4533 20.25 11C20.25 8.54675 19.2755 6.19397 17.5407 4.45926C15.806 2.72455 13.4533 1.75 11 1.75ZM0.250011 11C0.250011 5.063 5.06301 0.25 11 0.25C16.937 0.25 21.75 5.063 21.75 11C21.75 16.937 16.937 21.75 11 21.75C9.28201 21.75 7.65601 21.346 6.21301 20.628C6.02254 20.5281 5.8026 20.4997 5.59301 20.548L3.36701 21.143C1.84301 21.551 0.449011 20.157 0.857011 18.633L1.45301 16.407C1.50128 16.1974 1.4729 15.9775 1.37301 15.787C0.632154 14.3001 0.24767 12.6612 0.250011 11ZM6.25001 9.5C6.25001 9.30109 6.32903 9.11032 6.46968 8.96967C6.61033 8.82902 6.8011 8.75 7.00001 8.75H15C15.1989 8.75 15.3897 8.82902 15.5303 8.96967C15.671 9.11032 15.75 9.30109 15.75 9.5C15.75 9.69891 15.671 9.88968 15.5303 10.0303C15.3897 10.171 15.1989 10.25 15 10.25H7.00001C6.8011 10.25 6.61033 10.171 6.46968 10.0303C6.32903 9.88968 6.25001 9.69891 6.25001 9.5ZM6.25001 13C6.25001 12.8011 6.32903 12.6103 6.46968 12.4697C6.61033 12.329 6.8011 12.25 7.00001 12.25H12.5C12.6989 12.25 12.8897 12.329 13.0303 12.4697C13.171 12.6103 13.25 12.8011 13.25 13C13.25 13.1989 13.171 13.3897 13.0303 13.5303C12.8897 13.671 12.6989 13.75 12.5 13.75H7.00001C6.8011 13.75 6.61033 13.671 6.46968 13.5303C6.32903 13.3897 6.25001 13.1989 6.25001 13Z" fill="#205B2A"/>
</svg>
