<svg width="12" height="10" viewBox="0 0 12 10" fill="none" xmlns="http://www.w3.org/2000/svg">
<path d="M11.7251 0.8888C11.6457 0.80877 11.5513 0.745247 11.4472 0.701898C11.3432 0.658549 11.2316 0.63623 11.1189 0.63623C11.0062 0.63623 10.8946 0.658549 10.7905 0.701898C10.6865 0.745247 10.592 0.80877 10.5126 0.8888L4.15139 7.25858L1.47882 4.57747C1.3964 4.49786 1.29911 4.43526 1.1925 4.39324C1.08589 4.35123 0.972054 4.33063 0.857483 4.33261C0.742911 4.33459 0.629852 4.35912 0.524761 4.40479C0.419669 4.45047 0.324603 4.5164 0.244991 4.59881C0.165378 4.68123 0.102779 4.77852 0.0607656 4.88513C0.0187524 4.99174 -0.00185163 5.10558 0.000130571 5.22015C0.00211277 5.33472 0.0266423 5.44778 0.0723181 5.55287C0.117994 5.65796 0.183922 5.75303 0.266338 5.83264L3.54515 9.11145C3.62453 9.19149 3.71897 9.25501 3.82302 9.29836C3.92707 9.34171 4.03867 9.36402 4.15139 9.36402C4.26411 9.36402 4.37572 9.34171 4.47977 9.29836C4.58382 9.25501 4.67826 9.19149 4.75763 9.11145L11.7251 2.14397C11.8118 2.06401 11.881 1.96697 11.9283 1.85896C11.9756 1.75095 12 1.63431 12 1.51639C12 1.39847 11.9756 1.28183 11.9283 1.17381C11.881 1.0658 11.8118 0.968758 11.7251 0.8888Z" fill="#F7F7F7"/>
</svg>
