<svg width="20" height="20" viewBox="0 0 20 20" fill="none" xmlns="http://www.w3.org/2000/svg">
<path d="M18.2159 1.78299C17.0821 0.648996 15.6223 0.0158226 14.1053 7.92315e-05C12.5399 -0.0151954 11.0153 0.637003 9.81148 1.83924C8.71878 2.93054 7.91308 4.4189 7.60105 5.92264C7.25905 7.56996 6.47163 9.04745 5.32378 10.1954L5.27394 10.2452C5.16265 10.3565 5.10003 10.5074 5.10003 10.6649C5.10003 10.8223 5.16253 10.9733 5.27386 11.0846L5.53671 11.3475L3.28268 13.6017C2.93546 13.4067 2.53733 13.3065 2.13401 13.3191C1.52003 13.3382 0.957291 13.6032 0.5494 14.0652C-0.182593 14.8944 -0.183218 16.1454 0.548033 16.9752C0.941275 17.4215 1.48374 17.6861 2.0755 17.7202C2.18182 17.7264 2.27331 17.8179 2.2794 17.9242C2.31346 18.5159 2.57803 19.0584 3.02436 19.4518C3.43893 19.8171 3.95866 19.9998 4.47847 19.9998C4.99886 19.9998 5.51937 19.8166 5.93417 19.4504C6.39616 19.0425 6.66112 18.4797 6.68019 17.8657C6.69269 17.4622 6.59261 17.0642 6.39765 16.7169L8.65167 14.4627L8.91472 14.7257C9.03058 14.8416 9.18249 14.8996 9.33433 14.8996C9.48613 14.8996 9.63796 14.8417 9.75382 14.7259L9.80394 14.6759C10.9512 13.5285 12.4293 12.7408 14.0782 12.398C15.5794 12.0859 17.0657 11.2816 18.1558 10.1914C19.3604 8.98674 20.0153 7.46136 19.9997 5.89627C19.9846 4.37917 19.3511 2.91839 18.2159 1.78299ZM5.19679 16.2391C4.96503 16.4709 4.96503 16.8466 5.19679 17.0784C5.39714 17.2788 5.50265 17.5453 5.49386 17.8287C5.48503 18.1118 5.36241 18.3718 5.14858 18.5606C4.77315 18.892 4.18468 18.8923 3.80893 18.5612C3.60233 18.3791 3.47995 18.1287 3.46425 17.8561C3.42331 17.1441 2.85553 16.5762 2.14358 16.5353C1.87085 16.5196 1.62042 16.3971 1.43839 16.1905C1.10729 15.8147 1.1076 15.2262 1.43909 14.8507C1.62784 14.6369 1.88772 14.5143 2.17081 14.5055C2.18178 14.5052 2.19272 14.505 2.20362 14.505C2.47479 14.505 2.72846 14.61 2.92108 14.8025C3.15276 15.0343 3.5285 15.0343 3.7603 14.8025L6.37593 12.1868L7.81245 13.6234L5.19679 16.2391ZM17.3166 9.35197C16.3994 10.2692 15.0985 10.9734 13.8366 11.2358C12.1372 11.5891 10.5947 12.3603 9.34476 13.4771L6.5223 10.6545C7.6396 9.40393 8.41062 7.86193 8.76308 6.16383C9.02542 4.89991 9.73085 3.59719 10.6502 2.67911C12.6169 0.714978 15.4458 0.691109 17.3766 2.62227C19.3087 4.55461 19.2835 7.3849 17.3166 9.35197Z" fill="#45C55B"/>
<ellipse cx="13.4084" cy="2.9544" rx="0.681819" ry="0.681818" fill="#45C55B"/>
<ellipse cx="15.2267" cy="4.31805" rx="0.681819" ry="0.681818" fill="#45C55B"/>
<ellipse cx="12.5002" cy="5.22723" rx="0.681818" ry="0.681818" fill="#45C55B"/>
</svg>
