<svg fill="none" height="22" viewBox="0 0 22 22" width="22" xmlns="http://www.w3.org/2000/svg">
    <path
        d="M14.2006 0.54719C11.5054 0.850761 9.22455 2.84038 8.58869 5.44534C8.49023 5.84737 8.44511 6.09761 8.31383 7.06576C8.10462 8.54669 7.8995 9.37125 7.55491 10.081C7.38261 10.442 7.21852 10.6758 6.81239 11.1435C6.38985 11.6316 6.22986 12.0419 6.23396 12.6367C6.23396 12.8172 6.26678 13.0305 6.3037 13.1372L6.36934 13.3177L5.18788 14.4991L4.01051 15.6765L3.86693 15.5616C3.4526 15.2458 3.04647 15.0981 2.5542 15.0981C1.16762 15.0981 0.199471 16.4108 0.601497 17.7441C0.794305 18.384 1.37273 18.9337 2.0332 19.1101C2.14807 19.1429 2.37369 19.1676 2.53368 19.1676H2.82905L2.84546 19.5491C2.87007 19.9716 2.94802 20.2342 3.14493 20.5459C3.71515 21.4361 4.84738 21.7479 5.79502 21.272C6.48421 20.9275 6.90674 20.2342 6.90674 19.4506C6.90674 18.9583 6.75906 18.5522 6.44318 18.1379L6.32832 17.9943L7.50568 16.8169L8.68714 15.6355L8.86354 15.7011C8.97431 15.738 9.18352 15.7626 9.42146 15.7626C10.0327 15.7626 10.365 15.6273 10.9229 15.1432C11.5465 14.6017 11.9075 14.3925 12.6213 14.1627C13.294 13.9494 13.8273 13.8428 15.2262 13.65C16.5718 13.4654 17.0435 13.3382 17.8435 12.9444C21.0556 11.3732 22.4012 7.46778 20.8423 4.21465C19.6526 1.72455 16.9574 0.235415 14.2006 0.54719ZM16.0959 1.44559C19.3696 2.13478 21.3797 5.45765 20.4526 8.65745C20.0136 10.1712 18.9019 11.5086 17.503 12.2059C16.8302 12.5382 16.3297 12.6695 15.0211 12.85C12.4613 13.2069 11.4111 13.5843 10.3691 14.532C10.0122 14.856 9.79477 14.9545 9.44197 14.9545C8.92098 14.9545 8.53946 14.7002 8.29332 14.1874L8.13333 13.8469L7.85438 13.7238C7.48107 13.5597 7.33749 13.4284 7.1816 13.1167C7.06263 12.8705 7.05443 12.8295 7.07084 12.5136C7.09135 12.1075 7.14057 12.0008 7.47696 11.6316C8.41639 10.5937 8.80201 9.53124 9.15481 6.98371C9.33531 5.66687 9.42146 5.32228 9.75374 4.60847C10.0081 4.06287 10.3363 3.5911 10.7916 3.11523C11.7146 2.15529 12.81 1.58507 14.1186 1.38406C14.6437 1.30612 15.5626 1.33483 16.0959 1.44559ZM7.0052 14.1874C7.11186 14.2653 7.26775 14.3679 7.35389 14.413C7.45235 14.4622 7.5426 14.5525 7.59183 14.6509C7.63695 14.7371 7.73951 14.8971 7.82156 15.0037L7.97334 15.2006L6.63189 16.5462L5.28633 17.8917L5.31095 18.0681C5.32735 18.1994 5.36838 18.2733 5.47094 18.3594C5.99193 18.8107 6.05757 18.9296 6.05757 19.4547C6.05757 19.7747 6.04116 19.8732 5.96731 20.0085C5.74989 20.4188 5.2371 20.71 4.80226 20.6731C4.31408 20.6321 3.86693 20.2998 3.72335 19.8773C3.59208 19.4875 3.66182 19.0117 3.89975 18.7163C4.1541 18.4004 4.17871 18.2035 3.99 18.0148C3.8013 17.8261 3.60439 17.8507 3.28851 18.1051C3.0957 18.261 2.83315 18.3471 2.5542 18.3471C1.89783 18.3471 1.38914 17.8712 1.33171 17.2026C1.29479 16.7677 1.58605 16.2549 1.99628 16.0375C2.13166 15.9637 2.23011 15.9473 2.55009 15.9473C3.07519 15.9473 3.19416 16.0129 3.64541 16.5339C3.73156 16.6364 3.8054 16.6775 3.93667 16.6939L4.11717 16.7185L5.45453 15.377C6.19294 14.6427 6.80008 14.0397 6.80419 14.0397C6.81239 14.0397 6.90264 14.1053 7.0052 14.1874Z"
        fill="url(#paint0_linear_2253_3902)" />
    <path
        d="M14.2537 3.09472C14.1306 3.15216 14.024 3.39419 14.0568 3.52957C14.0937 3.68135 14.2291 3.81673 14.3686 3.84545C14.5204 3.87827 14.7501 3.77161 14.8116 3.63623C14.9757 3.27523 14.6106 2.92243 14.2537 3.09472Z"
        fill="url(#paint1_linear_2253_3902)" />
    <path
        d="M11.7928 3.91519C11.6697 3.97672 11.563 4.21055 11.5959 4.35413C11.6369 4.53874 11.7969 4.66591 11.9938 4.66591C12.1292 4.66591 12.1784 4.64129 12.2768 4.53053C12.3425 4.45669 12.3958 4.35413 12.3958 4.2967C12.3958 3.98082 12.0799 3.77571 11.7928 3.91519Z"
        fill="url(#paint2_linear_2253_3902)" />
    <path
        d="M19.1775 5.55611C19.0545 5.61354 18.9478 5.85558 18.9806 5.99096C19.0175 6.14274 19.1529 6.27812 19.2924 6.30683C19.4442 6.33965 19.6739 6.23299 19.7354 6.09762C19.8995 5.73661 19.5344 5.38382 19.1775 5.55611Z"
        fill="url(#paint3_linear_2253_3902)" />
    <path
        d="M12.6131 6.37657C12.49 6.43811 12.3833 6.67194 12.4162 6.81552C12.4572 7.00012 12.6172 7.1273 12.8141 7.1273C12.9495 7.1273 12.9987 7.10268 13.0971 6.99192C13.1628 6.91808 13.2161 6.81552 13.2161 6.75809C13.2161 6.44221 12.9002 6.2371 12.6131 6.37657Z"
        fill="url(#paint4_linear_2253_3902)" />
    <path
        d="M19.2201 7.20934C19.0847 7.30369 19.0519 7.38164 18.9657 7.83699C18.6457 9.48202 17.4356 10.7045 15.7536 11.086C15.3024 11.1845 15.1875 11.2747 15.1875 11.525C15.1875 11.8614 15.4172 11.9803 15.8931 11.8901C17.8048 11.525 19.3513 9.99891 19.7616 8.07082C19.8518 7.64418 19.8436 7.41856 19.7288 7.29139C19.6139 7.15601 19.3513 7.11088 19.2201 7.20934Z"
        fill="url(#paint5_linear_2253_3902)" />
    <defs>
        <linearGradient gradientUnits="userSpaceOnUse" id="paint0_linear_2253_3902" x1="0.509766"
            x2="21.4915" y1="11" y2="11">
            <stop stop-color="#996300" />
            <stop offset="0.95" stop-color="#FFA600" />
        </linearGradient>
        <linearGradient gradientUnits="userSpaceOnUse" id="paint1_linear_2253_3902" x1="14.0508"
            x2="14.8521" y1="3.45057" y2="3.45057">
            <stop stop-color="#996300" />
            <stop offset="0.95" stop-color="#FFA600" />
        </linearGradient>
        <linearGradient gradientUnits="userSpaceOnUse" id="paint2_linear_2253_3902" x1="11.5898"
            x2="12.3958" y1="4.26829" y2="4.26829">
            <stop stop-color="#996300" />
            <stop offset="0.95" stop-color="#FFA600" />
        </linearGradient>
        <linearGradient gradientUnits="userSpaceOnUse" id="paint3_linear_2253_3902" x1="18.9746"
            x2="19.7759" y1="5.91196" y2="5.91196">
            <stop stop-color="#996300" />
            <stop offset="0.95" stop-color="#FFA600" />
        </linearGradient>
        <linearGradient gradientUnits="userSpaceOnUse" id="paint4_linear_2253_3902" x1="12.4102"
            x2="13.2161" y1="6.72968" y2="6.72968">
            <stop stop-color="#996300" />
            <stop offset="0.95" stop-color="#FFA600" />
        </linearGradient>
        <linearGradient gradientUnits="userSpaceOnUse" id="paint5_linear_2253_3902" x1="15.1875"
            x2="19.8229" y1="9.53775" y2="9.53775">
            <stop stop-color="#996300" />
            <stop offset="0.95" stop-color="#FFA600" />
        </linearGradient>
    </defs>
</svg>
