<svg width="10" height="11" viewBox="0 0 10 11" fill="none" xmlns="http://www.w3.org/2000/svg">
<path d="M2.3731 1.87809C2.17584 1.96403 2.12896 2.22575 2.28326 2.38005C2.50201 2.60075 2.86138 2.40348 2.80474 2.09489C2.76959 1.9113 2.54888 1.79997 2.3731 1.87809Z" fill="#090909"/>
<path d="M3.0293 2.84082C2.83594 3.08691 2.69336 3.3877 2.66602 3.61621L2.65234 3.72559H2.80664H2.96094L2.98437 3.60645C3.01367 3.45215 3.11719 3.24121 3.25195 3.07129C3.31055 2.99512 3.36523 2.92285 3.37109 2.90918C3.38477 2.87988 3.21094 2.69043 3.17187 2.69043C3.16016 2.69043 3.0957 2.75879 3.0293 2.84082Z" fill="#090909"/>
<path d="M1.27935 2.97184C1.08209 3.05778 1.03521 3.3195 1.18951 3.4738C1.40826 3.6945 1.76763 3.49723 1.71099 3.18864C1.67584 3.00505 1.45513 2.89372 1.27935 2.97184Z" fill="#090909"/>
<path d="M9.2977 3.46019C9.20786 3.4973 7.11411 4.45043 6.8602 4.56957C6.66489 4.66136 6.5477 4.88793 6.57114 5.12425C6.57895 5.19066 6.577 5.25121 6.56919 5.25511C6.55942 5.26097 6.49106 5.24535 6.41685 5.21996C5.80942 5.01683 4.55161 5.18675 3.16489 5.65746C2.97739 5.71996 2.82114 5.77074 2.81724 5.76683C2.81528 5.76488 2.80356 5.71019 2.79184 5.64378C2.75278 5.42113 2.82505 5.13793 2.9813 4.90355C3.02817 4.83324 3.06724 4.76878 3.06724 4.76293C3.06724 4.74144 2.88169 4.56566 2.8602 4.56566C2.827 4.56566 2.68052 4.7766 2.60825 4.92699C2.4852 5.1848 2.44419 5.4348 2.48325 5.69261C2.49692 5.78636 2.51059 5.8723 2.51059 5.88011C2.51059 5.88988 2.44028 5.92699 2.35434 5.96019C2.26841 5.99535 2.1102 6.06566 2.00278 6.11449C1.89536 6.16136 1.80552 6.20043 1.80356 6.19847C1.79966 6.19652 1.78208 6.11058 1.76059 6.00902C1.702 5.72972 1.68052 5.47972 1.68052 5.11644C1.68052 4.75121 1.66489 4.67503 1.56528 4.54808C1.53403 4.50902 1.46177 4.45043 1.40317 4.41722C1.31333 4.36839 1.28013 4.36058 1.15317 4.36058C1.03989 4.36058 0.987157 4.3723 0.92661 4.40355C0.823094 4.45824 0.733251 4.54808 0.678563 4.6516C0.637547 4.72972 0.635594 4.75511 0.629735 5.37621C0.625829 5.79613 0.616063 6.02855 0.602391 6.04418C0.590672 6.05785 0.555516 6.06957 0.524266 6.06957C0.373876 6.06957 0.211766 6.19652 0.166844 6.35277C0.123876 6.49535 0.162938 6.82347 0.264501 7.17503C0.274266 7.20238 0.254735 7.24144 0.200047 7.30785C0.0262193 7.51683 -0.0304213 7.72191 0.0281725 7.90941C0.217626 8.4973 0.737157 9.07152 1.37192 9.39183C2.21567 9.81566 3.27427 9.88011 4.26841 9.56761C5.64536 9.13207 6.65903 8.08714 6.90903 6.84105C6.97739 6.49144 6.95005 5.98753 6.83872 5.62816L6.80356 5.50902L6.88364 5.55003C6.94419 5.57933 7.00083 5.5891 7.1102 5.5891C7.25474 5.5891 7.26255 5.58519 7.61802 5.41136C7.81724 5.31371 8.38755 5.03441 8.88755 4.79222C9.38755 4.54808 9.82114 4.32543 9.85044 4.29613C9.95005 4.20238 9.98911 4.10277 9.98911 3.95043C9.98911 3.8391 9.97935 3.79418 9.93638 3.71214C9.79966 3.44847 9.55552 3.35082 9.2977 3.46019ZM1.31138 4.73753L1.36216 4.79418L1.37388 5.24144C1.3895 5.9055 1.47544 6.33714 1.67856 6.76488C1.88364 7.19457 2.17075 7.51097 2.52622 7.70238L2.64341 7.76488L2.56724 7.78636C2.42856 7.82738 1.92856 7.92113 1.72739 7.94652C1.55356 7.968 1.5145 7.968 1.39536 7.93871C0.991063 7.8391 0.719579 7.55589 0.561376 7.06566C0.493016 6.85472 0.436376 6.47191 0.467626 6.42308C0.477391 6.40941 0.526219 6.38988 0.577001 6.38011C0.727391 6.35277 0.828954 6.2805 0.887548 6.16332L0.938329 6.06175V5.45043C0.938329 4.7805 0.942235 4.75316 1.05161 4.69261C1.13169 4.64769 1.24888 4.66722 1.31138 4.73753ZM7.27036 4.89378C7.33677 4.96019 7.3602 5.07738 7.32114 5.1516C7.28989 5.20824 7.17856 5.28832 7.12778 5.28832C7.09653 5.28832 7.09849 5.28246 7.1395 5.23949C7.27231 5.10863 7.09067 4.89378 6.94224 5.00511C6.8895 5.04613 6.87192 5.04027 6.8856 4.98949C6.90317 4.93675 6.96958 4.86058 7.02231 4.83714C7.09263 4.80589 7.20981 4.83128 7.27036 4.89378ZM6.10435 5.4641C6.28794 5.49144 6.41099 5.53441 6.47544 5.593C6.52036 5.63402 6.52817 5.65355 6.51841 5.7141C6.50474 5.79418 6.40317 5.94847 6.29966 6.05003L6.2313 6.11644V6.06175C6.2313 5.94652 6.18442 5.84496 6.08481 5.7473C5.89536 5.55589 5.65122 5.55003 5.45005 5.73168C5.34849 5.82347 5.327 5.87035 5.2645 6.15355C5.20591 6.42503 5.10239 6.63597 4.91489 6.86839C4.82895 6.97777 4.7938 7.00316 4.6395 7.07543C4.38755 7.19457 3.86802 7.39574 3.51059 7.51488L3.202 7.61644L3.06138 7.58128C2.75474 7.50707 2.39536 7.2766 2.20591 7.03441C2.06919 6.85668 1.91489 6.58324 1.91489 6.51488C1.91489 6.4973 2.16684 6.37621 2.45981 6.25511C2.58872 6.20043 2.64731 6.1848 2.65317 6.20238C2.65903 6.21996 2.80747 6.4348 2.84458 6.47777C2.84849 6.48168 2.90317 6.43871 2.96958 6.38207L3.08677 6.2805L3.01841 6.18675C2.9813 6.13597 2.95005 6.08519 2.95005 6.07543C2.95005 6.05589 3.53013 5.85863 3.89145 5.75707C4.33872 5.63011 4.95591 5.50707 5.36216 5.46605C5.58677 5.44261 5.94614 5.44261 6.10435 5.4641ZM5.86997 5.96214C5.89927 5.98949 5.9188 6.0305 5.9188 6.06371C5.91684 6.1555 5.86997 6.35472 5.83677 6.40355C5.80747 6.44652 5.52427 6.63597 5.44224 6.66722C5.40903 6.68089 5.40903 6.67894 5.44028 6.61644C5.49497 6.51097 5.5477 6.34496 5.58677 6.15746C5.61216 6.0305 5.63364 5.97386 5.66489 5.94847C5.72739 5.89769 5.81333 5.90355 5.86997 5.96214ZM0.670751 7.88207L0.772313 7.98949L0.684422 7.97582C0.545751 7.95433 0.418798 7.90746 0.362157 7.85472C0.317235 7.81371 0.311376 7.79418 0.319188 7.73753C0.325047 7.70043 0.350438 7.63988 0.371922 7.60082L0.414891 7.53441L0.491063 7.65355C0.534032 7.71996 0.61411 7.82152 0.670751 7.88207Z" fill="#090909"/>
<path d="M1.10156 7.23535C1.13477 7.4248 1.31836 7.68652 1.52148 7.83496C1.57422 7.87402 1.62109 7.90527 1.62695 7.90527C1.63477 7.90527 1.67578 7.85254 1.71875 7.78809L1.79883 7.66895L1.65039 7.53027C1.54492 7.43262 1.48828 7.36035 1.44922 7.27832L1.39648 7.16309H1.24219H1.08984L1.10156 7.23535Z" fill="#090909"/>
<path d="M2.8125 6.85059V7.00684H2.96875H3.125V6.85059V6.69434H2.96875H2.8125V6.85059Z" fill="#090909"/>
<path d="M0.3125 3.88184V4.03809H0.46875H0.625V3.88184V3.72559H0.46875H0.3125V3.88184Z" fill="#090909"/>
<path d="M2.03125 4.03809V4.19434H2.1875H2.34375V4.03809V3.88184H2.1875H2.03125V4.03809Z" fill="#090909"/>
<path d="M1.875 5.44434V5.60059H2.03125H2.1875V5.44434V5.28809H2.03125H1.875V5.44434Z" fill="#090909"/>
</svg>
