<svg width="24" height="24" viewBox="0 0 24 24" fill="none" xmlns="http://www.w3.org/2000/svg">
<rect x="0.5" y="0.5" width="23" height="23" rx="11.5" fill="#016F13"/>
<rect x="0.5" y="0.5" width="23" height="23" rx="11.5" stroke="#4CD964"/>
<path d="M17.7251 7.8888C17.6457 7.80877 17.5513 7.74525 17.4472 7.7019C17.3432 7.65855 17.2316 7.63623 17.1189 7.63623C17.0062 7.63623 16.8946 7.65855 16.7905 7.7019C16.6865 7.74525 16.592 7.80877 16.5126 7.8888L10.1514 14.2586L7.47882 11.5775C7.3964 11.4979 7.29911 11.4353 7.1925 11.3932C7.08589 11.3512 6.97205 11.3306 6.85748 11.3326C6.74291 11.3346 6.62985 11.3591 6.52476 11.4048C6.41967 11.4505 6.3246 11.5164 6.24499 11.5988C6.16538 11.6812 6.10278 11.7785 6.06077 11.8851C6.01875 11.9917 5.99815 12.1056 6.00013 12.2201C6.00211 12.3347 6.02664 12.4478 6.07232 12.5529C6.11799 12.658 6.18392 12.753 6.26634 12.8326L9.54515 16.1115C9.62453 16.1915 9.71897 16.255 9.82302 16.2984C9.92707 16.3417 10.0387 16.364 10.1514 16.364C10.2641 16.364 10.3757 16.3417 10.4798 16.2984C10.5838 16.255 10.6783 16.1915 10.7576 16.1115L17.7251 9.14397C17.8118 9.06401 17.881 8.96697 17.9283 8.85896C17.9756 8.75095 18 8.63431 18 8.51639C18 8.39847 17.9756 8.28183 17.9283 8.17381C17.881 8.0658 17.8118 7.96876 17.7251 7.8888Z" fill="#F7F7F7"/>
</svg>
