<svg width="21" height="21" viewBox="0 0 21 21" fill="none" xmlns="http://www.w3.org/2000/svg">
<path d="M10.72 4.74683C10.4548 4.74683 10.2004 4.85218 10.0129 5.03972C9.82533 5.22726 9.71997 5.48161 9.71997 5.74683V15.7468C9.71997 16.012 9.82533 16.2664 10.0129 16.4539C10.2004 16.6415 10.4548 16.7468 10.72 16.7468C10.9852 16.7468 11.2395 16.6415 11.4271 16.4539C11.6146 16.2664 11.72 16.012 11.72 15.7468V5.74683C11.72 5.48161 11.6146 5.22726 11.4271 5.03972C11.2395 4.85218 10.9852 4.74683 10.72 4.74683ZM5.71997 10.7468C5.45475 10.7468 5.2004 10.8522 5.01286 11.0397C4.82533 11.2273 4.71997 11.4816 4.71997 11.7468V15.7468C4.71997 16.012 4.82533 16.2664 5.01286 16.4539C5.2004 16.6415 5.45475 16.7468 5.71997 16.7468C5.98519 16.7468 6.23954 16.6415 6.42708 16.4539C6.61461 16.2664 6.71997 16.012 6.71997 15.7468V11.7468C6.71997 11.4816 6.61461 11.2273 6.42708 11.0397C6.23954 10.8522 5.98519 10.7468 5.71997 10.7468ZM15.72 8.74683C15.4548 8.74683 15.2004 8.85218 15.0129 9.03972C14.8253 9.22726 14.72 9.48161 14.72 9.74683V15.7468C14.72 16.012 14.8253 16.2664 15.0129 16.4539C15.2004 16.6415 15.4548 16.7468 15.72 16.7468C15.9852 16.7468 16.2395 16.6415 16.4271 16.4539C16.6146 16.2664 16.72 16.012 16.72 15.7468V9.74683C16.72 9.48161 16.6146 9.22726 16.4271 9.03972C16.2395 8.85218 15.9852 8.74683 15.72 8.74683ZM17.72 0.746826H3.71997C2.92432 0.746826 2.16126 1.0629 1.59865 1.62551C1.03604 2.18812 0.719971 2.95118 0.719971 3.74683V17.7468C0.719971 18.5425 1.03604 19.3055 1.59865 19.8681C2.16126 20.4308 2.92432 20.7468 3.71997 20.7468H17.72C18.5156 20.7468 19.2787 20.4308 19.8413 19.8681C20.4039 19.3055 20.72 18.5425 20.72 17.7468V3.74683C20.72 2.95118 20.4039 2.18812 19.8413 1.62551C19.2787 1.0629 18.5156 0.746826 17.72 0.746826ZM18.72 17.7468C18.72 18.012 18.6146 18.2664 18.4271 18.4539C18.2395 18.6415 17.9852 18.7468 17.72 18.7468H3.71997C3.45475 18.7468 3.2004 18.6415 3.01286 18.4539C2.82533 18.2664 2.71997 18.012 2.71997 17.7468V3.74683C2.71997 3.48161 2.82533 3.22726 3.01286 3.03972C3.2004 2.85218 3.45475 2.74683 3.71997 2.74683H17.72C17.9852 2.74683 18.2395 2.85218 18.4271 3.03972C18.6146 3.22726 18.72 3.48161 18.72 3.74683V17.7468Z" fill="black"/>
</svg>
