<svg width="14" height="14" viewBox="0 0 14 14" fill="none" xmlns="http://www.w3.org/2000/svg">
<path d="M11.7238 3.66667H2.2793" stroke="#A52424" stroke-width="1.25" stroke-linecap="round"/>
<path d="M10.7977 5.05556L10.5421 8.88841C10.4438 10.3634 10.3947 11.1008 9.91409 11.5504C9.43353 12 8.69442 12 7.2162 12H6.78655C5.30833 12 4.56922 12 4.08866 11.5504C3.6081 11.1008 3.55893 10.3634 3.4606 8.88841L3.20508 5.05556" stroke="#A52424" stroke-width="1.25" stroke-linecap="round"/>
<path d="M5.61328 6.44444L5.89106 9.22222" stroke="#A52424" stroke-width="1.25" stroke-linecap="round"/>
<path d="M8.39106 6.44444L8.11328 9.22222" stroke="#A52424" stroke-width="1.25" stroke-linecap="round"/>
<path d="M3.94531 3.66667C3.97636 3.66667 3.99188 3.66667 4.00595 3.66631C4.46342 3.65472 4.86699 3.36384 5.02266 2.93351C5.02744 2.92027 5.03235 2.90555 5.04217 2.8761L5.09611 2.71429C5.14215 2.57616 5.16517 2.50709 5.19571 2.44844C5.31754 2.21448 5.54295 2.05202 5.80343 2.01043C5.86872 2 5.94152 2 6.08712 2H7.91461C8.06022 2 8.13302 2 8.19831 2.01043C8.45879 2.05202 8.6842 2.21448 8.80603 2.44844C8.83656 2.50709 8.85959 2.57615 8.90563 2.71429L8.95957 2.8761C8.96937 2.90551 8.9743 2.92028 8.97908 2.93351C9.13474 3.36384 9.53832 3.65472 9.99579 3.66631C10.0099 3.66667 10.0254 3.66667 10.0564 3.66667" stroke="#A52424" stroke-width="1.25"/>
</svg>
