<svg width="24" height="24" viewBox="0 0 24 24" fill="none" xmlns="http://www.w3.org/2000/svg">
<path d="M18.3289 20.5406C18.172 20.5406 18.0449 20.4134 18.0449 20.2566V19.6839C18.0449 19.527 18.1721 19.3999 18.3289 19.3999C18.4857 19.3999 18.6129 19.5271 18.6129 19.6839V20.2566C18.6129 20.4135 18.4857 20.5406 18.3289 20.5406Z" fill="#45C55B"/>
<path d="M19.9481 19.5308C19.7912 19.5308 19.6641 19.4036 19.6641 19.2468V18.6742C19.6641 18.5173 19.7912 18.3901 19.9481 18.3901C20.1049 18.3901 20.2321 18.5173 20.2321 18.6742V19.2468C20.232 19.4037 20.1049 19.5308 19.9481 19.5308Z" fill="#45C55B"/>
<path d="M20.967 15.3049C20.9784 15.2666 20.9905 15.2286 21.0009 15.1898C21.3721 13.8066 21.1497 12.2418 20.3578 10.6645C19.6342 9.22321 18.1798 7.86257 16.3676 6.93145C15.6381 6.55659 14.7273 6.2002 13.9182 6.0607C13.4454 5.65959 13.1535 5.06423 13.1535 4.41816V2.49516C13.1535 1.6989 12.5057 1.05109 11.7095 1.05109H10.0652C9.26891 1.05109 8.6211 1.6989 8.6211 2.49516V4.41816C8.6211 5.03203 8.35734 5.59978 7.92553 5.99897C6.98906 5.99601 5.7481 6.44849 4.80816 6.93145C2.99598 7.86257 1.54159 9.22321 0.817936 10.6645C0.0260323 12.2418 -0.196342 13.8066 0.174813 15.1898C0.528343 16.5074 1.4124 17.5791 2.6642 18.2076C3.36277 18.5583 4.1034 18.7348 4.8421 18.7348C5.42714 18.7347 6.01111 18.624 6.57145 18.4015C6.78703 18.3159 6.99698 18.2147 7.20108 18.0989C8.16815 19.1298 9.49199 19.6957 10.9463 19.6957C11.3634 19.6957 11.7695 19.6482 12.1598 19.5574C13.0582 21.5836 15.2777 23.0207 17.8667 23.0207C21.2486 23.0207 24 20.5686 24 17.5545C24 16.3624 22.6657 15.6593 20.967 15.3049ZM15.935 7.77346C17.5726 8.61487 18.8762 9.82344 19.5119 11.0893C20.2479 12.5552 20.4024 13.9801 20.0254 15.1473C19.3157 15.0549 18.5763 15.013 17.8668 15.013C17.3141 15.013 16.7434 15.0386 16.1828 15.0934C16.2996 14.5298 16.3593 13.9283 16.3593 13.2948C16.3593 11.5465 15.616 9.51983 14.3199 7.73423C14.1424 7.48982 13.9437 7.23731 13.7309 6.98952C14.2845 7.08088 15.0513 7.31938 15.935 7.77346ZM9.56774 4.41816V2.49516C9.56774 2.2209 9.79091 1.99772 10.0652 1.99772H11.7095C11.9837 1.99772 12.2069 2.2209 12.2069 2.49516V4.41816C12.2069 4.91915 12.3292 5.39869 12.5477 5.82492C11.9975 5.38462 11.436 5.08608 10.9463 5.08608C10.3907 5.08608 9.74263 5.47012 9.12365 6.00989C9.40668 5.53969 9.56774 4.99312 9.56774 4.41816ZM6.22209 17.5217C5.20875 17.9242 4.09604 17.8674 3.08898 17.3617C0.903811 16.2645 0.331141 13.7438 1.66393 11.0893C2.29951 9.82339 3.60319 8.61482 5.24077 7.77346C6.42206 7.16652 7.39429 6.94462 7.92806 6.94462C8.02846 6.94462 8.11312 6.95259 8.18095 6.96717C7.96092 7.22207 7.75546 7.48246 7.5727 7.73423C6.27661 9.51983 5.53331 11.5466 5.53331 13.2948C5.53331 14.8748 5.90334 16.2568 6.60966 17.3425C6.48276 17.409 6.35372 17.4694 6.22209 17.5217ZM10.9463 18.749C8.27484 18.749 6.47995 16.5571 6.47995 13.2948C6.47995 11.7419 7.15748 9.9178 8.33882 8.2903C9.45665 6.75028 10.5556 6.03276 10.9463 6.03276C11.337 6.03276 12.436 6.75028 13.5538 8.2903C14.7351 9.9178 15.4127 11.7418 15.4127 13.2948C15.4127 13.9916 15.3304 14.6392 15.1754 15.2273C13.2868 15.5511 11.7335 16.2683 11.7335 17.5545C11.7335 17.9325 11.7768 18.3016 11.8591 18.6581C11.5682 18.7179 11.2634 18.749 10.9463 18.749ZM17.8667 22.0741C15.0068 22.0741 12.6801 20.0466 12.6801 17.5545C12.6801 17.1524 13.2056 16.7511 14.1217 16.4536C15.0881 16.1397 16.4531 15.9597 17.8667 15.9597C19.2804 15.9597 20.6454 16.1397 21.6117 16.4536C22.5278 16.7511 23.0533 17.1524 23.0533 17.5545C23.0533 20.0466 20.7266 22.0741 17.8667 22.0741Z" fill="#45C55B"/>
<path d="M8.05787 13.2777C8.04484 13.2777 8.03167 13.2771 8.01845 13.276C7.75792 13.2546 7.56414 13.026 7.58561 12.7655C7.68826 11.5201 8.00584 10.4088 8.52948 9.46248C8.65604 9.23373 8.94404 9.151 9.17279 9.27751C9.40154 9.40412 9.48432 9.69212 9.35776 9.92082C8.89942 10.7491 8.6206 11.7323 8.52906 12.8432C8.50867 13.0905 8.30162 13.2777 8.05787 13.2777Z" fill="#45C55B"/>
<path d="M10.0846 8.64016C9.96592 8.64016 9.84714 8.59582 9.75522 8.50671C9.56753 8.32479 9.56284 8.02511 9.74476 7.83743C9.87165 7.70651 10.0424 7.53696 10.2385 7.38663C10.4459 7.22754 10.7431 7.26677 10.9021 7.47424C11.0612 7.68166 11.022 7.9788 10.8145 8.13785C10.6674 8.25068 10.5288 8.38868 10.4245 8.4963C10.3317 8.59202 10.2082 8.64016 10.0846 8.64016Z" fill="#45C55B"/>
<path d="M2.28631 13.2545C2.25584 13.2545 2.22491 13.2516 2.19388 13.2454C1.9378 13.1946 1.77116 12.9465 1.82146 12.6904C1.83758 12.6083 2.23297 10.6679 3.69954 9.52325C3.9056 9.36232 4.20307 9.39903 4.36385 9.60509C4.52473 9.8112 4.48802 10.1086 4.28196 10.2694C3.09856 11.1931 2.75347 12.857 2.75009 12.8737C2.70509 13.0986 2.50737 13.2545 2.28631 13.2545Z" fill="#45C55B"/>
</svg>
