<svg width="15" height="16" viewBox="0 0 15 16" fill="none" xmlns="http://www.w3.org/2000/svg">
<path d="M7.5 10.5781C8.92386 10.5781 10.0781 9.42386 10.0781 8C10.0781 6.57614 8.92386 5.42188 7.5 5.42188C6.07614 5.42188 4.92188 6.57614 4.92188 8C4.92188 9.42386 6.07614 10.5781 7.5 10.5781Z" stroke="#777777" stroke-width="1.40625" stroke-miterlimit="10" stroke-linecap="round" stroke-linejoin="round"/>
<path d="M3.06447 5.86712C3.16993 5.64446 3.29298 5.43352 3.43361 5.22844L3.41017 3.70501C3.41017 3.56438 3.46876 3.42962 3.58009 3.33587C4.12501 2.87884 4.74611 2.50969 5.43165 2.2636C5.56642 2.21673 5.7129 2.22844 5.83009 2.30462L7.13673 3.08977C7.38283 3.07219 7.62892 3.07219 7.87501 3.08977L9.18165 2.30462C9.3047 2.2343 9.45118 2.21673 9.58595 2.2636C10.2539 2.50384 10.8809 2.86126 11.4375 3.33001C11.543 3.4179 11.6074 3.55852 11.6016 3.69915L11.5781 5.22258C11.7188 5.42766 11.8418 5.6386 11.9473 5.86126L13.2774 6.59954C13.4004 6.66985 13.4883 6.78704 13.5117 6.92766C13.6348 7.62493 13.6406 8.35149 13.5117 9.06048C13.4883 9.2011 13.4004 9.31829 13.2774 9.3886L11.9473 10.1269C11.8418 10.3495 11.7188 10.5605 11.5781 10.7656L11.6016 12.289C11.6016 12.4296 11.543 12.5644 11.4317 12.6581C10.8867 13.1152 10.2656 13.4843 9.58009 13.7304C9.44532 13.7773 9.29884 13.7656 9.18165 13.6894L7.87501 12.9042C7.62892 12.9218 7.38283 12.9218 7.13673 12.9042L5.83009 13.6894C5.70704 13.7597 5.56056 13.7773 5.42579 13.7304C4.75783 13.4902 4.13087 13.1327 3.57423 12.664C3.46876 12.5761 3.40431 12.4355 3.41017 12.2948L3.43361 10.7714C3.29298 10.5663 3.16993 10.3554 3.06447 10.1327L1.73439 9.39446C1.61134 9.32415 1.52345 9.20696 1.50001 9.06633C1.37697 8.36907 1.37111 7.64251 1.50001 6.93352C1.52345 6.7929 1.61134 6.67571 1.73439 6.6054L3.06447 5.86712Z" stroke="#777777" stroke-width="1.40625" stroke-miterlimit="10" stroke-linecap="round" stroke-linejoin="round"/>
</svg>
