<svg fill="none" height="7" viewBox="0 0 8 7" width="8" xmlns="http://www.w3.org/2000/svg">
    <path
        d="M1.89926 0.396866C1.74145 0.465616 1.70395 0.674991 1.82739 0.798428C2.00239 0.97499 2.28989 0.817178 2.24458 0.570303C2.21645 0.423428 2.03989 0.334366 1.89926 0.396866Z"
        fill="black" />
    <path
        d="M2.42266 1.16719C2.26797 1.36406 2.15391 1.60469 2.13203 1.7875L2.12109 1.875H2.24453H2.36797L2.38672 1.77969C2.41016 1.65625 2.49297 1.4875 2.60078 1.35156C2.64766 1.29062 2.69141 1.23281 2.69609 1.22188C2.70703 1.19844 2.56797 1.04688 2.53672 1.04688C2.52734 1.04688 2.47578 1.10156 2.42266 1.16719Z"
        fill="black" />
    <path
        d="M1.02426 1.27187C0.866451 1.34062 0.828951 1.54999 0.952389 1.67343C1.12739 1.84999 1.41489 1.69218 1.36958 1.4453C1.34145 1.29843 1.16489 1.20937 1.02426 1.27187Z"
        fill="black" />
    <path
        d="M7.43738 1.6625C7.36551 1.69219 5.69051 2.45469 5.48738 2.55C5.33113 2.62344 5.23738 2.80469 5.25613 2.99375C5.26238 3.04688 5.26082 3.09531 5.25457 3.09844C5.24676 3.10313 5.19207 3.09063 5.13269 3.07031C4.64676 2.90781 3.64051 3.04375 2.53113 3.42031C2.38113 3.47031 2.25613 3.51094 2.25301 3.50781C2.25144 3.50625 2.24207 3.4625 2.23269 3.40938C2.20144 3.23125 2.25926 3.00469 2.38426 2.81719C2.42176 2.76094 2.45301 2.70938 2.45301 2.70469C2.45301 2.6875 2.30457 2.54688 2.28738 2.54688C2.26082 2.54688 2.14363 2.71563 2.08582 2.83594C1.98738 3.04219 1.95457 3.24219 1.98582 3.44844C1.99676 3.52344 2.00769 3.59219 2.00769 3.59844C2.00769 3.60625 1.95144 3.63594 1.88269 3.6625C1.81394 3.69063 1.68738 3.74688 1.60144 3.78594C1.51551 3.82344 1.44363 3.85469 1.44207 3.85313C1.43894 3.85156 1.42488 3.78281 1.40769 3.70156C1.36082 3.47813 1.34363 3.27813 1.34363 2.9875C1.34363 2.69531 1.33113 2.63438 1.25144 2.53281C1.22644 2.50156 1.16863 2.45469 1.12176 2.42813C1.04988 2.38906 1.02332 2.38281 0.921757 2.38281C0.831132 2.38281 0.788944 2.39219 0.740507 2.41719C0.657694 2.46094 0.585819 2.53281 0.542069 2.61563C0.509257 2.67813 0.507694 2.69844 0.503007 3.19531C0.499882 3.53125 0.492069 3.71719 0.481132 3.72969C0.471757 3.74063 0.443632 3.75 0.418632 3.75C0.298319 3.75 0.168632 3.85156 0.132694 3.97656C0.0983192 4.09063 0.129569 4.35313 0.210819 4.63438C0.218632 4.65625 0.203007 4.6875 0.159257 4.74063C0.0201942 4.90781 -0.0251183 5.07188 0.0217567 5.22188C0.173319 5.69219 0.588944 6.15156 1.09676 6.40781C1.77176 6.74688 2.61863 6.79844 3.41394 6.54844C4.51551 6.2 5.32644 5.36406 5.52644 4.36719C5.58113 4.0875 5.55926 3.68438 5.47019 3.39688L5.44207 3.30156L5.50613 3.33438C5.55457 3.35781 5.59988 3.36563 5.68738 3.36563C5.80301 3.36563 5.80926 3.3625 6.09363 3.22344C6.25301 3.14531 6.70926 2.92188 7.10926 2.72813C7.50926 2.53281 7.85613 2.35469 7.87957 2.33125C7.95926 2.25625 7.99051 2.17656 7.99051 2.05469C7.99051 1.96563 7.98269 1.92969 7.94832 1.86406C7.83894 1.65313 7.64363 1.575 7.43738 1.6625ZM1.04832 2.68438L1.08894 2.72969L1.09832 3.0875C1.11082 3.61875 1.17957 3.96406 1.34207 4.30625C1.50613 4.65 1.73582 4.90313 2.02019 5.05625L2.11394 5.10625L2.05301 5.12344C1.94207 5.15625 1.54207 5.23125 1.38113 5.25156C1.24207 5.26875 1.21082 5.26875 1.11551 5.24531C0.792069 5.16563 0.574882 4.93906 0.448319 4.54688C0.393632 4.37813 0.348319 4.07188 0.373319 4.03281C0.381132 4.02188 0.420194 4.00625 0.460819 3.99844C0.581132 3.97656 0.662382 3.91875 0.709257 3.825L0.749882 3.74375V3.25469C0.749882 2.71875 0.753007 2.69688 0.840507 2.64844C0.904569 2.6125 0.998319 2.62813 1.04832 2.68438ZM5.81551 2.80938C5.86863 2.8625 5.88738 2.95625 5.85613 3.01563C5.83113 3.06094 5.74207 3.125 5.70144 3.125C5.67644 3.125 5.67801 3.12031 5.71082 3.08594C5.81707 2.98125 5.67176 2.80938 5.55301 2.89844C5.51082 2.93125 5.49676 2.92656 5.50769 2.88594C5.52176 2.84375 5.57488 2.78281 5.61707 2.76406C5.67332 2.73906 5.76707 2.75938 5.81551 2.80938ZM4.88269 3.26563C5.02957 3.2875 5.12801 3.32188 5.17957 3.36875C5.21551 3.40156 5.22176 3.41719 5.21394 3.46563C5.20301 3.52969 5.12176 3.65313 5.03894 3.73438L4.98426 3.7875V3.74375C4.98426 3.65156 4.94676 3.57031 4.86707 3.49219C4.71551 3.33906 4.52019 3.33438 4.35926 3.47969C4.27801 3.55313 4.26082 3.59063 4.21082 3.81719C4.16394 4.03438 4.08113 4.20313 3.93113 4.38906C3.86238 4.47656 3.83426 4.49688 3.71082 4.55469C3.50926 4.65 3.09363 4.81094 2.80769 4.90625L2.56082 4.9875L2.44832 4.95938C2.20301 4.9 1.91551 4.71563 1.76394 4.52188C1.65457 4.37969 1.53113 4.16094 1.53113 4.10625C1.53113 4.09219 1.73269 3.99531 1.96707 3.89844C2.07019 3.85469 2.11707 3.84219 2.12176 3.85625C2.12644 3.87031 2.24519 4.04219 2.27488 4.07656C2.27801 4.07969 2.32176 4.04531 2.37488 4L2.46863 3.91875L2.41394 3.84375C2.38426 3.80313 2.35926 3.7625 2.35926 3.75469C2.35926 3.73906 2.82332 3.58125 3.11238 3.5C3.47019 3.39844 3.96394 3.3 4.28894 3.26719C4.46863 3.24844 4.75613 3.24844 4.88269 3.26563ZM4.69519 3.66406C4.71863 3.68594 4.73426 3.71875 4.73426 3.74531C4.73269 3.81875 4.69519 3.97813 4.66863 4.01719C4.64519 4.05156 4.41863 4.20313 4.35301 4.22813C4.32644 4.23906 4.32644 4.2375 4.35144 4.1875C4.39519 4.10313 4.43738 3.97031 4.46863 3.82031C4.48894 3.71875 4.50613 3.67344 4.53113 3.65313C4.58113 3.6125 4.64988 3.61719 4.69519 3.66406ZM0.535819 5.2L0.617069 5.28594L0.546757 5.275C0.435819 5.25781 0.334257 5.22031 0.288944 5.17813C0.253007 5.14531 0.248319 5.12969 0.254569 5.08438C0.259257 5.05469 0.279569 5.00625 0.296757 4.975L0.331132 4.92188L0.392069 5.01719C0.426444 5.07031 0.490507 5.15156 0.535819 5.2Z"
        fill="black" />
    <path
        d="M0.880469 4.68281C0.907031 4.83437 1.05391 5.04375 1.21641 5.1625C1.25859 5.19375 1.29609 5.21875 1.30078 5.21875C1.30703 5.21875 1.33984 5.17656 1.37422 5.125L1.43828 5.02969L1.31953 4.91875C1.23516 4.84062 1.18984 4.78281 1.15859 4.71719L1.11641 4.625H0.992969H0.871094L0.880469 4.68281Z"
        fill="black" />
    <path d="M2.25 4.375V4.5H2.375H2.5V4.375V4.25H2.375H2.25V4.375Z" fill="black" />
    <path d="M0.25 2V2.125H0.375H0.5V2V1.875H0.375H0.25V2Z" fill="black" />
    <path d="M1.625 2.125V2.25H1.75H1.875V2.125V2H1.75H1.625V2.125Z" fill="black" />
    <path d="M1.5 3.25V3.375H1.625H1.75V3.25V3.125H1.625H1.5V3.25Z" fill="black" />
</svg>
