<svg fill="none" height="10" viewBox="0 0 10 10" width="10" xmlns="http://www.w3.org/2000/svg">
    <path
        d="M3.053 8.12349C1.649 7.04149 0 5.77099 0 3.56849C0 1.13699 2.75 -0.587509 5 1.75049L6 2.74949C6.07109 2.81573 6.16511 2.85179 6.26226 2.85008C6.35941 2.84836 6.4521 2.80901 6.52081 2.7403C6.58952 2.6716 6.62887 2.5789 6.63059 2.48175C6.6323 2.3846 6.59624 2.29058 6.53 2.21949L5.565 1.25299C7.6845 -0.298509 10 1.33749 10 3.56849C10 5.77099 8.351 7.04149 6.947 8.12349C6.80033 8.23583 6.65767 8.34649 6.519 8.45549C6 8.86449 5.5 9.24999 5 9.24999C4.5 9.24999 4 8.86499 3.481 8.45499C3.342 8.34632 3.19933 8.23583 3.053 8.12349Z"
        fill="#E83333" />
</svg>
