<svg width="12" height="13" viewBox="0 0 12 13" fill="none" xmlns="http://www.w3.org/2000/svg">
<g clip-path="url(#clip0_2017_16819)">
<path d="M3.38333 0.490723H8.28333C10.15 0.490723 11.6667 2.00739 11.6667 3.87406V8.77406C11.6667 9.67137 11.3102 10.5319 10.6757 11.1664C10.0412 11.8009 9.18065 12.1574 8.28333 12.1574H3.38333C1.51667 12.1574 0 10.6407 0 8.77406V3.87406C0 2.97674 0.356457 2.11618 0.990956 1.48168C1.62545 0.84718 2.48602 0.490723 3.38333 0.490723ZM3.26667 1.65739C2.70971 1.65739 2.17557 1.87864 1.78174 2.27247C1.38792 2.66629 1.16667 3.20043 1.16667 3.75739V8.89072C1.16667 10.0516 2.10583 10.9907 3.26667 10.9907H8.4C8.95695 10.9907 9.4911 10.7695 9.88493 10.3756C10.2788 9.98182 10.5 9.44768 10.5 8.89072V3.75739C10.5 2.59656 9.56083 1.65739 8.4 1.65739H3.26667ZM8.89583 2.53239C9.08922 2.53239 9.27469 2.60921 9.41143 2.74596C9.54818 2.8827 9.625 3.06817 9.625 3.26156C9.625 3.45494 9.54818 3.64041 9.41143 3.77715C9.27469 3.9139 9.08922 3.99072 8.89583 3.99072C8.70245 3.99072 8.51698 3.9139 8.38023 3.77715C8.24349 3.64041 8.16667 3.45494 8.16667 3.26156C8.16667 3.06817 8.24349 2.8827 8.38023 2.74596C8.51698 2.60921 8.70245 2.53239 8.89583 2.53239ZM5.83333 3.40739C6.60688 3.40739 7.34875 3.71468 7.89573 4.26166C8.44271 4.80864 8.75 5.55051 8.75 6.32406C8.75 7.0976 8.44271 7.83947 7.89573 8.38645C7.34875 8.93343 6.60688 9.24072 5.83333 9.24072C5.05979 9.24072 4.31792 8.93343 3.77094 8.38645C3.22396 7.83947 2.91667 7.0976 2.91667 6.32406C2.91667 5.55051 3.22396 4.80864 3.77094 4.26166C4.31792 3.71468 5.05979 3.40739 5.83333 3.40739ZM5.83333 4.57406C5.3692 4.57406 4.92409 4.75843 4.5959 5.08662C4.26771 5.41481 4.08333 5.85993 4.08333 6.32406C4.08333 6.78819 4.26771 7.2333 4.5959 7.56149C4.92409 7.88968 5.3692 8.07406 5.83333 8.07406C6.29746 8.07406 6.74258 7.88968 7.07077 7.56149C7.39896 7.2333 7.58333 6.78819 7.58333 6.32406C7.58333 5.85993 7.39896 5.41481 7.07077 5.08662C6.74258 4.75843 6.29746 4.57406 5.83333 4.57406Z" fill="url(#paint0_linear_2017_16819)"/>
</g>
<defs>
<linearGradient id="paint0_linear_2017_16819" x1="5.83333" y1="0.490723" x2="5.83333" y2="12.1574" gradientUnits="userSpaceOnUse">
<stop stop-color="#FF9D00"/>
<stop offset="1" stop-color="#FF00D0"/>
</linearGradient>
<clipPath id="clip0_2017_16819">
<rect width="11.6667" height="11.6667" fill="white" transform="translate(0 0.490723)"/>
</clipPath>
</defs>
</svg>
