<svg width="25" height="29" viewBox="0 0 25 29" fill="none" xmlns="http://www.w3.org/2000/svg">
<path d="M2.29809 12.3729C2.29809 20.3075 12.4996 27.1085 12.4996 27.1085C12.4996 27.1085 22.7012 20.3075 22.7012 12.3729C22.7012 9.66731 21.6264 7.07251 19.7132 5.15935C17.8001 3.24619 15.2052 2.17139 12.4996 2.17139C9.79402 2.17139 7.19922 3.24619 5.28606 5.15935C3.3729 7.07251 2.29809 9.66731 2.29809 12.3729Z" stroke="white" stroke-width="3" stroke-linecap="round" stroke-linejoin="round"/>
<path d="M12.4999 15.7734C10.6218 15.7734 9.09936 14.251 9.09936 12.3729C9.09936 10.4949 10.6218 8.97241 12.4999 8.97241C14.3779 8.97241 15.9004 10.4949 15.9004 12.3729C15.9004 14.251 14.3779 15.7734 12.4999 15.7734Z" stroke="white" stroke-width="3" stroke-linecap="round" stroke-linejoin="round"/>
</svg>
