<svg width="16" height="16" viewBox="0 0 16 16" fill="none" xmlns="http://www.w3.org/2000/svg">
<path fill-rule="evenodd" clip-rule="evenodd" d="M2.3103 13.69C3.28661 14.6663 4.85795 14.6663 8.00065 14.6663C11.1433 14.6663 12.7147 14.6663 13.691 13.69C14.6673 12.7137 14.6673 11.1424 14.6673 7.99967C14.6673 4.85698 14.6673 3.28563 13.691 2.30932C12.7147 1.33301 11.1433 1.33301 8.00065 1.33301C4.85795 1.33301 3.28661 1.33301 2.31029 2.30932C1.33398 3.28563 1.33398 4.85698 1.33398 7.99967C1.33398 11.1424 1.33398 12.7137 2.3103 13.69ZM11.2905 5.46366L8.94911 11.5742C8.73698 12.1278 7.96067 12.1458 7.79511 11.6009L7.09077 9.28296C7.03599 9.10268 6.89764 8.96434 6.71736 8.90956L4.39938 8.20522C3.85451 8.03965 3.87251 7.26335 4.42614 7.05121L10.5367 4.70981C11.0266 4.52208 11.4782 4.97372 11.2905 5.46366Z" fill="#090909"/>
</svg>
