<svg fill="none" height="14" viewBox="0 0 20 14" width="20" xmlns="http://www.w3.org/2000/svg">
    <path
        d="M14.4562 0.0836382C13.6163 0.161763 13.0773 0.337544 11.7726 0.946919C10.7491 1.43129 10.0655 1.67348 9.34288 1.81801C8.49522 1.98598 8.06944 2.00942 6.25694 1.97817C4.42881 1.94692 4.12413 1.96645 3.38194 2.15395C2.01866 2.4977 1.171 3.29067 0.81944 4.55629C0.737409 4.85708 0.733503 4.95083 0.717878 6.78286C0.702253 9.28286 0.733503 9.57192 1.13975 10.4274C2.29991 12.8649 5.04991 14.1149 8.80772 13.9157C10.2999 13.8375 11.3546 13.6579 12.4093 13.3063C14.1554 12.7243 15.7101 11.7672 17.003 10.4782C18.2179 9.25942 18.9874 7.97426 19.2296 6.74379C19.2726 6.53286 19.2843 6.02114 19.2843 4.4977C19.2843 2.68129 19.2765 2.50161 19.2101 2.25161C18.9405 1.25551 18.1632 0.575826 16.9679 0.278951C16.2882 0.110982 15.1163 0.0211382 14.4562 0.0836382ZM16.1866 0.693013C17.0968 0.818013 17.6827 1.05239 18.128 1.47036C18.9093 2.20864 18.9523 3.36489 18.2491 4.77114C16.9757 7.3102 13.8194 9.52895 10.7413 10.0407C8.78428 10.3688 6.87022 10.3297 5.37803 9.93911C3.69444 9.4977 2.38194 8.52895 1.71007 7.23208C1.26866 6.38442 1.15538 5.49379 1.37803 4.6227C1.6085 3.70864 2.31944 3.02895 3.37022 2.71645C3.9835 2.53286 4.1085 2.52504 6.09678 2.53676C8.04991 2.54848 8.51866 2.52895 9.30381 2.38442C10.2101 2.22426 10.8273 2.00551 12.0773 1.41176C13.214 0.868794 13.7023 0.708638 14.4601 0.630513C14.8663 0.591451 15.628 0.614888 16.1866 0.693013ZM18.7452 5.86489C18.7179 6.77504 18.6241 7.15395 18.2335 7.92739C17.4718 9.44301 15.9249 10.9508 14.0812 11.9743C12.339 12.9469 10.5069 13.3766 8.11241 13.3766C5.62803 13.3766 3.83506 12.779 2.58507 11.529C2.15538 11.0993 1.87022 10.7008 1.62803 10.1891C1.33897 9.57973 1.24522 9.04848 1.26475 8.13442L1.27647 7.60708L1.4796 7.91958C2.79991 9.95083 5.38194 10.9665 8.79991 10.7907C10.6788 10.693 11.9835 10.4157 13.3858 9.81411C15.5382 8.88833 17.5226 7.18129 18.5538 5.36879C18.6749 5.15786 18.7413 5.06801 18.753 5.11489C18.7608 5.15004 18.7569 5.48989 18.7452 5.86489Z"
        fill="url(#paint0_linear_2253_3885)" />
    <path
        d="M15.5338 2.15786C15.1275 2.3102 14.7682 2.45864 14.7447 2.4938C14.6627 2.60317 14.6822 2.8063 14.7799 2.8727C14.8267 2.90786 14.8971 2.9352 14.9361 2.9352C15.0455 2.9352 16.5416 2.39223 16.6158 2.32192C16.7057 2.23989 16.7057 2.02895 16.6158 1.94692C16.4986 1.83755 16.3111 1.87661 15.5338 2.15786Z"
        fill="url(#paint1_linear_2253_3885)" />
    <path
        d="M11.6871 2.66177C11.609 2.73989 11.5855 2.91567 11.6402 3.00161C11.6559 3.02895 11.7848 3.1227 11.9215 3.21255L12.1715 3.3727L11.2574 3.70083L10.3434 4.02895L9.79648 3.67739C9.19101 3.28677 9.08164 3.25942 8.94101 3.45083C8.8082 3.63052 8.8707 3.73208 9.28476 3.9977C9.48789 4.13052 9.65586 4.2477 9.65586 4.25942C9.65586 4.30239 7.9332 4.89614 7.86679 4.87661C7.82773 4.8688 7.32773 4.5563 6.7457 4.1852C6.00742 3.71255 5.65586 3.50942 5.57773 3.50942C5.36289 3.50552 5.2457 3.77895 5.39023 3.93911C5.42539 3.98208 5.72226 4.1852 6.04257 4.38833C7.23007 5.14223 7.21445 5.13052 7.15195 5.16177C7.1207 5.1813 6.64804 5.35317 6.10507 5.54848C5.29257 5.84145 5.10507 5.89614 5.03867 5.86098C4.9957 5.83755 4.81211 5.72427 4.63632 5.60708C4.28867 5.38052 4.15586 5.34927 4.03086 5.47427C3.86289 5.64223 3.95664 5.84145 4.30429 6.04848C4.3707 6.08364 4.42148 6.12661 4.42148 6.13833C4.42148 6.15005 4.14414 6.25552 3.8082 6.37661C3.12461 6.6188 3.00351 6.70473 3.07773 6.90786C3.09726 6.96645 3.15976 7.04067 3.21445 7.07192C3.31211 7.12661 3.36679 7.11098 4.15976 6.82973C4.6207 6.66567 5.01523 6.52895 5.03086 6.52895C5.10117 6.52895 6.30039 7.32192 6.26914 7.34927C6.25351 7.36489 5.92929 7.48989 5.55429 7.6227C4.84726 7.8727 4.69492 7.96255 4.69492 8.1188C4.69492 8.22036 4.85507 8.40395 4.94492 8.40395C4.97617 8.40395 5.41757 8.25552 5.92539 8.07192C6.4332 7.88833 6.8707 7.73989 6.90195 7.73989C6.9332 7.73989 7.41367 8.02895 7.96836 8.38442C8.52304 8.73989 9.01523 9.02895 9.06211 9.02895C9.20273 9.02895 9.31211 8.88833 9.29648 8.72427C9.28476 8.58364 9.27304 8.57192 8.43711 8.03286C7.9332 7.71255 7.60507 7.47817 7.63632 7.46255C7.65976 7.45083 8.13632 7.27505 8.68711 7.07973L9.69101 6.71645L10.359 7.14223C10.7223 7.3727 11.023 7.57583 11.023 7.58755C11.023 7.59927 10.8551 7.66567 10.6519 7.73598C10.4488 7.8063 10.2613 7.88833 10.2379 7.92348C10.109 8.07583 10.2379 8.36489 10.4332 8.36489C10.4879 8.36489 10.7848 8.27505 11.0894 8.16567L11.6441 7.96255L11.9254 8.14614C12.0816 8.2438 12.2418 8.32583 12.2809 8.32583C12.3863 8.32583 12.5465 8.15005 12.5465 8.03677C12.5465 7.98208 12.4996 7.89614 12.4293 7.83364L12.316 7.72427L12.6754 7.59536C13.1598 7.42348 13.2652 7.28677 13.0894 7.0602C13.0426 7.00161 12.9723 6.95864 12.9176 6.95864C12.8668 6.95864 12.5816 7.04458 12.2809 7.15395C11.9801 7.25942 11.7262 7.34927 11.7144 7.34927C11.6754 7.34927 10.398 6.52114 10.398 6.4938C10.398 6.47817 10.7105 6.35708 11.0934 6.22036C11.4723 6.08364 11.8668 5.93911 11.9684 5.90005L12.148 5.82973L13.2144 6.50942C13.8004 6.88442 14.3082 7.19302 14.3473 7.19302C14.3824 7.19302 14.4566 7.15786 14.5152 7.11098C14.6363 7.01723 14.6519 6.83755 14.5465 6.73208C14.5074 6.69692 14.1051 6.42739 13.6519 6.13833C13.1676 5.82973 12.8434 5.60317 12.8707 5.58755C12.9527 5.54067 14.5777 4.96645 14.6207 4.96645C14.648 4.96645 14.9684 5.15786 15.3394 5.39614C16.0426 5.84536 16.1793 5.89614 16.3082 5.75552C16.4019 5.65005 16.3902 5.46255 16.2887 5.3688C16.2379 5.32583 16.0113 5.17348 15.7769 5.02505C15.5465 4.88052 15.3512 4.7477 15.3394 4.73208C15.3277 4.71645 15.7027 4.56411 16.1715 4.39614C17.0269 4.08755 17.1949 3.9938 17.1949 3.83364C17.1949 3.73598 17.0309 3.5602 16.9371 3.5602C16.9019 3.5602 16.3863 3.73598 15.7848 3.95083L14.6988 4.34145L14.0738 3.93911C13.7262 3.72036 13.4449 3.52895 13.4449 3.51333C13.4449 3.50161 13.5816 3.44302 13.7535 3.38442C13.9215 3.32973 14.0894 3.25161 14.1246 3.21255C14.2691 3.0563 14.1519 2.76723 13.9449 2.76723C13.8941 2.76723 13.6207 2.85317 13.3394 2.95473L12.8238 3.13833L12.3863 2.86098C12.1441 2.70864 11.9059 2.58364 11.8551 2.58364C11.8043 2.58364 11.7301 2.6188 11.6871 2.66177ZM13.4137 4.16567C13.7496 4.38052 14.0152 4.56802 13.9996 4.57973C13.984 4.59536 13.5777 4.7477 13.0973 4.91958L12.2223 5.22817L11.5777 4.81802C11.2223 4.59145 10.9488 4.40005 10.9684 4.39223C10.9879 4.38442 11.3824 4.23989 11.8434 4.06802C12.3043 3.90005 12.7105 3.76333 12.7418 3.76723C12.773 3.77114 13.0777 3.95083 13.4137 4.16567ZM10.9332 5.04848C11.273 5.26723 11.5543 5.45083 11.5621 5.45473C11.5699 5.46255 10.6207 5.8102 9.98789 6.02895L9.75351 6.11098L9.1207 5.70473C8.77304 5.48208 8.4957 5.29067 8.50742 5.28286C8.53867 5.25161 10.1793 4.66177 10.2496 4.65786C10.2848 4.65395 10.5934 4.83364 10.9332 5.04848ZM8.51523 5.96255C8.81992 6.15395 9.06992 6.32583 9.06992 6.33755C9.06992 6.34927 8.60117 6.52895 8.02695 6.73598L6.98398 7.11098L6.39804 6.73598C6.07382 6.52895 5.78476 6.34145 5.76132 6.31802C5.72617 6.28286 5.84726 6.22427 6.24961 6.07973C6.54257 5.97427 7.01523 5.8063 7.29257 5.70473C7.71054 5.5563 7.81601 5.53286 7.88242 5.56802C7.92539 5.59145 8.21054 5.76723 8.51523 5.96255Z"
        fill="url(#paint2_linear_2253_3885)" />
    <path
        d="M2.67581 4.5563C2.56253 4.63442 2.52737 4.79848 2.60159 4.90786C2.69143 5.04458 3.21487 5.35708 3.3555 5.35708C3.50393 5.35708 3.60159 5.25161 3.60159 5.09145C3.60159 4.95864 3.51956 4.88052 3.11722 4.63833C2.8594 4.48208 2.7969 4.47036 2.67581 4.5563Z"
        fill="url(#paint3_linear_2253_3885)" />
    <path
        d="M12.0182 11.4352C11.6744 11.5524 11.3697 11.6774 11.3424 11.7165C11.2643 11.818 11.2994 11.9977 11.4205 12.0875L11.5221 12.1618L11.8775 12.0602C12.4088 11.9079 12.8541 11.7282 12.8971 11.6461C12.9674 11.5172 12.94 11.3844 12.8346 11.2985C12.776 11.2516 12.7096 11.2204 12.6861 11.2204C12.6627 11.2243 12.3619 11.3219 12.0182 11.4352Z"
        fill="url(#paint4_linear_2253_3885)" />
    <path
        d="M6.1428 12.0329C6.02952 12.1461 6.03733 12.3219 6.15842 12.4196C6.28342 12.5211 6.99045 12.6539 7.62717 12.6969C8.54514 12.7633 10.2326 12.6032 10.4748 12.4313C10.6194 12.3258 10.6311 12.1032 10.4944 12.0133C10.3967 11.9508 10.3655 11.9508 9.83811 12.0407C9.34983 12.1227 9.16233 12.1344 8.2678 12.1344C7.44358 12.1344 7.18186 12.1227 6.88108 12.0641C6.24827 11.9391 6.23655 11.9391 6.1428 12.0329Z"
        fill="url(#paint5_linear_2253_3885)" />
    <defs>
        <linearGradient gradientUnits="userSpaceOnUse" id="paint0_linear_2253_3885" x1="9.99956"
            x2="9.99956" y1="13.9363" y2="0.0637131">
            <stop stop-color="#E83333" />
            <stop offset="1" stop-color="#821D1D" />
        </linearGradient>
        <linearGradient gradientUnits="userSpaceOnUse" id="paint1_linear_2253_3885" x1="15.6883"
            x2="15.6883" y1="2.9352" y2="1.8905">
            <stop stop-color="#E83333" />
            <stop offset="1" stop-color="#821D1D" />
        </linearGradient>
        <linearGradient gradientUnits="userSpaceOnUse" id="paint2_linear_2253_3885" x1="10.1268"
            x2="10.1268" y1="9.02895" y2="2.58364">
            <stop stop-color="#E83333" />
            <stop offset="1" stop-color="#821D1D" />
        </linearGradient>
        <linearGradient gradientUnits="userSpaceOnUse" id="paint3_linear_2253_3885" x1="3.08205"
            x2="3.08205" y1="5.35708" y2="4.50305">
            <stop stop-color="#E83333" />
            <stop offset="1" stop-color="#821D1D" />
        </linearGradient>
        <linearGradient gradientUnits="userSpaceOnUse" id="paint4_linear_2253_3885" x1="12.1184"
            x2="12.1184" y1="12.1618" y2="11.2204">
            <stop stop-color="#E83333" />
            <stop offset="1" stop-color="#821D1D" />
        </linearGradient>
        <linearGradient gradientUnits="userSpaceOnUse" id="paint5_linear_2253_3885" x1="8.32644"
            x2="8.32644" y1="12.7123" y2="11.966">
            <stop stop-color="#E83333" />
            <stop offset="1" stop-color="#821D1D" />
        </linearGradient>
    </defs>
</svg>
