<svg width="28" height="29" viewBox="0 0 28 29" fill="none" xmlns="http://www.w3.org/2000/svg">
<rect y="0.0947266" width="28" height="28" rx="14" fill="#1F1F1F"/>
<path d="M14.2891 20.4536H8.19466C8.04772 20.4536 7.9068 20.3952 7.8029 20.2913C7.699 20.1874 7.64062 20.0465 7.64062 19.8996V13.8052C7.64062 12.9321 7.81259 12.0675 8.14671 11.2609C8.48082 10.4543 8.97054 9.72138 9.5879 9.10402C10.2053 8.48665 10.9382 7.99693 11.7448 7.66282C12.5514 7.3287 13.416 7.15674 14.289 7.15674H14.2891C15.1621 7.15674 16.0267 7.32871 16.8333 7.66282C17.6399 7.99694 18.3729 8.48666 18.9902 9.10402C19.6076 9.72139 20.0973 10.4543 20.4314 11.2609C20.7655 12.0676 20.9375 12.9321 20.9375 13.8052V13.8052C20.9375 15.5685 20.237 17.2595 18.9902 18.5063C17.7434 19.7532 16.0523 20.4536 14.2891 20.4536Z" stroke="#FCFCFC" stroke-width="1.73438" stroke-linecap="round" stroke-linejoin="round"/>
<path d="M14.2891 15.251C14.9276 15.251 15.4453 14.7333 15.4453 14.0947C15.4453 13.4561 14.9276 12.9385 14.2891 12.9385C13.6505 12.9385 13.1328 13.4561 13.1328 14.0947C13.1328 14.7333 13.6505 15.251 14.2891 15.251Z" fill="#FCFCFC"/>
<path d="M17.7578 15.251C18.3964 15.251 18.9141 14.7333 18.9141 14.0947C18.9141 13.4561 18.3964 12.9385 17.7578 12.9385C17.1192 12.9385 16.6016 13.4561 16.6016 14.0947C16.6016 14.7333 17.1192 15.251 17.7578 15.251Z" fill="#FCFCFC"/>
<path d="M10.8203 15.251C11.4589 15.251 11.9766 14.7333 11.9766 14.0947C11.9766 13.4561 11.4589 12.9385 10.8203 12.9385C10.1817 12.9385 9.66406 13.4561 9.66406 14.0947C9.66406 14.7333 10.1817 15.251 10.8203 15.251Z" fill="#FCFCFC"/>
</svg>
