<svg width="9" height="9" viewBox="0 0 9 9" fill="none" xmlns="http://www.w3.org/2000/svg">
<path d="M8.38691 4.8949C8.32855 4.84666 8.25781 4.81578 8.18276 4.80577C8.10771 4.79577 8.03136 4.80703 7.9624 4.8383C7.5349 5.03393 7.07008 5.13461 6.59995 5.13343C5.73026 5.13238 4.89626 4.78754 4.27978 4.17409C3.66331 3.56065 3.31436 2.72835 3.30903 1.85868C3.31087 1.58612 3.34479 1.31473 3.4101 1.0501C3.42396 0.97957 3.41876 0.906618 3.39504 0.838762C3.37132 0.770907 3.32994 0.710601 3.27516 0.66406C3.22038 0.617518 3.15419 0.586422 3.08339 0.573977C3.0126 0.561532 2.93976 0.568186 2.87239 0.593256C2.2386 0.878243 1.68765 1.31967 1.27131 1.87606C0.854966 2.43245 0.586895 3.08555 0.492279 3.774C0.397662 4.46245 0.479607 5.16365 0.730414 5.81173C0.98122 6.45981 1.39266 7.0335 1.92607 7.4789C2.45949 7.9243 3.09737 8.2268 3.7798 8.35797C4.46223 8.48914 5.1668 8.44468 5.82733 8.22876C6.48785 8.01285 7.08265 7.63257 7.55585 7.12365C8.02904 6.61473 8.3651 5.99387 8.53245 5.3194C8.55283 5.24218 8.54989 5.16065 8.52398 5.0851C8.49808 5.00955 8.45038 4.94337 8.38691 4.8949ZM4.54615 7.5996C3.86766 7.59481 3.20723 7.38042 2.65529 6.98578C2.10335 6.59114 1.68688 6.03554 1.46291 5.39506C1.23894 4.75457 1.21842 4.06052 1.40415 3.40792C1.58988 2.75533 1.97279 2.17609 2.50045 1.74952V1.85868C2.50152 2.94561 2.93377 3.98771 3.70234 4.75628C4.47092 5.52486 5.51302 5.95711 6.59995 5.95818C6.88533 5.95923 7.16998 5.92941 7.44895 5.86924C7.16996 6.39704 6.75215 6.83866 6.24059 7.14645C5.72904 7.45423 5.14316 7.61651 4.54615 7.61577V7.5996Z" fill="#777777"/>
</svg>
