<svg width="19" height="20" viewBox="0 0 19 20" fill="none" xmlns="http://www.w3.org/2000/svg">
<path d="M7.21997 16.8601C6.9233 16.8601 6.63329 16.9481 6.38662 17.1129C6.13994 17.2777 5.94768 17.512 5.83415 17.7861C5.72062 18.0602 5.69091 18.3618 5.74879 18.6527C5.80667 18.9437 5.94953 19.211 6.15931 19.4208C6.36909 19.6305 6.63636 19.7734 6.92733 19.8313C7.21831 19.8892 7.51991 19.8595 7.794 19.7459C8.06809 19.6324 8.30235 19.4401 8.46718 19.1935C8.632 18.9468 8.71997 18.6568 8.71997 18.3601C8.71997 17.9623 8.56194 17.5808 8.28063 17.2994C7.99933 17.0181 7.6178 16.8601 7.21997 16.8601ZM17.72 13.8601H5.71997C5.45475 13.8601 5.2004 13.7548 5.01286 13.5672C4.82533 13.3797 4.71997 13.1253 4.71997 12.8601C4.71997 12.5949 4.82533 12.3405 5.01286 12.153C5.2004 11.9655 5.45475 11.8601 5.71997 11.8601H14.2112C14.8626 11.858 15.4958 11.6449 16.0159 11.2526C16.536 10.8603 16.9149 10.3101 17.096 9.68433L18.6814 4.13501C18.7239 3.98618 18.7313 3.82951 18.703 3.67733C18.6747 3.52515 18.6115 3.38162 18.5183 3.25804C18.4251 3.13445 18.3045 3.03419 18.166 2.96514C18.0274 2.89609 17.8748 2.86013 17.72 2.86011H5.45904C5.25203 2.27747 4.87041 1.77282 4.3662 1.41492C3.86198 1.05703 3.25968 0.863288 2.64136 0.860107H1.71997C1.45475 0.860107 1.2004 0.965464 1.01286 1.153C0.825328 1.34054 0.719971 1.59489 0.719971 1.86011C0.719971 2.12532 0.825328 2.37968 1.01286 2.56721C1.2004 2.75475 1.45475 2.86011 1.71997 2.86011H2.64136C2.85844 2.86087 3.06944 2.93192 3.24276 3.06264C3.41607 3.19335 3.54239 3.37669 3.60278 3.58521L3.7583 4.12995L3.75854 4.13501L5.39917 9.8772C4.63573 9.95932 3.93284 10.3311 3.43524 10.9158C2.93763 11.5006 2.68318 12.2539 2.7243 13.0207C2.76541 13.7874 3.09895 14.5092 3.65623 15.0374C4.21352 15.5657 4.95213 15.8601 5.71997 15.8601H17.72C17.9852 15.8601 18.2395 15.7548 18.4271 15.5672C18.6146 15.3797 18.72 15.1253 18.72 14.8601C18.72 14.5949 18.6146 14.3405 18.4271 14.153C18.2395 13.9655 17.9852 13.8601 17.72 13.8601ZM16.3943 4.86011L15.1731 9.13452C15.1128 9.3432 14.9864 9.52671 14.813 9.65753C14.6396 9.78835 14.4284 9.85943 14.2112 9.86011H7.47436L7.21942 8.9679L6.04639 4.86011H16.3943ZM15.22 16.8601C14.9233 16.8601 14.6333 16.9481 14.3866 17.1129C14.1399 17.2777 13.9477 17.512 13.8342 17.7861C13.7206 18.0602 13.6909 18.3618 13.7488 18.6527C13.8067 18.9437 13.9495 19.211 14.1593 19.4208C14.3691 19.6305 14.6364 19.7734 14.9273 19.8313C15.2183 19.8892 15.5199 19.8595 15.794 19.7459C16.0681 19.6324 16.3024 19.4401 16.4672 19.1935C16.632 18.9468 16.72 18.6568 16.72 18.3601C16.72 17.9623 16.5619 17.5808 16.2806 17.2994C15.9993 17.0181 15.6178 16.8601 15.22 16.8601Z" fill="black"/>
</svg>
