<svg width="29" height="26" viewBox="0 0 29 26" fill="none" xmlns="http://www.w3.org/2000/svg">
<path fill-rule="evenodd" clip-rule="evenodd" d="M3.59139 17.8505H1.3585C1.2057 17.8505 1.07575 17.9615 1.05192 18.1123L0.148827 23.8381C0.130877 23.9511 0.218375 24.053 0.332979 24.053H1.39898C1.55178 24.053 1.68173 23.9419 1.70556 23.7908L1.94914 22.2465C1.97263 22.0953 2.1029 21.9843 2.25539 21.9843H2.96224C4.43312 21.9843 5.28196 21.2726 5.50376 19.8621C5.60364 19.245 5.50799 18.7602 5.21895 18.4205C4.90166 18.0478 4.33869 17.8505 3.59139 17.8505ZM3.849 19.9417C3.72692 20.743 3.11472 20.743 2.52279 20.743H2.18584L2.42222 19.2466C2.43626 19.1562 2.51461 19.0896 2.60604 19.0896H2.76047C3.16369 19.0896 3.5441 19.0896 3.74067 19.3194C3.85776 19.4566 3.89372 19.6602 3.849 19.9417ZM10.266 19.916H9.19676C9.10565 19.916 9.02693 19.9827 9.01288 20.0732L8.96559 20.3722L8.8908 20.2639C8.65933 19.9278 8.14319 19.8156 7.62797 19.8156C6.44628 19.8156 5.43713 20.7105 5.24056 21.9659C5.13842 22.592 5.28362 23.1908 5.63884 23.6084C5.96475 23.9924 6.43102 24.1524 6.98568 24.1524C7.93771 24.1524 8.46578 23.5401 8.46578 23.5401L8.41803 23.8373C8.40005 23.951 8.48753 24.0528 8.60146 24.0528H9.56467C9.71788 24.0528 9.84706 23.9417 9.87124 23.7907L10.4492 20.1309C10.4674 20.0183 10.3803 19.916 10.266 19.916ZM8.77551 21.9972C8.67232 22.6081 8.18746 23.0181 7.56919 23.0181C7.2587 23.0181 7.01046 22.9186 6.8512 22.7298C6.69316 22.5425 6.63303 22.2757 6.68334 21.9786C6.77974 21.3729 7.27275 20.9495 7.88165 20.9495C8.1852 20.9495 8.43208 21.0503 8.59466 21.2407C8.75754 21.433 8.8222 21.7014 8.77551 21.9972ZM14.8863 19.9159H15.9609C16.1113 19.9159 16.1991 20.0847 16.1136 20.2081L12.5398 25.3667C12.482 25.4503 12.3866 25.5 12.2848 25.5H11.2116C11.0605 25.5 10.9722 25.3298 11.0597 25.2061L12.1725 23.6353L10.989 20.162C10.9481 20.0413 11.0372 19.9159 11.1656 19.9159H12.2215C12.3587 19.9159 12.4797 20.0059 12.5193 20.1372L13.1474 22.235L14.6294 20.052C14.6875 19.9668 14.7839 19.9159 14.8863 19.9159Z" fill="#253B80"/>
<path fill-rule="evenodd" clip-rule="evenodd" d="M26.5368 23.8381L27.4532 18.0076C27.4672 17.9171 27.5457 17.8505 27.6368 17.8502H28.6684C28.7823 17.8502 28.8698 17.9523 28.8518 18.0653L27.9482 23.7908C27.9246 23.9419 27.7947 24.053 27.6416 24.053H26.7202C26.6063 24.053 26.5188 23.9511 26.5368 23.8381ZM19.5187 17.8505H17.2854C17.133 17.8505 17.003 17.9615 16.9792 18.1123L16.0761 23.8381C16.0581 23.9511 16.1456 24.053 16.2597 24.053H17.4055C17.5121 24.053 17.6032 23.9753 17.6198 23.8695L17.876 22.2465C17.8996 22.0953 18.0299 21.9844 18.1823 21.9844H18.8888C20.36 21.9844 21.2087 21.2726 21.4306 19.8621C21.5308 19.2451 21.4346 18.7602 21.1457 18.4205C20.8285 18.0478 20.266 17.8505 19.5187 17.8505ZM19.7763 19.9417C19.6546 20.743 19.0423 20.743 18.45 20.743H18.1134L18.3502 19.2466C18.3642 19.1562 18.4419 19.0896 18.5336 19.0896H18.688C19.091 19.0896 19.4717 19.0896 19.6681 19.3194C19.7854 19.4566 19.8211 19.6603 19.7763 19.9417ZM26.1928 19.9161H25.1242C25.0324 19.9161 24.9544 19.9827 24.9407 20.0732L24.8934 20.3722L24.8183 20.2639C24.5868 19.9278 24.071 19.8156 23.5558 19.8156C22.3741 19.8156 21.3652 20.7105 21.1686 21.9659C21.0668 22.5921 21.2114 23.1908 21.5666 23.6085C21.8931 23.9924 22.3588 24.1524 22.9135 24.1524C23.8655 24.1524 24.3934 23.5402 24.3934 23.5402L24.3458 23.8374C24.3278 23.951 24.4153 24.0528 24.53 24.0528H25.4928C25.6452 24.0528 25.7752 23.9418 25.799 23.7907L26.3773 20.1309C26.3949 20.0183 26.3075 19.9161 26.1928 19.9161ZM24.7024 21.9972C24.5998 22.6081 24.1143 23.0181 23.4959 23.0181C23.186 23.0181 22.9373 22.9186 22.7779 22.7299C22.6199 22.5425 22.5605 22.2757 22.6102 21.9786C22.7071 21.3729 23.1995 20.9495 23.8084 20.9495C24.1121 20.9495 24.3588 21.0503 24.5215 21.2407C24.685 21.433 24.7497 21.7014 24.7024 21.9972Z" fill="#179BD7"/>
<path d="M11.8545 15.8021L12.129 14.0585L11.5175 14.0443H8.59766L10.6268 1.17782C10.633 1.13898 10.6536 1.10276 10.6835 1.07704C10.7134 1.05133 10.7518 1.03716 10.7917 1.03716H15.715C17.3495 1.03716 18.4774 1.37728 19.0664 2.0486C19.3424 2.36353 19.5183 2.69263 19.6034 3.0548C19.6925 3.43482 19.6942 3.88884 19.607 4.44259L19.6006 4.48301V4.83782L19.8768 4.99425C20.1094 5.11758 20.294 5.25878 20.4357 5.42045C20.672 5.68971 20.8248 6.03193 20.8893 6.43766C20.9559 6.85495 20.9339 7.35148 20.8248 7.91364C20.6988 8.5603 20.4951 9.12349 20.2201 9.58434C19.967 10.009 19.6448 10.3611 19.2622 10.6341C18.8969 10.8934 18.4628 11.0903 17.972 11.2163C17.4964 11.34 16.9543 11.4026 16.3596 11.4026H15.9764C15.7025 11.4026 15.4362 11.5012 15.2274 11.6782C15.018 11.8587 14.8793 12.1053 14.8369 12.3751L14.808 12.5321L14.323 15.6052L14.3009 15.7181C14.2952 15.7539 14.2852 15.7717 14.2706 15.7838C14.2574 15.7947 14.2385 15.8021 14.2201 15.8021H11.8545Z" fill="#253B80"/>
<path d="M20.1384 4.52417C20.1238 4.61812 20.107 4.71417 20.0881 4.81285C19.4387 8.14638 17.2175 9.29797 14.3804 9.29797H12.936C12.5891 9.29797 12.2967 9.54991 12.2426 9.89213L11.503 14.5825L11.2936 15.912C11.2584 16.1367 11.4317 16.3393 11.6584 16.3393H14.2204C14.5238 16.3393 14.7814 16.1188 14.8292 15.8197L14.8544 15.6894L15.3368 12.6283L15.3678 12.4604C15.415 12.1602 15.6732 11.9398 15.9766 11.9398H16.3597C18.8419 11.9398 20.7851 10.932 21.353 8.01568C21.5903 6.79743 21.4674 5.78021 20.8396 5.06479C20.6497 4.84906 20.414 4.67008 20.1384 4.52417Z" fill="#179BD7"/>
<path d="M19.4593 4.25354C19.3602 4.22466 19.2577 4.19842 19.1527 4.1748C19.0473 4.15172 18.9391 4.13124 18.8279 4.1134C18.4384 4.05041 18.0117 4.02049 17.5545 4.02049H13.6956C13.6005 4.02049 13.5103 4.04201 13.4295 4.08085C13.2515 4.1664 13.1193 4.3349 13.0873 4.54117L12.2662 9.74066L12.2427 9.89234C12.2968 9.55012 12.5891 9.29817 12.936 9.29817H14.3805C17.2175 9.29817 19.4389 8.14607 20.0881 4.81306C20.1075 4.71438 20.1238 4.61833 20.1385 4.52438C19.9742 4.43725 19.7962 4.36272 19.6046 4.2992C19.5575 4.28345 19.5087 4.26824 19.4593 4.25354Z" fill="#222D65"/>
<path d="M13.0862 4.54107C13.1182 4.33478 13.2506 4.1663 13.4284 4.08126C13.5099 4.04242 13.5996 4.0209 13.6945 4.0209H17.5535C18.0107 4.0209 18.4374 4.05082 18.8268 4.11381C18.9381 4.13165 19.0463 4.15213 19.1518 4.17521C19.2568 4.19884 19.3591 4.22509 19.4584 4.25395C19.5076 4.26865 19.5564 4.28386 19.6042 4.29909C19.7957 4.3626 19.9737 4.43766 20.138 4.52427C20.3312 3.29237 20.1365 2.45361 19.4704 1.6941C18.7361 0.857968 17.4108 0.5 15.7149 0.5H10.7914C10.4449 0.5 10.1496 0.751931 10.0959 1.09468L8.0453 14.0934C8.00481 14.3506 8.20319 14.5826 8.46247 14.5826H11.5021L12.2653 9.74055L13.0862 4.54107Z" fill="#253B80"/>
</svg>
