<svg width="14" height="14" viewBox="0 0 14 14" fill="none" xmlns="http://www.w3.org/2000/svg">
<g clip-path="url(#clip0_2408_8737)">
<path d="M8.31202 2.77102L8.82695 2.25609C9.68012 1.40292 11.0634 1.40292 11.9165 2.25609C12.7697 3.10926 12.7697 4.49252 11.9165 5.34569L11.4016 5.86062M8.31202 2.77102C8.31202 2.77102 8.37638 3.86525 9.34188 4.83075C10.3074 5.79625 11.4016 5.86062 11.4016 5.86062M8.31202 2.77102L3.57799 7.50504C3.25735 7.82569 3.09702 7.98601 2.95914 8.16279C2.7965 8.37131 2.65705 8.59694 2.54328 8.83567C2.44683 9.03805 2.37513 9.25314 2.23174 9.68334L1.62409 11.5063M11.4016 5.86062L6.66759 10.5946C6.34695 10.9153 6.18662 11.0756 6.00985 11.2135C5.80132 11.3761 5.5757 11.5156 5.33697 11.6294C5.13459 11.7258 4.91949 11.7975 4.4893 11.9409L2.66638 12.5485M2.66638 12.5485L2.22078 12.6971C2.00908 12.7676 1.77568 12.7125 1.61789 12.5548C1.46009 12.397 1.40499 12.1636 1.47556 11.9519L1.62409 11.5063M2.66638 12.5485L1.62409 11.5063" stroke="#FFAD33" stroke-width="1.25"/>
</g>
<defs>
<clipPath id="clip0_2408_8737">
<rect width="13.3333" height="13.3333" fill="white" transform="translate(0.333984 0.504883)"/>
</clipPath>
</defs>
</svg>
