<svg width="14" height="14" viewBox="0 0 14 14" fill="none" xmlns="http://www.w3.org/2000/svg">
<g clip-path="url(#clip0_2343_5309)">
<path d="M2.88867 12.5555H11.7776" stroke="#F0B000" stroke-width="1.25" stroke-linecap="round"/>
<path d="M8.38203 2.36824L8.79398 1.9563C9.47652 1.27376 10.5831 1.27376 11.2657 1.9563C11.9482 2.63883 11.9482 3.74544 11.2657 4.42798L10.8537 4.83992M8.38203 2.36824C8.38203 2.36824 8.43353 3.24363 9.20593 4.01603C9.97833 4.78843 10.8537 4.83992 10.8537 4.83992M8.38203 2.36824L4.59482 6.15546C4.3383 6.41198 4.21004 6.54024 4.09974 6.68166C3.96962 6.84848 3.85807 7.02898 3.76705 7.21996C3.68989 7.38187 3.63253 7.55394 3.51781 7.8981L3.0317 9.35643M10.8537 4.83992L7.06649 8.62714C6.80998 8.88366 6.68172 9.01192 6.5403 9.12222C6.37348 9.25234 6.19298 9.36389 6.00199 9.45491C5.84009 9.53207 5.66802 9.58943 5.32386 9.70415L3.86553 10.1903M3.86553 10.1903L3.50905 10.3091C3.33969 10.3655 3.15296 10.3215 3.02673 10.1952C2.9005 10.069 2.85642 9.88227 2.91287 9.71291L3.0317 9.35643M3.86553 10.1903L3.0317 9.35643" stroke="#F0B000" stroke-width="1.25"/>
</g>
<defs>
<clipPath id="clip0_2343_5309">
<rect width="13.3333" height="13.3333" fill="white" transform="translate(0.666016 0.333313)"/>
</clipPath>
</defs>
</svg>
