<svg width="20" height="19" viewBox="0 0 20 19" fill="none" xmlns="http://www.w3.org/2000/svg">
<path d="M13.6292 12.891L14.0852 12.438L13.0262 11.374L12.5722 11.827L13.6292 12.891ZM15.6142 12.248L17.5252 13.287L18.2402 11.969L16.3302 10.931L15.6142 12.248ZM17.8922 15.351L16.4722 16.764L17.5292 17.827L18.9492 16.415L17.8922 15.351ZM15.6062 17.218C14.1562 17.354 10.4062 17.233 6.34417 13.195L5.28617 14.258C9.71817 18.665 13.9372 18.881 15.7462 18.712L15.6062 17.218ZM6.34417 13.195C2.47317 9.34502 1.83117 6.10802 1.75117 4.70302L0.253173 4.78802C0.353173 6.55602 1.14817 10.144 5.28617 14.258L6.34417 13.195ZM7.71917 7.01502L8.00617 6.72902L6.95017 5.66602L6.66317 5.95102L7.71917 7.01502ZM8.23417 3.09402L6.97417 1.41002L5.77317 2.31002L7.03317 3.99302L8.23417 3.09402ZM2.73317 1.04302L1.16317 2.60302L2.22117 3.66702L3.79017 2.10702L2.73317 1.04302ZM7.19117 6.48302C6.66117 5.95102 6.66117 5.95102 6.66117 5.95302H6.65917L6.65617 5.95702C6.60865 6.00493 6.5661 6.05754 6.52917 6.11402C6.47517 6.19402 6.41617 6.29902 6.36617 6.43202C6.24445 6.77535 6.21412 7.14443 6.27817 7.50302C6.41217 8.36802 7.00817 9.51102 8.53417 11.029L9.59217 9.96502C8.16317 8.54502 7.82317 7.68102 7.76017 7.27302C7.73017 7.07902 7.76117 6.98302 7.77017 6.96102C7.77617 6.94769 7.77617 6.94569 7.77017 6.95502C7.76126 6.96882 7.75122 6.98186 7.74017 6.99402L7.73017 7.00402L7.72017 7.01302L7.19117 6.48302ZM8.53417 11.029C10.0612 12.547 11.2102 13.139 12.0762 13.271C12.5192 13.339 12.8762 13.285 13.1472 13.184C13.299 13.1285 13.4408 13.0488 13.5672 12.948L13.6172 12.903L13.6242 12.897L13.6272 12.894L13.6282 12.892C13.6282 12.892 13.6292 12.891 13.1002 12.359C12.5702 11.827 12.5732 11.826 12.5732 11.826L12.5752 11.824L12.5772 11.822L12.5832 11.817L12.5932 11.807L12.6312 11.777C12.6405 11.771 12.6382 11.7717 12.6242 11.779C12.5992 11.788 12.5012 11.819 12.3042 11.789C11.8902 11.725 11.0202 11.385 9.59217 9.96502L8.53417 11.029ZM6.97417 1.40902C5.95417 0.0490209 3.95017 -0.166979 2.73317 1.04302L3.79017 2.10702C4.32217 1.57802 5.26617 1.63302 5.77317 2.31002L6.97417 1.40902ZM1.75217 4.70402C1.73217 4.35802 1.89117 3.99602 2.22117 3.66802L1.16217 2.60402C0.625174 3.13802 0.202173 3.89402 0.253173 4.78802L1.75217 4.70402ZM16.4722 16.764C16.1982 17.038 15.9022 17.192 15.6072 17.219L15.7462 18.712C16.4812 18.643 17.0822 18.273 17.5302 17.828L16.4722 16.764ZM8.00617 6.72902C8.99117 5.75002 9.06417 4.20302 8.23517 3.09502L7.03417 3.99402C7.43717 4.53302 7.37717 5.24002 6.94917 5.66702L8.00617 6.72902ZM17.5262 13.288C18.3432 13.732 18.4702 14.778 17.8932 15.352L18.9512 16.415C20.2912 15.082 19.8782 12.859 18.2412 11.97L17.5262 13.288ZM14.0852 12.439C14.4692 12.057 15.0872 11.963 15.6152 12.249L16.3312 10.932C15.2472 10.342 13.9032 10.505 13.0272 11.375L14.0852 12.439Z" fill="#FEFEFE"/>
</svg>
