<svg width="20" height="20" viewBox="0 0 20 20" fill="none" xmlns="http://www.w3.org/2000/svg">
<path d="M7.22471 9.75084C7.87302 11.0763 8.94739 12.1458 10.2758 12.788C10.3729 12.8341 10.4804 12.854 10.5877 12.8459C10.6949 12.8378 10.7982 12.8019 10.8874 12.7417L12.8433 11.4375C12.9298 11.3798 13.0293 11.3446 13.1328 11.3351C13.2364 11.3256 13.3407 11.3421 13.4362 11.383L17.0954 12.9512C17.2197 13.004 17.3234 13.0958 17.3911 13.2127C17.4587 13.3296 17.4865 13.4653 17.4702 13.5994C17.3546 14.5044 16.913 15.3362 16.2282 15.9391C15.5434 16.542 14.6624 16.8746 13.75 16.8746C10.9321 16.8746 8.22956 15.7552 6.23699 13.7627C4.24442 11.7701 3.125 9.06757 3.125 6.24965C3.12505 5.33729 3.45765 4.45622 4.06053 3.77143C4.66341 3.08663 5.49523 2.64507 6.40023 2.52941C6.53431 2.51319 6.67002 2.54098 6.78693 2.60859C6.90384 2.6762 6.99561 2.77998 7.04841 2.90428L8.61798 6.56661C8.65858 6.66134 8.67512 6.76464 8.66614 6.86731C8.65715 6.96998 8.62291 7.06883 8.56647 7.15507L7.26676 9.14098C7.2076 9.23032 7.17263 9.33347 7.16526 9.44037C7.15789 9.54726 7.17837 9.65423 7.22471 9.75084V9.75084Z" stroke="#A117F1" stroke-width="1.875" stroke-linecap="round" stroke-linejoin="round"/>
</svg>
