<svg width="18" height="18" viewBox="0 0 18 18" fill="none" xmlns="http://www.w3.org/2000/svg">
<path d="M9.825 12.783C9.175 12.787 8.53933 12.7173 7.918 12.574C7.29667 12.4307 6.762 12.1347 6.314 11.686C5.95467 11.3273 5.678 10.9173 5.484 10.456C5.28933 9.99467 5.192 9.51133 5.192 9.006C5.192 8.788 5.207 8.58067 5.237 8.384C5.26633 8.18667 5.31867 7.98733 5.394 7.786C5.43533 7.66333 5.43133 7.54367 5.382 7.427C5.33267 7.31033 5.25467 7.22933 5.148 7.184C5.038 7.13933 4.92567 7.14267 4.811 7.194C4.69633 7.24533 4.61833 7.33267 4.577 7.456C4.49367 7.706 4.428 7.95933 4.38 8.216C4.332 8.472 4.308 8.73333 4.308 9C4.308 9.628 4.42733 10.227 4.666 10.797C4.90533 11.367 5.24533 11.8723 5.686 12.313C6.20067 12.8437 6.81667 13.202 7.534 13.388C8.25133 13.5747 8.97967 13.6697 9.719 13.673L8.756 14.637C8.67 14.723 8.62367 14.8243 8.617 14.941C8.61033 15.0577 8.65667 15.1653 8.756 15.264C8.85533 15.3627 8.95967 15.412 9.069 15.412C9.17833 15.412 9.283 15.3627 9.383 15.264L10.906 13.741C11.0673 13.579 11.148 13.3903 11.148 13.175C11.148 12.9597 11.0673 12.7713 10.906 12.61L9.383 11.087C9.29633 11.0003 9.195 10.954 9.079 10.948C8.96233 10.9413 8.85467 10.9877 8.756 11.087C8.65733 11.1863 8.608 11.2907 8.608 11.4C8.608 11.5093 8.65733 11.614 8.756 11.714L9.825 12.783ZM8.189 5.212C8.839 5.212 9.47533 5.28333 10.098 5.426C10.7213 5.56867 11.2573 5.86433 11.706 6.313C12.0647 6.67233 12.3413 7.08267 12.536 7.544C12.7307 8.00533 12.8277 8.48867 12.827 8.994C12.827 9.212 12.8123 9.41933 12.783 9.616C12.7537 9.81267 12.701 10.0117 12.625 10.213C12.5843 10.3363 12.5887 10.4573 12.638 10.576C12.6873 10.6947 12.765 10.7763 12.871 10.821C12.9817 10.8657 13.0943 10.8657 13.209 10.821C13.3237 10.7763 13.4013 10.6923 13.442 10.569C13.5253 10.319 13.5913 10.0617 13.64 9.797C13.688 9.53233 13.712 9.26667 13.712 9C13.712 8.372 13.5943 7.773 13.359 7.203C13.1237 6.633 12.7837 6.12567 12.339 5.681C11.8203 5.14967 11.2023 4.79233 10.485 4.609C9.76833 4.425 9.04 4.333 8.3 4.333L9.27 3.363C9.35133 3.277 9.39533 3.17567 9.402 3.059C9.40867 2.94233 9.36267 2.83467 9.264 2.736C9.16533 2.63733 9.06067 2.58833 8.95 2.589C8.83933 2.58967 8.735 2.63867 8.637 2.736L7.114 4.26C6.952 4.422 6.871 4.61067 6.871 4.826C6.871 5.04133 6.952 5.22967 7.114 5.391L8.637 6.914C8.723 7.00067 8.82433 7.047 8.941 7.053C9.05767 7.059 9.16533 7.013 9.264 6.915C9.36267 6.817 9.412 6.71233 9.412 6.601C9.412 6.48967 9.36267 6.38533 9.264 6.288L8.189 5.212ZM9 18C7.75733 18 6.58867 17.7633 5.494 17.29C4.39933 16.816 3.447 16.174 2.637 15.364C1.82633 14.5533 1.18433 13.6007 0.711 12.506C0.237 11.4113 0 10.2427 0 9C0 7.75733 0.236667 6.58867 0.71 5.494C1.18333 4.39933 1.82567 3.447 2.637 2.637C3.44833 1.827 4.40067 1.18467 5.494 0.71C6.58933 0.236667 7.758 0 9 0C10.242 0 11.4107 0.236667 12.506 0.71C13.6007 1.184 14.553 1.82633 15.363 2.637C16.1737 3.447 16.8157 4.39933 17.289 5.494C17.763 6.58933 18 7.758 18 9C18 10.242 17.7633 11.4107 17.29 12.506C16.816 13.6007 16.174 14.553 15.364 15.363C14.5533 16.1737 13.6007 16.8157 12.506 17.289C11.4113 17.763 10.2427 18 9 18Z" fill="black"/>
</svg>
