<svg width="21" height="23" viewBox="0 0 21 23" fill="none" xmlns="http://www.w3.org/2000/svg">
<path d="M10.72 18.0801C10.9178 18.0801 11.1111 18.0214 11.2755 17.9115C11.44 17.8017 11.5682 17.6455 11.6439 17.4628C11.7195 17.28 11.7393 17.079 11.7008 16.885C11.6622 16.691 11.5669 16.5128 11.4271 16.373C11.2872 16.2331 11.109 16.1379 10.9151 16.0993C10.7211 16.0607 10.52 16.0805 10.3373 16.1562C10.1546 16.2319 9.99838 16.3601 9.8885 16.5245C9.77862 16.689 9.71997 16.8823 9.71997 17.0801C9.71997 17.3453 9.82533 17.5996 10.0129 17.7872C10.2004 17.9747 10.4548 18.0801 10.72 18.0801ZM15.72 18.0801C15.9178 18.0801 16.1111 18.0214 16.2755 17.9115C16.44 17.8017 16.5682 17.6455 16.6439 17.4628C16.7195 17.28 16.7393 17.079 16.7008 16.885C16.6622 16.691 16.5669 16.5128 16.4271 16.373C16.2872 16.2331 16.109 16.1379 15.9151 16.0993C15.7211 16.0607 15.52 16.0805 15.3373 16.1562C15.1546 16.2319 14.9984 16.3601 14.8885 16.5245C14.7786 16.689 14.72 16.8823 14.72 17.0801C14.72 17.3453 14.8253 17.5996 15.0129 17.7872C15.2004 17.9747 15.4548 18.0801 15.72 18.0801ZM15.72 14.0801C15.9178 14.0801 16.1111 14.0214 16.2755 13.9115C16.44 13.8017 16.5682 13.6455 16.6439 13.4628C16.7195 13.28 16.7393 13.079 16.7008 12.885C16.6622 12.691 16.5669 12.5128 16.4271 12.373C16.2872 12.2331 16.109 12.1379 15.9151 12.0993C15.7211 12.0607 15.52 12.0805 15.3373 12.1562C15.1546 12.2319 14.9984 12.3601 14.8885 12.5245C14.7786 12.689 14.72 12.8823 14.72 13.0801C14.72 13.3453 14.8253 13.5996 15.0129 13.7872C15.2004 13.9747 15.4548 14.0801 15.72 14.0801ZM10.72 14.0801C10.9178 14.0801 11.1111 14.0214 11.2755 13.9115C11.44 13.8017 11.5682 13.6455 11.6439 13.4628C11.7195 13.28 11.7393 13.079 11.7008 12.885C11.6622 12.691 11.5669 12.5128 11.4271 12.373C11.2872 12.2331 11.109 12.1379 10.9151 12.0993C10.7211 12.0607 10.52 12.0805 10.3373 12.1562C10.1546 12.2319 9.99838 12.3601 9.8885 12.5245C9.77862 12.689 9.71997 12.8823 9.71997 13.0801C9.71997 13.3453 9.82533 13.5996 10.0129 13.7872C10.2004 13.9747 10.4548 14.0801 10.72 14.0801ZM17.72 2.08008H16.72V1.08008C16.72 0.814862 16.6146 0.560508 16.4271 0.372971C16.2395 0.185435 15.9852 0.0800781 15.72 0.0800781C15.4548 0.0800781 15.2004 0.185435 15.0129 0.372971C14.8253 0.560508 14.72 0.814862 14.72 1.08008V2.08008H6.71997V1.08008C6.71997 0.814862 6.61461 0.560508 6.42708 0.372971C6.23954 0.185435 5.98519 0.0800781 5.71997 0.0800781C5.45475 0.0800781 5.2004 0.185435 5.01286 0.372971C4.82533 0.560508 4.71997 0.814862 4.71997 1.08008V2.08008H3.71997C2.92432 2.08008 2.16126 2.39615 1.59865 2.95876C1.03604 3.52137 0.719971 4.28443 0.719971 5.08008V19.0801C0.719971 19.8757 1.03604 20.6388 1.59865 21.2014C2.16126 21.764 2.92432 22.0801 3.71997 22.0801H17.72C18.5156 22.0801 19.2787 21.764 19.8413 21.2014C20.4039 20.6388 20.72 19.8757 20.72 19.0801V5.08008C20.72 4.28443 20.4039 3.52137 19.8413 2.95876C19.2787 2.39615 18.5156 2.08008 17.72 2.08008ZM18.72 19.0801C18.72 19.3453 18.6146 19.5996 18.4271 19.7872C18.2395 19.9747 17.9852 20.0801 17.72 20.0801H3.71997C3.45475 20.0801 3.2004 19.9747 3.01286 19.7872C2.82533 19.5996 2.71997 19.3453 2.71997 19.0801V10.0801H18.72V19.0801ZM18.72 8.08008H2.71997V5.08008C2.71997 4.81486 2.82533 4.56051 3.01286 4.37297C3.2004 4.18544 3.45475 4.08008 3.71997 4.08008H4.71997V5.08008C4.71997 5.34529 4.82533 5.59965 5.01286 5.78718C5.2004 5.97472 5.45475 6.08008 5.71997 6.08008C5.98519 6.08008 6.23954 5.97472 6.42708 5.78718C6.61461 5.59965 6.71997 5.34529 6.71997 5.08008V4.08008H14.72V5.08008C14.72 5.34529 14.8253 5.59965 15.0129 5.78718C15.2004 5.97472 15.4548 6.08008 15.72 6.08008C15.9852 6.08008 16.2395 5.97472 16.4271 5.78718C16.6146 5.59965 16.72 5.34529 16.72 5.08008V4.08008H17.72C17.9852 4.08008 18.2395 4.18544 18.4271 4.37297C18.6146 4.56051 18.72 4.81486 18.72 5.08008V8.08008ZM5.71997 14.0801C5.91775 14.0801 6.11109 14.0214 6.27554 13.9115C6.43999 13.8017 6.56816 13.6455 6.64385 13.4628C6.71954 13.28 6.73934 13.079 6.70076 12.885C6.66217 12.691 6.56693 12.5128 6.42708 12.373C6.28722 12.2331 6.10904 12.1379 5.91506 12.0993C5.72108 12.0607 5.52001 12.0805 5.33729 12.1562C5.15456 12.2319 4.99838 12.3601 4.8885 12.5245C4.77862 12.689 4.71997 12.8823 4.71997 13.0801C4.71997 13.3453 4.82533 13.5996 5.01286 13.7872C5.2004 13.9747 5.45475 14.0801 5.71997 14.0801ZM5.71997 18.0801C5.91775 18.0801 6.11109 18.0214 6.27554 17.9115C6.43999 17.8017 6.56816 17.6455 6.64385 17.4628C6.71954 17.28 6.73934 17.079 6.70076 16.885C6.66217 16.691 6.56693 16.5128 6.42708 16.373C6.28722 16.2331 6.10904 16.1379 5.91506 16.0993C5.72108 16.0607 5.52001 16.0805 5.33729 16.1562C5.15456 16.2319 4.99838 16.3601 4.8885 16.5245C4.77862 16.689 4.71997 16.8823 4.71997 17.0801C4.71997 17.3453 4.82533 17.5996 5.01286 17.7872C5.2004 17.9747 5.45475 18.0801 5.71997 18.0801Z" fill="black"/>
</svg>
