<svg width="14" height="21" viewBox="0 0 14 21" fill="none" xmlns="http://www.w3.org/2000/svg">
<path d="M7 0.333008C8.25442 0.333008 9.33956 0.756687 10.0322 1.37891C10.7204 1.99729 11.0068 2.79032 10.7568 3.59082L10.6553 3.91699L10.9824 4.01074C11.5916 4.18588 12.038 4.7483 12.0381 5.41113C12.0381 6.03899 11.6384 6.5772 11.0781 6.78125L10.8438 6.86621L10.8594 7.11621C10.9376 8.33321 11.3265 9.83395 11.8213 11.3662C12.0695 12.135 12.3469 12.9185 12.6289 13.6855L13.4648 15.9072C14.2222 17.9001 12.7478 20.0391 10.6152 20.0391H3.38477C1.31926 20.039 -0.129977 18.0317 0.470703 16.0938L0.535156 15.9072C1.05696 14.5352 1.66837 12.9442 2.16797 11.4004C2.66595 9.86156 3.06185 8.3424 3.14062 7.11621L3.15625 6.86621L2.92188 6.78125C2.36165 6.57717 1.96191 6.03895 1.96191 5.41113C1.96203 4.7483 2.4084 4.18584 3.01758 4.01074L3.34473 3.91699L3.24316 3.59082C2.99328 2.79047 3.27965 1.99731 3.96777 1.37891C4.66034 0.756668 5.74541 0.333018 7 0.333008ZM6.84961 11.9512L1.70215 14.5615L1.58594 14.6201L1.54004 14.7412L1.02734 16.0938C0.399488 17.7455 1.616 19.5117 3.38477 19.5117H10.6152C12.3271 19.5117 13.5249 17.8558 13.0264 16.249L12.9727 16.0938C12.7933 15.622 12.6275 15.186 12.46 14.7412L12.4141 14.6201L12.2988 14.5615L7.15039 11.9512L7 11.874L6.84961 11.9512ZM3.66504 7.17969C3.55282 8.84526 2.91417 10.9516 2.14551 13.1006L1.86328 13.8887L2.60938 13.5107L6.88086 11.3438C6.93684 11.3153 7.00064 11.3082 7.06055 11.3223L7.11914 11.3438L11.3906 13.5107L12.1367 13.8887L11.8545 13.1006C11.0859 10.9516 10.4482 8.84524 10.3359 7.17969L10.3145 6.86816H3.68555L3.66504 7.17969ZM3.41895 4.48145C2.90585 4.48146 2.4894 4.89807 2.48926 5.41113C2.48926 5.92432 2.90576 6.34178 3.41895 6.3418H10.5811C11.0943 6.3418 11.5117 5.92433 11.5117 5.41113C11.5116 4.89806 11.0942 4.48145 10.5811 4.48145H3.41895ZM7.93066 0.943359L7.6416 0.904297C7.21441 0.846312 6.78545 0.846302 6.3584 0.904297L6.07031 0.943359V1.83008C6.07031 1.97551 5.95203 2.0936 5.80664 2.09375C5.66112 2.09375 5.54297 1.9756 5.54297 1.83008V1.05469L5.06641 1.28125C4.57889 1.51377 4.13547 1.85878 3.88672 2.29004C3.62674 2.7408 3.58919 3.27542 3.91309 3.79688L4.01074 3.9541H9.98926L10.0869 3.79688C10.3961 3.29908 10.3787 2.77522 10.1309 2.32129C9.92256 1.93987 9.5602 1.61989 9.125 1.37988L8.93359 1.28125L8.45703 1.05469V1.83008C8.45703 1.9756 8.33888 2.09375 8.19336 2.09375C8.04801 2.09355 7.93066 1.97548 7.93066 1.83008V0.943359Z" fill="#45C55B" stroke="#45C55B" stroke-width="0.666667"/>
</svg>
