<svg width="14" height="14" viewBox="0 0 14 14" fill="none" xmlns="http://www.w3.org/2000/svg">
<path fill-rule="evenodd" clip-rule="evenodd" d="M6.5944 1.85321C3.77545 1.85321 1.49023 4.13843 1.49023 6.95738C1.49023 9.77633 3.77545 12.0615 6.5944 12.0615C9.41335 12.0615 11.6986 9.77633 11.6986 6.95738C11.6986 4.13843 9.41335 1.85321 6.5944 1.85321ZM0.615234 6.95738C0.615234 3.65518 3.2922 0.978213 6.5944 0.978213C9.8966 0.978213 12.5736 3.65518 12.5736 6.95738C12.5736 10.2596 9.8966 12.9365 6.5944 12.9365C3.2922 12.9365 0.615234 10.2596 0.615234 6.95738ZM11.2434 11.6064C11.4142 11.4355 11.6912 11.4355 11.8621 11.6064L13.0288 12.773C13.1996 12.9439 13.1996 13.2209 13.0288 13.3917C12.8579 13.5626 12.5809 13.5626 12.41 13.3917L11.2434 12.2251C11.0725 12.0542 11.0725 11.7772 11.2434 11.6064Z" fill="#949494"/>
</svg>
