<svg width="27" height="28" viewBox="0 0 27 28" fill="none" xmlns="http://www.w3.org/2000/svg">
<path d="M25.0009 0.209339C25.2383 0.147944 25.488 0.153205 25.7226 0.224542C25.9572 0.295879 26.1676 0.43053 26.3307 0.613688C26.4937 0.796845 26.6031 1.02142 26.6468 1.2627C26.6904 1.50399 26.6667 1.75265 26.5782 1.98134L18.5782 22.648C18.4991 22.8527 18.3707 23.0347 18.2043 23.1778C18.038 23.321 17.8389 23.4209 17.6247 23.4686C17.4105 23.5164 17.1878 23.5105 16.9764 23.4515C16.7651 23.3926 16.5715 23.2824 16.4129 23.1307L11.9036 18.8173L10.2996 20.42C9.45158 21.268 8.00091 20.668 8.00091 19.468V15.084L1.07958 8.46401C0.907846 8.29971 0.783153 8.0925 0.718404 7.86383C0.653656 7.63515 0.651206 7.39333 0.711308 7.16339C0.77141 6.93345 0.891879 6.72376 1.06024 6.55602C1.22861 6.38828 1.43875 6.26859 1.66891 6.20934L25.0009 0.209339ZM22.1822 5.94934L11.5182 14.7587L16.8116 19.8227L22.1822 5.94934ZM20.0782 4.22934L4.65558 8.19334L9.57824 12.9L20.0782 4.22667V4.22934Z" fill="#205B2A"/>
</svg>
