<svg width="29" height="25" viewBox="0 0 29 25" fill="none" xmlns="http://www.w3.org/2000/svg">
<path d="M27.4656 14.4652C27.0074 13.8102 26.0345 13.5666 25.2486 13.909L20.2828 15.9577C20.0413 15.3372 19.4302 14.9015 18.7167 14.9015H14.2557C13.594 14.9015 12.511 14.7089 11.8869 14.4805L11.8626 14.4707C11.8593 14.4694 11.8558 14.4681 11.8524 14.4668C11.0518 14.1724 9.82342 13.9967 8.5664 13.9967H6.69313V13.5472C6.69313 12.944 6.20233 12.4531 5.59904 12.4531H4.62322V12.0687C4.62322 11.8564 4.45113 11.6843 4.23881 11.6843H1.10438C0.892069 11.6843 0.719971 11.8564 0.719971 12.0687V23.6011C0.719971 23.8134 0.892069 23.9855 1.10438 23.9855H4.23881C4.45113 23.9855 4.62322 23.8134 4.62322 23.6011V23.0712H5.59904C6.20233 23.0712 6.69313 22.5804 6.69313 21.9771V21.4028L14.9083 23.309C15.0876 23.3481 15.2864 23.3668 15.494 23.3668C16.1593 23.3668 16.9152 23.1758 17.4112 22.8563L26.9742 16.5792C27.3465 16.3395 27.6071 15.9637 27.6889 15.5478C27.7645 15.1635 27.6852 14.7792 27.4656 14.4652ZM3.8544 23.2165H1.48879V12.453H3.8544V23.2165ZM5.92431 14.3753C5.92431 14.3772 5.92401 14.379 5.92401 14.381C5.92401 14.383 5.92425 14.3848 5.92431 14.3867V20.9069C5.92419 20.9101 5.92431 20.9133 5.92431 20.9165V21.977C5.92431 22.1563 5.77841 22.3023 5.59904 22.3023H4.62322V13.2219H5.59904C5.77841 13.2219 5.92431 13.3678 5.92431 13.5472V14.3753ZM26.9346 15.3992C26.8929 15.611 26.7557 15.8054 26.5553 15.9344L16.9922 22.2116C16.5196 22.516 15.6224 22.678 15.0772 22.5589L6.69313 20.6134V14.7655H8.5664C9.73501 14.7655 10.8617 14.9228 11.5821 15.1865L11.6064 15.1962C11.6098 15.1976 11.6132 15.1989 11.6166 15.2002C12.3215 15.4594 13.5054 15.6703 14.2557 15.6703H18.7167C19.2028 15.6703 19.6012 16.0372 19.624 16.5111C19.6247 16.5228 19.625 16.5348 19.625 16.5469C19.625 16.603 19.6195 16.6576 19.6083 16.7134C19.5255 17.1245 19.1505 17.4228 18.7167 17.4228H14.2642C14.1174 17.4172 12.9023 17.3985 11.8925 18.2712C11.7319 18.41 11.7142 18.6528 11.853 18.8134C11.9291 18.9013 12.0362 18.9464 12.144 18.9464C12.233 18.9464 12.3226 18.9156 12.3952 18.8529C13.2072 18.1511 14.226 18.1906 14.2345 18.1911C14.2416 18.1915 14.2486 18.1917 14.2557 18.1917H18.7167C19.5151 18.1917 20.2071 17.6339 20.3621 16.8649C20.3698 16.8265 20.3756 16.7878 20.3805 16.749L25.5456 14.6182C25.5483 14.617 25.5509 14.616 25.5535 14.6148C26.0009 14.4183 26.588 14.5517 26.8358 14.9059C26.9343 15.0469 26.9694 15.2222 26.9346 15.3992Z" fill="#222222" stroke="#222222" stroke-width="0.654588"/>
<path d="M16.6365 9.01468C17.895 9.01468 18.9153 7.99441 18.9153 6.73585C18.9153 5.47729 17.895 4.45703 16.6365 4.45703C15.3779 4.45703 14.3577 5.47729 14.3577 6.73585C14.3577 7.99441 15.3779 9.01468 16.6365 9.01468Z" stroke="#222222" stroke-width="1.30918" stroke-miterlimit="10" stroke-linecap="round" stroke-linejoin="round"/>
<path d="M12.7172 4.85058C12.8104 4.65377 12.9192 4.46732 13.0435 4.28605L13.0228 2.93948C13.0228 2.81518 13.0746 2.69606 13.173 2.61319C13.6546 2.20922 14.2036 1.88293 14.8096 1.66541C14.9287 1.62397 15.0582 1.63433 15.1618 1.70166L16.3167 2.39567C16.5342 2.38013 16.7518 2.38013 16.9693 2.39567L18.1242 1.70166C18.233 1.63951 18.3625 1.62397 18.4816 1.66541C19.072 1.87775 19.6262 2.19368 20.1182 2.60801C20.2114 2.6857 20.2684 2.81 20.2632 2.9343L20.2425 4.28087C20.3668 4.46214 20.4756 4.64859 20.5688 4.8454L21.7445 5.49797C21.8532 5.56012 21.9309 5.6637 21.9516 5.788C22.0604 6.40432 22.0656 7.04654 21.9516 7.67321C21.9309 7.79751 21.8532 7.90109 21.7445 7.96324L20.5688 8.61582C20.4756 8.81262 20.3668 8.99907 20.2425 9.18034L20.2632 10.5269C20.2632 10.6512 20.2114 10.7703 20.113 10.8532C19.6314 11.2572 19.0824 11.5835 18.4764 11.801C18.3573 11.8424 18.2278 11.8321 18.1242 11.7647L16.9693 11.0707C16.7518 11.0863 16.5342 11.0863 16.3167 11.0707L15.1618 11.7647C15.053 11.8269 14.9235 11.8424 14.8044 11.801C14.214 11.5886 13.6598 11.2727 13.1678 10.8584C13.0746 10.7807 13.0176 10.6564 13.0228 10.5321L13.0435 9.18552C12.9192 9.00425 12.8104 8.8178 12.7172 8.62099L11.5415 7.96842C11.4328 7.90627 11.3551 7.80269 11.3344 7.67839C11.2256 7.06207 11.2204 6.41986 11.3344 5.79318C11.3551 5.66888 11.4328 5.5653 11.5415 5.50315L12.7172 4.85058Z" stroke="#222222" stroke-width="1.30918" stroke-miterlimit="10" stroke-linecap="round" stroke-linejoin="round"/>
</svg>
