<svg width="24" height="24" viewBox="0 0 24 24" fill="none" xmlns="http://www.w3.org/2000/svg">
<path fill-rule="evenodd" clip-rule="evenodd" d="M20.3377 15.8801C21.122 14.5217 20.6566 12.7848 19.2982 12.0006L19.2394 11.9666L19.2981 11.9327C20.6565 11.1484 21.1219 9.41152 20.3377 8.05317L19.391 6.4135C18.6067 5.05515 16.8698 4.58974 15.5115 5.37398L15.4526 5.40797V5.34C15.4526 3.77151 14.1811 2.5 12.6126 2.5L10.7193 2.5C9.1508 2.5 7.87929 3.77151 7.87928 5.34L7.87929 5.40786L7.82048 5.37391C6.46213 4.58966 4.72521 5.05507 3.94096 6.41342L2.9943 8.05309C2.21005 9.41145 2.67546 11.1484 4.03381 11.9326L4.09271 11.9666L4.03376 12.0006C2.67541 12.7849 2.21 14.5218 2.99424 15.8802L3.94091 17.5198C4.72515 18.8782 6.46207 19.3436 7.82042 18.5594L7.87928 18.5254V18.5933C7.87928 20.1618 9.1508 21.4333 10.7193 21.4333H12.6126C14.1811 21.4333 15.4526 20.1618 15.4526 18.5933V18.5253L15.5115 18.5593C16.8699 19.3435 18.6068 18.8781 19.391 17.5198L20.3377 15.8801ZM16.3993 7.04764C15.1371 7.77639 13.5593 6.86546 13.5593 5.40796V5.34C13.5593 4.81717 13.1354 4.39333 12.6126 4.39333L10.7193 4.39333C10.1965 4.39333 9.77265 4.81714 9.77262 5.33994L9.77262 5.40786C9.77261 6.86531 8.19493 7.77624 6.93271 7.04758L6.87381 7.01358C6.42103 6.75217 5.84205 6.9073 5.58064 7.36009L4.63397 8.99976C4.37256 9.45255 4.52769 10.0315 4.98048 10.2929L5.03929 10.3269C6.3016 11.0556 6.30164 12.8775 5.03937 13.6063L4.98042 13.6403C4.52764 13.9017 4.3725 14.4807 4.63392 14.9335L5.58059 16.5732C5.842 17.026 6.42097 17.1811 6.87375 16.9197L6.93262 16.8857C8.19484 16.157 9.77261 17.0679 9.77262 18.5254V18.5933C9.77262 19.1162 10.1965 19.54 10.7193 19.54H12.6126C13.1354 19.54 13.5593 19.1162 13.5593 18.5933V18.5253C13.5593 17.0677 15.1371 16.1568 16.3994 16.8856L16.4582 16.9196C16.911 17.181 17.49 17.0259 17.7514 16.5731L18.698 14.9334C18.9595 14.4806 18.8043 13.9017 18.3515 13.6403L18.2926 13.6062C17.0305 12.8775 17.0305 11.0557 18.2927 10.3269L18.3515 10.293C18.8043 10.0316 18.9594 9.45261 18.698 8.99984L17.7513 7.36016C17.4899 6.90738 16.9109 6.75224 16.4581 7.01366L16.3993 7.04764Z" fill="#222222"/>
<path fill-rule="evenodd" clip-rule="evenodd" d="M11.6658 13.8599C12.7114 13.8599 13.5591 13.0123 13.5591 11.9666C13.5591 10.9209 12.7114 10.0733 11.6658 10.0733C10.6201 10.0733 9.77245 10.9209 9.77245 11.9666C9.77245 13.0123 10.6201 13.8599 11.6658 13.8599ZM11.6658 15.7533C13.7571 15.7533 15.4524 14.0579 15.4524 11.9666C15.4524 9.87529 13.7571 8.17994 11.6658 8.17994C9.57446 8.17994 7.87912 9.87529 7.87912 11.9666C7.87912 14.0579 9.57446 15.7533 11.6658 15.7533Z" fill="#222222"/>
</svg>
