<svg width="31" height="32" viewBox="0 0 31 32" fill="none" xmlns="http://www.w3.org/2000/svg">
<path d="M17.5752 21.2243L4.75 21.2243" stroke="#2A7737" stroke-width="2.85004" stroke-linecap="round" stroke-linejoin="round"/>
<path d="M25.6493 21.2243L22.3242 21.2243" stroke="#2A7737" stroke-width="2.85004" stroke-linecap="round" stroke-linejoin="round"/>
<path d="M19.9492 23.5993C21.2609 23.5993 22.3243 22.536 22.3243 21.2243C22.3243 19.9126 21.2609 18.8493 19.9492 18.8493C18.6376 18.8493 17.5742 19.9126 17.5742 21.2243C17.5742 22.536 18.6376 23.5993 19.9492 23.5993Z" fill="#2A7737" stroke="#2A7737" stroke-width="2.85004" stroke-linecap="round" stroke-linejoin="round"/>
<path d="M9.97507 10.7742L4.75 10.7741" stroke="#2A7737" stroke-width="2.85004" stroke-linecap="round" stroke-linejoin="round"/>
<path d="M25.6517 10.7741L14.7266 10.7742" stroke="#2A7737" stroke-width="2.85004" stroke-linecap="round" stroke-linejoin="round"/>
<path d="M12.3516 13.1492C13.6633 13.1492 14.7266 12.0859 14.7266 10.7742C14.7266 9.46248 13.6633 8.39914 12.3516 8.39914C11.0399 8.39914 9.97656 9.46248 9.97656 10.7742C9.97656 12.0859 11.0399 13.1492 12.3516 13.1492Z" fill="#2A7737" stroke="#2A7737" stroke-width="2.85004" stroke-linecap="round" stroke-linejoin="round"/>
</svg>
