<svg width="14" height="14" viewBox="0 0 14 14" fill="none" xmlns="http://www.w3.org/2000/svg">
<path d="M5.33869 3.32623C6.07757 2.00075 6.44701 1.33801 6.99935 1.33801C7.55168 1.33801 7.92112 2.00075 8.66 3.32623L8.85116 3.66915C9.06113 4.04581 9.16611 4.23414 9.3298 4.3584C9.49349 4.48266 9.69735 4.52879 10.1051 4.62104L10.4763 4.70503C11.9111 5.02967 12.6285 5.19199 12.7992 5.74086C12.9699 6.28972 12.4808 6.86164 11.5026 8.00547L11.2496 8.30139C10.9716 8.62643 10.8326 8.78895 10.7701 8.99001C10.7076 9.19107 10.7286 9.40791 10.7706 9.84159L10.8089 10.2364C10.9568 11.7625 11.0307 12.5256 10.5838 12.8648C10.137 13.204 9.46529 12.8947 8.12187 12.2762L7.77432 12.1162C7.39256 11.9404 7.20168 11.8525 6.99935 11.8525C6.79702 11.8525 6.60614 11.9404 6.22438 12.1162L5.87683 12.2762C4.53341 12.8947 3.8617 13.204 3.41485 12.8648C2.968 12.5256 3.04195 11.7625 3.18983 10.2364L3.22809 9.84159C3.27011 9.40791 3.29113 9.19107 3.2286 8.99001C3.16608 8.78895 3.0271 8.62643 2.74913 8.30139L2.49607 8.00547C1.51791 6.86164 1.02883 6.28972 1.19951 5.74086C1.37019 5.19199 2.0876 5.02967 3.52241 4.70503L3.89362 4.62104C4.30135 4.52879 4.50521 4.48266 4.6689 4.3584C4.83259 4.23414 4.93757 4.04581 5.14754 3.66915L5.33869 3.32623Z" stroke="#E88A00" stroke-width="1.5"/>
</svg>
    