<svg width="8" height="9" viewBox="0 0 8 9" fill="none" xmlns="http://www.w3.org/2000/svg">
<path d="M1.49908 6.46571L1.21992 6.74488C1.14668 6.81855 1.10558 6.9182 1.10558 7.02208C1.10558 7.12595 1.14668 7.22561 1.21992 7.29927C1.29358 7.37251 1.39324 7.41361 1.49711 7.41361C1.60099 7.41361 1.70064 7.37251 1.77431 7.29927L2.05348 7.02011C2.11789 6.94489 2.15155 6.84814 2.14773 6.74918C2.14391 6.65023 2.10289 6.55635 2.03286 6.48633C1.96284 6.41631 1.86897 6.37528 1.77001 6.37146C1.67105 6.36764 1.5743 6.4013 1.49908 6.46571ZM1.24744 4.49977C1.24744 4.39549 1.20601 4.29548 1.13228 4.22174C1.05854 4.148 0.95853 4.10658 0.85425 4.10658H0.461061C0.35678 4.10658 0.256771 4.148 0.183034 4.22174C0.109296 4.29548 0.0678711 4.39549 0.0678711 4.49977C0.0678711 4.60405 0.109296 4.70405 0.183034 4.77779C0.256771 4.85153 0.35678 4.89295 0.461061 4.89295H0.85425C0.95853 4.89295 1.05854 4.85153 1.13228 4.77779C1.20601 4.70405 1.24744 4.60405 1.24744 4.49977ZM3.99977 1.74744C4.10405 1.74744 4.20405 1.70601 4.27779 1.63228C4.35153 1.55854 4.39295 1.45853 4.39295 1.35425V0.961061C4.39295 0.85678 4.35153 0.756771 4.27779 0.683034C4.20405 0.609296 4.10405 0.567871 3.99977 0.567871C3.89549 0.567871 3.79548 0.609296 3.72174 0.683034C3.648 0.756771 3.60658 0.85678 3.60658 0.961061V1.35425C3.60658 1.45853 3.648 1.55854 3.72174 1.63228C3.79548 1.70601 3.89549 1.74744 3.99977 1.74744ZM1.49908 2.55348C1.57232 2.62612 1.67116 2.66707 1.77431 2.6675C1.82606 2.6678 1.87736 2.65788 1.92526 2.63832C1.97317 2.61875 2.01674 2.58992 2.05348 2.55348C2.12671 2.47981 2.16781 2.38015 2.16781 2.27628C2.16781 2.1724 2.12671 2.07275 2.05348 1.99908L1.77431 1.71992C1.6991 1.6555 1.60234 1.62184 1.50338 1.62566C1.40443 1.62949 1.31056 1.67051 1.24053 1.74053C1.17051 1.81056 1.12949 1.90443 1.12566 2.00338C1.12184 2.10234 1.1555 2.1991 1.21992 2.27431L1.49908 2.55348ZM6.21735 2.6675C6.3205 2.66707 6.41935 2.62612 6.49259 2.55348L6.77175 2.27431C6.81291 2.23906 6.84634 2.19569 6.86994 2.14691C6.89354 2.09813 6.9068 2.04499 6.90889 1.99084C6.91099 1.93669 6.90186 1.8827 6.88209 1.83224C6.86233 1.78179 6.83234 1.73596 6.79402 1.69764C6.75571 1.65932 6.70988 1.62934 6.65943 1.60957C6.60897 1.58981 6.55497 1.58068 6.50082 1.58277C6.44667 1.58486 6.39354 1.59813 6.34476 1.62173C6.29598 1.64533 6.2526 1.67876 6.21735 1.71992L5.96571 1.99908C5.89248 2.07275 5.85138 2.1724 5.85138 2.27628C5.85138 2.38015 5.89248 2.47981 5.96571 2.55348C6.03503 2.62243 6.12755 2.66308 6.22522 2.6675H6.21735ZM7.53847 4.10658H7.14528C7.041 4.10658 6.94099 4.148 6.86725 4.22174C6.79352 4.29548 6.75209 4.39549 6.75209 4.49977C6.75209 4.60405 6.79352 4.70405 6.86725 4.77779C6.94099 4.85153 7.041 4.89295 7.14528 4.89295H7.53847C7.64275 4.89295 7.74276 4.85153 7.8165 4.77779C7.89023 4.70405 7.93166 4.60405 7.93166 4.49977C7.93166 4.39549 7.89023 4.29548 7.8165 4.22174C7.74276 4.148 7.64275 4.10658 7.53847 4.10658ZM3.99977 7.25209C3.89549 7.25209 3.79548 7.29352 3.72174 7.36725C3.648 7.44099 3.60658 7.541 3.60658 7.64528V8.03847C3.60658 8.14275 3.648 8.24276 3.72174 8.3165C3.79548 8.39023 3.89549 8.43166 3.99977 8.43166C4.10405 8.43166 4.20405 8.39023 4.27779 8.3165C4.35153 8.24276 4.39295 8.14275 4.39295 8.03847V7.64528C4.39295 7.541 4.35153 7.44099 4.27779 7.36725C4.20405 7.29352 4.10405 7.25209 3.99977 7.25209ZM6.50045 6.46571C6.42575 6.42416 6.33954 6.40809 6.25489 6.41992C6.17023 6.43176 6.09174 6.47085 6.0313 6.5313C5.97085 6.59174 5.93176 6.67023 5.91992 6.75489C5.90809 6.83954 5.92416 6.92575 5.96571 7.00045L6.24488 7.27961C6.31855 7.35285 6.4182 7.39395 6.52208 7.39395C6.62595 7.39395 6.72561 7.35285 6.79927 7.27961C6.87251 7.20595 6.91361 7.10629 6.91361 7.00242C6.91361 6.89854 6.87251 6.79889 6.79927 6.72522L6.50045 6.46571ZM3.99977 2.33722C3.57206 2.33722 3.15395 2.46405 2.79832 2.70168C2.44269 2.9393 2.16551 3.27704 2.00184 3.6722C1.83816 4.06735 1.79533 4.50216 1.87878 4.92166C1.96222 5.34115 2.16818 5.72648 2.47062 6.02891C2.77305 6.33135 3.15838 6.53731 3.57787 6.62075C3.99737 6.7042 4.43218 6.66137 4.82733 6.49769C5.22249 6.33402 5.56023 6.05684 5.79785 5.70121C6.03548 5.34558 6.16231 4.92748 6.16231 4.49977C6.16127 3.92654 5.9331 3.3771 5.52777 2.97177C5.12244 2.56644 4.57299 2.33826 3.99977 2.33722ZM3.99977 5.87593C3.72759 5.87593 3.46152 5.79522 3.23521 5.644C3.0089 5.49279 2.83252 5.27786 2.72836 5.0264C2.6242 4.77494 2.59695 4.49824 2.65004 4.23129C2.70314 3.96434 2.83421 3.71913 3.02667 3.52667C3.21913 3.33421 3.46434 3.20314 3.73129 3.15004C3.99824 3.09695 4.27494 3.1242 4.5264 3.22836C4.77786 3.33252 4.99279 3.5089 5.144 3.73521C5.29522 3.96152 5.37593 4.22759 5.37593 4.49977C5.37593 4.86475 5.23094 5.21478 4.97286 5.47286C4.71478 5.73094 4.36475 5.87593 3.99977 5.87593Z" fill="#016F13"/>
</svg>
