<svg width="14" height="14" viewBox="0 0 14 14" fill="none" xmlns="http://www.w3.org/2000/svg">
<path d="M11.7238 3.83838H2.2793" stroke="#A52424" stroke-width="1.25" stroke-linecap="round"/>
<path d="M10.7977 5.22705L10.5421 9.05989C10.4438 10.5348 10.3947 11.2723 9.91409 11.7219C9.43353 12.1715 8.69442 12.1715 7.2162 12.1715H6.78655C5.30833 12.1715 4.56922 12.1715 4.08866 11.7219C3.6081 11.2723 3.55893 10.5348 3.4606 9.05989L3.20508 5.22705" stroke="#A52424" stroke-width="1.25" stroke-linecap="round"/>
<path d="M5.61328 6.61621L5.89106 9.39399" stroke="#A52424" stroke-width="1.25" stroke-linecap="round"/>
<path d="M8.39106 6.61621L8.11328 9.39399" stroke="#A52424" stroke-width="1.25" stroke-linecap="round"/>
<path d="M3.94531 3.83805C3.97636 3.83805 3.99188 3.83805 4.00595 3.8377C4.46342 3.8261 4.86699 3.53523 5.02266 3.1049C5.02744 3.09166 5.03235 3.07694 5.04217 3.04748L5.09611 2.88567C5.14215 2.74754 5.16517 2.67847 5.19571 2.61983C5.31754 2.38587 5.54295 2.22341 5.80343 2.18181C5.86872 2.17139 5.94152 2.17139 6.08712 2.17139H7.91461C8.06022 2.17139 8.13302 2.17139 8.19831 2.18181C8.45879 2.22341 8.6842 2.38587 8.80603 2.61983C8.83656 2.67847 8.85959 2.74754 8.90563 2.88567L8.95957 3.04748C8.96937 3.0769 8.9743 3.09167 8.97908 3.1049C9.13474 3.53523 9.53832 3.8261 9.99579 3.8377C10.0099 3.83805 10.0254 3.83805 10.0564 3.83805" stroke="#A52424" stroke-width="1.25"/>
</svg>
