<svg width="16" height="16" viewBox="0 0 16 16" fill="none" xmlns="http://www.w3.org/2000/svg">
<path d="M9.24875 14.5112C9.27312 15.0281 8.87375 15.4669 8.35625 15.4913C8.23812 15.4969 8.11938 15.5 8 15.5C3.86437 15.5 0.5 12.1356 0.5 8C0.5 3.86437 3.86437 0.5 8 0.5C9.91125 0.5 11.725 1.23812 13.1 2.51437L14.0312 1.58312C14.3425 1.27188 14.875 1.4925 14.875 1.9325V4.7575C14.875 5.1675 14.5431 5.49937 14.1331 5.49937H11.3081C10.8675 5.49937 10.6469 4.96688 10.9587 4.65563L11.7769 3.8375C10.7519 2.90875 9.41063 2.37438 8.00063 2.37438C4.89813 2.375 2.375 4.89813 2.375 8C2.375 11.1019 4.89813 13.625 8 13.625C8.09062 13.625 8.17938 13.6231 8.26875 13.6187C8.7725 13.5944 9.225 13.9944 9.24875 14.5112ZM11.0019 9.715C11.2587 9.26562 11.1025 8.6925 10.6525 8.43562L8.9375 7.45625V5.1875C8.9375 4.67 8.5175 4.25 8 4.25C7.4825 4.25 7.0625 4.67 7.0625 5.1875V8C7.0625 8.33625 7.2425 8.64688 7.535 8.81437L9.7225 10.0644C9.86875 10.1481 10.0287 10.1875 10.1869 10.1875C10.5125 10.1875 10.8281 10.0181 11.0019 9.715ZM14.5625 7.0625C14.045 7.0625 13.625 7.4825 13.625 8C13.625 8.5175 14.045 8.9375 14.5625 8.9375C15.08 8.9375 15.5 8.5175 15.5 8C15.5 7.4825 15.08 7.0625 14.5625 7.0625ZM11.2875 12.7538C10.77 12.7538 10.35 13.1738 10.35 13.6913C10.35 14.2088 10.77 14.6288 11.2875 14.6288C11.805 14.6288 12.225 14.2088 12.225 13.6913C12.225 13.1738 11.805 12.7538 11.2875 12.7538ZM13.6794 10.3438C13.1619 10.3438 12.7419 10.7638 12.7419 11.2812C12.7419 11.7987 13.1619 12.2188 13.6794 12.2188C14.1969 12.2188 14.6169 11.7987 14.6169 11.2812C14.6169 10.7638 14.1969 10.3438 13.6794 10.3438Z" fill="white"/>
</svg>
