<svg width="32" height="32" viewBox="0 0 32 32" fill="none" xmlns="http://www.w3.org/2000/svg">
<g clip-path="url(#clip0_1917_2365)">
<rect width="32" height="32" rx="16" fill="url(#paint0_linear_1917_2365)"/>
<path d="M12.5868 20.137V20.1829C12.5742 21.1555 11.7564 21.8869 10.1335 22.377C12.089 23.7992 14.0446 24.937 16.0002 24.937C17.9557 24.937 19.9113 23.7992 21.8668 22.377C20.2549 21.8863 19.4372 21.1539 19.4135 20.1796C19.4135 20.006 19.4148 19.7594 19.4159 19.2963C19.4159 19.2228 19.4161 19.1475 19.4165 19.0704C19.5331 19.0868 19.5231 19.0764 19.4165 19.0467C19.4197 17.8287 19.4249 16.1908 19.4322 14.5263C20.9609 12.5448 20.3993 10.2217 19.9203 10.2796C19.3331 10.3512 14.2447 5.52257 13.2687 5.27499C12.2927 5.02742 9.81349 5.82667 9.38682 8.05334C8.96016 10.28 8.78181 15.8926 10.4002 18.1333C10.8607 18.771 11.586 19.0204 12.5762 18.8816C12.5775 19.3476 12.5803 19.6092 12.5868 20.137Z" fill="url(#paint1_linear_1917_2365)"/>
<path d="M12.5869 18.8801C14.9336 18.6134 16.4269 17.6001 16.4269 17.6001C16.4269 17.6001 14.812 19.7459 12.5869 20.1601V18.8801Z" fill="#FFBE94"/>
<path d="M20.2133 14.5599C20.9483 12.7924 23.8934 9.19276 21.3547 6.95276C20.5013 2.79276 15.7867 3.25324 12.64 4.21324C10.5251 4.85847 8.92801 6.13324 8.58668 5.17324C6.45335 6.95276 7.52172 8.69324 8.92801 9.19276C10.2044 9.64609 12.3627 10.0994 16.0327 9.67276C16.6882 9.59649 16.5509 11.6043 16.9012 11.8213C17.4268 12.147 17.8347 10.0994 19.2755 10.7143C20.7164 11.3291 19.8614 14.1799 18.3147 14.1799C17.7813 14.1799 17.5147 15.6462 18.9547 16.3395C20 16.8532 19.7358 15.7084 20.2133 14.5599Z" fill="url(#paint2_linear_1917_2365)"/>
<path d="M27.2002 25.6328C28.2157 27.6976 28.8002 32.4595 28.8002 32.4595H3.2002C3.2002 32.4595 3.78494 27.6971 4.8002 25.6328C5.81545 23.5686 11.7442 21.6541 11.7442 21.6541C12.8869 24 19.1584 24 20.2531 21.6533C20.2531 21.6533 26.1847 23.5681 27.2002 25.6328Z" fill="url(#paint3_linear_1917_2365)"/>
<mask id="mask0_1917_2365" style="mask-type:alpha" maskUnits="userSpaceOnUse" x="3" y="21" width="26" height="12">
<path d="M27.2002 25.6328C28.2157 27.6976 28.8002 32.4595 28.8002 32.4595H3.2002C3.2002 32.4595 3.78494 27.6971 4.8002 25.6328C5.81545 23.5686 11.7442 21.6541 11.7442 21.6541C12.8869 24 19.1584 24 20.2531 21.6533C20.2531 21.6533 26.1847 23.5681 27.2002 25.6328Z" fill="url(#paint4_linear_1917_2365)"/>
</mask>
<g mask="url(#mask0_1917_2365)">
<path d="M2.13379 30.2933V29.44H29.8671V30.2933H2.13379ZM2.13379 28.16V27.3067H29.8671V28.16H2.13379ZM2.13379 26.0267V25.1733H29.8671V26.0267H2.13379Z" fill="url(#paint5_linear_1917_2365)"/>
</g>
</g>
<defs>
<linearGradient id="paint0_linear_1917_2365" x1="16" y1="0" x2="16" y2="32" gradientUnits="userSpaceOnUse">
<stop stop-color="#1D0024"/>
<stop offset="1" stop-color="#100014"/>
</linearGradient>
<linearGradient id="paint1_linear_1917_2365" x1="15.4798" y1="5.23169" x2="15.4798" y2="24.937" gradientUnits="userSpaceOnUse">
<stop stop-color="#FFD4B3"/>
<stop offset="1" stop-color="#FFDCC2"/>
</linearGradient>
<linearGradient id="paint2_linear_1917_2365" x1="14.8737" y1="16.4659" x2="14.8737" y2="3.56128" gradientUnits="userSpaceOnUse">
<stop stop-color="#E6864E"/>
<stop offset="1" stop-color="#E67240"/>
</linearGradient>
<linearGradient id="paint3_linear_1917_2365" x1="16.0002" y1="32.4595" x2="16.0002" y2="21.6533" gradientUnits="userSpaceOnUse">
<stop stop-color="#E6864E"/>
<stop offset="1" stop-color="#E67240"/>
</linearGradient>
<linearGradient id="paint4_linear_1917_2365" x1="16.0002" y1="32.4595" x2="16.0002" y2="21.6533" gradientUnits="userSpaceOnUse">
<stop stop-color="#E6864E"/>
<stop offset="1" stop-color="#E67240"/>
</linearGradient>
<linearGradient id="paint5_linear_1917_2365" x1="16.0005" y1="25.1733" x2="16.0005" y2="30.2933" gradientUnits="userSpaceOnUse">
<stop stop-color="#F7B186"/>
<stop offset="1" stop-color="#FFC299"/>
</linearGradient>
<clipPath id="clip0_1917_2365">
<rect width="32" height="32" rx="16" fill="white"/>
</clipPath>
</defs>
</svg>
