<svg width="19" height="20" viewBox="0 0 19 20" fill="none" xmlns="http://www.w3.org/2000/svg">
<path d="M13.0625 4.19775H16.625" stroke="black" stroke-width="1.78125" stroke-linecap="round" stroke-linejoin="round"/>
<path d="M14.8438 2.4165V5.979" stroke="black" stroke-width="1.78125" stroke-linecap="round" stroke-linejoin="round"/>
<path d="M2.2998 16.0721C3.02979 14.8085 4.07943 13.7593 5.34328 13.0299C6.60713 12.3005 8.04068 11.9165 9.49992 11.9165C10.9592 11.9165 12.3927 12.3005 13.6565 13.03C14.9204 13.7595 15.97 14.8087 16.7 16.0722" stroke="black" stroke-width="1.78125" stroke-linecap="round" stroke-linejoin="round"/>
<path d="M13.9568 8.81288C13.6393 9.67017 13.081 10.4175 12.3491 10.9652C11.6171 11.5129 10.7426 11.8376 9.83052 11.9003C8.91848 11.9631 8.00773 11.7611 7.20768 11.3188C6.40763 10.8764 5.75231 10.2125 5.32045 9.40673C4.88859 8.60098 4.69855 7.68767 4.77317 6.77653C4.84778 5.86539 5.18388 4.99516 5.74108 4.27041C6.29828 3.54565 7.05288 2.99718 7.91424 2.69089C8.77559 2.3846 9.70706 2.33352 10.5967 2.54378" stroke="black" stroke-width="1.78125" stroke-linecap="round" stroke-linejoin="round"/>
</svg>
