<svg fill="none" height="32" viewBox="0 0 32 32" width="32" xmlns="http://www.w3.org/2000/svg">
    <rect fill="#F8F8F8" height="32" rx="15" width="32" />
    <path
        d="M6.47111 9.82135C6.26408 9.88385 6.08049 10.0987 6.04143 10.3135C5.99455 10.587 6.01018 12.3799 6.06486 12.9034C6.43205 16.4854 7.82268 19.0909 10.1274 20.5206C10.9906 21.0557 12.1547 21.5323 13.2172 21.7901C14.35 22.0596 15.1664 22.1612 16.4985 22.1846L17.5727 22.2081L14.6156 19.2432C11.9985 16.6182 11.6586 16.2667 11.6352 16.1339C11.5922 15.9112 11.6469 15.7159 11.7875 15.5753C11.9047 15.4581 12.1547 15.3526 12.2524 15.3839C12.2797 15.3917 12.3539 15.4073 12.4164 15.4229C12.5063 15.4424 13.2563 16.169 15.4711 18.3799C18.3071 21.2159 18.4086 21.3135 18.436 21.2042C18.4516 21.1417 18.4516 20.7237 18.436 20.2706C18.3305 16.8839 17.3891 14.2628 15.6547 12.5245C14.2367 11.1104 12.1742 10.2237 9.46721 9.87213C8.92033 9.79791 6.65861 9.76276 6.47111 9.82135Z"
        fill="#205B2A" />
    <path
        d="M23.8438 13.4893C21.8867 13.6417 20.2031 14.3175 19.1602 15.38L18.9102 15.6339L19.0508 16.1339C19.2812 16.9346 19.4492 17.7628 19.5273 18.4503C19.5391 18.5675 19.5586 18.7315 19.5703 18.8135L19.5938 18.9659L20.4219 18.1456C20.875 17.6925 21.2969 17.3018 21.3594 17.2823C21.418 17.2589 21.543 17.2393 21.6328 17.2393C22.0742 17.2393 22.3672 17.7706 22.1289 18.1456C22.0859 18.2159 21.5117 18.8096 20.8555 19.4659L19.6641 20.6573V20.9893C19.6641 21.3253 19.6133 21.8604 19.5625 22.0596L19.5391 22.1651L19.7461 22.1378C20.207 22.0831 20.9922 21.9229 21.375 21.8096C23.9375 21.0479 25.3594 19.3448 25.8555 16.4464C26.0117 15.5284 26.0352 14.1182 25.8984 13.8292C25.8047 13.6417 25.6562 13.5362 25.4023 13.4893C25.1758 13.4464 24.4141 13.4464 23.8438 13.4893Z"
        fill="#45C55B" />
</svg>
