<svg width="24" height="17" viewBox="0 0 24 17" fill="none" xmlns="http://www.w3.org/2000/svg">
<rect width="24" height="16.4571" rx="1.37143" fill="white"/>
<path d="M10.2681 11.0282H8.91113L9.75991 5.78002H11.1168L10.2681 11.0282Z" fill="#00579F"/>
<path d="M15.1869 5.90836C14.9192 5.80218 14.4947 5.68493 13.9697 5.68493C12.6297 5.68493 11.686 6.39954 11.6802 7.42121C11.669 8.175 12.3558 8.59368 12.8695 8.84502C13.3945 9.10184 13.573 9.26948 13.573 9.4984C13.5676 9.84999 13.1487 10.0121 12.758 10.0121C12.2162 10.0121 11.926 9.92851 11.4848 9.7329L11.3061 9.64904L11.1162 10.8271C11.4345 10.9721 12.0209 11.1008 12.6297 11.1065C14.0535 11.1065 14.9805 10.4029 14.9915 9.31415C14.9969 8.71671 14.6343 8.25893 13.8524 7.88486C13.3778 7.64472 13.0871 7.48281 13.0871 7.23711C13.0927 7.01375 13.333 6.78497 13.8688 6.78497C14.3099 6.77376 14.634 6.8798 14.8796 6.98592L15.0023 7.04165L15.1869 5.90836Z" fill="#00579F"/>
<path d="M16.9911 9.16896C17.1029 8.86746 17.5329 7.70056 17.5329 7.70056C17.5273 7.71177 17.6444 7.39349 17.7114 7.19811L17.8063 7.65032C17.8063 7.65032 18.0633 8.90656 18.1191 9.16896C17.907 9.16896 17.2592 9.16896 16.9911 9.16896ZM18.6662 5.78002H17.6165C17.2929 5.78002 17.0469 5.87486 16.9073 6.21547L14.8916 11.0281H16.3155C16.3155 11.0281 16.5499 10.3804 16.6003 10.2409C16.7565 10.2409 18.1416 10.2409 18.3426 10.2409C18.3815 10.4251 18.5045 11.0281 18.5045 11.0281H19.761L18.6662 5.78002Z" fill="#00579F"/>
<path d="M7.7776 5.78002L6.44863 9.35878L6.30341 8.63297C6.05771 7.79547 5.28715 6.88555 4.42725 6.43311L5.64453 11.0226H7.07954L9.21253 5.78002H7.7776Z" fill="#00579F"/>
<path d="M5.21443 5.78002H3.03113L3.00879 5.88606C4.7119 6.32158 5.83984 7.37138 6.30326 8.63319L5.82864 6.22118C5.7505 5.88599 5.51037 5.79108 5.21443 5.78002Z" fill="#FAA61A"/>
</svg>
