<svg width="24" height="18" viewBox="0 0 24 18" fill="none" xmlns="http://www.w3.org/2000/svg">
<mask id="path-1-outside-1_236_338" maskUnits="userSpaceOnUse" x="0" y="-0.785713" width="24" height="19" fill="black">
<rect fill="white" y="-0.785713" width="24" height="19"/>
<path d="M5.39286 10.5974C4.95175 10.5974 4.59416 10.955 4.59416 11.3961C4.59416 11.8372 4.95175 12.1948 5.39286 12.1948H10.5844C11.0255 12.1948 11.3831 11.8372 11.3831 11.3961C11.3831 10.955 11.0255 10.5974 10.5844 10.5974H5.39286Z"/>
<path fill-rule="evenodd" clip-rule="evenodd" d="M1.26116 1.52258C1 2.03514 1 2.70611 1 4.04805V13.9519C1 15.2939 1 15.9649 1.26116 16.4774C1.49088 16.9283 1.85744 17.2948 2.3083 17.5246C2.82085 17.7857 3.49182 17.7857 4.83377 17.7857H19.5299C20.8718 17.7857 21.5428 17.7857 22.0553 17.5246C22.5062 17.2948 22.8728 16.9283 23.1025 16.4774C23.3636 15.9649 23.3636 15.2939 23.3636 13.9519V4.04805C23.3636 2.70611 23.3636 2.03514 23.1025 1.52258C22.8728 1.07173 22.5062 0.705169 22.0553 0.475446C21.5428 0.214287 20.8718 0.214287 19.5299 0.214287H4.83377C3.49182 0.214287 2.82085 0.214287 2.3083 0.475446C1.85744 0.705169 1.49088 1.07173 1.26116 1.52258ZM19.5299 1.81169H4.83377C4.13644 1.81169 3.70951 1.81293 3.39009 1.83903C3.24129 1.85119 3.15126 1.86646 3.09659 1.87933C3.07058 1.88546 3.05458 1.89059 3.04593 1.89368C3.03763 1.89664 3.0335 1.89874 3.0335 1.89874C2.88322 1.97532 2.76103 2.0975 2.68446 2.24779C2.68446 2.24779 2.68236 2.25192 2.67939 2.26022C2.6763 2.26887 2.67117 2.28487 2.66505 2.31088C2.65217 2.36555 2.6369 2.45558 2.62474 2.60438C2.59864 2.92379 2.5974 3.35072 2.5974 4.04805V5.8052H21.7662V4.04805C21.7662 3.35072 21.765 2.92379 21.7389 2.60438C21.7267 2.45558 21.7115 2.36555 21.6986 2.31088C21.6925 2.28487 21.6873 2.26887 21.6842 2.26022C21.6813 2.25192 21.6792 2.24779 21.6792 2.24779C21.6026 2.0975 21.4804 1.97532 21.3301 1.89874C21.3301 1.89874 21.326 1.89664 21.3177 1.89368C21.3091 1.89059 21.2931 1.88546 21.267 1.87933C21.2124 1.86646 21.1223 1.85119 20.9735 1.83903C20.6541 1.81293 20.2272 1.81169 19.5299 1.81169ZM2.5974 13.9519V7.4026H21.7662V13.9519C21.7662 14.6493 21.765 15.0762 21.7389 15.3956C21.7267 15.5444 21.7115 15.6345 21.6986 15.6891C21.6925 15.7151 21.6873 15.7311 21.6842 15.7398C21.6813 15.7481 21.6792 15.7522 21.6792 15.7522C21.6026 15.9025 21.4804 16.0247 21.3301 16.1013C21.3301 16.1013 21.326 16.1034 21.3177 16.1063C21.3091 16.1094 21.2931 16.1145 21.267 16.1207C21.2124 16.1335 21.1223 16.1488 20.9735 16.161C20.6541 16.1871 20.2272 16.1883 19.5299 16.1883H4.83377C4.13644 16.1883 3.70951 16.1871 3.39009 16.161C3.24129 16.1488 3.15126 16.1335 3.09659 16.1207C3.07058 16.1145 3.05458 16.1094 3.04593 16.1063C3.03763 16.1034 3.0335 16.1013 3.0335 16.1013C2.88322 16.0247 2.76103 15.9025 2.68446 15.7522C2.68446 15.7522 2.68236 15.7481 2.67939 15.7398C2.6763 15.7311 2.67117 15.7151 2.66505 15.6891C2.65217 15.6345 2.6369 15.5444 2.62474 15.3956C2.59864 15.0762 2.5974 14.6493 2.5974 13.9519Z"/>
</mask>
<path d="M5.39286 10.5974C4.95175 10.5974 4.59416 10.955 4.59416 11.3961C4.59416 11.8372 4.95175 12.1948 5.39286 12.1948H10.5844C11.0255 12.1948 11.3831 11.8372 11.3831 11.3961C11.3831 10.955 11.0255 10.5974 10.5844 10.5974H5.39286Z" fill="#1F1F1F"/>
<path fill-rule="evenodd" clip-rule="evenodd" d="M1.26116 1.52258C1 2.03514 1 2.70611 1 4.04805V13.9519C1 15.2939 1 15.9649 1.26116 16.4774C1.49088 16.9283 1.85744 17.2948 2.3083 17.5246C2.82085 17.7857 3.49182 17.7857 4.83377 17.7857H19.5299C20.8718 17.7857 21.5428 17.7857 22.0553 17.5246C22.5062 17.2948 22.8728 16.9283 23.1025 16.4774C23.3636 15.9649 23.3636 15.2939 23.3636 13.9519V4.04805C23.3636 2.70611 23.3636 2.03514 23.1025 1.52258C22.8728 1.07173 22.5062 0.705169 22.0553 0.475446C21.5428 0.214287 20.8718 0.214287 19.5299 0.214287H4.83377C3.49182 0.214287 2.82085 0.214287 2.3083 0.475446C1.85744 0.705169 1.49088 1.07173 1.26116 1.52258ZM19.5299 1.81169H4.83377C4.13644 1.81169 3.70951 1.81293 3.39009 1.83903C3.24129 1.85119 3.15126 1.86646 3.09659 1.87933C3.07058 1.88546 3.05458 1.89059 3.04593 1.89368C3.03763 1.89664 3.0335 1.89874 3.0335 1.89874C2.88322 1.97532 2.76103 2.0975 2.68446 2.24779C2.68446 2.24779 2.68236 2.25192 2.67939 2.26022C2.6763 2.26887 2.67117 2.28487 2.66505 2.31088C2.65217 2.36555 2.6369 2.45558 2.62474 2.60438C2.59864 2.92379 2.5974 3.35072 2.5974 4.04805V5.8052H21.7662V4.04805C21.7662 3.35072 21.765 2.92379 21.7389 2.60438C21.7267 2.45558 21.7115 2.36555 21.6986 2.31088C21.6925 2.28487 21.6873 2.26887 21.6842 2.26022C21.6813 2.25192 21.6792 2.24779 21.6792 2.24779C21.6026 2.0975 21.4804 1.97532 21.3301 1.89874C21.3301 1.89874 21.326 1.89664 21.3177 1.89368C21.3091 1.89059 21.2931 1.88546 21.267 1.87933C21.2124 1.86646 21.1223 1.85119 20.9735 1.83903C20.6541 1.81293 20.2272 1.81169 19.5299 1.81169ZM2.5974 13.9519V7.4026H21.7662V13.9519C21.7662 14.6493 21.765 15.0762 21.7389 15.3956C21.7267 15.5444 21.7115 15.6345 21.6986 15.6891C21.6925 15.7151 21.6873 15.7311 21.6842 15.7398C21.6813 15.7481 21.6792 15.7522 21.6792 15.7522C21.6026 15.9025 21.4804 16.0247 21.3301 16.1013C21.3301 16.1013 21.326 16.1034 21.3177 16.1063C21.3091 16.1094 21.2931 16.1145 21.267 16.1207C21.2124 16.1335 21.1223 16.1488 20.9735 16.161C20.6541 16.1871 20.2272 16.1883 19.5299 16.1883H4.83377C4.13644 16.1883 3.70951 16.1871 3.39009 16.161C3.24129 16.1488 3.15126 16.1335 3.09659 16.1207C3.07058 16.1145 3.05458 16.1094 3.04593 16.1063C3.03763 16.1034 3.0335 16.1013 3.0335 16.1013C2.88322 16.0247 2.76103 15.9025 2.68446 15.7522C2.68446 15.7522 2.68236 15.7481 2.67939 15.7398C2.6763 15.7311 2.67117 15.7151 2.66505 15.6891C2.65217 15.6345 2.6369 15.5444 2.62474 15.3956C2.59864 15.0762 2.5974 14.6493 2.5974 13.9519Z" fill="#1F1F1F"/>
<path d="M3.39009 1.83903L3.40638 2.03837H3.40638L3.39009 1.83903ZM3.09659 1.87933L3.05075 1.68466L3.05074 1.68466L3.09659 1.87933ZM3.04593 1.89368L3.11317 2.08204L3.11317 2.08204L3.04593 1.89368ZM3.0335 1.89874L2.94279 1.7205L2.9427 1.72054L3.0335 1.89874ZM2.68446 2.24779L2.50625 2.15699L2.50621 2.15708L2.68446 2.24779ZM2.67939 2.26022L2.49103 2.19298L2.49103 2.19299L2.67939 2.26022ZM2.66505 2.31088L2.47037 2.26503L2.47037 2.26503L2.66505 2.31088ZM2.62474 2.60438L2.82408 2.62066V2.62066L2.62474 2.60438ZM2.5974 5.8052H2.3974V6.0052H2.5974V5.8052ZM21.7662 5.8052V6.0052H21.9662V5.8052H21.7662ZM21.7389 2.60438L21.5396 2.62066V2.62066L21.7389 2.60438ZM21.6986 2.31088L21.5039 2.35672L21.5039 2.35672L21.6986 2.31088ZM21.6842 2.26022L21.4959 2.32745L21.4959 2.32746L21.6842 2.26022ZM21.6792 2.24779L21.8574 2.15706L21.8574 2.15699L21.6792 2.24779ZM21.3301 1.89874L21.4209 1.72054L21.4208 1.72049L21.3301 1.89874ZM21.3177 1.89368L21.2505 2.08203L21.2505 2.08204L21.3177 1.89368ZM21.267 1.87933L21.3129 1.68466L21.3129 1.68466L21.267 1.87933ZM20.9735 1.83903L20.9573 2.03837L20.9735 1.83903ZM2.5974 7.4026V7.2026H2.3974V7.4026H2.5974ZM21.7662 7.4026H21.9662V7.2026H21.7662V7.4026ZM21.7389 15.3956L21.5396 15.3793V15.3793L21.7389 15.3956ZM21.6986 15.6891L21.5039 15.6433L21.5039 15.6433L21.6986 15.6891ZM21.6842 15.7398L21.4959 15.6725L21.4959 15.6725L21.6842 15.7398ZM21.6792 15.7522L21.8574 15.843L21.8574 15.8429L21.6792 15.7522ZM21.3301 16.1013L21.4208 16.2795L21.4209 16.2795L21.3301 16.1013ZM21.3177 16.1063L21.2505 15.918L21.2505 15.918L21.3177 16.1063ZM21.267 16.1207L21.2212 15.926H21.2212L21.267 16.1207ZM20.9735 16.161L20.9573 15.9616L20.9735 16.161ZM3.39009 16.161L3.40638 15.9616H3.40637L3.39009 16.161ZM3.09659 16.1207L3.14244 15.926L3.14243 15.926L3.09659 16.1207ZM3.04593 16.1063L3.11317 15.918L3.11317 15.918L3.04593 16.1063ZM3.0335 16.1013L2.9427 16.2795L2.94278 16.2795L3.0335 16.1013ZM2.68446 15.7522L2.5062 15.8429L2.50625 15.843L2.68446 15.7522ZM2.67939 15.7398L2.86775 15.6725L2.86775 15.6725L2.67939 15.7398ZM2.66505 15.6891L2.47037 15.735L2.47037 15.735L2.66505 15.6891ZM2.62474 15.3956L2.82408 15.3793L2.62474 15.3956ZM1.26116 1.52258L1.43936 1.61338V1.61338L1.26116 1.52258ZM1.26116 16.4774L1.43936 16.3866H1.43936L1.26116 16.4774ZM2.3083 17.5246L2.2175 17.7028H2.2175L2.3083 17.5246ZM22.0553 17.5246L21.9645 17.3464L22.0553 17.5246ZM23.1025 16.4774L22.9243 16.3866L23.1025 16.4774ZM23.1025 1.52258L23.2807 1.43178V1.43178L23.1025 1.52258ZM22.0553 0.475446L21.9645 0.653648V0.653648L22.0553 0.475446ZM2.3083 0.475446L2.39909 0.653648L2.3083 0.475446ZM4.83377 2.01169H19.5299V1.61169H4.83377V2.01169ZM3.40638 2.03837C3.71572 2.01309 4.13295 2.01169 4.83377 2.01169V1.61169C4.13993 1.61169 3.7033 1.61277 3.3738 1.63969L3.40638 2.03837ZM3.14243 2.07401C3.1844 2.06412 3.26392 2.05 3.40638 2.03837L3.3738 1.63969C3.21866 1.65237 3.11812 1.66879 3.05075 1.68466L3.14243 2.07401ZM3.11317 2.08204C3.11414 2.08169 3.12293 2.0786 3.14244 2.07401L3.05074 1.68466C3.01823 1.69231 2.99503 1.69949 2.9787 1.70532L3.11317 2.08204ZM3.0335 1.89874C3.12421 2.07699 3.12419 2.077 3.12417 2.07701C3.12416 2.07701 3.12414 2.07702 3.12413 2.07703C3.1241 2.07705 3.12407 2.07706 3.12404 2.07707C3.12399 2.0771 3.12393 2.07713 3.12388 2.07716C3.12376 2.07722 3.12365 2.07727 3.12355 2.07733C3.12333 2.07744 3.12311 2.07754 3.1229 2.07765C3.12248 2.07786 3.12207 2.07806 3.12167 2.07826C3.12088 2.07865 3.12014 2.079 3.11946 2.07932C3.11809 2.07996 3.11695 2.08048 3.11603 2.08088C3.11418 2.08168 3.11322 2.08202 3.11317 2.08204L2.9787 1.70532C2.97034 1.7083 2.96317 1.71118 2.95718 1.71377C2.95419 1.71506 2.95149 1.71629 2.94909 1.71741C2.94789 1.71798 2.94677 1.71852 2.94572 1.71903C2.94519 1.71929 2.94469 1.71954 2.9442 1.71979C2.94396 1.71991 2.94372 1.72003 2.94348 1.72015C2.94336 1.72021 2.94325 1.72026 2.94313 1.72032C2.94308 1.72035 2.94302 1.72038 2.94296 1.72041C2.94293 1.72042 2.9429 1.72044 2.94288 1.72045C2.94286 1.72046 2.94284 1.72047 2.94283 1.72048C2.94281 1.72049 2.94279 1.7205 3.0335 1.89874ZM2.86266 2.33859C2.92006 2.22593 3.01165 2.13434 3.1243 2.07694L2.9427 1.72054C2.75479 1.81629 2.602 1.96907 2.50625 2.15699L2.86266 2.33859ZM2.86775 2.32746C2.86773 2.32751 2.86739 2.32846 2.86659 2.33031C2.86619 2.33123 2.86568 2.33238 2.86504 2.33374C2.86471 2.33442 2.86436 2.33516 2.86397 2.33595C2.86378 2.33635 2.86358 2.33676 2.86336 2.33718C2.86326 2.33739 2.86315 2.33761 2.86304 2.33783C2.86299 2.33794 2.86293 2.33805 2.86287 2.33816C2.86285 2.33821 2.86282 2.33827 2.86279 2.33833C2.86277 2.33835 2.86276 2.33838 2.86275 2.33841C2.86274 2.33842 2.86273 2.33845 2.86273 2.33845C2.86271 2.33847 2.8627 2.33849 2.68446 2.24779C2.50621 2.15708 2.5062 2.1571 2.50619 2.15712C2.50618 2.15713 2.50617 2.15715 2.50617 2.15717C2.50615 2.15719 2.50614 2.15722 2.50612 2.15725C2.50609 2.15731 2.50606 2.15737 2.50603 2.15742C2.50598 2.15754 2.50592 2.15765 2.50586 2.15777C2.50574 2.15801 2.50562 2.15825 2.5055 2.15849C2.50525 2.15898 2.505 2.15948 2.50475 2.16001C2.50423 2.16106 2.50369 2.16218 2.50313 2.16338C2.502 2.16578 2.50078 2.16848 2.49948 2.17147C2.49689 2.17745 2.49402 2.18463 2.49103 2.19298L2.86775 2.32746ZM2.85972 2.35672C2.86431 2.33722 2.86741 2.32842 2.86775 2.32746L2.49103 2.19299C2.4852 2.20932 2.47803 2.23252 2.47037 2.26503L2.85972 2.35672ZM2.82408 2.62066C2.83572 2.47821 2.84984 2.39869 2.85972 2.35672L2.47037 2.26503C2.4545 2.33241 2.43808 2.43294 2.42541 2.58809L2.82408 2.62066ZM2.7974 4.04805C2.7974 3.34723 2.7988 2.93 2.82408 2.62066L2.42541 2.58809C2.39849 2.91759 2.3974 3.35421 2.3974 4.04805H2.7974ZM2.7974 5.8052V4.04805H2.3974V5.8052H2.7974ZM21.7662 5.6052H2.5974V6.0052H21.7662V5.6052ZM21.5662 4.04805V5.8052H21.9662V4.04805H21.5662ZM21.5396 2.62066C21.5648 2.93 21.5662 3.34723 21.5662 4.04805H21.9662C21.9662 3.35421 21.9652 2.91759 21.9382 2.58809L21.5396 2.62066ZM21.5039 2.35672C21.5138 2.39869 21.5279 2.47821 21.5396 2.62066L21.9382 2.58809C21.9256 2.43294 21.9091 2.33241 21.8933 2.26503L21.5039 2.35672ZM21.4959 2.32746C21.4962 2.32842 21.4993 2.33722 21.5039 2.35672L21.8933 2.26503C21.8856 2.23252 21.8784 2.20932 21.8726 2.19299L21.4959 2.32746ZM21.6792 2.24779C21.5009 2.33851 21.5009 2.33849 21.5009 2.33847C21.5009 2.33846 21.5009 2.33844 21.5009 2.33843C21.5009 2.3384 21.5009 2.33837 21.5009 2.33834C21.5008 2.33829 21.5008 2.33823 21.5008 2.33818C21.5007 2.33806 21.5007 2.33795 21.5006 2.33784C21.5005 2.33763 21.5004 2.33741 21.5003 2.3372C21.5001 2.33677 21.4999 2.33636 21.4997 2.33597C21.4993 2.33517 21.4989 2.33444 21.4986 2.33375C21.498 2.33239 21.4974 2.33124 21.497 2.33032C21.4962 2.32847 21.4959 2.32751 21.4959 2.32745L21.8726 2.19299C21.8696 2.18463 21.8667 2.17745 21.8642 2.17146C21.8629 2.16847 21.8616 2.16577 21.8605 2.16337C21.8599 2.16217 21.8594 2.16105 21.8589 2.16C21.8586 2.15947 21.8584 2.15896 21.8581 2.15847C21.858 2.15823 21.8579 2.15799 21.8578 2.15776C21.8577 2.15764 21.8577 2.15752 21.8576 2.15741C21.8576 2.15735 21.8575 2.15729 21.8575 2.15723C21.8575 2.15721 21.8575 2.15718 21.8575 2.15715C21.8575 2.15714 21.8574 2.15711 21.8574 2.15711C21.8574 2.15709 21.8574 2.15706 21.6792 2.24779ZM21.2393 2.07694C21.352 2.13434 21.4436 2.22593 21.501 2.33859L21.8574 2.15699C21.7616 1.96907 21.6089 1.81629 21.4209 1.72054L21.2393 2.07694ZM21.2505 2.08204C21.2504 2.08202 21.2495 2.08168 21.2476 2.08088C21.2467 2.08048 21.2456 2.07997 21.2442 2.07933C21.2435 2.07901 21.2428 2.07865 21.242 2.07827C21.2416 2.07807 21.2412 2.07787 21.2408 2.07766C21.2405 2.07755 21.2403 2.07745 21.2401 2.07734C21.24 2.07728 21.2399 2.07723 21.2398 2.07717C21.2397 2.07714 21.2397 2.07711 21.2396 2.07708C21.2396 2.07707 21.2396 2.07706 21.2395 2.07704C21.2395 2.07703 21.2395 2.07702 21.2395 2.07702C21.2395 2.07701 21.2394 2.077 21.3301 1.89874C21.4208 1.72049 21.4208 1.72048 21.4208 1.72046C21.4208 1.72046 21.4208 1.72045 21.4207 1.72044C21.4207 1.72043 21.4207 1.72041 21.4207 1.7204C21.4206 1.72037 21.4205 1.72034 21.4205 1.72031C21.4204 1.72026 21.4203 1.7202 21.4201 1.72014C21.4199 1.72002 21.4197 1.7199 21.4194 1.71978C21.4189 1.71953 21.4184 1.71928 21.4179 1.71903C21.4169 1.71851 21.4157 1.71797 21.4145 1.71741C21.4121 1.71628 21.4094 1.71506 21.4064 1.71376C21.4005 1.71118 21.3933 1.7083 21.3849 1.70532L21.2505 2.08204ZM21.2212 2.07401C21.2407 2.0786 21.2495 2.08169 21.2505 2.08203L21.3849 1.70532C21.3686 1.69949 21.3454 1.69231 21.3129 1.68466L21.2212 2.07401ZM20.9573 2.03837C21.0997 2.05 21.1792 2.06412 21.2212 2.07401L21.3129 1.68466C21.2455 1.66879 21.145 1.65237 20.9898 1.63969L20.9573 2.03837ZM19.5299 2.01169C20.2307 2.01169 20.6479 2.01309 20.9573 2.03837L20.9898 1.63969C20.6603 1.61277 20.2237 1.61169 19.5299 1.61169V2.01169ZM2.3974 7.4026V13.9519H2.7974V7.4026H2.3974ZM21.7662 7.2026H2.5974V7.6026H21.7662V7.2026ZM21.9662 13.9519V7.4026H21.5662V13.9519H21.9662ZM21.9382 15.4119C21.9652 15.0824 21.9662 14.6458 21.9662 13.9519H21.5662C21.5662 14.6528 21.5648 15.07 21.5396 15.3793L21.9382 15.4119ZM21.8933 15.735C21.9091 15.6676 21.9256 15.5671 21.9382 15.4119L21.5396 15.3793C21.5279 15.5218 21.5138 15.6013 21.5039 15.6433L21.8933 15.735ZM21.8726 15.807C21.8784 15.7907 21.8856 15.7675 21.8933 15.735L21.5039 15.6433C21.4993 15.6628 21.4962 15.6716 21.4959 15.6725L21.8726 15.807ZM21.6792 15.7522C21.8574 15.8429 21.8574 15.8429 21.8575 15.8429C21.8575 15.8429 21.8575 15.8428 21.8575 15.8428C21.8575 15.8428 21.8575 15.8428 21.8575 15.8427C21.8575 15.8427 21.8576 15.8426 21.8576 15.8426C21.8577 15.8425 21.8577 15.8423 21.8578 15.8422C21.8579 15.842 21.858 15.8418 21.8581 15.8415C21.8584 15.841 21.8586 15.8405 21.8589 15.84C21.8594 15.8389 21.8599 15.8378 21.8605 15.8366C21.8616 15.8342 21.8629 15.8315 21.8642 15.8285C21.8667 15.8225 21.8696 15.8154 21.8726 15.807L21.4959 15.6725C21.4959 15.6725 21.4962 15.6715 21.497 15.6697C21.4974 15.6688 21.498 15.6676 21.4986 15.6663C21.4989 15.6656 21.4993 15.6648 21.4997 15.6641C21.4999 15.6637 21.5001 15.6632 21.5003 15.6628C21.5004 15.6626 21.5005 15.6624 21.5006 15.6622C21.5006 15.6621 21.5007 15.662 21.5008 15.6618C21.5008 15.6618 21.5008 15.6617 21.5008 15.6617C21.5009 15.6617 21.5009 15.6616 21.5009 15.6616C21.5009 15.6616 21.5009 15.6616 21.5009 15.6616C21.5009 15.6615 21.5009 15.6615 21.6792 15.7522ZM21.4209 16.2795C21.6089 16.1837 21.7616 16.0309 21.8574 15.843L21.501 15.6614C21.4436 15.7741 21.352 15.8657 21.2393 15.9231L21.4209 16.2795ZM21.3849 16.2947C21.3933 16.2917 21.4005 16.2888 21.4065 16.2862C21.4094 16.2849 21.4121 16.2837 21.4145 16.2826C21.4157 16.282 21.4169 16.2815 21.4179 16.281C21.4184 16.2807 21.4189 16.2805 21.4194 16.2802C21.4197 16.2801 21.4199 16.28 21.4201 16.2799C21.4203 16.2798 21.4204 16.2797 21.4205 16.2797C21.4206 16.2797 21.4206 16.2796 21.4207 16.2796C21.4207 16.2796 21.4207 16.2796 21.4208 16.2796C21.4208 16.2795 21.4208 16.2795 21.4208 16.2795C21.4208 16.2795 21.4208 16.2795 21.3301 16.1013C21.2394 15.923 21.2395 15.923 21.2395 15.923C21.2395 15.923 21.2395 15.923 21.2395 15.923C21.2395 15.923 21.2396 15.9229 21.2396 15.9229C21.2397 15.9229 21.2397 15.9229 21.2398 15.9228C21.2399 15.9228 21.24 15.9227 21.2401 15.9227C21.2403 15.9226 21.2405 15.9225 21.2407 15.9223C21.2412 15.9221 21.2416 15.9219 21.242 15.9217C21.2428 15.9214 21.2435 15.921 21.2442 15.9207C21.2455 15.92 21.2467 15.9195 21.2476 15.9191C21.2495 15.9183 21.2504 15.918 21.2505 15.918L21.3849 16.2947ZM21.3129 16.3153C21.3454 16.3077 21.3686 16.3005 21.3849 16.2947L21.2505 15.918C21.2495 15.9183 21.2407 15.9214 21.2212 15.926L21.3129 16.3153ZM20.9898 16.3603C21.145 16.3476 21.2455 16.3312 21.3129 16.3153L21.2212 15.926C21.1792 15.9359 21.0997 15.95 20.9573 15.9616L20.9898 16.3603ZM19.5299 16.3883C20.2237 16.3883 20.6603 16.3872 20.9898 16.3603L20.9573 15.9616C20.6479 15.9869 20.2307 15.9883 19.5299 15.9883V16.3883ZM4.83377 16.3883H19.5299V15.9883H4.83377V16.3883ZM3.3738 16.3603C3.7033 16.3872 4.13993 16.3883 4.83377 16.3883V15.9883C4.13295 15.9883 3.71572 15.9869 3.40638 15.9616L3.3738 16.3603ZM3.05074 16.3153C3.11812 16.3312 3.21866 16.3476 3.3738 16.3603L3.40637 15.9616C3.26392 15.95 3.1844 15.9359 3.14244 15.926L3.05074 16.3153ZM2.9787 16.2947C2.99504 16.3005 3.01824 16.3077 3.05075 16.3153L3.14243 15.926C3.12293 15.9214 3.11413 15.9183 3.11317 15.918L2.9787 16.2947ZM3.0335 16.1013C2.94278 16.2795 2.9428 16.2795 2.94282 16.2795C2.94283 16.2795 2.94285 16.2795 2.94286 16.2795C2.94289 16.2796 2.94292 16.2796 2.94295 16.2796C2.943 16.2796 2.94306 16.2796 2.94312 16.2797C2.94323 16.2797 2.94335 16.2798 2.94347 16.2798C2.9437 16.28 2.94394 16.2801 2.94419 16.2802C2.94468 16.2805 2.94518 16.2807 2.94571 16.281C2.94676 16.2815 2.94788 16.282 2.94908 16.2826C2.95148 16.2837 2.95418 16.2849 2.95718 16.2862C2.96317 16.2888 2.97034 16.2917 2.9787 16.2947L3.11317 15.918C3.11322 15.918 3.11418 15.9183 3.11603 15.9191C3.11695 15.9195 3.1181 15.92 3.11947 15.9207C3.12015 15.921 3.12089 15.9214 3.12168 15.9217C3.12208 15.9219 3.12249 15.9221 3.12291 15.9224C3.12312 15.9225 3.12334 15.9226 3.12356 15.9227C3.12367 15.9227 3.12378 15.9228 3.12389 15.9228C3.12394 15.9229 3.124 15.9229 3.12406 15.9229C3.12408 15.9229 3.12411 15.923 3.12414 15.923C3.12415 15.923 3.12418 15.923 3.12418 15.923C3.1242 15.923 3.12422 15.923 3.0335 16.1013ZM2.50625 15.843C2.602 16.0309 2.75479 16.1837 2.9427 16.2795L3.1243 15.9231C3.01165 15.8657 2.92006 15.7741 2.86266 15.6614L2.50625 15.843ZM2.49103 15.807C2.49401 15.8154 2.49689 15.8225 2.49948 15.8285C2.50077 15.8315 2.50199 15.8342 2.50312 15.8366C2.50369 15.8378 2.50423 15.8389 2.50474 15.84C2.505 15.8405 2.50525 15.841 2.50549 15.8415C2.50561 15.8417 2.50573 15.842 2.50585 15.8422C2.50591 15.8423 2.50597 15.8424 2.50603 15.8426C2.50606 15.8426 2.50608 15.8427 2.50611 15.8427C2.50613 15.8428 2.50614 15.8428 2.50616 15.8428C2.50616 15.8428 2.50617 15.8429 2.50618 15.8429C2.50619 15.8429 2.5062 15.8429 2.68446 15.7522C2.86271 15.6615 2.86272 15.6615 2.86273 15.6616C2.86274 15.6616 2.86275 15.6616 2.86275 15.6616C2.86277 15.6616 2.86278 15.6617 2.8628 15.6617C2.86283 15.6617 2.86285 15.6618 2.86288 15.6619C2.86294 15.662 2.86299 15.6621 2.86305 15.6622C2.86316 15.6624 2.86327 15.6626 2.86337 15.6628C2.86358 15.6633 2.86379 15.6637 2.86398 15.6641C2.86437 15.6649 2.86472 15.6656 2.86504 15.6663C2.86568 15.6676 2.86619 15.6688 2.86659 15.6697C2.86739 15.6715 2.86773 15.6725 2.86775 15.6725L2.49103 15.807ZM2.47037 15.735C2.47803 15.7675 2.4852 15.7907 2.49103 15.807L2.86775 15.6725C2.86741 15.6716 2.86431 15.6628 2.85972 15.6433L2.47037 15.735ZM2.42541 15.4119C2.43808 15.5671 2.4545 15.6676 2.47037 15.735L2.85972 15.6433C2.84984 15.6013 2.83572 15.5218 2.82408 15.3793L2.42541 15.4119ZM2.3974 13.9519C2.3974 14.6458 2.39849 15.0824 2.42541 15.4119L2.82408 15.3793C2.7988 15.07 2.7974 14.6528 2.7974 13.9519H2.3974ZM1.2 4.04805C1.2 3.37378 1.20016 2.8801 1.23198 2.49058C1.26362 2.1034 1.32554 1.83676 1.43936 1.61338L1.08296 1.43178C0.935618 1.72096 0.866965 2.04609 0.833309 2.45801C0.799844 2.8676 0.8 3.38038 0.8 4.04805H1.2ZM1.2 13.9519V4.04805H0.8V13.9519H1.2ZM1.43936 16.3866C1.32554 16.1632 1.26362 15.8966 1.23198 15.5094C1.20016 15.1199 1.2 14.6262 1.2 13.9519H0.8C0.8 14.6196 0.799844 15.1324 0.833309 15.542C0.866965 15.9539 0.935618 16.279 1.08296 16.5682L1.43936 16.3866ZM2.39909 17.3464C1.98587 17.1358 1.64991 16.7998 1.43936 16.3866L1.08296 16.5682C1.33186 17.0567 1.72901 17.4539 2.2175 17.7028L2.39909 17.3464ZM4.83377 17.5857C4.15949 17.5857 3.66582 17.5856 3.2763 17.5537C2.88911 17.5221 2.62248 17.4602 2.39909 17.3464L2.2175 17.7028C2.50667 17.8501 2.8318 17.9188 3.24372 17.9524C3.65331 17.9859 4.16609 17.9857 4.83377 17.9857V17.5857ZM19.5299 17.5857H4.83377V17.9857H19.5299V17.5857ZM21.9645 17.3464C21.7412 17.4602 21.4745 17.5221 21.0873 17.5537C20.6978 17.5856 20.2041 17.5857 19.5299 17.5857V17.9857C20.1975 17.9857 20.7103 17.9859 21.1199 17.9524C21.5318 17.9188 21.857 17.8501 22.1461 17.7028L21.9645 17.3464ZM22.9243 16.3866C22.7137 16.7998 22.3778 17.1358 21.9645 17.3464L22.1461 17.7028C22.6346 17.4539 23.0318 17.0567 23.2807 16.5682L22.9243 16.3866ZM23.1636 13.9519C23.1636 14.6262 23.1635 15.1199 23.1317 15.5094C23.1 15.8966 23.0381 16.1632 22.9243 16.3866L23.2807 16.5682C23.428 16.279 23.4967 15.9539 23.5303 15.542C23.5638 15.1324 23.5636 14.6196 23.5636 13.9519H23.1636ZM23.1636 4.04805V13.9519H23.5636V4.04805H23.1636ZM22.9243 1.61338C23.0381 1.83676 23.1 2.1034 23.1317 2.49058C23.1635 2.88011 23.1636 3.37378 23.1636 4.04805H23.5636C23.5636 3.38038 23.5638 2.8676 23.5303 2.45801C23.4967 2.04609 23.428 1.72096 23.2807 1.43178L22.9243 1.61338ZM21.9645 0.653648C22.3778 0.864196 22.7137 1.20016 22.9243 1.61338L23.2807 1.43178C23.0318 0.943296 22.6346 0.546142 22.1461 0.297245L21.9645 0.653648ZM19.5299 0.414287C20.2041 0.414287 20.6978 0.414442 21.0873 0.446268C21.4745 0.477902 21.7412 0.539828 21.9645 0.653648L22.1461 0.297245C21.857 0.149905 21.5318 0.0812515 21.1199 0.047596C20.7103 0.0141313 20.1975 0.0142868 19.5299 0.0142868V0.414287ZM4.83377 0.414287H19.5299V0.0142868H4.83377V0.414287ZM2.39909 0.653648C2.62248 0.539828 2.88911 0.477902 3.2763 0.446268C3.66582 0.414442 4.15949 0.414287 4.83377 0.414287V0.0142868C4.16609 0.0142868 3.65331 0.0141313 3.24372 0.047596C2.8318 0.0812515 2.50667 0.149905 2.2175 0.297245L2.39909 0.653648ZM1.43936 1.61338C1.64991 1.20016 1.98587 0.864196 2.39909 0.653648L2.2175 0.297245C1.72901 0.546142 1.33186 0.943296 1.08296 1.43178L1.43936 1.61338ZM4.79416 11.3961C4.79416 11.0655 5.0622 10.7974 5.39286 10.7974V10.3974C4.84129 10.3974 4.39416 10.8445 4.39416 11.3961H4.79416ZM5.39286 11.9948C5.0622 11.9948 4.79416 11.7268 4.79416 11.3961H4.39416C4.39416 11.9477 4.84129 12.3948 5.39286 12.3948V11.9948ZM10.5844 11.9948H5.39286V12.3948H10.5844V11.9948ZM11.1831 11.3961C11.1831 11.7268 10.9151 11.9948 10.5844 11.9948V12.3948C11.136 12.3948 11.5831 11.9477 11.5831 11.3961H11.1831ZM10.5844 10.7974C10.9151 10.7974 11.1831 11.0655 11.1831 11.3961H11.5831C11.5831 10.8445 11.136 10.3974 10.5844 10.3974V10.7974ZM5.39286 10.7974H10.5844V10.3974H5.39286V10.7974Z" fill="#1F1F1F" mask="url(#path-1-outside-1_236_338)"/>
</svg>
